G04*
G04 #@! TF.GenerationSoftware,Altium Limited,Altium Designer,25.0.2 (28)*
G04*
G04 Layer_Color=8421504*
%FSLAX44Y44*%
%MOMM*%
G71*
G04*
G04 #@! TF.SameCoordinates,9CC9931D-9A39-465D-B94E-96E1981A4A0C*
G04*
G04*
G04 #@! TF.FilePolarity,Positive*
G04*
G01*
G75*
%ADD19R,0.9000X0.8000*%
%ADD20R,1.2300X1.3600*%
%ADD21R,0.6000X1.5000*%
%ADD22R,1.5000X0.6000*%
%ADD23C,0.6000*%
%ADD24R,0.6000X1.3000*%
%ADD25R,1.2000X1.4000*%
%ADD26R,1.2000X2.0000*%
%ADD27R,2.5000X1.8000*%
%ADD28R,2.8001X1.8000*%
%ADD29R,3.0000X1.8000*%
%ADD30R,1.0000X0.7500*%
%ADD31R,0.8000X0.9000*%
%ADD32R,1.4000X1.2000*%
%ADD33R,1.1999X0.6000*%
%ADD34R,0.5500X0.4500*%
%ADD35R,5.7000X2.5000*%
%ADD36R,2.5000X5.7000*%
%ADD37R,3.0000X0.4000*%
%ADD38R,1.1750X0.4900*%
%ADD39R,1.1570X0.4900*%
%ADD40R,0.4500X0.5500*%
%ADD41R,0.8000X1.0000*%
%ADD42R,0.7500X1.0000*%
%ADD43R,2.0000X2.0000*%
%ADD44R,1.0500X1.0000*%
%ADD45R,2.2000X1.0500*%
%ADD46R,0.4900X1.1750*%
%ADD47R,0.4900X1.1570*%
%ADD48R,0.7000X1.1000*%
%ADD49R,1.6000X3.5000*%
%ADD50R,3.5000X1.6000*%
%ADD51R,0.8000X0.8000*%
%ADD52R,0.6000X1.0700*%
G36*
X836518Y985873D02*
X837014Y985823D01*
X837507Y985749D01*
X837996Y985650D01*
X838479Y985527D01*
X838955Y985380D01*
X839424Y985209D01*
X839883Y985016D01*
X840333Y984799D01*
X840770Y984561D01*
X841196Y984301D01*
X841608Y984020D01*
X842005Y983719D01*
X842387Y983398D01*
X842753Y983059D01*
X843101Y982702D01*
X843431Y982328D01*
X843742Y981939D01*
X844033Y981534D01*
X844303Y981115D01*
X844553Y980683D01*
X844780Y980239D01*
X844985Y979785D01*
X845167Y979321D01*
X845326Y978848D01*
X845461Y978368D01*
X845572Y977882D01*
X845659Y977391D01*
X845721Y976896D01*
X845758Y976399D01*
X845770Y975900D01*
Y970900D01*
X845758Y970402D01*
X845721Y969905D01*
X845659Y969410D01*
X845572Y968919D01*
X845461Y968433D01*
X845326Y967953D01*
X845167Y967480D01*
X844985Y967016D01*
X844780Y966562D01*
X844553Y966118D01*
X844303Y965686D01*
X844033Y965267D01*
X843742Y964862D01*
X843431Y964473D01*
X843101Y964099D01*
X842753Y963742D01*
X842387Y963403D01*
X842005Y963082D01*
X841608Y962781D01*
X841196Y962500D01*
X840770Y962240D01*
X840333Y962002D01*
X839883Y961786D01*
X839424Y961592D01*
X838955Y961421D01*
X838479Y961274D01*
X837996Y961151D01*
X837507Y961052D01*
X837014Y960978D01*
X836518Y960928D01*
X836020Y960904D01*
X835521D01*
X835023Y960928D01*
X834527Y960978D01*
X834034Y961052D01*
X833545Y961151D01*
X833062Y961274D01*
X832586Y961421D01*
X832117Y961592D01*
X831658Y961786D01*
X831208Y962002D01*
X830770Y962240D01*
X830345Y962500D01*
X829933Y962781D01*
X829536Y963082D01*
X829154Y963403D01*
X828788Y963742D01*
X828440Y964099D01*
X828110Y964473D01*
X827799Y964862D01*
X827508Y965267D01*
X827238Y965686D01*
X826988Y966118D01*
X826761Y966562D01*
X826556Y967016D01*
X826374Y967480D01*
X826215Y967953D01*
X826080Y968433D01*
X825969Y968919D01*
X825882Y969410D01*
X825820Y969905D01*
X825783Y970402D01*
X825770Y970900D01*
Y975900D01*
X825783Y976399D01*
X825820Y976896D01*
X825882Y977391D01*
X825969Y977882D01*
X826080Y978368D01*
X826215Y978848D01*
X826374Y979321D01*
X826556Y979785D01*
X826761Y980239D01*
X826988Y980683D01*
X827238Y981115D01*
X827508Y981534D01*
X827799Y981939D01*
X828110Y982328D01*
X828440Y982702D01*
X828788Y983059D01*
X829154Y983398D01*
X829536Y983719D01*
X829933Y984020D01*
X830345Y984301D01*
X830770Y984561D01*
X831208Y984799D01*
X831658Y985016D01*
X832117Y985209D01*
X832586Y985380D01*
X833062Y985527D01*
X833545Y985650D01*
X834034Y985749D01*
X834527Y985823D01*
X835023Y985873D01*
X835521Y985897D01*
X836020D01*
X836518Y985873D01*
D02*
G37*
G36*
X691517D02*
X692013Y985823D01*
X692506Y985749D01*
X692995Y985650D01*
X693478Y985527D01*
X693954Y985380D01*
X694423Y985209D01*
X694882Y985016D01*
X695332Y984799D01*
X695770Y984561D01*
X696195Y984301D01*
X696607Y984020D01*
X697004Y983719D01*
X697386Y983398D01*
X697752Y983059D01*
X698100Y982702D01*
X698430Y982328D01*
X698741Y981939D01*
X699032Y981534D01*
X699302Y981115D01*
X699552Y980683D01*
X699779Y980239D01*
X699984Y979785D01*
X700166Y979321D01*
X700325Y978848D01*
X700460Y978368D01*
X700571Y977882D01*
X700658Y977391D01*
X700720Y976896D01*
X700757Y976399D01*
X700770Y975900D01*
Y970900D01*
X700757Y970402D01*
X700720Y969905D01*
X700658Y969410D01*
X700571Y968919D01*
X700460Y968433D01*
X700325Y967953D01*
X700166Y967480D01*
X699984Y967016D01*
X699779Y966562D01*
X699552Y966118D01*
X699302Y965686D01*
X699032Y965267D01*
X698741Y964862D01*
X698430Y964473D01*
X698100Y964099D01*
X697752Y963742D01*
X697386Y963403D01*
X697004Y963082D01*
X696607Y962781D01*
X696195Y962500D01*
X695770Y962240D01*
X695332Y962002D01*
X694882Y961786D01*
X694423Y961592D01*
X693954Y961421D01*
X693478Y961274D01*
X692995Y961151D01*
X692506Y961052D01*
X692013Y960978D01*
X691517Y960928D01*
X691019Y960904D01*
X690520D01*
X690022Y960928D01*
X689526Y960978D01*
X689033Y961052D01*
X688544Y961151D01*
X688061Y961274D01*
X687585Y961421D01*
X687116Y961592D01*
X686657Y961786D01*
X686207Y962002D01*
X685770Y962240D01*
X685344Y962500D01*
X684932Y962781D01*
X684535Y963082D01*
X684153Y963403D01*
X683787Y963742D01*
X683439Y964099D01*
X683109Y964473D01*
X682798Y964862D01*
X682507Y965267D01*
X682237Y965686D01*
X681987Y966118D01*
X681760Y966562D01*
X681555Y967016D01*
X681373Y967480D01*
X681214Y967953D01*
X681079Y968433D01*
X680968Y968919D01*
X680881Y969410D01*
X680819Y969905D01*
X680782Y970402D01*
X680770Y970900D01*
Y975900D01*
X680782Y976399D01*
X680819Y976896D01*
X680881Y977391D01*
X680968Y977882D01*
X681079Y978368D01*
X681214Y978848D01*
X681373Y979321D01*
X681555Y979785D01*
X681760Y980239D01*
X681987Y980683D01*
X682237Y981115D01*
X682507Y981534D01*
X682798Y981939D01*
X683109Y982328D01*
X683439Y982702D01*
X683787Y983059D01*
X684153Y983398D01*
X684535Y983719D01*
X684932Y984020D01*
X685344Y984301D01*
X685770Y984561D01*
X686207Y984799D01*
X686657Y985016D01*
X687116Y985209D01*
X687585Y985380D01*
X688061Y985527D01*
X688544Y985650D01*
X689033Y985749D01*
X689526Y985823D01*
X690022Y985873D01*
X690520Y985897D01*
X691019D01*
X691517Y985873D01*
D02*
G37*
G36*
X836518Y931271D02*
X837014Y931222D01*
X837507Y931148D01*
X837996Y931049D01*
X838479Y930926D01*
X838955Y930779D01*
X839424Y930608D01*
X839883Y930414D01*
X840333Y930198D01*
X840770Y929959D01*
X841196Y929700D01*
X841608Y929419D01*
X842005Y929118D01*
X842387Y928797D01*
X842753Y928458D01*
X843101Y928101D01*
X843431Y927727D01*
X843742Y927337D01*
X844033Y926933D01*
X844303Y926514D01*
X844553Y926082D01*
X844780Y925638D01*
X844985Y925184D01*
X845167Y924719D01*
X845326Y924247D01*
X845461Y923767D01*
X845572Y923281D01*
X845659Y922790D01*
X845721Y922295D01*
X845758Y921798D01*
X845770Y921299D01*
Y906299D01*
X845758Y905801D01*
X845721Y905304D01*
X845659Y904809D01*
X845572Y904318D01*
X845461Y903832D01*
X845326Y903352D01*
X845167Y902879D01*
X844985Y902415D01*
X844780Y901961D01*
X844553Y901517D01*
X844303Y901085D01*
X844033Y900666D01*
X843742Y900261D01*
X843431Y899872D01*
X843101Y899498D01*
X842753Y899141D01*
X842387Y898802D01*
X842005Y898481D01*
X841608Y898180D01*
X841196Y897899D01*
X840770Y897639D01*
X840333Y897401D01*
X839883Y897184D01*
X839424Y896991D01*
X838955Y896820D01*
X838479Y896673D01*
X837996Y896550D01*
X837507Y896451D01*
X837014Y896377D01*
X836518Y896327D01*
X836020Y896302D01*
X835521D01*
X835023Y896327D01*
X834527Y896377D01*
X834034Y896451D01*
X833545Y896550D01*
X833062Y896673D01*
X832586Y896820D01*
X832117Y896991D01*
X831658Y897184D01*
X831208Y897401D01*
X830770Y897639D01*
X830345Y897899D01*
X829933Y898180D01*
X829536Y898481D01*
X829154Y898802D01*
X828788Y899141D01*
X828440Y899498D01*
X828110Y899872D01*
X827799Y900261D01*
X827508Y900666D01*
X827238Y901085D01*
X826988Y901517D01*
X826761Y901961D01*
X826556Y902415D01*
X826374Y902879D01*
X826215Y903352D01*
X826080Y903832D01*
X825969Y904318D01*
X825882Y904809D01*
X825820Y905304D01*
X825783Y905801D01*
X825770Y906299D01*
Y921299D01*
X825783Y921798D01*
X825820Y922295D01*
X825882Y922790D01*
X825969Y923281D01*
X826080Y923767D01*
X826215Y924247D01*
X826374Y924719D01*
X826556Y925184D01*
X826761Y925638D01*
X826988Y926082D01*
X827238Y926514D01*
X827508Y926933D01*
X827799Y927337D01*
X828110Y927727D01*
X828440Y928101D01*
X828788Y928458D01*
X829154Y928797D01*
X829536Y929118D01*
X829933Y929419D01*
X830345Y929700D01*
X830770Y929959D01*
X831208Y930198D01*
X831658Y930414D01*
X832117Y930608D01*
X832586Y930779D01*
X833062Y930926D01*
X833545Y931049D01*
X834034Y931148D01*
X834527Y931222D01*
X835023Y931271D01*
X835521Y931296D01*
X836020D01*
X836518Y931271D01*
D02*
G37*
G36*
X691517D02*
X692013Y931222D01*
X692506Y931148D01*
X692995Y931049D01*
X693478Y930926D01*
X693954Y930779D01*
X694423Y930608D01*
X694882Y930414D01*
X695332Y930198D01*
X695770Y929959D01*
X696195Y929700D01*
X696607Y929419D01*
X697004Y929118D01*
X697386Y928797D01*
X697752Y928458D01*
X698100Y928101D01*
X698430Y927727D01*
X698741Y927337D01*
X699032Y926933D01*
X699302Y926514D01*
X699552Y926082D01*
X699779Y925638D01*
X699984Y925184D01*
X700166Y924719D01*
X700325Y924247D01*
X700460Y923767D01*
X700571Y923281D01*
X700658Y922790D01*
X700720Y922295D01*
X700757Y921798D01*
X700770Y921299D01*
Y906299D01*
X700757Y905801D01*
X700720Y905304D01*
X700658Y904809D01*
X700571Y904318D01*
X700460Y903832D01*
X700325Y903352D01*
X700166Y902879D01*
X699984Y902415D01*
X699779Y901961D01*
X699552Y901517D01*
X699302Y901085D01*
X699032Y900666D01*
X698741Y900261D01*
X698430Y899872D01*
X698100Y899498D01*
X697752Y899141D01*
X697386Y898802D01*
X697004Y898481D01*
X696607Y898180D01*
X696195Y897899D01*
X695770Y897639D01*
X695332Y897401D01*
X694882Y897184D01*
X694423Y896991D01*
X693954Y896820D01*
X693478Y896673D01*
X692995Y896550D01*
X692506Y896451D01*
X692013Y896377D01*
X691517Y896327D01*
X691019Y896302D01*
X690520D01*
X690022Y896327D01*
X689526Y896377D01*
X689033Y896451D01*
X688544Y896550D01*
X688061Y896673D01*
X687585Y896820D01*
X687116Y896991D01*
X686657Y897184D01*
X686207Y897401D01*
X685770Y897639D01*
X685344Y897899D01*
X684932Y898180D01*
X684535Y898481D01*
X684153Y898802D01*
X683787Y899141D01*
X683439Y899498D01*
X683109Y899872D01*
X682798Y900261D01*
X682507Y900666D01*
X682237Y901085D01*
X681987Y901517D01*
X681760Y901961D01*
X681555Y902415D01*
X681373Y902879D01*
X681214Y903352D01*
X681079Y903832D01*
X680968Y904318D01*
X680881Y904809D01*
X680819Y905304D01*
X680782Y905801D01*
X680770Y906299D01*
Y921299D01*
X680782Y921798D01*
X680819Y922295D01*
X680881Y922790D01*
X680968Y923281D01*
X681079Y923767D01*
X681214Y924247D01*
X681373Y924719D01*
X681555Y925184D01*
X681760Y925638D01*
X681987Y926082D01*
X682237Y926514D01*
X682507Y926933D01*
X682798Y927337D01*
X683109Y927727D01*
X683439Y928101D01*
X683787Y928458D01*
X684153Y928797D01*
X684535Y929118D01*
X684932Y929419D01*
X685344Y929700D01*
X685770Y929959D01*
X686207Y930198D01*
X686657Y930414D01*
X687116Y930608D01*
X687585Y930779D01*
X688061Y930926D01*
X688544Y931049D01*
X689033Y931148D01*
X689526Y931222D01*
X690022Y931271D01*
X690520Y931296D01*
X691019D01*
X691517Y931271D01*
D02*
G37*
G36*
X809769Y893201D02*
X806768D01*
Y919201D01*
X809769D01*
Y893201D01*
D02*
G37*
G36*
X804769D02*
X801768D01*
Y919201D01*
X804769D01*
Y893201D01*
D02*
G37*
G36*
X799769D02*
X796768D01*
Y919201D01*
X799769D01*
Y893201D01*
D02*
G37*
G36*
X794769D02*
X791768D01*
Y919201D01*
X794769D01*
Y893201D01*
D02*
G37*
G36*
X789769D02*
X786769D01*
Y919201D01*
X789769D01*
Y893201D01*
D02*
G37*
G36*
X784769D02*
X781769D01*
Y919201D01*
X784769D01*
Y893201D01*
D02*
G37*
G36*
X779769D02*
X776768D01*
Y919201D01*
X779769D01*
Y893201D01*
D02*
G37*
G36*
X774769D02*
X771768D01*
Y919201D01*
X774769D01*
Y893201D01*
D02*
G37*
G36*
X769769D02*
X766768D01*
Y919201D01*
X769769D01*
Y893201D01*
D02*
G37*
G36*
X764769D02*
X761768D01*
Y919201D01*
X764769D01*
Y893201D01*
D02*
G37*
G36*
X759769D02*
X756768D01*
Y919201D01*
X759769D01*
Y893201D01*
D02*
G37*
G36*
X754769D02*
X751768D01*
Y919201D01*
X754769D01*
Y893201D01*
D02*
G37*
G36*
X749769D02*
X746768D01*
Y919201D01*
X749769D01*
Y893201D01*
D02*
G37*
G36*
X744768D02*
X741768D01*
Y919201D01*
X744768D01*
Y893201D01*
D02*
G37*
G36*
X739768D02*
X736768D01*
Y919201D01*
X739768D01*
Y893201D01*
D02*
G37*
G36*
X734769D02*
X731768D01*
Y919201D01*
X734769D01*
Y893201D01*
D02*
G37*
G36*
X729769D02*
X726768D01*
Y919201D01*
X729769D01*
Y893201D01*
D02*
G37*
G36*
X724769D02*
X721768D01*
Y919201D01*
X724769D01*
Y893201D01*
D02*
G37*
G36*
X719769D02*
X716768D01*
Y919201D01*
X719769D01*
Y893201D01*
D02*
G37*
G36*
X848813Y877101D02*
Y872301D01*
X848314Y871601D01*
X843813D01*
X843314Y872301D01*
Y877101D01*
X843813Y877601D01*
X848314D01*
X848813Y877101D01*
D02*
G37*
G36*
X834550Y875436D02*
Y870430D01*
X834150Y870030D01*
X829550D01*
X829150Y870430D01*
Y875436D01*
X829550Y875836D01*
X834150D01*
X834550Y875436D01*
D02*
G37*
G36*
X771258Y867516D02*
X769256D01*
Y867519D01*
X769254D01*
X769246Y874164D01*
X771258D01*
Y867516D01*
D02*
G37*
G36*
X766259D02*
X764258D01*
Y867519D01*
X764255D01*
X764248Y874164D01*
X766259D01*
Y867516D01*
D02*
G37*
G36*
X756259D02*
X754258D01*
Y867519D01*
X754255D01*
X754248Y874164D01*
X756259D01*
Y867516D01*
D02*
G37*
G36*
X751258Y867516D02*
X749256D01*
Y867519D01*
X749254D01*
X749246Y874163D01*
X751258D01*
Y867516D01*
D02*
G37*
G36*
X762254Y867513D02*
X758258D01*
Y867511D01*
X758257Y874165D01*
X762254D01*
Y867513D01*
D02*
G37*
G36*
X736766Y865726D02*
X734765D01*
Y865729D01*
X734762D01*
X734755Y872373D01*
X736766D01*
Y865726D01*
D02*
G37*
G36*
X731768D02*
X729766D01*
Y865729D01*
X729763D01*
X729756Y872373D01*
X731768D01*
Y865726D01*
D02*
G37*
G36*
X721768D02*
X719766D01*
Y865729D01*
X719764D01*
X719756Y872373D01*
X721768D01*
Y865726D01*
D02*
G37*
G36*
X716766Y865726D02*
X714765D01*
Y865729D01*
X714762D01*
X714755Y872373D01*
X716766D01*
Y865726D01*
D02*
G37*
G36*
X727762Y865723D02*
X723766D01*
Y865721D01*
X723765Y872375D01*
X727762D01*
Y865723D01*
D02*
G37*
G36*
X377045Y867242D02*
Y862741D01*
X376545Y862242D01*
X371744D01*
X371045Y862741D01*
Y867242D01*
X371744Y867741D01*
X376545D01*
X377045Y867242D01*
D02*
G37*
G36*
X367445D02*
Y862741D01*
X366744Y862242D01*
X361945D01*
X361445Y862741D01*
Y867242D01*
X361945Y867741D01*
X366744D01*
X367445Y867242D01*
D02*
G37*
G36*
X848813Y867301D02*
Y862501D01*
X848314Y862001D01*
X843813D01*
X843314Y862501D01*
Y867301D01*
X843813Y868001D01*
X848314D01*
X848813Y867301D01*
D02*
G37*
G36*
X834550Y866930D02*
Y861924D01*
X834150Y861524D01*
X829550D01*
X829150Y861924D01*
Y866930D01*
X829550Y867330D01*
X834150D01*
X834550Y866930D01*
D02*
G37*
G36*
X771258Y858860D02*
X769256D01*
Y858863D01*
X769254D01*
X769246Y865507D01*
X771258D01*
Y858860D01*
D02*
G37*
G36*
X766259D02*
X764258D01*
Y858863D01*
X764255D01*
X764248Y865507D01*
X766259D01*
Y858860D01*
D02*
G37*
G36*
X756259D02*
X754258D01*
Y858863D01*
X754255D01*
X754248Y865507D01*
X756259D01*
Y858860D01*
D02*
G37*
G36*
X751258Y858860D02*
X749256D01*
Y858862D01*
X749254D01*
X749246Y865507D01*
X751258D01*
Y858860D01*
D02*
G37*
G36*
X762254Y858856D02*
X758259D01*
Y858855D01*
X758258Y865509D01*
X762254D01*
Y858856D01*
D02*
G37*
G36*
X736766Y857070D02*
X734765D01*
Y857072D01*
X734762D01*
X734755Y863717D01*
X736766D01*
Y857070D01*
D02*
G37*
G36*
X731768D02*
X729766D01*
Y857072D01*
X729764D01*
X729756Y863717D01*
X731768D01*
Y857070D01*
D02*
G37*
G36*
X721768D02*
X719766D01*
Y857072D01*
X719764D01*
X719756Y863717D01*
X721768D01*
Y857070D01*
D02*
G37*
G36*
X716766Y857070D02*
X714765D01*
Y857072D01*
X714762D01*
X714755Y863717D01*
X716766D01*
Y857070D01*
D02*
G37*
G36*
X727763Y857066D02*
X723767D01*
Y857065D01*
X723766Y863719D01*
X727763D01*
Y857066D01*
D02*
G37*
G36*
X974273Y860950D02*
Y856350D01*
X973873Y855950D01*
X968867D01*
X968466Y856350D01*
Y860950D01*
X968867Y861350D01*
X973873D01*
X974273Y860950D01*
D02*
G37*
G36*
X965767D02*
Y856350D01*
X965366Y855950D01*
X960360D01*
X959960Y856350D01*
Y860950D01*
X960360Y861350D01*
X965366D01*
X965767Y860950D01*
D02*
G37*
G36*
X943096D02*
Y856350D01*
X942696Y855950D01*
X937689D01*
X937289Y856350D01*
Y860950D01*
X937689Y861350D01*
X942696D01*
X943096Y860950D01*
D02*
G37*
G36*
X934589D02*
Y856350D01*
X934189Y855950D01*
X929183D01*
X928783Y856350D01*
Y860950D01*
X929183Y861350D01*
X934189D01*
X934589Y860950D01*
D02*
G37*
G36*
X943104Y845403D02*
Y840603D01*
X942604Y839903D01*
X938104D01*
X937604Y840603D01*
Y845403D01*
X938104Y845903D01*
X942604D01*
X943104Y845403D01*
D02*
G37*
G36*
X965410Y844601D02*
Y839801D01*
X964910Y839101D01*
X960410D01*
X959910Y839801D01*
Y844601D01*
X960410Y845101D01*
X964910D01*
X965410Y844601D01*
D02*
G37*
G36*
X831590Y842962D02*
Y838162D01*
X831090Y837462D01*
X826590D01*
X826090Y838162D01*
Y842962D01*
X826590Y843462D01*
X831090D01*
X831590Y842962D01*
D02*
G37*
G36*
X943104Y835603D02*
Y830803D01*
X942604Y830303D01*
X938104D01*
X937604Y830803D01*
Y835603D01*
X938104Y836303D01*
X942604D01*
X943104Y835603D01*
D02*
G37*
G36*
X965410Y834801D02*
Y830001D01*
X964910Y829501D01*
X960410D01*
X959910Y830001D01*
Y834801D01*
X960410Y835501D01*
X964910D01*
X965410Y834801D01*
D02*
G37*
G36*
X831590Y833162D02*
Y828362D01*
X831090Y827861D01*
X826590D01*
X826090Y828362D01*
Y833162D01*
X826590Y833861D01*
X831090D01*
X831590Y833162D01*
D02*
G37*
G36*
X564722Y827775D02*
X562720D01*
Y827778D01*
X562718D01*
X562711Y834423D01*
X564722D01*
Y827775D01*
D02*
G37*
G36*
X559723D02*
X557722D01*
Y827778D01*
X557719D01*
X557712Y834423D01*
X559723D01*
Y827775D01*
D02*
G37*
G36*
X549723D02*
X547722D01*
Y827778D01*
X547719D01*
X547712Y834423D01*
X549723D01*
Y827775D01*
D02*
G37*
G36*
X544722Y827775D02*
X542720D01*
Y827778D01*
X542718D01*
X542711Y834422D01*
X544722D01*
Y827775D01*
D02*
G37*
G36*
X555718Y827772D02*
X551722D01*
Y827770D01*
X551721Y834424D01*
X555718D01*
Y827772D01*
D02*
G37*
G36*
X488076Y827761D02*
Y823261D01*
X487576Y822761D01*
X482776D01*
X482076Y823261D01*
Y827761D01*
X482776Y828261D01*
X487576D01*
X488076Y827761D01*
D02*
G37*
G36*
X478476D02*
Y823261D01*
X477776Y822761D01*
X472976D01*
X472476Y823261D01*
Y827761D01*
X472976Y828261D01*
X477776D01*
X478476Y827761D01*
D02*
G37*
G36*
X377245Y826530D02*
Y821930D01*
X376845Y821530D01*
X371838D01*
X371438Y821930D01*
Y826530D01*
X371838Y826930D01*
X376845D01*
X377245Y826530D01*
D02*
G37*
G36*
X368738D02*
Y821930D01*
X368338Y821530D01*
X363332D01*
X362932Y821930D01*
Y826530D01*
X363332Y826930D01*
X368338D01*
X368738Y826530D01*
D02*
G37*
G36*
X634348Y826293D02*
Y821793D01*
X633848Y821293D01*
X629048D01*
X628348Y821793D01*
Y826293D01*
X629048Y826793D01*
X633848D01*
X634348Y826293D01*
D02*
G37*
G36*
X624748D02*
Y821793D01*
X624048Y821293D01*
X619248D01*
X618748Y821793D01*
Y826293D01*
X619248Y826793D01*
X624048D01*
X624748Y826293D01*
D02*
G37*
G36*
X564722Y819119D02*
X562720D01*
Y819122D01*
X562718D01*
X562711Y825766D01*
X564722D01*
Y819119D01*
D02*
G37*
G36*
X559724D02*
X557722D01*
Y819122D01*
X557719D01*
X557712Y825766D01*
X559724D01*
Y819119D01*
D02*
G37*
G36*
X549723D02*
X547722D01*
Y819122D01*
X547719D01*
X547712Y825766D01*
X549723D01*
Y819119D01*
D02*
G37*
G36*
X544722Y819119D02*
X542720D01*
Y819121D01*
X542718D01*
X542711Y825766D01*
X544722D01*
Y819119D01*
D02*
G37*
G36*
X555719Y819115D02*
X551723D01*
Y819114D01*
X551722Y825768D01*
X555719D01*
Y819115D01*
D02*
G37*
G36*
X491307Y816611D02*
Y812011D01*
X490907Y811611D01*
X485901D01*
X485501Y812011D01*
Y816611D01*
X485901Y817011D01*
X490907D01*
X491307Y816611D01*
D02*
G37*
G36*
X482801D02*
Y812011D01*
X482401Y811611D01*
X477395D01*
X476995Y812011D01*
Y816611D01*
X477395Y817011D01*
X482401D01*
X482801Y816611D01*
D02*
G37*
G36*
X633749Y816307D02*
Y811707D01*
X633349Y811307D01*
X628343D01*
X627943Y811707D01*
Y816307D01*
X628343Y816707D01*
X633349D01*
X633749Y816307D01*
D02*
G37*
G36*
X625243D02*
Y811707D01*
X624842Y811307D01*
X619836D01*
X619436Y811707D01*
Y816307D01*
X619836Y816707D01*
X624842D01*
X625243Y816307D01*
D02*
G37*
G36*
X398940Y805586D02*
Y800580D01*
X398540Y800180D01*
X393940D01*
X393540Y800580D01*
Y805586D01*
X393940Y805986D01*
X398540D01*
X398940Y805586D01*
D02*
G37*
G36*
X306569Y802938D02*
Y797932D01*
X306168Y797532D01*
X301569D01*
X301168Y797932D01*
Y802938D01*
X301569Y803338D01*
X306168D01*
X306569Y802938D01*
D02*
G37*
G36*
X345569Y802012D02*
Y797006D01*
X345169Y796606D01*
X340569D01*
X340169Y797006D01*
Y802012D01*
X340569Y802412D01*
X345169D01*
X345569Y802012D01*
D02*
G37*
G36*
X867008Y798887D02*
Y794287D01*
X866608Y793887D01*
X861602D01*
X861202Y794287D01*
Y798887D01*
X861602Y799287D01*
X866608D01*
X867008Y798887D01*
D02*
G37*
G36*
X858502D02*
Y794287D01*
X858102Y793887D01*
X853095D01*
X852695Y794287D01*
Y798887D01*
X853095Y799287D01*
X858102D01*
X858502Y798887D01*
D02*
G37*
G36*
X829347D02*
Y794287D01*
X828947Y793887D01*
X823941D01*
X823540Y794287D01*
Y798887D01*
X823941Y799287D01*
X828947D01*
X829347Y798887D01*
D02*
G37*
G36*
X820841D02*
Y794287D01*
X820440Y793887D01*
X815434D01*
X815034Y794287D01*
Y798887D01*
X815434Y799287D01*
X820440D01*
X820841Y798887D01*
D02*
G37*
G36*
X398940Y797080D02*
Y792074D01*
X398540Y791674D01*
X393940D01*
X393540Y792074D01*
Y797080D01*
X393940Y797480D01*
X398540D01*
X398940Y797080D01*
D02*
G37*
G36*
X658249Y795564D02*
Y790557D01*
X657849Y790157D01*
X653249D01*
X652849Y790557D01*
Y795564D01*
X653249Y795964D01*
X657849D01*
X658249Y795564D01*
D02*
G37*
G36*
X306569Y794432D02*
Y789425D01*
X306168Y789025D01*
X301569D01*
X301168Y789425D01*
Y794432D01*
X301569Y794832D01*
X306168D01*
X306569Y794432D01*
D02*
G37*
G36*
X514510Y794156D02*
Y789150D01*
X514110Y788750D01*
X509510D01*
X509110Y789150D01*
Y794156D01*
X509510Y794556D01*
X514110D01*
X514510Y794156D01*
D02*
G37*
G36*
X345569Y793506D02*
Y788500D01*
X345169Y788100D01*
X340569D01*
X340169Y788500D01*
Y793506D01*
X340569Y793906D01*
X345169D01*
X345569Y793506D01*
D02*
G37*
G36*
X248742Y792815D02*
Y787809D01*
X248342Y787409D01*
X243742D01*
X243342Y787809D01*
Y792815D01*
X243742Y793215D01*
X248342D01*
X248742Y792815D01*
D02*
G37*
G36*
X213520Y791616D02*
Y786610D01*
X213120Y786210D01*
X208520D01*
X208120Y786610D01*
Y791616D01*
X208520Y792016D01*
X213120D01*
X213520Y791616D01*
D02*
G37*
G36*
X750132Y788548D02*
Y783541D01*
X749732Y783141D01*
X745132D01*
X744732Y783541D01*
Y788548D01*
X745132Y788948D01*
X749732D01*
X750132Y788548D01*
D02*
G37*
G36*
X126056Y787160D02*
Y782560D01*
X125656Y782160D01*
X120650D01*
X120250Y782560D01*
Y787160D01*
X120650Y787560D01*
X125656D01*
X126056Y787160D01*
D02*
G37*
G36*
X117550D02*
Y782560D01*
X117150Y782160D01*
X112143D01*
X111743Y782560D01*
Y787160D01*
X112143Y787560D01*
X117150D01*
X117550Y787160D01*
D02*
G37*
G36*
X98210D02*
Y782560D01*
X97810Y782160D01*
X92804D01*
X92403Y782560D01*
Y787160D01*
X92804Y787560D01*
X97810D01*
X98210Y787160D01*
D02*
G37*
G36*
X89704D02*
Y782560D01*
X89304Y782160D01*
X84297D01*
X83897Y782560D01*
Y787160D01*
X84297Y787560D01*
X89304D01*
X89704Y787160D01*
D02*
G37*
G36*
X658249Y787057D02*
Y782051D01*
X657849Y781651D01*
X653249D01*
X652849Y782051D01*
Y787057D01*
X653249Y787457D01*
X657849D01*
X658249Y787057D01*
D02*
G37*
G36*
X514510Y785650D02*
Y780644D01*
X514110Y780244D01*
X509510D01*
X509110Y780644D01*
Y785650D01*
X509510Y786050D01*
X514110D01*
X514510Y785650D01*
D02*
G37*
G36*
X248742Y784309D02*
Y779303D01*
X248342Y778903D01*
X243742D01*
X243342Y779303D01*
Y784309D01*
X243742Y784709D01*
X248342D01*
X248742Y784309D01*
D02*
G37*
G36*
X213520Y783110D02*
Y778104D01*
X213120Y777703D01*
X208520D01*
X208120Y778104D01*
Y783110D01*
X208520Y783510D01*
X213120D01*
X213520Y783110D01*
D02*
G37*
G36*
X750132Y780041D02*
Y775035D01*
X749732Y774635D01*
X745132D01*
X744732Y775035D01*
Y780041D01*
X745132Y780441D01*
X749732D01*
X750132Y780041D01*
D02*
G37*
G36*
X376726Y779540D02*
Y774940D01*
X376326Y774540D01*
X371320D01*
X370920Y774940D01*
Y779540D01*
X371320Y779940D01*
X376326D01*
X376726Y779540D01*
D02*
G37*
G36*
X368220D02*
Y774940D01*
X367820Y774540D01*
X362814D01*
X362413Y774940D01*
Y779540D01*
X362814Y779940D01*
X367820D01*
X368220Y779540D01*
D02*
G37*
G36*
X496049Y766057D02*
Y761457D01*
X495649Y761057D01*
X490643D01*
X490243Y761457D01*
Y766057D01*
X490643Y766457D01*
X495649D01*
X496049Y766057D01*
D02*
G37*
G36*
X487543D02*
Y761457D01*
X487143Y761057D01*
X482136D01*
X481736Y761457D01*
Y766057D01*
X482136Y766457D01*
X487143D01*
X487543Y766057D01*
D02*
G37*
G36*
X637887Y765136D02*
Y760536D01*
X637487Y760136D01*
X632481D01*
X632081Y760536D01*
Y765136D01*
X632481Y765536D01*
X637487D01*
X637887Y765136D01*
D02*
G37*
G36*
X629381D02*
Y760536D01*
X628981Y760136D01*
X623974D01*
X623574Y760536D01*
Y765136D01*
X623974Y765536D01*
X628981D01*
X629381Y765136D01*
D02*
G37*
G36*
X93330Y768066D02*
X95155Y767299D01*
X96551Y765894D01*
X97305Y764063D01*
Y762083D01*
X96551Y760253D01*
X95155Y758848D01*
X93330Y758080D01*
X92340Y758073D01*
Y758073D01*
X78340Y758073D01*
X77350Y758080D01*
X75525Y758848D01*
X74130Y760253D01*
X73376Y762083D01*
Y764063D01*
X74130Y765894D01*
X75525Y767299D01*
X77350Y768066D01*
X78340Y768073D01*
X92340D01*
X93330Y768066D01*
D02*
G37*
G36*
X139609Y767270D02*
X140735Y766145D01*
X141344Y764674D01*
Y763879D01*
Y762879D01*
Y762083D01*
X140735Y760613D01*
X139609Y759488D01*
X138139Y758879D01*
X130344D01*
Y757879D01*
Y756884D01*
X129582Y755046D01*
X128176Y753640D01*
X126338Y752879D01*
X124349D01*
X122511Y753640D01*
X121105Y755046D01*
X120344Y756884D01*
Y757879D01*
Y758879D01*
Y762879D01*
Y763873D01*
X121105Y765711D01*
X122511Y767118D01*
X124349Y767879D01*
X138139D01*
X139609Y767270D01*
D02*
G37*
G36*
X129088Y747075D02*
X119588D01*
Y750074D01*
X129088D01*
Y747075D01*
D02*
G37*
G36*
X142089Y744575D02*
X132589D01*
Y747575D01*
X142089D01*
Y744575D01*
D02*
G37*
G36*
X129088Y742074D02*
X119588D01*
Y745075D01*
X129088D01*
Y742074D01*
D02*
G37*
G36*
X142089Y739574D02*
X132589D01*
Y742574D01*
X142089D01*
Y739574D01*
D02*
G37*
G36*
X821876Y742357D02*
Y737757D01*
X821476Y737357D01*
X816469D01*
X816069Y737757D01*
Y742357D01*
X816469Y742757D01*
X821476D01*
X821876Y742357D01*
D02*
G37*
G36*
X813369D02*
Y737757D01*
X812969Y737357D01*
X807963D01*
X807563Y737757D01*
Y742357D01*
X807963Y742757D01*
X812969D01*
X813369Y742357D01*
D02*
G37*
G36*
X129088Y737074D02*
X119588D01*
Y740074D01*
X129088D01*
Y737074D01*
D02*
G37*
G36*
X870680Y741264D02*
Y736664D01*
X870280Y736264D01*
X865273D01*
X864873Y736664D01*
Y741264D01*
X865273Y741664D01*
X870280D01*
X870680Y741264D01*
D02*
G37*
G36*
X862173D02*
Y736664D01*
X861773Y736264D01*
X856767D01*
X856367Y736664D01*
Y741264D01*
X856767Y741664D01*
X861773D01*
X862173Y741264D01*
D02*
G37*
G36*
X775705Y741186D02*
Y736586D01*
X775305Y736186D01*
X770299D01*
X769899Y736586D01*
Y741186D01*
X770299Y741586D01*
X775305D01*
X775705Y741186D01*
D02*
G37*
G36*
X767198D02*
Y736586D01*
X766798Y736186D01*
X761792D01*
X761392Y736586D01*
Y741186D01*
X761792Y741586D01*
X766798D01*
X767198Y741186D01*
D02*
G37*
G36*
X142089Y734575D02*
X132589D01*
Y737574D01*
X142089D01*
Y734575D01*
D02*
G37*
G36*
X129088Y732074D02*
X119588D01*
Y735074D01*
X129088D01*
Y732074D01*
D02*
G37*
G36*
X142089Y729575D02*
X132589D01*
Y732575D01*
X142089D01*
Y729575D01*
D02*
G37*
G36*
X129088Y727074D02*
X119588D01*
Y730075D01*
X129088D01*
Y727074D01*
D02*
G37*
G36*
X142089Y724574D02*
X132589D01*
Y727575D01*
X142089D01*
Y724574D01*
D02*
G37*
G36*
X129088Y722075D02*
X119588D01*
Y725075D01*
X129088D01*
Y722075D01*
D02*
G37*
G36*
X142089Y719575D02*
X132589D01*
Y722574D01*
X142089D01*
Y719575D01*
D02*
G37*
G36*
X129088Y717074D02*
X119588D01*
Y720074D01*
X129088D01*
Y717074D01*
D02*
G37*
G36*
X142089Y714574D02*
X132589D01*
Y717574D01*
X142089D01*
Y714574D01*
D02*
G37*
G36*
X129088Y712074D02*
X119588D01*
Y715074D01*
X129088D01*
Y712074D01*
D02*
G37*
G36*
X779991Y715469D02*
Y710869D01*
X779591Y710469D01*
X774585D01*
X774184Y710869D01*
Y715469D01*
X774585Y715869D01*
X779591D01*
X779991Y715469D01*
D02*
G37*
G36*
X771485D02*
Y710869D01*
X771085Y710469D01*
X766078D01*
X765678Y710869D01*
Y715469D01*
X766078Y715869D01*
X771085D01*
X771485Y715469D01*
D02*
G37*
G36*
X142089Y709575D02*
X132589D01*
Y712575D01*
X142089D01*
Y709575D01*
D02*
G37*
G36*
X129088Y707074D02*
X119588D01*
Y710074D01*
X129088D01*
Y707074D01*
D02*
G37*
G36*
X142089Y704575D02*
X132589D01*
Y707574D01*
X142089D01*
Y704575D01*
D02*
G37*
G36*
X129088Y702075D02*
X119588D01*
Y705074D01*
X129088D01*
Y702075D01*
D02*
G37*
G36*
X142089Y699574D02*
X132589D01*
Y702575D01*
X142089D01*
Y699574D01*
D02*
G37*
G36*
X129088Y697075D02*
X119588D01*
Y700075D01*
X129088D01*
Y697075D01*
D02*
G37*
G36*
X142089Y694575D02*
X132589D01*
Y697574D01*
X142089D01*
Y694575D01*
D02*
G37*
G36*
X129088Y692075D02*
X119588D01*
Y695074D01*
X129088D01*
Y692075D01*
D02*
G37*
G36*
X142089Y689575D02*
X132589D01*
Y692574D01*
X142089D01*
Y689575D01*
D02*
G37*
G36*
X191761Y689414D02*
Y684913D01*
X191261Y684414D01*
X186461D01*
X185761Y684913D01*
Y689414D01*
X186461Y689913D01*
X191261D01*
X191761Y689414D01*
D02*
G37*
G36*
X182161D02*
Y684913D01*
X181461Y684414D01*
X176661D01*
X176161Y684913D01*
Y689414D01*
X176661Y689913D01*
X181461D01*
X182161Y689414D01*
D02*
G37*
G36*
X93326Y681664D02*
X95146Y680894D01*
X96536Y679490D01*
X97288Y677663D01*
Y675686D01*
X96536Y673859D01*
X95146Y672455D01*
X93326Y671685D01*
X92338Y671675D01*
X78338D01*
X77350Y671685D01*
X75530Y672455D01*
X74140Y673859D01*
X73388Y675686D01*
Y677663D01*
X74140Y679490D01*
X75530Y680894D01*
X77350Y681664D01*
X78338Y681674D01*
X78338Y681674D01*
X92338D01*
Y681674D01*
X93326Y681664D01*
D02*
G37*
G36*
X512507Y682736D02*
Y677729D01*
X512107Y677329D01*
X507507D01*
X507107Y677729D01*
Y682736D01*
X507507Y683136D01*
X512107D01*
X512507Y682736D01*
D02*
G37*
G36*
X502619D02*
Y677729D01*
X502219Y677329D01*
X497619D01*
X497219Y677729D01*
Y682736D01*
X497619Y683136D01*
X502219D01*
X502619Y682736D01*
D02*
G37*
G36*
X492558D02*
Y677729D01*
X492158Y677329D01*
X487558D01*
X487158Y677729D01*
Y682736D01*
X487558Y683136D01*
X492158D01*
X492558Y682736D01*
D02*
G37*
G36*
X482761D02*
Y677729D01*
X482360Y677329D01*
X477761D01*
X477360Y677729D01*
Y682736D01*
X477761Y683136D01*
X482360D01*
X482761Y682736D01*
D02*
G37*
G36*
X128176Y686413D02*
X129582Y685006D01*
X130344Y683169D01*
Y682174D01*
Y681174D01*
X138139D01*
X139609Y680565D01*
X140735Y679440D01*
X141344Y677970D01*
Y677174D01*
Y676174D01*
Y675378D01*
X140735Y673908D01*
X139609Y672783D01*
X138139Y672174D01*
X124349D01*
X122511Y672935D01*
X121105Y674342D01*
X120344Y676180D01*
Y677174D01*
Y681174D01*
Y682174D01*
Y683169D01*
X121105Y685006D01*
X122511Y686413D01*
X124349Y687174D01*
X126338D01*
X128176Y686413D01*
D02*
G37*
G36*
X655255Y676246D02*
Y671646D01*
X654854Y671246D01*
X649848D01*
X649448Y671646D01*
Y676246D01*
X649848Y676646D01*
X654854D01*
X655255Y676246D01*
D02*
G37*
G36*
X646748D02*
Y671646D01*
X646348Y671246D01*
X641342D01*
X640942Y671646D01*
Y676246D01*
X641342Y676646D01*
X646348D01*
X646748Y676246D01*
D02*
G37*
G36*
X679796Y676121D02*
Y671621D01*
X679296Y671121D01*
X674496D01*
X673796Y671621D01*
Y676121D01*
X674496Y676621D01*
X679296D01*
X679796Y676121D01*
D02*
G37*
G36*
X670196D02*
Y671621D01*
X669496Y671121D01*
X664696D01*
X664196Y671621D01*
Y676121D01*
X664696Y676621D01*
X669496D01*
X670196Y676121D01*
D02*
G37*
G36*
X512507Y674229D02*
Y669223D01*
X512107Y668823D01*
X507507D01*
X507107Y669223D01*
Y674229D01*
X507507Y674629D01*
X512107D01*
X512507Y674229D01*
D02*
G37*
G36*
X502619D02*
Y669223D01*
X502219Y668823D01*
X497619D01*
X497219Y669223D01*
Y674229D01*
X497619Y674629D01*
X502219D01*
X502619Y674229D01*
D02*
G37*
G36*
X492558D02*
Y669223D01*
X492158Y668823D01*
X487558D01*
X487158Y669223D01*
Y674229D01*
X487558Y674629D01*
X492158D01*
X492558Y674229D01*
D02*
G37*
G36*
X482761D02*
Y669223D01*
X482360Y668823D01*
X477761D01*
X477360Y669223D01*
Y674229D01*
X477761Y674629D01*
X482360D01*
X482761Y674229D01*
D02*
G37*
G36*
X576284Y659071D02*
Y654271D01*
X575784Y653571D01*
X571284D01*
X570784Y654271D01*
Y659071D01*
X571284Y659572D01*
X575784D01*
X576284Y659071D01*
D02*
G37*
G36*
X566370D02*
Y654271D01*
X565870Y653571D01*
X561370D01*
X560870Y654271D01*
Y659071D01*
X561370Y659572D01*
X565870D01*
X566370Y659071D01*
D02*
G37*
G36*
X492460Y655094D02*
Y650294D01*
X491960Y649594D01*
X487460D01*
X486960Y650294D01*
Y655094D01*
X487460Y655594D01*
X491960D01*
X492460Y655094D01*
D02*
G37*
G36*
X482421Y654859D02*
Y650059D01*
X481921Y649359D01*
X477421D01*
X476921Y650059D01*
Y654859D01*
X477421Y655359D01*
X481921D01*
X482421Y654859D01*
D02*
G37*
G36*
X734673Y653010D02*
Y648510D01*
X734173Y648010D01*
X729372D01*
X728673Y648510D01*
Y653010D01*
X729372Y653510D01*
X734173D01*
X734673Y653010D01*
D02*
G37*
G36*
X725073D02*
Y648510D01*
X724372Y648010D01*
X719573D01*
X719073Y648510D01*
Y653010D01*
X719573Y653510D01*
X724372D01*
X725073Y653010D01*
D02*
G37*
G36*
X619923Y652346D02*
Y647546D01*
X619424Y646847D01*
X614923D01*
X614424Y647546D01*
Y652346D01*
X614923Y652847D01*
X619424D01*
X619923Y652346D01*
D02*
G37*
G36*
X576284Y649271D02*
Y644472D01*
X575784Y643971D01*
X571284D01*
X570784Y644472D01*
Y649271D01*
X571284Y649971D01*
X575784D01*
X576284Y649271D01*
D02*
G37*
G36*
X566370D02*
Y644472D01*
X565870Y643971D01*
X561370D01*
X560870Y644472D01*
Y649271D01*
X561370Y649971D01*
X565870D01*
X566370Y649271D01*
D02*
G37*
G36*
X492460Y645294D02*
Y640494D01*
X491960Y639994D01*
X487460D01*
X486960Y640494D01*
Y645294D01*
X487460Y645994D01*
X491960D01*
X492460Y645294D01*
D02*
G37*
G36*
X482421Y645059D02*
Y640259D01*
X481921Y639759D01*
X477421D01*
X476921Y640259D01*
Y645059D01*
X477421Y645759D01*
X481921D01*
X482421Y645059D01*
D02*
G37*
G36*
X619923Y642546D02*
Y637747D01*
X619424Y637246D01*
X614923D01*
X614424Y637747D01*
Y642546D01*
X614923Y643246D01*
X619424D01*
X619923Y642546D01*
D02*
G37*
G36*
X642830Y642300D02*
Y637500D01*
X642330Y636800D01*
X637830D01*
X637330Y637500D01*
Y642300D01*
X637830Y642800D01*
X642330D01*
X642830Y642300D01*
D02*
G37*
G36*
X734425Y640438D02*
Y635938D01*
X733924Y635438D01*
X729124D01*
X728425Y635938D01*
Y640438D01*
X729124Y640938D01*
X733924D01*
X734425Y640438D01*
D02*
G37*
G36*
X724824D02*
Y635938D01*
X724124Y635438D01*
X719324D01*
X718824Y635938D01*
Y640438D01*
X719324Y640938D01*
X724124D01*
X724824Y640438D01*
D02*
G37*
G36*
X642830Y632500D02*
Y627700D01*
X642330Y627200D01*
X637830D01*
X637330Y627700D01*
Y632500D01*
X637830Y633200D01*
X642330D01*
X642830Y632500D01*
D02*
G37*
G36*
X734564Y627791D02*
Y623291D01*
X734063Y622791D01*
X729263D01*
X728564Y623291D01*
Y627791D01*
X729263Y628291D01*
X734063D01*
X734564Y627791D01*
D02*
G37*
G36*
X724963D02*
Y623291D01*
X724263Y622791D01*
X719464D01*
X718963Y623291D01*
Y627791D01*
X719464Y628291D01*
X724263D01*
X724963Y627791D01*
D02*
G37*
G36*
X734494Y615353D02*
Y610853D01*
X733994Y610353D01*
X729194D01*
X728494Y610853D01*
Y615353D01*
X729194Y615853D01*
X733994D01*
X734494Y615353D01*
D02*
G37*
G36*
X724894D02*
Y610853D01*
X724194Y610353D01*
X719394D01*
X718894Y610853D01*
Y615353D01*
X719394Y615853D01*
X724194D01*
X724894Y615353D01*
D02*
G37*
G36*
X644100Y613090D02*
Y608290D01*
X643600Y607590D01*
X639100D01*
X638600Y608290D01*
Y613090D01*
X639100Y613590D01*
X643600D01*
X644100Y613090D01*
D02*
G37*
G36*
X391137Y608986D02*
Y604186D01*
X390637Y603486D01*
X386137D01*
X385637Y604186D01*
Y608986D01*
X386137Y609486D01*
X390637D01*
X391137Y608986D01*
D02*
G37*
G36*
X381432Y608841D02*
Y604041D01*
X380932Y603341D01*
X376432D01*
X375932Y604041D01*
Y608841D01*
X376432Y609341D01*
X380932D01*
X381432Y608841D01*
D02*
G37*
G36*
X273260Y605470D02*
Y600670D01*
X272760Y599970D01*
X268260D01*
X267760Y600670D01*
Y605470D01*
X268260Y605970D01*
X272760D01*
X273260Y605470D01*
D02*
G37*
G36*
X644100Y603290D02*
Y598490D01*
X643600Y597990D01*
X639100D01*
X638600Y598490D01*
Y603290D01*
X639100Y603990D01*
X643600D01*
X644100Y603290D01*
D02*
G37*
G36*
X460753Y602788D02*
Y597782D01*
X460353Y597382D01*
X455753D01*
X455353Y597782D01*
Y602788D01*
X455753Y603188D01*
X460353D01*
X460753Y602788D01*
D02*
G37*
G36*
X632647Y601379D02*
Y596373D01*
X632247Y595973D01*
X627647D01*
X627247Y596373D01*
Y601379D01*
X627647Y601779D01*
X632247D01*
X632647Y601379D01*
D02*
G37*
G36*
X756651Y601338D02*
Y596332D01*
X756251Y595932D01*
X751651D01*
X751251Y596332D01*
Y601338D01*
X751651Y601738D01*
X756251D01*
X756651Y601338D01*
D02*
G37*
G36*
X737280Y600983D02*
Y596183D01*
X736780Y595483D01*
X732280D01*
X731780Y596183D01*
Y600983D01*
X732280Y601483D01*
X736780D01*
X737280Y600983D01*
D02*
G37*
G36*
X391137Y599186D02*
Y594386D01*
X390637Y593886D01*
X386137D01*
X385637Y594386D01*
Y599186D01*
X386137Y599886D01*
X390637D01*
X391137Y599186D01*
D02*
G37*
G36*
X381432Y599041D02*
Y594241D01*
X380932Y593741D01*
X376432D01*
X375932Y594241D01*
Y599041D01*
X376432Y599741D01*
X380932D01*
X381432Y599041D01*
D02*
G37*
G36*
X273260Y595670D02*
Y590870D01*
X272760Y590370D01*
X268260D01*
X267760Y590870D01*
Y595670D01*
X268260Y596370D01*
X272760D01*
X273260Y595670D01*
D02*
G37*
G36*
X460753Y594282D02*
Y589276D01*
X460353Y588875D01*
X455753D01*
X455353Y589276D01*
Y594282D01*
X455753Y594682D01*
X460353D01*
X460753Y594282D01*
D02*
G37*
G36*
X632647Y592873D02*
Y587866D01*
X632247Y587466D01*
X627647D01*
X627247Y587866D01*
Y592873D01*
X627647Y593273D01*
X632247D01*
X632647Y592873D01*
D02*
G37*
G36*
X756651Y592832D02*
Y587826D01*
X756251Y587425D01*
X751651D01*
X751251Y587826D01*
Y592832D01*
X751651Y593232D01*
X756251D01*
X756651Y592832D01*
D02*
G37*
G36*
X737280Y591183D02*
Y586383D01*
X736780Y585883D01*
X732280D01*
X731780Y586383D01*
Y591183D01*
X732280Y591883D01*
X736780D01*
X737280Y591183D01*
D02*
G37*
G36*
X643992Y589673D02*
Y584873D01*
X643492Y584173D01*
X638992D01*
X638492Y584873D01*
Y589673D01*
X638992Y590173D01*
X643492D01*
X643992Y589673D01*
D02*
G37*
G36*
X339722Y589062D02*
Y584462D01*
X339322Y584062D01*
X334316D01*
X333916Y584462D01*
Y589062D01*
X334316Y589462D01*
X339322D01*
X339722Y589062D01*
D02*
G37*
G36*
X331216D02*
Y584462D01*
X330816Y584062D01*
X325809D01*
X325409Y584462D01*
Y589062D01*
X325809Y589462D01*
X330816D01*
X331216Y589062D01*
D02*
G37*
G36*
X295070Y583918D02*
Y579318D01*
X294670Y578918D01*
X289664D01*
X289263Y579318D01*
Y583918D01*
X289664Y584318D01*
X294670D01*
X295070Y583918D01*
D02*
G37*
G36*
X286563D02*
Y579318D01*
X286163Y578918D01*
X281157D01*
X280757Y579318D01*
Y583918D01*
X281157Y584318D01*
X286163D01*
X286563Y583918D01*
D02*
G37*
G36*
X643992Y579873D02*
Y575073D01*
X643492Y574573D01*
X638992D01*
X638492Y575073D01*
Y579873D01*
X638992Y580573D01*
X643492D01*
X643992Y579873D01*
D02*
G37*
G36*
X339588Y578880D02*
Y574280D01*
X339188Y573880D01*
X334182D01*
X333782Y574280D01*
Y578880D01*
X334182Y579280D01*
X339188D01*
X339588Y578880D01*
D02*
G37*
G36*
X331082D02*
Y574280D01*
X330681Y573880D01*
X325675D01*
X325275Y574280D01*
Y578880D01*
X325675Y579280D01*
X330681D01*
X331082Y578880D01*
D02*
G37*
G36*
X945697Y573667D02*
Y571747D01*
X945457Y571507D01*
X943537D01*
X943297Y571747D01*
Y573667D01*
X943537Y573907D01*
X945457D01*
X945697Y573667D01*
D02*
G37*
G36*
X940695D02*
Y571747D01*
X940456Y571507D01*
X938535D01*
X938296Y571747D01*
Y573667D01*
X938535Y573907D01*
X940456D01*
X940695Y573667D01*
D02*
G37*
G36*
X935697D02*
Y571747D01*
X935457Y571507D01*
X933537D01*
X933297Y571747D01*
Y573667D01*
X933537Y573907D01*
X935457D01*
X935697Y573667D01*
D02*
G37*
G36*
X930695D02*
Y571747D01*
X930456Y571507D01*
X928536D01*
X928296Y571747D01*
Y573667D01*
X928536Y573907D01*
X930456D01*
X930695Y573667D01*
D02*
G37*
G36*
X925694D02*
Y571747D01*
X925454Y571507D01*
X923534D01*
X923294Y571747D01*
Y573667D01*
X923534Y573907D01*
X925454D01*
X925694Y573667D01*
D02*
G37*
G36*
X920695D02*
Y571747D01*
X920456Y571507D01*
X918536D01*
X918296Y571747D01*
Y573667D01*
X918536Y573907D01*
X920456D01*
X920695Y573667D01*
D02*
G37*
G36*
X915697D02*
Y571747D01*
X915457Y571507D01*
X913537D01*
X913297Y571747D01*
Y573667D01*
X913537Y573907D01*
X915457D01*
X915697Y573667D01*
D02*
G37*
G36*
X910695D02*
Y571747D01*
X910456Y571507D01*
X908536D01*
X908296Y571747D01*
Y573667D01*
X908536Y573907D01*
X910456D01*
X910695Y573667D01*
D02*
G37*
G36*
X905697D02*
Y571747D01*
X905457Y571507D01*
X903537D01*
X903297Y571747D01*
Y573667D01*
X903537Y573907D01*
X905457D01*
X905697Y573667D01*
D02*
G37*
G36*
X900695D02*
Y571747D01*
X900456Y571507D01*
X898536D01*
X898296Y571747D01*
Y573667D01*
X898536Y573907D01*
X900456D01*
X900695Y573667D01*
D02*
G37*
G36*
X895694D02*
Y571747D01*
X895454Y571507D01*
X893534D01*
X893295Y571747D01*
Y573667D01*
X893534Y573907D01*
X895454D01*
X895694Y573667D01*
D02*
G37*
G36*
X890696D02*
Y571747D01*
X890456Y571507D01*
X888536D01*
X888296Y571747D01*
Y573667D01*
X888536Y573907D01*
X890456D01*
X890696Y573667D01*
D02*
G37*
G36*
X885697D02*
Y571747D01*
X885457Y571507D01*
X883537D01*
X883297Y571747D01*
Y573667D01*
X883537Y573907D01*
X885457D01*
X885697Y573667D01*
D02*
G37*
G36*
X880696D02*
Y571747D01*
X880456Y571507D01*
X878536D01*
X878296Y571747D01*
Y573667D01*
X878536Y573907D01*
X880456D01*
X880696Y573667D01*
D02*
G37*
G36*
X763385Y572882D02*
Y568382D01*
X762885Y567882D01*
X758085D01*
X757385Y568382D01*
Y572882D01*
X758085Y573382D01*
X762885D01*
X763385Y572882D01*
D02*
G37*
G36*
X753785D02*
Y568382D01*
X753085Y567882D01*
X748285D01*
X747785Y568382D01*
Y572882D01*
X748285Y573382D01*
X753085D01*
X753785Y572882D01*
D02*
G37*
G36*
X460981Y572693D02*
Y567687D01*
X460581Y567287D01*
X455981D01*
X455581Y567687D01*
Y572693D01*
X455981Y573093D01*
X460581D01*
X460981Y572693D01*
D02*
G37*
G36*
X945697Y568667D02*
Y566747D01*
X945457Y566507D01*
X943537D01*
X943297Y566747D01*
Y568667D01*
X943537Y568907D01*
X945457D01*
X945697Y568667D01*
D02*
G37*
G36*
X940695D02*
Y566747D01*
X940456Y566507D01*
X938535D01*
X938296Y566747D01*
Y568667D01*
X938535Y568907D01*
X940456D01*
X940695Y568667D01*
D02*
G37*
G36*
X935697D02*
Y566747D01*
X935457Y566507D01*
X933537D01*
X933297Y566747D01*
Y568667D01*
X933537Y568907D01*
X935457D01*
X935697Y568667D01*
D02*
G37*
G36*
X890696D02*
Y566747D01*
X890456Y566507D01*
X888536D01*
X888296Y566747D01*
Y568667D01*
X888536Y568907D01*
X890456D01*
X890696Y568667D01*
D02*
G37*
G36*
X885697D02*
Y566747D01*
X885457Y566507D01*
X883537D01*
X883297Y566747D01*
Y568667D01*
X883537Y568907D01*
X885457D01*
X885697Y568667D01*
D02*
G37*
G36*
X880696D02*
Y566747D01*
X880456Y566507D01*
X878536D01*
X878296Y566747D01*
Y568667D01*
X878536Y568907D01*
X880456D01*
X880696Y568667D01*
D02*
G37*
G36*
X930695Y568666D02*
Y566746D01*
X930456Y566506D01*
X928536D01*
X928296Y566746D01*
Y568666D01*
X928536Y568906D01*
X930456D01*
X930695Y568666D01*
D02*
G37*
G36*
X925694D02*
Y566746D01*
X925454Y566506D01*
X923534D01*
X923294Y566746D01*
Y568666D01*
X923534Y568906D01*
X925454D01*
X925694Y568666D01*
D02*
G37*
G36*
X920695D02*
Y566746D01*
X920456Y566506D01*
X918536D01*
X918296Y566746D01*
Y568666D01*
X918536Y568906D01*
X920456D01*
X920695Y568666D01*
D02*
G37*
G36*
X915697D02*
Y566746D01*
X915457Y566506D01*
X913537D01*
X913297Y566746D01*
Y568666D01*
X913537Y568906D01*
X915457D01*
X915697Y568666D01*
D02*
G37*
G36*
X910695D02*
Y566746D01*
X910456Y566506D01*
X908536D01*
X908296Y566746D01*
Y568666D01*
X908536Y568906D01*
X910456D01*
X910695Y568666D01*
D02*
G37*
G36*
X905697D02*
Y566746D01*
X905457Y566506D01*
X903537D01*
X903297Y566746D01*
Y568666D01*
X903537Y568906D01*
X905457D01*
X905697Y568666D01*
D02*
G37*
G36*
X900695D02*
Y566746D01*
X900456Y566506D01*
X898536D01*
X898296Y566746D01*
Y568666D01*
X898536Y568906D01*
X900456D01*
X900695Y568666D01*
D02*
G37*
G36*
X895694D02*
Y566746D01*
X895454Y566506D01*
X893534D01*
X893295Y566746D01*
Y568666D01*
X893534Y568906D01*
X895454D01*
X895694Y568666D01*
D02*
G37*
G36*
X426438Y567927D02*
Y563427D01*
X425938Y562927D01*
X421138D01*
X420438Y563427D01*
Y567927D01*
X421138Y568427D01*
X425938D01*
X426438Y567927D01*
D02*
G37*
G36*
X416838D02*
Y563427D01*
X416138Y562927D01*
X411338D01*
X410838Y563427D01*
Y567927D01*
X411338Y568427D01*
X416138D01*
X416838Y567927D01*
D02*
G37*
G36*
X945697Y563667D02*
Y561747D01*
X945457Y561507D01*
X943537D01*
X943297Y561747D01*
Y563667D01*
X943537Y563907D01*
X945457D01*
X945697Y563667D01*
D02*
G37*
G36*
X940695D02*
Y561747D01*
X940456Y561507D01*
X938535D01*
X938296Y561747D01*
Y563667D01*
X938535Y563907D01*
X940456D01*
X940695Y563667D01*
D02*
G37*
G36*
X935697D02*
Y561747D01*
X935457Y561507D01*
X933537D01*
X933297Y561747D01*
Y563667D01*
X933537Y563907D01*
X935457D01*
X935697Y563667D01*
D02*
G37*
G36*
X930695D02*
Y561747D01*
X930456Y561507D01*
X928536D01*
X928296Y561747D01*
Y563667D01*
X928536Y563907D01*
X930456D01*
X930695Y563667D01*
D02*
G37*
G36*
X925694D02*
Y561747D01*
X925454Y561507D01*
X923534D01*
X923294Y561747D01*
Y563667D01*
X923534Y563907D01*
X925454D01*
X925694Y563667D01*
D02*
G37*
G36*
X920695D02*
Y561747D01*
X920456Y561507D01*
X918536D01*
X918296Y561747D01*
Y563667D01*
X918536Y563907D01*
X920456D01*
X920695Y563667D01*
D02*
G37*
G36*
X915697D02*
Y561747D01*
X915457Y561507D01*
X913537D01*
X913297Y561747D01*
Y563667D01*
X913537Y563907D01*
X915457D01*
X915697Y563667D01*
D02*
G37*
G36*
X910695D02*
Y561747D01*
X910456Y561507D01*
X908536D01*
X908296Y561747D01*
Y563667D01*
X908536Y563907D01*
X910456D01*
X910695Y563667D01*
D02*
G37*
G36*
X905697D02*
Y561747D01*
X905457Y561507D01*
X903537D01*
X903297Y561747D01*
Y563667D01*
X903537Y563907D01*
X905457D01*
X905697Y563667D01*
D02*
G37*
G36*
X900695D02*
Y561747D01*
X900456Y561507D01*
X898536D01*
X898296Y561747D01*
Y563667D01*
X898536Y563907D01*
X900456D01*
X900695Y563667D01*
D02*
G37*
G36*
X895694D02*
Y561747D01*
X895454Y561507D01*
X893534D01*
X893295Y561747D01*
Y563667D01*
X893534Y563907D01*
X895454D01*
X895694Y563667D01*
D02*
G37*
G36*
X890696D02*
Y561747D01*
X890456Y561507D01*
X888536D01*
X888296Y561747D01*
Y563667D01*
X888536Y563907D01*
X890456D01*
X890696Y563667D01*
D02*
G37*
G36*
X885697D02*
Y561747D01*
X885457Y561507D01*
X883537D01*
X883297Y561747D01*
Y563667D01*
X883537Y563907D01*
X885457D01*
X885697Y563667D01*
D02*
G37*
G36*
X880696D02*
Y561747D01*
X880456Y561507D01*
X878536D01*
X878296Y561747D01*
Y563667D01*
X878536Y563907D01*
X880456D01*
X880696Y563667D01*
D02*
G37*
G36*
X254328Y560340D02*
X252328D01*
Y566990D01*
X254328D01*
Y560340D01*
D02*
G37*
G36*
X250330D02*
X248330D01*
Y566990D01*
X250330D01*
Y560340D01*
D02*
G37*
G36*
X246330D02*
X244330D01*
Y566990D01*
X246330D01*
Y560340D01*
D02*
G37*
G36*
X242329D02*
X240329D01*
Y566990D01*
X242329D01*
Y560340D01*
D02*
G37*
G36*
X238329D02*
X236329D01*
Y566990D01*
X238329D01*
Y560340D01*
D02*
G37*
G36*
X234328D02*
X232328D01*
Y566990D01*
X234328D01*
Y560340D01*
D02*
G37*
G36*
X230330D02*
X228330D01*
Y566990D01*
X230330D01*
Y560340D01*
D02*
G37*
G36*
X226330D02*
X224330D01*
Y566990D01*
X226330D01*
Y560340D01*
D02*
G37*
G36*
X222329D02*
X220329D01*
Y566990D01*
X222329D01*
Y560340D01*
D02*
G37*
G36*
X218329D02*
X216329D01*
Y566990D01*
X218329D01*
Y560340D01*
D02*
G37*
G36*
X214328D02*
X212328D01*
Y566990D01*
X214328D01*
Y560340D01*
D02*
G37*
G36*
X210330D02*
X208330D01*
Y566990D01*
X210330D01*
Y560340D01*
D02*
G37*
G36*
X206330D02*
X204330D01*
Y566990D01*
X206330D01*
Y560340D01*
D02*
G37*
G36*
X202329D02*
X200329D01*
Y566990D01*
X202329D01*
Y560340D01*
D02*
G37*
G36*
X460981Y564187D02*
Y559180D01*
X460581Y558781D01*
X455981D01*
X455581Y559180D01*
Y564187D01*
X455981Y564587D01*
X460581D01*
X460981Y564187D01*
D02*
G37*
G36*
X340540Y563590D02*
Y559090D01*
X340040Y558590D01*
X335240D01*
X334540Y559090D01*
Y563590D01*
X335240Y564090D01*
X340040D01*
X340540Y563590D01*
D02*
G37*
G36*
X330940D02*
Y559090D01*
X330240Y558590D01*
X325440D01*
X324940Y559090D01*
Y563590D01*
X325440Y564090D01*
X330240D01*
X330940Y563590D01*
D02*
G37*
G36*
X945697Y558666D02*
Y556746D01*
X945457Y556506D01*
X943537D01*
X943297Y556746D01*
Y558666D01*
X943537Y558906D01*
X945457D01*
X945697Y558666D01*
D02*
G37*
G36*
X940695D02*
Y556746D01*
X940456Y556506D01*
X938535D01*
X938296Y556746D01*
Y558666D01*
X938535Y558906D01*
X940456D01*
X940695Y558666D01*
D02*
G37*
G36*
X935697D02*
Y556746D01*
X935457Y556506D01*
X933537D01*
X933297Y556746D01*
Y558666D01*
X933537Y558906D01*
X935457D01*
X935697Y558666D01*
D02*
G37*
G36*
X890696D02*
Y556746D01*
X890456Y556506D01*
X888536D01*
X888296Y556746D01*
Y558666D01*
X888536Y558906D01*
X890456D01*
X890696Y558666D01*
D02*
G37*
G36*
X885697D02*
Y556746D01*
X885457Y556506D01*
X883537D01*
X883297Y556746D01*
Y558666D01*
X883537Y558906D01*
X885457D01*
X885697Y558666D01*
D02*
G37*
G36*
X880696D02*
Y556746D01*
X880456Y556506D01*
X878536D01*
X878296Y556746D01*
Y558666D01*
X878536Y558906D01*
X880456D01*
X880696Y558666D01*
D02*
G37*
G36*
X652155Y560797D02*
Y556197D01*
X651755Y555797D01*
X646749D01*
X646349Y556197D01*
Y560797D01*
X646749Y561197D01*
X651755D01*
X652155Y560797D01*
D02*
G37*
G36*
X643649D02*
Y556197D01*
X643249Y555797D01*
X638242D01*
X637842Y556197D01*
Y560797D01*
X638242Y561197D01*
X643249D01*
X643649Y560797D01*
D02*
G37*
G36*
X264730Y554590D02*
X258081D01*
Y556590D01*
X264730D01*
Y554590D01*
D02*
G37*
G36*
X196580D02*
X189930D01*
Y556590D01*
X196580D01*
Y554590D01*
D02*
G37*
G36*
X925697Y553667D02*
Y551747D01*
X925457Y551507D01*
X923537D01*
X923297Y551747D01*
Y553667D01*
X923537Y553907D01*
X925457D01*
X925697Y553667D01*
D02*
G37*
G36*
X920695D02*
Y551747D01*
X920456Y551507D01*
X918536D01*
X918296Y551747D01*
Y553667D01*
X918536Y553907D01*
X920456D01*
X920695Y553667D01*
D02*
G37*
G36*
X915697D02*
Y551747D01*
X915457Y551507D01*
X913537D01*
X913297Y551747D01*
Y553667D01*
X913537Y553907D01*
X915457D01*
X915697Y553667D01*
D02*
G37*
G36*
X910695D02*
Y551747D01*
X910456Y551507D01*
X908536D01*
X908296Y551747D01*
Y553667D01*
X908536Y553907D01*
X910456D01*
X910695Y553667D01*
D02*
G37*
G36*
X905697D02*
Y551747D01*
X905457Y551507D01*
X903537D01*
X903297Y551747D01*
Y553667D01*
X903537Y553907D01*
X905457D01*
X905697Y553667D01*
D02*
G37*
G36*
X900695D02*
Y551747D01*
X900456Y551507D01*
X898536D01*
X898296Y551747D01*
Y553667D01*
X898536Y553907D01*
X900456D01*
X900695Y553667D01*
D02*
G37*
G36*
X945697Y553666D02*
Y551746D01*
X945457Y551506D01*
X943537D01*
X943297Y551746D01*
Y553666D01*
X943537Y553906D01*
X945457D01*
X945697Y553666D01*
D02*
G37*
G36*
X940695D02*
Y551746D01*
X940456Y551506D01*
X938535D01*
X938296Y551746D01*
Y553666D01*
X938535Y553906D01*
X940456D01*
X940695Y553666D01*
D02*
G37*
G36*
X935697D02*
Y551746D01*
X935457Y551506D01*
X933537D01*
X933297Y551746D01*
Y553666D01*
X933537Y553906D01*
X935457D01*
X935697Y553666D01*
D02*
G37*
G36*
X890696D02*
Y551746D01*
X890456Y551506D01*
X888536D01*
X888296Y551746D01*
Y553666D01*
X888536Y553906D01*
X890456D01*
X890696Y553666D01*
D02*
G37*
G36*
X885697D02*
Y551746D01*
X885457Y551506D01*
X883537D01*
X883297Y551746D01*
Y553666D01*
X883537Y553906D01*
X885457D01*
X885697Y553666D01*
D02*
G37*
G36*
X880696D02*
Y551746D01*
X880456Y551506D01*
X878536D01*
X878296Y551746D01*
Y553666D01*
X878536Y553906D01*
X880456D01*
X880696Y553666D01*
D02*
G37*
G36*
X264730Y550590D02*
X258081D01*
Y552590D01*
X264730D01*
Y550590D01*
D02*
G37*
G36*
X196580D02*
X189930D01*
Y552590D01*
X196580D01*
Y550590D01*
D02*
G37*
G36*
X340001Y552119D02*
Y547520D01*
X339601Y547120D01*
X334595D01*
X334195Y547520D01*
Y552119D01*
X334595Y552520D01*
X339601D01*
X340001Y552119D01*
D02*
G37*
G36*
X331495D02*
Y547520D01*
X331095Y547120D01*
X326088D01*
X325688Y547520D01*
Y552119D01*
X326088Y552520D01*
X331095D01*
X331495Y552119D01*
D02*
G37*
G36*
X360890Y552130D02*
Y547330D01*
X360390Y546630D01*
X355890D01*
X355390Y547330D01*
Y552130D01*
X355890Y552630D01*
X360390D01*
X360890Y552130D01*
D02*
G37*
G36*
X264730Y546590D02*
X258081D01*
Y548590D01*
X264730D01*
Y546590D01*
D02*
G37*
G36*
X196580D02*
X189930D01*
Y548590D01*
X196580D01*
Y546590D01*
D02*
G37*
G36*
X945697Y548666D02*
Y546746D01*
X945457Y546506D01*
X943537D01*
X943297Y546746D01*
Y548666D01*
X943537Y548906D01*
X945457D01*
X945697Y548666D01*
D02*
G37*
G36*
X940695D02*
Y546746D01*
X940456Y546506D01*
X938535D01*
X938296Y546746D01*
Y548666D01*
X938535Y548906D01*
X940456D01*
X940695Y548666D01*
D02*
G37*
G36*
X935697D02*
Y546746D01*
X935457Y546506D01*
X933537D01*
X933297Y546746D01*
Y548666D01*
X933537Y548906D01*
X935457D01*
X935697Y548666D01*
D02*
G37*
G36*
X925697D02*
Y546746D01*
X925457Y546506D01*
X923537D01*
X923297Y546746D01*
Y548666D01*
X923537Y548906D01*
X925457D01*
X925697Y548666D01*
D02*
G37*
G36*
X900695D02*
Y546746D01*
X900456Y546506D01*
X898536D01*
X898296Y546746D01*
Y548666D01*
X898536Y548906D01*
X900456D01*
X900695Y548666D01*
D02*
G37*
G36*
X890696D02*
Y546746D01*
X890456Y546506D01*
X888536D01*
X888296Y546746D01*
Y548666D01*
X888536Y548906D01*
X890456D01*
X890696Y548666D01*
D02*
G37*
G36*
X885697D02*
Y546746D01*
X885457Y546506D01*
X883537D01*
X883297Y546746D01*
Y548666D01*
X883537Y548906D01*
X885457D01*
X885697Y548666D01*
D02*
G37*
G36*
X880696D02*
Y546746D01*
X880456Y546506D01*
X878536D01*
X878296Y546746D01*
Y548666D01*
X878536Y548906D01*
X880456D01*
X880696Y548666D01*
D02*
G37*
G36*
X264730Y542592D02*
X258081D01*
Y544591D01*
X264730D01*
Y542592D01*
D02*
G37*
G36*
X196580D02*
X189930D01*
Y544591D01*
X196580D01*
Y542592D01*
D02*
G37*
G36*
X945697Y543666D02*
Y541746D01*
X945457Y541506D01*
X943537D01*
X943297Y541746D01*
Y543666D01*
X943537Y543906D01*
X945457D01*
X945697Y543666D01*
D02*
G37*
G36*
X940695D02*
Y541746D01*
X940456Y541506D01*
X938535D01*
X938296Y541746D01*
Y543666D01*
X938535Y543906D01*
X940456D01*
X940695Y543666D01*
D02*
G37*
G36*
X935697D02*
Y541746D01*
X935457Y541506D01*
X933537D01*
X933297Y541746D01*
Y543666D01*
X933537Y543906D01*
X935457D01*
X935697Y543666D01*
D02*
G37*
G36*
X925697D02*
Y541746D01*
X925457Y541506D01*
X923537D01*
X923297Y541746D01*
Y543666D01*
X923537Y543906D01*
X925457D01*
X925697Y543666D01*
D02*
G37*
G36*
X900695D02*
Y541746D01*
X900456Y541506D01*
X898536D01*
X898296Y541746D01*
Y543666D01*
X898536Y543906D01*
X900456D01*
X900695Y543666D01*
D02*
G37*
G36*
X890696D02*
Y541746D01*
X890456Y541506D01*
X888536D01*
X888296Y541746D01*
Y543666D01*
X888536Y543906D01*
X890456D01*
X890696Y543666D01*
D02*
G37*
G36*
X885697D02*
Y541746D01*
X885457Y541506D01*
X883537D01*
X883297Y541746D01*
Y543666D01*
X883537Y543906D01*
X885457D01*
X885697Y543666D01*
D02*
G37*
G36*
X880696D02*
Y541746D01*
X880456Y541506D01*
X878536D01*
X878296Y541746D01*
Y543666D01*
X878536Y543906D01*
X880456D01*
X880696Y543666D01*
D02*
G37*
G36*
X264730Y538591D02*
X258081D01*
Y540591D01*
X264730D01*
Y538591D01*
D02*
G37*
G36*
X196580D02*
X189930D01*
Y540591D01*
X196580D01*
Y538591D01*
D02*
G37*
G36*
X360890Y542330D02*
Y537530D01*
X360390Y537030D01*
X355890D01*
X355390Y537530D01*
Y542330D01*
X355890Y543030D01*
X360390D01*
X360890Y542330D01*
D02*
G37*
G36*
X945697Y538666D02*
Y536746D01*
X945457Y536506D01*
X943537D01*
X943297Y536746D01*
Y538666D01*
X943537Y538906D01*
X945457D01*
X945697Y538666D01*
D02*
G37*
G36*
X940695D02*
Y536746D01*
X940456Y536506D01*
X938535D01*
X938296Y536746D01*
Y538666D01*
X938535Y538906D01*
X940456D01*
X940695Y538666D01*
D02*
G37*
G36*
X935697D02*
Y536746D01*
X935457Y536506D01*
X933537D01*
X933297Y536746D01*
Y538666D01*
X933537Y538906D01*
X935457D01*
X935697Y538666D01*
D02*
G37*
G36*
X925697D02*
Y536746D01*
X925457Y536506D01*
X923537D01*
X923297Y536746D01*
Y538666D01*
X923537Y538906D01*
X925457D01*
X925697Y538666D01*
D02*
G37*
G36*
X900695D02*
Y536746D01*
X900456Y536506D01*
X898536D01*
X898296Y536746D01*
Y538666D01*
X898536Y538906D01*
X900456D01*
X900695Y538666D01*
D02*
G37*
G36*
X890696D02*
Y536746D01*
X890456Y536506D01*
X888536D01*
X888296Y536746D01*
Y538666D01*
X888536Y538906D01*
X890456D01*
X890696Y538666D01*
D02*
G37*
G36*
X885697D02*
Y536746D01*
X885457Y536506D01*
X883537D01*
X883297Y536746D01*
Y538666D01*
X883537Y538906D01*
X885457D01*
X885697Y538666D01*
D02*
G37*
G36*
X880696D02*
Y536746D01*
X880456Y536506D01*
X878536D01*
X878296Y536746D01*
Y538666D01*
X878536Y538906D01*
X880456D01*
X880696Y538666D01*
D02*
G37*
G36*
X339897Y540780D02*
Y536180D01*
X339496Y535780D01*
X334490D01*
X334090Y536180D01*
Y540780D01*
X334490Y541180D01*
X339496D01*
X339897Y540780D01*
D02*
G37*
G36*
X331390D02*
Y536180D01*
X330990Y535780D01*
X325984D01*
X325583Y536180D01*
Y540780D01*
X325984Y541180D01*
X330990D01*
X331390Y540780D01*
D02*
G37*
G36*
X264730Y534590D02*
X258081D01*
Y536591D01*
X264730D01*
Y534590D01*
D02*
G37*
G36*
X196580D02*
X189930D01*
Y536591D01*
X196580D01*
Y534590D01*
D02*
G37*
G36*
X945697Y533666D02*
Y531746D01*
X945457Y531506D01*
X943537D01*
X943297Y531746D01*
Y533666D01*
X943537Y533906D01*
X945457D01*
X945697Y533666D01*
D02*
G37*
G36*
X940695D02*
Y531746D01*
X940456Y531506D01*
X938535D01*
X938296Y531746D01*
Y533666D01*
X938535Y533906D01*
X940456D01*
X940695Y533666D01*
D02*
G37*
G36*
X935697D02*
Y531746D01*
X935457Y531506D01*
X933537D01*
X933297Y531746D01*
Y533666D01*
X933537Y533906D01*
X935457D01*
X935697Y533666D01*
D02*
G37*
G36*
X925697D02*
Y531746D01*
X925457Y531506D01*
X923537D01*
X923297Y531746D01*
Y533666D01*
X923537Y533906D01*
X925457D01*
X925697Y533666D01*
D02*
G37*
G36*
X900695D02*
Y531746D01*
X900456Y531506D01*
X898536D01*
X898296Y531746D01*
Y533666D01*
X898536Y533906D01*
X900456D01*
X900695Y533666D01*
D02*
G37*
G36*
X890696D02*
Y531746D01*
X890456Y531506D01*
X888536D01*
X888296Y531746D01*
Y533666D01*
X888536Y533906D01*
X890456D01*
X890696Y533666D01*
D02*
G37*
G36*
X885697D02*
Y531746D01*
X885457Y531506D01*
X883537D01*
X883297Y531746D01*
Y533666D01*
X883537Y533906D01*
X885457D01*
X885697Y533666D01*
D02*
G37*
G36*
X880696D02*
Y531746D01*
X880456Y531506D01*
X878536D01*
X878296Y531746D01*
Y533666D01*
X878536Y533906D01*
X880456D01*
X880696Y533666D01*
D02*
G37*
G36*
X264730Y530590D02*
X258081D01*
Y532590D01*
X264730D01*
Y530590D01*
D02*
G37*
G36*
X196580D02*
X189930D01*
Y532590D01*
X196580D01*
Y530590D01*
D02*
G37*
G36*
X264730Y526590D02*
X258081D01*
Y528590D01*
X264730D01*
Y526590D01*
D02*
G37*
G36*
X196580D02*
X189930D01*
Y528590D01*
X196580D01*
Y526590D01*
D02*
G37*
G36*
X945697Y528666D02*
Y526746D01*
X945457Y526506D01*
X943537D01*
X943297Y526746D01*
Y528666D01*
X943537Y528906D01*
X945457D01*
X945697Y528666D01*
D02*
G37*
G36*
X940695D02*
Y526746D01*
X940456Y526506D01*
X938535D01*
X938296Y526746D01*
Y528666D01*
X938535Y528906D01*
X940456D01*
X940695Y528666D01*
D02*
G37*
G36*
X935697D02*
Y526746D01*
X935457Y526506D01*
X933537D01*
X933297Y526746D01*
Y528666D01*
X933537Y528906D01*
X935457D01*
X935697Y528666D01*
D02*
G37*
G36*
X925697D02*
Y526746D01*
X925457Y526506D01*
X923537D01*
X923297Y526746D01*
Y528666D01*
X923537Y528906D01*
X925457D01*
X925697Y528666D01*
D02*
G37*
G36*
X920695D02*
Y526746D01*
X920456Y526506D01*
X918536D01*
X918296Y526746D01*
Y528666D01*
X918536Y528906D01*
X920456D01*
X920695Y528666D01*
D02*
G37*
G36*
X915697D02*
Y526746D01*
X915457Y526506D01*
X913537D01*
X913297Y526746D01*
Y528666D01*
X913537Y528906D01*
X915457D01*
X915697Y528666D01*
D02*
G37*
G36*
X910695D02*
Y526746D01*
X910456Y526506D01*
X908536D01*
X908296Y526746D01*
Y528666D01*
X908536Y528906D01*
X910456D01*
X910695Y528666D01*
D02*
G37*
G36*
X905697D02*
Y526746D01*
X905457Y526506D01*
X903537D01*
X903297Y526746D01*
Y528666D01*
X903537Y528906D01*
X905457D01*
X905697Y528666D01*
D02*
G37*
G36*
X900695D02*
Y526746D01*
X900456Y526506D01*
X898536D01*
X898296Y526746D01*
Y528666D01*
X898536Y528906D01*
X900456D01*
X900695Y528666D01*
D02*
G37*
G36*
X890696D02*
Y526746D01*
X890456Y526506D01*
X888536D01*
X888296Y526746D01*
Y528666D01*
X888536Y528906D01*
X890456D01*
X890696Y528666D01*
D02*
G37*
G36*
X885697D02*
Y526746D01*
X885457Y526506D01*
X883537D01*
X883297Y526746D01*
Y528666D01*
X883537Y528906D01*
X885457D01*
X885697Y528666D01*
D02*
G37*
G36*
X880696D02*
Y526746D01*
X880456Y526506D01*
X878536D01*
X878296Y526746D01*
Y528666D01*
X878536Y528906D01*
X880456D01*
X880696Y528666D01*
D02*
G37*
G36*
X339897Y529350D02*
Y524750D01*
X339496Y524350D01*
X334490D01*
X334090Y524750D01*
Y529350D01*
X334490Y529750D01*
X339496D01*
X339897Y529350D01*
D02*
G37*
G36*
X331390D02*
Y524750D01*
X330990Y524350D01*
X325984D01*
X325583Y524750D01*
Y529350D01*
X325984Y529750D01*
X330990D01*
X331390Y529350D01*
D02*
G37*
G36*
X264730Y522592D02*
X258081D01*
Y524591D01*
X264730D01*
Y522592D01*
D02*
G37*
G36*
X196580D02*
X189930D01*
Y524591D01*
X196580D01*
Y522592D01*
D02*
G37*
G36*
X895697Y523667D02*
Y521747D01*
X895457Y521507D01*
X893537D01*
X893297Y521747D01*
Y523667D01*
X893537Y523907D01*
X895457D01*
X895697Y523667D01*
D02*
G37*
G36*
X945697Y523666D02*
Y521746D01*
X945457Y521506D01*
X943537D01*
X943297Y521746D01*
Y523666D01*
X943537Y523906D01*
X945457D01*
X945697Y523666D01*
D02*
G37*
G36*
X940695D02*
Y521746D01*
X940456Y521506D01*
X938535D01*
X938296Y521746D01*
Y523666D01*
X938535Y523906D01*
X940456D01*
X940695Y523666D01*
D02*
G37*
G36*
X935697D02*
Y521746D01*
X935457Y521506D01*
X933537D01*
X933297Y521746D01*
Y523666D01*
X933537Y523906D01*
X935457D01*
X935697Y523666D01*
D02*
G37*
G36*
X890696D02*
Y521746D01*
X890456Y521506D01*
X888536D01*
X888296Y521746D01*
Y523666D01*
X888536Y523906D01*
X890456D01*
X890696Y523666D01*
D02*
G37*
G36*
X885697D02*
Y521746D01*
X885457Y521506D01*
X883537D01*
X883297Y521746D01*
Y523666D01*
X883537Y523906D01*
X885457D01*
X885697Y523666D01*
D02*
G37*
G36*
X880696D02*
Y521746D01*
X880456Y521506D01*
X878536D01*
X878296Y521746D01*
Y523666D01*
X878536Y523906D01*
X880456D01*
X880696Y523666D01*
D02*
G37*
G36*
X990427Y524854D02*
Y519848D01*
X990027Y519448D01*
X985427D01*
X985027Y519848D01*
Y524854D01*
X985427Y525254D01*
X990027D01*
X990427Y524854D01*
D02*
G37*
G36*
X264730Y518591D02*
X258081D01*
Y520591D01*
X264730D01*
Y518591D01*
D02*
G37*
G36*
X196580D02*
X189930D01*
Y520591D01*
X196580D01*
Y518591D01*
D02*
G37*
G36*
X945697Y518666D02*
Y516746D01*
X945457Y516506D01*
X943537D01*
X943297Y516746D01*
Y518666D01*
X943537Y518906D01*
X945457D01*
X945697Y518666D01*
D02*
G37*
G36*
X940695D02*
Y516746D01*
X940456Y516506D01*
X938535D01*
X938296Y516746D01*
Y518666D01*
X938535Y518906D01*
X940456D01*
X940695Y518666D01*
D02*
G37*
G36*
X935697D02*
Y516746D01*
X935457Y516506D01*
X933537D01*
X933297Y516746D01*
Y518666D01*
X933537Y518906D01*
X935457D01*
X935697Y518666D01*
D02*
G37*
G36*
X930695D02*
Y516746D01*
X930456Y516506D01*
X928536D01*
X928296Y516746D01*
Y518666D01*
X928536Y518906D01*
X930456D01*
X930695Y518666D01*
D02*
G37*
G36*
X925697D02*
Y516746D01*
X925457Y516506D01*
X923537D01*
X923297Y516746D01*
Y518666D01*
X923537Y518906D01*
X925457D01*
X925697Y518666D01*
D02*
G37*
G36*
X920695D02*
Y516746D01*
X920456Y516506D01*
X918536D01*
X918296Y516746D01*
Y518666D01*
X918536Y518906D01*
X920456D01*
X920695Y518666D01*
D02*
G37*
G36*
X915697D02*
Y516746D01*
X915457Y516506D01*
X913537D01*
X913297Y516746D01*
Y518666D01*
X913537Y518906D01*
X915457D01*
X915697Y518666D01*
D02*
G37*
G36*
X910695D02*
Y516746D01*
X910456Y516506D01*
X908536D01*
X908296Y516746D01*
Y518666D01*
X908536Y518906D01*
X910456D01*
X910695Y518666D01*
D02*
G37*
G36*
X905697D02*
Y516746D01*
X905457Y516506D01*
X903537D01*
X903297Y516746D01*
Y518666D01*
X903537Y518906D01*
X905457D01*
X905697Y518666D01*
D02*
G37*
G36*
X900695D02*
Y516746D01*
X900456Y516506D01*
X898536D01*
X898296Y516746D01*
Y518666D01*
X898536Y518906D01*
X900456D01*
X900695Y518666D01*
D02*
G37*
G36*
X895697D02*
Y516746D01*
X895457Y516506D01*
X893537D01*
X893297Y516746D01*
Y518666D01*
X893537Y518906D01*
X895457D01*
X895697Y518666D01*
D02*
G37*
G36*
X890696D02*
Y516746D01*
X890456Y516506D01*
X888536D01*
X888296Y516746D01*
Y518666D01*
X888536Y518906D01*
X890456D01*
X890696Y518666D01*
D02*
G37*
G36*
X885697D02*
Y516746D01*
X885457Y516506D01*
X883537D01*
X883297Y516746D01*
Y518666D01*
X883537Y518906D01*
X885457D01*
X885697Y518666D01*
D02*
G37*
G36*
X880696D02*
Y516746D01*
X880456Y516506D01*
X878536D01*
X878296Y516746D01*
Y518666D01*
X878536Y518906D01*
X880456D01*
X880696Y518666D01*
D02*
G37*
G36*
X264730Y514591D02*
X258081D01*
Y516591D01*
X264730D01*
Y514591D01*
D02*
G37*
G36*
X196580D02*
X189930D01*
Y516591D01*
X196580D01*
Y514591D01*
D02*
G37*
G36*
X339897Y518049D02*
Y513449D01*
X339497Y513049D01*
X334491D01*
X334091Y513449D01*
Y518049D01*
X334491Y518449D01*
X339497D01*
X339897Y518049D01*
D02*
G37*
G36*
X331390D02*
Y513449D01*
X330990Y513049D01*
X325984D01*
X325584Y513449D01*
Y518049D01*
X325984Y518449D01*
X330990D01*
X331390Y518049D01*
D02*
G37*
G36*
X930695Y513667D02*
Y511747D01*
X930456Y511507D01*
X928536D01*
X928296Y511747D01*
Y513667D01*
X928536Y513907D01*
X930456D01*
X930695Y513667D01*
D02*
G37*
G36*
X925697D02*
Y511747D01*
X925457Y511507D01*
X923537D01*
X923297Y511747D01*
Y513667D01*
X923537Y513907D01*
X925457D01*
X925697Y513667D01*
D02*
G37*
G36*
X920695D02*
Y511747D01*
X920456Y511507D01*
X918536D01*
X918296Y511747D01*
Y513667D01*
X918536Y513907D01*
X920456D01*
X920695Y513667D01*
D02*
G37*
G36*
X915697D02*
Y511747D01*
X915457Y511507D01*
X913537D01*
X913297Y511747D01*
Y513667D01*
X913537Y513907D01*
X915457D01*
X915697Y513667D01*
D02*
G37*
G36*
X910695D02*
Y511747D01*
X910456Y511507D01*
X908536D01*
X908296Y511747D01*
Y513667D01*
X908536Y513907D01*
X910456D01*
X910695Y513667D01*
D02*
G37*
G36*
X905697D02*
Y511747D01*
X905457Y511507D01*
X903537D01*
X903297Y511747D01*
Y513667D01*
X903537Y513907D01*
X905457D01*
X905697Y513667D01*
D02*
G37*
G36*
X900695D02*
Y511747D01*
X900456Y511507D01*
X898536D01*
X898296Y511747D01*
Y513667D01*
X898536Y513907D01*
X900456D01*
X900695Y513667D01*
D02*
G37*
G36*
X895697D02*
Y511747D01*
X895457Y511507D01*
X893537D01*
X893297Y511747D01*
Y513667D01*
X893537Y513907D01*
X895457D01*
X895697Y513667D01*
D02*
G37*
G36*
X945697Y513666D02*
Y511746D01*
X945457Y511506D01*
X943537D01*
X943297Y511746D01*
Y513666D01*
X943537Y513906D01*
X945457D01*
X945697Y513666D01*
D02*
G37*
G36*
X940695D02*
Y511746D01*
X940456Y511506D01*
X938535D01*
X938296Y511746D01*
Y513666D01*
X938535Y513906D01*
X940456D01*
X940695Y513666D01*
D02*
G37*
G36*
X935697D02*
Y511746D01*
X935457Y511506D01*
X933537D01*
X933297Y511746D01*
Y513666D01*
X933537Y513906D01*
X935457D01*
X935697Y513666D01*
D02*
G37*
G36*
X890696D02*
Y511746D01*
X890456Y511506D01*
X888536D01*
X888296Y511746D01*
Y513666D01*
X888536Y513906D01*
X890456D01*
X890696Y513666D01*
D02*
G37*
G36*
X885697D02*
Y511746D01*
X885457Y511506D01*
X883537D01*
X883297Y511746D01*
Y513666D01*
X883537Y513906D01*
X885457D01*
X885697Y513666D01*
D02*
G37*
G36*
X880696D02*
Y511746D01*
X880456Y511506D01*
X878536D01*
X878296Y511746D01*
Y513666D01*
X878536Y513906D01*
X880456D01*
X880696Y513666D01*
D02*
G37*
G36*
X245729Y511191D02*
X208929D01*
Y547991D01*
X245729D01*
Y511191D01*
D02*
G37*
G36*
X990427Y516348D02*
Y511341D01*
X990027Y510941D01*
X985427D01*
X985027Y511341D01*
Y516348D01*
X985427Y516748D01*
X990027D01*
X990427Y516348D01*
D02*
G37*
G36*
X264730Y510590D02*
X258081D01*
Y512590D01*
X264730D01*
Y510590D01*
D02*
G37*
G36*
X196580D02*
X189930D01*
Y512590D01*
X196580D01*
Y510590D01*
D02*
G37*
G36*
X264730Y506590D02*
X258081D01*
Y508590D01*
X264730D01*
Y506590D01*
D02*
G37*
G36*
X196580D02*
X189930D01*
Y508590D01*
X196580D01*
Y506590D01*
D02*
G37*
G36*
X945697Y508666D02*
Y506746D01*
X945457Y506506D01*
X943537D01*
X943297Y506746D01*
Y508666D01*
X943537Y508906D01*
X945457D01*
X945697Y508666D01*
D02*
G37*
G36*
X940695D02*
Y506746D01*
X940456Y506506D01*
X938535D01*
X938296Y506746D01*
Y508666D01*
X938535Y508906D01*
X940456D01*
X940695Y508666D01*
D02*
G37*
G36*
X935697D02*
Y506746D01*
X935457Y506506D01*
X933537D01*
X933297Y506746D01*
Y508666D01*
X933537Y508906D01*
X935457D01*
X935697Y508666D01*
D02*
G37*
G36*
X930695D02*
Y506746D01*
X930456Y506506D01*
X928536D01*
X928296Y506746D01*
Y508666D01*
X928536Y508906D01*
X930456D01*
X930695Y508666D01*
D02*
G37*
G36*
X925697D02*
Y506746D01*
X925457Y506506D01*
X923537D01*
X923297Y506746D01*
Y508666D01*
X923537Y508906D01*
X925457D01*
X925697Y508666D01*
D02*
G37*
G36*
X920695D02*
Y506746D01*
X920456Y506506D01*
X918536D01*
X918296Y506746D01*
Y508666D01*
X918536Y508906D01*
X920456D01*
X920695Y508666D01*
D02*
G37*
G36*
X915697D02*
Y506746D01*
X915457Y506506D01*
X913537D01*
X913297Y506746D01*
Y508666D01*
X913537Y508906D01*
X915457D01*
X915697Y508666D01*
D02*
G37*
G36*
X910695D02*
Y506746D01*
X910456Y506506D01*
X908536D01*
X908296Y506746D01*
Y508666D01*
X908536Y508906D01*
X910456D01*
X910695Y508666D01*
D02*
G37*
G36*
X905697D02*
Y506746D01*
X905457Y506506D01*
X903537D01*
X903297Y506746D01*
Y508666D01*
X903537Y508906D01*
X905457D01*
X905697Y508666D01*
D02*
G37*
G36*
X900695D02*
Y506746D01*
X900456Y506506D01*
X898536D01*
X898296Y506746D01*
Y508666D01*
X898536Y508906D01*
X900456D01*
X900695Y508666D01*
D02*
G37*
G36*
X895697D02*
Y506746D01*
X895457Y506506D01*
X893537D01*
X893297Y506746D01*
Y508666D01*
X893537Y508906D01*
X895457D01*
X895697Y508666D01*
D02*
G37*
G36*
X890696D02*
Y506746D01*
X890456Y506506D01*
X888536D01*
X888296Y506746D01*
Y508666D01*
X888536Y508906D01*
X890456D01*
X890696Y508666D01*
D02*
G37*
G36*
X885697D02*
Y506746D01*
X885457Y506506D01*
X883537D01*
X883297Y506746D01*
Y508666D01*
X883537Y508906D01*
X885457D01*
X885697Y508666D01*
D02*
G37*
G36*
X880696D02*
Y506746D01*
X880456Y506506D01*
X878536D01*
X878296Y506746D01*
Y508666D01*
X878536Y508906D01*
X880456D01*
X880696Y508666D01*
D02*
G37*
G36*
X659959Y508927D02*
Y504327D01*
X659559Y503927D01*
X654553D01*
X654153Y504327D01*
Y508927D01*
X654553Y509327D01*
X659559D01*
X659959Y508927D01*
D02*
G37*
G36*
X651453D02*
Y504327D01*
X651053Y503927D01*
X646047D01*
X645647Y504327D01*
Y508927D01*
X646047Y509327D01*
X651053D01*
X651453Y508927D01*
D02*
G37*
G36*
X264730Y502592D02*
X258081D01*
Y504592D01*
X264730D01*
Y502592D01*
D02*
G37*
G36*
X196580D02*
X189930D01*
Y504592D01*
X196580D01*
Y502592D01*
D02*
G37*
G36*
X339822Y506804D02*
Y502204D01*
X339422Y501804D01*
X334416D01*
X334016Y502204D01*
Y506804D01*
X334416Y507204D01*
X339422D01*
X339822Y506804D01*
D02*
G37*
G36*
X331316D02*
Y502204D01*
X330915Y501804D01*
X325909D01*
X325509Y502204D01*
Y506804D01*
X325909Y507204D01*
X330915D01*
X331316Y506804D01*
D02*
G37*
G36*
X254328Y492190D02*
X252328D01*
Y498839D01*
X254328D01*
Y492190D01*
D02*
G37*
G36*
X250330D02*
X248330D01*
Y498839D01*
X250330D01*
Y492190D01*
D02*
G37*
G36*
X246330D02*
X244330D01*
Y498839D01*
X246330D01*
Y492190D01*
D02*
G37*
G36*
X242329D02*
X240329D01*
Y498839D01*
X242329D01*
Y492190D01*
D02*
G37*
G36*
X238329D02*
X236329D01*
Y498839D01*
X238329D01*
Y492190D01*
D02*
G37*
G36*
X234328D02*
X232328D01*
Y498839D01*
X234328D01*
Y492190D01*
D02*
G37*
G36*
X230330D02*
X228330D01*
Y498839D01*
X230330D01*
Y492190D01*
D02*
G37*
G36*
X226330D02*
X224330D01*
Y498839D01*
X226330D01*
Y492190D01*
D02*
G37*
G36*
X222329D02*
X220329D01*
Y498839D01*
X222329D01*
Y492190D01*
D02*
G37*
G36*
X218329D02*
X216329D01*
Y498839D01*
X218329D01*
Y492190D01*
D02*
G37*
G36*
X214328D02*
X212328D01*
Y498839D01*
X214328D01*
Y492190D01*
D02*
G37*
G36*
X210330D02*
X208330D01*
Y498839D01*
X210330D01*
Y492190D01*
D02*
G37*
G36*
X206330D02*
X204330D01*
Y498839D01*
X206330D01*
Y492190D01*
D02*
G37*
G36*
X202329D02*
X200329D01*
Y498839D01*
X202329D01*
Y492190D01*
D02*
G37*
G36*
X437139Y484945D02*
Y479938D01*
X436739Y479538D01*
X432139D01*
X431739Y479938D01*
Y484945D01*
X432139Y485345D01*
X436739D01*
X437139Y484945D01*
D02*
G37*
G36*
X321081Y481088D02*
Y476489D01*
X320681Y476088D01*
X315675D01*
X315275Y476489D01*
Y481088D01*
X315675Y481488D01*
X320681D01*
X321081Y481088D01*
D02*
G37*
G36*
X312575D02*
Y476489D01*
X312175Y476088D01*
X307168D01*
X306768Y476489D01*
Y481088D01*
X307168Y481488D01*
X312175D01*
X312575Y481088D01*
D02*
G37*
G36*
X437139Y476438D02*
Y471432D01*
X436739Y471032D01*
X432139D01*
X431739Y471432D01*
Y476438D01*
X432139Y476838D01*
X436739D01*
X437139Y476438D01*
D02*
G37*
G36*
X163818Y475164D02*
Y470364D01*
X163318Y469664D01*
X158818D01*
X158318Y470364D01*
Y475164D01*
X158818Y475664D01*
X163318D01*
X163818Y475164D01*
D02*
G37*
G36*
X176740Y475030D02*
Y470230D01*
X176240Y469530D01*
X171740D01*
X171240Y470230D01*
Y475030D01*
X171740Y475530D01*
X176240D01*
X176740Y475030D01*
D02*
G37*
G36*
X150274Y475000D02*
Y470200D01*
X149774Y469500D01*
X145274D01*
X144774Y470200D01*
Y475000D01*
X145274Y475500D01*
X149774D01*
X150274Y475000D01*
D02*
G37*
G36*
X297831Y471686D02*
Y467186D01*
X297331Y466686D01*
X292531D01*
X291831Y467186D01*
Y471686D01*
X292531Y472186D01*
X297331D01*
X297831Y471686D01*
D02*
G37*
G36*
X288231D02*
Y467186D01*
X287531Y466686D01*
X282731D01*
X282231Y467186D01*
Y471686D01*
X282731Y472186D01*
X287531D01*
X288231Y471686D01*
D02*
G37*
G36*
X925221Y471609D02*
Y467009D01*
X924821Y466609D01*
X919815D01*
X919415Y467009D01*
Y471609D01*
X919815Y472009D01*
X924821D01*
X925221Y471609D01*
D02*
G37*
G36*
X916715D02*
Y467009D01*
X916315Y466609D01*
X911308D01*
X910908Y467009D01*
Y471609D01*
X911308Y472009D01*
X916315D01*
X916715Y471609D01*
D02*
G37*
G36*
X313900Y469580D02*
Y464780D01*
X313400Y464080D01*
X308900D01*
X308400Y464780D01*
Y469580D01*
X308900Y470080D01*
X313400D01*
X313900Y469580D01*
D02*
G37*
G36*
X163818Y465364D02*
Y460564D01*
X163318Y460064D01*
X158818D01*
X158318Y460564D01*
Y465364D01*
X158818Y466064D01*
X163318D01*
X163818Y465364D01*
D02*
G37*
G36*
X176740Y465230D02*
Y460430D01*
X176240Y459930D01*
X171740D01*
X171240Y460430D01*
Y465230D01*
X171740Y465930D01*
X176240D01*
X176740Y465230D01*
D02*
G37*
G36*
X150274Y465200D02*
Y460400D01*
X149774Y459900D01*
X145274D01*
X144774Y460400D01*
Y465200D01*
X145274Y465900D01*
X149774D01*
X150274Y465200D01*
D02*
G37*
G36*
X313900Y459780D02*
Y454980D01*
X313400Y454480D01*
X308900D01*
X308400Y454980D01*
Y459780D01*
X308900Y460480D01*
X313400D01*
X313900Y459780D01*
D02*
G37*
G36*
X176448Y433592D02*
Y428586D01*
X176048Y428186D01*
X171448D01*
X171048Y428586D01*
Y433592D01*
X171448Y433992D01*
X176048D01*
X176448Y433592D01*
D02*
G37*
G36*
X150225Y433425D02*
Y428419D01*
X149824Y428018D01*
X145225D01*
X144824Y428419D01*
Y433425D01*
X145225Y433825D01*
X149824D01*
X150225Y433425D01*
D02*
G37*
G36*
X538836Y426274D02*
Y421268D01*
X538436Y420868D01*
X533836D01*
X533436Y421268D01*
Y426274D01*
X533836Y426675D01*
X538436D01*
X538836Y426274D01*
D02*
G37*
G36*
X176448Y425086D02*
Y420079D01*
X176048Y419679D01*
X171448D01*
X171048Y420079D01*
Y425086D01*
X171448Y425486D01*
X176048D01*
X176448Y425086D01*
D02*
G37*
G36*
X150225Y424919D02*
Y419912D01*
X149824Y419512D01*
X145225D01*
X144824Y419912D01*
Y424919D01*
X145225Y425318D01*
X149824D01*
X150225Y424919D01*
D02*
G37*
G36*
X538836Y417768D02*
Y412762D01*
X538436Y412362D01*
X533836D01*
X533436Y412762D01*
Y417768D01*
X533836Y418168D01*
X538436D01*
X538836Y417768D01*
D02*
G37*
G36*
X548296Y412640D02*
Y412074D01*
X545044Y408822D01*
X544478D01*
X540938Y412362D01*
Y412927D01*
X544191Y416180D01*
X544756D01*
X548296Y412640D01*
D02*
G37*
G36*
X554311Y406625D02*
Y406059D01*
X551059Y402807D01*
X550493D01*
X546953Y406347D01*
Y406912D01*
X550206Y410165D01*
X550771D01*
X554311Y406625D01*
D02*
G37*
G36*
X1010412Y407001D02*
Y402402D01*
X1010012Y402001D01*
X1005006D01*
X1004605Y402402D01*
Y407001D01*
X1005006Y407401D01*
X1010012D01*
X1010412Y407001D01*
D02*
G37*
G36*
X1001906D02*
Y402402D01*
X1001505Y402001D01*
X996499D01*
X996099Y402402D01*
Y407001D01*
X996499Y407401D01*
X1001505D01*
X1001906Y407001D01*
D02*
G37*
G36*
X543034Y404084D02*
Y399584D01*
X542534Y399084D01*
X537734D01*
X537034Y399584D01*
Y404084D01*
X537734Y404584D01*
X542534D01*
X543034Y404084D01*
D02*
G37*
G36*
X533434D02*
Y399584D01*
X532734Y399084D01*
X527934D01*
X527434Y399584D01*
Y404084D01*
X527934Y404584D01*
X532734D01*
X533434Y404084D01*
D02*
G37*
G36*
X893755Y389555D02*
Y384955D01*
X893354Y384555D01*
X888348D01*
X887948Y384955D01*
Y389555D01*
X888348Y389955D01*
X893354D01*
X893755Y389555D01*
D02*
G37*
G36*
X885248D02*
Y384955D01*
X884848Y384555D01*
X879842D01*
X879442Y384955D01*
Y389555D01*
X879842Y389955D01*
X884848D01*
X885248Y389555D01*
D02*
G37*
G36*
X598532Y384980D02*
Y382542D01*
X597998Y382009D01*
X595560D01*
X595027Y382542D01*
Y384980D01*
X595560Y385514D01*
X597998D01*
X598532Y384980D01*
D02*
G37*
G36*
X592029D02*
Y382542D01*
X591521Y382009D01*
X589058D01*
X588524Y382542D01*
Y384980D01*
X589058Y385514D01*
X591521D01*
X592029Y384980D01*
D02*
G37*
G36*
X501047D02*
Y382542D01*
X500513Y382009D01*
X498049D01*
X497541Y382542D01*
Y384980D01*
X498049Y385514D01*
X500513D01*
X501047Y384980D01*
D02*
G37*
G36*
X494544D02*
Y382542D01*
X494011Y382009D01*
X491572D01*
X491039Y382542D01*
Y384980D01*
X491572Y385514D01*
X494011D01*
X494544Y384980D01*
D02*
G37*
G36*
X598532Y376979D02*
Y374541D01*
X597998Y374008D01*
X595560D01*
X595027Y374541D01*
Y376979D01*
X595560Y377513D01*
X597998D01*
X598532Y376979D01*
D02*
G37*
G36*
X592029D02*
Y374541D01*
X591521Y374008D01*
X589058D01*
X588524Y374541D01*
Y376979D01*
X589058Y377513D01*
X591521D01*
X592029Y376979D01*
D02*
G37*
G36*
X585527D02*
Y374541D01*
X585019Y374008D01*
X582555D01*
X582047Y374541D01*
Y376979D01*
X582555Y377513D01*
X585019D01*
X585527Y376979D01*
D02*
G37*
G36*
X579025D02*
Y374541D01*
X578517Y374008D01*
X576053D01*
X575545Y374541D01*
Y376979D01*
X576053Y377513D01*
X578517D01*
X579025Y376979D01*
D02*
G37*
G36*
X572548D02*
Y374541D01*
X572014Y374008D01*
X569550D01*
X569042Y374541D01*
Y376979D01*
X569550Y377513D01*
X572014D01*
X572548Y376979D01*
D02*
G37*
G36*
X566045D02*
Y374541D01*
X565512Y374008D01*
X563048D01*
X562540Y374541D01*
Y376979D01*
X563048Y377513D01*
X565512D01*
X566045Y376979D01*
D02*
G37*
G36*
X559543D02*
Y374541D01*
X559009Y374008D01*
X556571D01*
X556038Y374541D01*
Y376979D01*
X556571Y377513D01*
X559009D01*
X559543Y376979D01*
D02*
G37*
G36*
X553040D02*
Y374541D01*
X552507Y374008D01*
X550069D01*
X549535Y374541D01*
Y376979D01*
X550069Y377513D01*
X552507D01*
X553040Y376979D01*
D02*
G37*
G36*
X546538D02*
Y374541D01*
X546005Y374008D01*
X543566D01*
X543033Y374541D01*
Y376979D01*
X543566Y377513D01*
X546005D01*
X546538Y376979D01*
D02*
G37*
G36*
X540036D02*
Y374541D01*
X539502Y374008D01*
X537064D01*
X536530Y374541D01*
Y376979D01*
X537064Y377513D01*
X539502D01*
X540036Y376979D01*
D02*
G37*
G36*
X533533D02*
Y374541D01*
X533000Y374008D01*
X530561D01*
X530028Y374541D01*
Y376979D01*
X530561Y377513D01*
X533000D01*
X533533Y376979D01*
D02*
G37*
G36*
X527031D02*
Y374541D01*
X526523Y374008D01*
X524059D01*
X523526Y374541D01*
Y376979D01*
X524059Y377513D01*
X526523D01*
X527031Y376979D01*
D02*
G37*
G36*
X520528D02*
Y374541D01*
X520020Y374008D01*
X517557D01*
X517023Y374541D01*
Y376979D01*
X517557Y377513D01*
X520020D01*
X520528Y376979D01*
D02*
G37*
G36*
X514026D02*
Y374541D01*
X513518Y374008D01*
X511054D01*
X510546Y374541D01*
Y376979D01*
X511054Y377513D01*
X513518D01*
X514026Y376979D01*
D02*
G37*
G36*
X507524D02*
Y374541D01*
X507016Y374008D01*
X504552D01*
X504044Y374541D01*
Y376979D01*
X504552Y377513D01*
X507016D01*
X507524Y376979D01*
D02*
G37*
G36*
X501047D02*
Y374541D01*
X500513Y374008D01*
X498049D01*
X497541Y374541D01*
Y376979D01*
X498049Y377513D01*
X500513D01*
X501047Y376979D01*
D02*
G37*
G36*
X494544D02*
Y374541D01*
X494011Y374008D01*
X491572D01*
X491039Y374541D01*
Y376979D01*
X491572Y377513D01*
X494011D01*
X494544Y376979D01*
D02*
G37*
G36*
X598532Y368978D02*
Y366540D01*
X597998Y366007D01*
X595560D01*
X595027Y366540D01*
Y368978D01*
X595560Y369512D01*
X597998D01*
X598532Y368978D01*
D02*
G37*
G36*
X592029D02*
Y366540D01*
X591521Y366007D01*
X589058D01*
X588524Y366540D01*
Y368978D01*
X589058Y369512D01*
X591521D01*
X592029Y368978D01*
D02*
G37*
G36*
X585527D02*
Y366540D01*
X585019Y366007D01*
X582555D01*
X582047Y366540D01*
Y368978D01*
X582555Y369512D01*
X585019D01*
X585527Y368978D01*
D02*
G37*
G36*
X579025D02*
Y366540D01*
X578517Y366007D01*
X576053D01*
X575545Y366540D01*
Y368978D01*
X576053Y369512D01*
X578517D01*
X579025Y368978D01*
D02*
G37*
G36*
X572548D02*
Y366540D01*
X572014Y366007D01*
X569550D01*
X569042Y366540D01*
Y368978D01*
X569550Y369512D01*
X572014D01*
X572548Y368978D01*
D02*
G37*
G36*
X566045D02*
Y366540D01*
X565512Y366007D01*
X563048D01*
X562540Y366540D01*
Y368978D01*
X563048Y369512D01*
X565512D01*
X566045Y368978D01*
D02*
G37*
G36*
X559543D02*
Y366540D01*
X559009Y366007D01*
X556571D01*
X556038Y366540D01*
Y368978D01*
X556571Y369512D01*
X559009D01*
X559543Y368978D01*
D02*
G37*
G36*
X553040D02*
Y366540D01*
X552507Y366007D01*
X550069D01*
X549535Y366540D01*
Y368978D01*
X550069Y369512D01*
X552507D01*
X553040Y368978D01*
D02*
G37*
G36*
X546538D02*
Y366540D01*
X546005Y366007D01*
X543566D01*
X543033Y366540D01*
Y368978D01*
X543566Y369512D01*
X546005D01*
X546538Y368978D01*
D02*
G37*
G36*
X540036D02*
Y366540D01*
X539502Y366007D01*
X537064D01*
X536530Y366540D01*
Y368978D01*
X537064Y369512D01*
X539502D01*
X540036Y368978D01*
D02*
G37*
G36*
X533533D02*
Y366540D01*
X533000Y366007D01*
X530561D01*
X530028Y366540D01*
Y368978D01*
X530561Y369512D01*
X533000D01*
X533533Y368978D01*
D02*
G37*
G36*
X527031D02*
Y366540D01*
X526523Y366007D01*
X524059D01*
X523526Y366540D01*
Y368978D01*
X524059Y369512D01*
X526523D01*
X527031Y368978D01*
D02*
G37*
G36*
X520528D02*
Y366540D01*
X520020Y366007D01*
X517557D01*
X517023Y366540D01*
Y368978D01*
X517557Y369512D01*
X520020D01*
X520528Y368978D01*
D02*
G37*
G36*
X514026D02*
Y366540D01*
X513518Y366007D01*
X511054D01*
X510546Y366540D01*
Y368978D01*
X511054Y369512D01*
X513518D01*
X514026Y368978D01*
D02*
G37*
G36*
X507524D02*
Y366540D01*
X507016Y366007D01*
X504552D01*
X504044Y366540D01*
Y368978D01*
X504552Y369512D01*
X507016D01*
X507524Y368978D01*
D02*
G37*
G36*
X501047D02*
Y366540D01*
X500513Y366007D01*
X498049D01*
X497541Y366540D01*
Y368978D01*
X498049Y369512D01*
X500513D01*
X501047Y368978D01*
D02*
G37*
G36*
X494544D02*
Y366540D01*
X494011Y366007D01*
X491572D01*
X491039Y366540D01*
Y368978D01*
X491572Y369512D01*
X494011D01*
X494544Y368978D01*
D02*
G37*
G36*
X311723Y370336D02*
Y365536D01*
X311223Y364836D01*
X306723D01*
X306223Y365536D01*
Y370336D01*
X306723Y370836D01*
X311223D01*
X311723Y370336D01*
D02*
G37*
G36*
X598532Y360977D02*
Y358539D01*
X597998Y358006D01*
X595560D01*
X595027Y358539D01*
Y360977D01*
X595560Y361511D01*
X597998D01*
X598532Y360977D01*
D02*
G37*
G36*
X592029D02*
Y358539D01*
X591521Y358006D01*
X589058D01*
X588524Y358539D01*
Y360977D01*
X589058Y361511D01*
X591521D01*
X592029Y360977D01*
D02*
G37*
G36*
X585527D02*
Y358539D01*
X585019Y358006D01*
X582555D01*
X582047Y358539D01*
Y360977D01*
X582555Y361511D01*
X585019D01*
X585527Y360977D01*
D02*
G37*
G36*
X579025D02*
Y358539D01*
X578517Y358006D01*
X576053D01*
X575545Y358539D01*
Y360977D01*
X576053Y361511D01*
X578517D01*
X579025Y360977D01*
D02*
G37*
G36*
X572548D02*
Y358539D01*
X572014Y358006D01*
X569550D01*
X569042Y358539D01*
Y360977D01*
X569550Y361511D01*
X572014D01*
X572548Y360977D01*
D02*
G37*
G36*
X566045D02*
Y358539D01*
X565512Y358006D01*
X563048D01*
X562540Y358539D01*
Y360977D01*
X563048Y361511D01*
X565512D01*
X566045Y360977D01*
D02*
G37*
G36*
X559543D02*
Y358539D01*
X559009Y358006D01*
X556571D01*
X556038Y358539D01*
Y360977D01*
X556571Y361511D01*
X559009D01*
X559543Y360977D01*
D02*
G37*
G36*
X553040D02*
Y358539D01*
X552507Y358006D01*
X550069D01*
X549535Y358539D01*
Y360977D01*
X550069Y361511D01*
X552507D01*
X553040Y360977D01*
D02*
G37*
G36*
X546538D02*
Y358539D01*
X546005Y358006D01*
X543566D01*
X543033Y358539D01*
Y360977D01*
X543566Y361511D01*
X546005D01*
X546538Y360977D01*
D02*
G37*
G36*
X540036D02*
Y358539D01*
X539502Y358006D01*
X537064D01*
X536530Y358539D01*
Y360977D01*
X537064Y361511D01*
X539502D01*
X540036Y360977D01*
D02*
G37*
G36*
X533533D02*
Y358539D01*
X533000Y358006D01*
X530561D01*
X530028Y358539D01*
Y360977D01*
X530561Y361511D01*
X533000D01*
X533533Y360977D01*
D02*
G37*
G36*
X527031D02*
Y358539D01*
X526523Y358006D01*
X524059D01*
X523526Y358539D01*
Y360977D01*
X524059Y361511D01*
X526523D01*
X527031Y360977D01*
D02*
G37*
G36*
X520528D02*
Y358539D01*
X520020Y358006D01*
X517557D01*
X517023Y358539D01*
Y360977D01*
X517557Y361511D01*
X520020D01*
X520528Y360977D01*
D02*
G37*
G36*
X514026D02*
Y358539D01*
X513518Y358006D01*
X511054D01*
X510546Y358539D01*
Y360977D01*
X511054Y361511D01*
X513518D01*
X514026Y360977D01*
D02*
G37*
G36*
X507524D02*
Y358539D01*
X507016Y358006D01*
X504552D01*
X504044Y358539D01*
Y360977D01*
X504552Y361511D01*
X507016D01*
X507524Y360977D01*
D02*
G37*
G36*
X501047D02*
Y358539D01*
X500513Y358006D01*
X498049D01*
X497541Y358539D01*
Y360977D01*
X498049Y361511D01*
X500513D01*
X501047Y360977D01*
D02*
G37*
G36*
X494544D02*
Y358539D01*
X494011Y358006D01*
X491572D01*
X491039Y358539D01*
Y360977D01*
X491572Y361511D01*
X494011D01*
X494544Y360977D01*
D02*
G37*
G36*
X893755Y360290D02*
Y355690D01*
X893354Y355290D01*
X888348D01*
X887948Y355690D01*
Y360290D01*
X888348Y360690D01*
X893354D01*
X893755Y360290D01*
D02*
G37*
G36*
X885248D02*
Y355690D01*
X884848Y355290D01*
X879842D01*
X879442Y355690D01*
Y360290D01*
X879842Y360690D01*
X884848D01*
X885248Y360290D01*
D02*
G37*
G36*
X311723Y360536D02*
Y355736D01*
X311223Y355236D01*
X306723D01*
X306223Y355736D01*
Y360536D01*
X306723Y361236D01*
X311223D01*
X311723Y360536D01*
D02*
G37*
G36*
X598532Y352976D02*
Y350538D01*
X597998Y350005D01*
X595560D01*
X595027Y350538D01*
Y352976D01*
X595560Y353510D01*
X597998D01*
X598532Y352976D01*
D02*
G37*
G36*
X592029D02*
Y350538D01*
X591521Y350005D01*
X589058D01*
X588524Y350538D01*
Y352976D01*
X589058Y353510D01*
X591521D01*
X592029Y352976D01*
D02*
G37*
G36*
X585527D02*
Y350538D01*
X585019Y350005D01*
X582555D01*
X582047Y350538D01*
Y352976D01*
X582555Y353510D01*
X585019D01*
X585527Y352976D01*
D02*
G37*
G36*
X579025D02*
Y350538D01*
X578517Y350005D01*
X576053D01*
X575545Y350538D01*
Y352976D01*
X576053Y353510D01*
X578517D01*
X579025Y352976D01*
D02*
G37*
G36*
X572548D02*
Y350538D01*
X572014Y350005D01*
X569550D01*
X569042Y350538D01*
Y352976D01*
X569550Y353510D01*
X572014D01*
X572548Y352976D01*
D02*
G37*
G36*
X566045D02*
Y350538D01*
X565512Y350005D01*
X563048D01*
X562540Y350538D01*
Y352976D01*
X563048Y353510D01*
X565512D01*
X566045Y352976D01*
D02*
G37*
G36*
X559543D02*
Y350538D01*
X559009Y350005D01*
X556571D01*
X556038Y350538D01*
Y352976D01*
X556571Y353510D01*
X559009D01*
X559543Y352976D01*
D02*
G37*
G36*
X553040D02*
Y350538D01*
X552507Y350005D01*
X550069D01*
X549535Y350538D01*
Y352976D01*
X550069Y353510D01*
X552507D01*
X553040Y352976D01*
D02*
G37*
G36*
X546538D02*
Y350538D01*
X546005Y350005D01*
X543566D01*
X543033Y350538D01*
Y352976D01*
X543566Y353510D01*
X546005D01*
X546538Y352976D01*
D02*
G37*
G36*
X540036D02*
Y350538D01*
X539502Y350005D01*
X537064D01*
X536530Y350538D01*
Y352976D01*
X537064Y353510D01*
X539502D01*
X540036Y352976D01*
D02*
G37*
G36*
X533533D02*
Y350538D01*
X533000Y350005D01*
X530561D01*
X530028Y350538D01*
Y352976D01*
X530561Y353510D01*
X533000D01*
X533533Y352976D01*
D02*
G37*
G36*
X527031D02*
Y350538D01*
X526523Y350005D01*
X524059D01*
X523526Y350538D01*
Y352976D01*
X524059Y353510D01*
X526523D01*
X527031Y352976D01*
D02*
G37*
G36*
X520528D02*
Y350538D01*
X520020Y350005D01*
X517557D01*
X517023Y350538D01*
Y352976D01*
X517557Y353510D01*
X520020D01*
X520528Y352976D01*
D02*
G37*
G36*
X514026D02*
Y350538D01*
X513518Y350005D01*
X511054D01*
X510546Y350538D01*
Y352976D01*
X511054Y353510D01*
X513518D01*
X514026Y352976D01*
D02*
G37*
G36*
X507524D02*
Y350538D01*
X507016Y350005D01*
X504552D01*
X504044Y350538D01*
Y352976D01*
X504552Y353510D01*
X507016D01*
X507524Y352976D01*
D02*
G37*
G36*
X501047D02*
Y350538D01*
X500513Y350005D01*
X498049D01*
X497541Y350538D01*
Y352976D01*
X498049Y353510D01*
X500513D01*
X501047Y352976D01*
D02*
G37*
G36*
X494544D02*
Y350538D01*
X494011Y350005D01*
X491572D01*
X491039Y350538D01*
Y352976D01*
X491572Y353510D01*
X494011D01*
X494544Y352976D01*
D02*
G37*
G36*
X266265Y351419D02*
Y346412D01*
X265865Y346012D01*
X261265D01*
X260865Y346412D01*
Y351419D01*
X261265Y351819D01*
X265865D01*
X266265Y351419D01*
D02*
G37*
G36*
X277702Y351068D02*
Y346062D01*
X277302Y345662D01*
X272702D01*
X272302Y346062D01*
Y351068D01*
X272702Y351469D01*
X277302D01*
X277702Y351068D01*
D02*
G37*
G36*
X598532Y344975D02*
Y342537D01*
X597998Y342004D01*
X595560D01*
X595027Y342537D01*
Y344975D01*
X595560Y345509D01*
X597998D01*
X598532Y344975D01*
D02*
G37*
G36*
X592029D02*
Y342537D01*
X591521Y342004D01*
X589058D01*
X588524Y342537D01*
Y344975D01*
X589058Y345509D01*
X591521D01*
X592029Y344975D01*
D02*
G37*
G36*
X585527D02*
Y342537D01*
X585019Y342004D01*
X582555D01*
X582047Y342537D01*
Y344975D01*
X582555Y345509D01*
X585019D01*
X585527Y344975D01*
D02*
G37*
G36*
X579025D02*
Y342537D01*
X578517Y342004D01*
X576053D01*
X575545Y342537D01*
Y344975D01*
X576053Y345509D01*
X578517D01*
X579025Y344975D01*
D02*
G37*
G36*
X572548D02*
Y342537D01*
X572014Y342004D01*
X569550D01*
X569042Y342537D01*
Y344975D01*
X569550Y345509D01*
X572014D01*
X572548Y344975D01*
D02*
G37*
G36*
X566045D02*
Y342537D01*
X565512Y342004D01*
X563048D01*
X562540Y342537D01*
Y344975D01*
X563048Y345509D01*
X565512D01*
X566045Y344975D01*
D02*
G37*
G36*
X559543D02*
Y342537D01*
X559009Y342004D01*
X556571D01*
X556038Y342537D01*
Y344975D01*
X556571Y345509D01*
X559009D01*
X559543Y344975D01*
D02*
G37*
G36*
X553040D02*
Y342537D01*
X552507Y342004D01*
X550069D01*
X549535Y342537D01*
Y344975D01*
X550069Y345509D01*
X552507D01*
X553040Y344975D01*
D02*
G37*
G36*
X546538D02*
Y342537D01*
X546005Y342004D01*
X543566D01*
X543033Y342537D01*
Y344975D01*
X543566Y345509D01*
X546005D01*
X546538Y344975D01*
D02*
G37*
G36*
X540036D02*
Y342537D01*
X539502Y342004D01*
X537064D01*
X536530Y342537D01*
Y344975D01*
X537064Y345509D01*
X539502D01*
X540036Y344975D01*
D02*
G37*
G36*
X533533D02*
Y342537D01*
X533000Y342004D01*
X530561D01*
X530028Y342537D01*
Y344975D01*
X530561Y345509D01*
X533000D01*
X533533Y344975D01*
D02*
G37*
G36*
X527031D02*
Y342537D01*
X526523Y342004D01*
X524059D01*
X523526Y342537D01*
Y344975D01*
X524059Y345509D01*
X526523D01*
X527031Y344975D01*
D02*
G37*
G36*
X520528D02*
Y342537D01*
X520020Y342004D01*
X517557D01*
X517023Y342537D01*
Y344975D01*
X517557Y345509D01*
X520020D01*
X520528Y344975D01*
D02*
G37*
G36*
X514026D02*
Y342537D01*
X513518Y342004D01*
X511054D01*
X510546Y342537D01*
Y344975D01*
X511054Y345509D01*
X513518D01*
X514026Y344975D01*
D02*
G37*
G36*
X507524D02*
Y342537D01*
X507016Y342004D01*
X504552D01*
X504044Y342537D01*
Y344975D01*
X504552Y345509D01*
X507016D01*
X507524Y344975D01*
D02*
G37*
G36*
X501047D02*
Y342537D01*
X500513Y342004D01*
X498049D01*
X497541Y342537D01*
Y344975D01*
X498049Y345509D01*
X500513D01*
X501047Y344975D01*
D02*
G37*
G36*
X494544D02*
Y342537D01*
X494011Y342004D01*
X491572D01*
X491039Y342537D01*
Y344975D01*
X491572Y345509D01*
X494011D01*
X494544Y344975D01*
D02*
G37*
G36*
X1013748Y342660D02*
Y338060D01*
X1013348Y337660D01*
X1008342D01*
X1007942Y338060D01*
Y342660D01*
X1008342Y343060D01*
X1013348D01*
X1013748Y342660D01*
D02*
G37*
G36*
X1005242D02*
Y338060D01*
X1004842Y337660D01*
X999835D01*
X999435Y338060D01*
Y342660D01*
X999835Y343060D01*
X1004842D01*
X1005242Y342660D01*
D02*
G37*
G36*
X266265Y342912D02*
Y337906D01*
X265865Y337506D01*
X261265D01*
X260865Y337906D01*
Y342912D01*
X261265Y343312D01*
X265865D01*
X266265Y342912D01*
D02*
G37*
G36*
X277702Y342562D02*
Y337556D01*
X277302Y337156D01*
X272702D01*
X272302Y337556D01*
Y342562D01*
X272702Y342962D01*
X277302D01*
X277702Y342562D01*
D02*
G37*
G36*
X598532Y328973D02*
Y326535D01*
X597998Y326002D01*
X595560D01*
X595027Y326535D01*
Y328973D01*
X595560Y329507D01*
X597998D01*
X598532Y328973D01*
D02*
G37*
G36*
X592029D02*
Y326535D01*
X591521Y326002D01*
X589058D01*
X588524Y326535D01*
Y328973D01*
X589058Y329507D01*
X591521D01*
X592029Y328973D01*
D02*
G37*
G36*
X585527D02*
Y326535D01*
X585019Y326002D01*
X582555D01*
X582047Y326535D01*
Y328973D01*
X582555Y329507D01*
X585019D01*
X585527Y328973D01*
D02*
G37*
G36*
X579025D02*
Y326535D01*
X578517Y326002D01*
X576053D01*
X575545Y326535D01*
Y328973D01*
X576053Y329507D01*
X578517D01*
X579025Y328973D01*
D02*
G37*
G36*
X572548D02*
Y326535D01*
X572014Y326002D01*
X569550D01*
X569042Y326535D01*
Y328973D01*
X569550Y329507D01*
X572014D01*
X572548Y328973D01*
D02*
G37*
G36*
X566045D02*
Y326535D01*
X565512Y326002D01*
X563048D01*
X562540Y326535D01*
Y328973D01*
X563048Y329507D01*
X565512D01*
X566045Y328973D01*
D02*
G37*
G36*
X559543D02*
Y326535D01*
X559009Y326002D01*
X556571D01*
X556038Y326535D01*
Y328973D01*
X556571Y329507D01*
X559009D01*
X559543Y328973D01*
D02*
G37*
G36*
X553040D02*
Y326535D01*
X552507Y326002D01*
X550069D01*
X549535Y326535D01*
Y328973D01*
X550069Y329507D01*
X552507D01*
X553040Y328973D01*
D02*
G37*
G36*
X546538D02*
Y326535D01*
X546005Y326002D01*
X543566D01*
X543033Y326535D01*
Y328973D01*
X543566Y329507D01*
X546005D01*
X546538Y328973D01*
D02*
G37*
G36*
X540036D02*
Y326535D01*
X539502Y326002D01*
X537064D01*
X536530Y326535D01*
Y328973D01*
X537064Y329507D01*
X539502D01*
X540036Y328973D01*
D02*
G37*
G36*
X533533D02*
Y326535D01*
X533000Y326002D01*
X530561D01*
X530028Y326535D01*
Y328973D01*
X530561Y329507D01*
X533000D01*
X533533Y328973D01*
D02*
G37*
G36*
X527031D02*
Y326535D01*
X526523Y326002D01*
X524059D01*
X523526Y326535D01*
Y328973D01*
X524059Y329507D01*
X526523D01*
X527031Y328973D01*
D02*
G37*
G36*
X520528D02*
Y326535D01*
X520020Y326002D01*
X517557D01*
X517023Y326535D01*
Y328973D01*
X517557Y329507D01*
X520020D01*
X520528Y328973D01*
D02*
G37*
G36*
X514026D02*
Y326535D01*
X513518Y326002D01*
X511054D01*
X510546Y326535D01*
Y328973D01*
X511054Y329507D01*
X513518D01*
X514026Y328973D01*
D02*
G37*
G36*
X507524D02*
Y326535D01*
X507016Y326002D01*
X504552D01*
X504044Y326535D01*
Y328973D01*
X504552Y329507D01*
X507016D01*
X507524Y328973D01*
D02*
G37*
G36*
X501047D02*
Y326535D01*
X500513Y326002D01*
X498049D01*
X497541Y326535D01*
Y328973D01*
X498049Y329507D01*
X500513D01*
X501047Y328973D01*
D02*
G37*
G36*
X494544D02*
Y326535D01*
X494011Y326002D01*
X491572D01*
X491039Y326535D01*
Y328973D01*
X491572Y329507D01*
X494011D01*
X494544Y328973D01*
D02*
G37*
G36*
X598532Y320972D02*
Y318534D01*
X597998Y318001D01*
X595560D01*
X595027Y318534D01*
Y320972D01*
X595560Y321506D01*
X597998D01*
X598532Y320972D01*
D02*
G37*
G36*
X592029D02*
Y318534D01*
X591521Y318001D01*
X589058D01*
X588524Y318534D01*
Y320972D01*
X589058Y321506D01*
X591521D01*
X592029Y320972D01*
D02*
G37*
G36*
X585527D02*
Y318534D01*
X585019Y318001D01*
X582555D01*
X582047Y318534D01*
Y320972D01*
X582555Y321506D01*
X585019D01*
X585527Y320972D01*
D02*
G37*
G36*
X579025D02*
Y318534D01*
X578517Y318001D01*
X576053D01*
X575545Y318534D01*
Y320972D01*
X576053Y321506D01*
X578517D01*
X579025Y320972D01*
D02*
G37*
G36*
X572548D02*
Y318534D01*
X572014Y318001D01*
X569550D01*
X569042Y318534D01*
Y320972D01*
X569550Y321506D01*
X572014D01*
X572548Y320972D01*
D02*
G37*
G36*
X566045D02*
Y318534D01*
X565512Y318001D01*
X563048D01*
X562540Y318534D01*
Y320972D01*
X563048Y321506D01*
X565512D01*
X566045Y320972D01*
D02*
G37*
G36*
X559543D02*
Y318534D01*
X559009Y318001D01*
X556571D01*
X556038Y318534D01*
Y320972D01*
X556571Y321506D01*
X559009D01*
X559543Y320972D01*
D02*
G37*
G36*
X553040D02*
Y318534D01*
X552507Y318001D01*
X550069D01*
X549535Y318534D01*
Y320972D01*
X550069Y321506D01*
X552507D01*
X553040Y320972D01*
D02*
G37*
G36*
X546538D02*
Y318534D01*
X546005Y318001D01*
X543566D01*
X543033Y318534D01*
Y320972D01*
X543566Y321506D01*
X546005D01*
X546538Y320972D01*
D02*
G37*
G36*
X540036D02*
Y318534D01*
X539502Y318001D01*
X537064D01*
X536530Y318534D01*
Y320972D01*
X537064Y321506D01*
X539502D01*
X540036Y320972D01*
D02*
G37*
G36*
X533533D02*
Y318534D01*
X533000Y318001D01*
X530561D01*
X530028Y318534D01*
Y320972D01*
X530561Y321506D01*
X533000D01*
X533533Y320972D01*
D02*
G37*
G36*
X527031D02*
Y318534D01*
X526523Y318001D01*
X524059D01*
X523526Y318534D01*
Y320972D01*
X524059Y321506D01*
X526523D01*
X527031Y320972D01*
D02*
G37*
G36*
X520528D02*
Y318534D01*
X520020Y318001D01*
X517557D01*
X517023Y318534D01*
Y320972D01*
X517557Y321506D01*
X520020D01*
X520528Y320972D01*
D02*
G37*
G36*
X514026D02*
Y318534D01*
X513518Y318001D01*
X511054D01*
X510546Y318534D01*
Y320972D01*
X511054Y321506D01*
X513518D01*
X514026Y320972D01*
D02*
G37*
G36*
X507524D02*
Y318534D01*
X507016Y318001D01*
X504552D01*
X504044Y318534D01*
Y320972D01*
X504552Y321506D01*
X507016D01*
X507524Y320972D01*
D02*
G37*
G36*
X501047D02*
Y318534D01*
X500513Y318001D01*
X498049D01*
X497541Y318534D01*
Y320972D01*
X498049Y321506D01*
X500513D01*
X501047Y320972D01*
D02*
G37*
G36*
X494544D02*
Y318534D01*
X494011Y318001D01*
X491572D01*
X491039Y318534D01*
Y320972D01*
X491572Y321506D01*
X494011D01*
X494544Y320972D01*
D02*
G37*
G36*
X128456Y322323D02*
Y317723D01*
X128056Y317323D01*
X123049D01*
X122649Y317723D01*
Y322323D01*
X123049Y322723D01*
X128056D01*
X128456Y322323D01*
D02*
G37*
G36*
X119949D02*
Y317723D01*
X119549Y317323D01*
X114543D01*
X114143Y317723D01*
Y322323D01*
X114543Y322723D01*
X119549D01*
X119949Y322323D01*
D02*
G37*
G36*
X631546Y322290D02*
Y317790D01*
X631046Y317290D01*
X626246D01*
X625546Y317790D01*
Y322290D01*
X626246Y322790D01*
X631046D01*
X631546Y322290D01*
D02*
G37*
G36*
X621946D02*
Y317790D01*
X621246Y317290D01*
X616446D01*
X615946Y317790D01*
Y322290D01*
X616446Y322790D01*
X621246D01*
X621946Y322290D01*
D02*
G37*
G36*
X952788Y319800D02*
Y315200D01*
X952388Y314800D01*
X947382D01*
X946982Y315200D01*
Y319800D01*
X947382Y320200D01*
X952388D01*
X952788Y319800D01*
D02*
G37*
G36*
X944282D02*
Y315200D01*
X943882Y314800D01*
X938875D01*
X938475Y315200D01*
Y319800D01*
X938875Y320200D01*
X943882D01*
X944282Y319800D01*
D02*
G37*
G36*
X474336Y316679D02*
Y312179D01*
X473836Y311679D01*
X469036D01*
X468336Y312179D01*
Y316679D01*
X469036Y317179D01*
X473836D01*
X474336Y316679D01*
D02*
G37*
G36*
X464736D02*
Y312179D01*
X464036Y311679D01*
X459236D01*
X458736Y312179D01*
Y316679D01*
X459236Y317179D01*
X464036D01*
X464736Y316679D01*
D02*
G37*
G36*
X598532Y312971D02*
Y310533D01*
X597998Y310000D01*
X595560D01*
X595027Y310533D01*
Y312971D01*
X595560Y313505D01*
X597998D01*
X598532Y312971D01*
D02*
G37*
G36*
X592029D02*
Y310533D01*
X591521Y310000D01*
X589058D01*
X588524Y310533D01*
Y312971D01*
X589058Y313505D01*
X591521D01*
X592029Y312971D01*
D02*
G37*
G36*
X585527D02*
Y310533D01*
X585019Y310000D01*
X582555D01*
X582047Y310533D01*
Y312971D01*
X582555Y313505D01*
X585019D01*
X585527Y312971D01*
D02*
G37*
G36*
X579025D02*
Y310533D01*
X578517Y310000D01*
X576053D01*
X575545Y310533D01*
Y312971D01*
X576053Y313505D01*
X578517D01*
X579025Y312971D01*
D02*
G37*
G36*
X572548D02*
Y310533D01*
X572014Y310000D01*
X569550D01*
X569042Y310533D01*
Y312971D01*
X569550Y313505D01*
X572014D01*
X572548Y312971D01*
D02*
G37*
G36*
X566045D02*
Y310533D01*
X565512Y310000D01*
X563048D01*
X562540Y310533D01*
Y312971D01*
X563048Y313505D01*
X565512D01*
X566045Y312971D01*
D02*
G37*
G36*
X559543D02*
Y310533D01*
X559009Y310000D01*
X556571D01*
X556038Y310533D01*
Y312971D01*
X556571Y313505D01*
X559009D01*
X559543Y312971D01*
D02*
G37*
G36*
X553040D02*
Y310533D01*
X552507Y310000D01*
X550069D01*
X549535Y310533D01*
Y312971D01*
X550069Y313505D01*
X552507D01*
X553040Y312971D01*
D02*
G37*
G36*
X546538D02*
Y310533D01*
X546005Y310000D01*
X543566D01*
X543033Y310533D01*
Y312971D01*
X543566Y313505D01*
X546005D01*
X546538Y312971D01*
D02*
G37*
G36*
X540036D02*
Y310533D01*
X539502Y310000D01*
X537064D01*
X536530Y310533D01*
Y312971D01*
X537064Y313505D01*
X539502D01*
X540036Y312971D01*
D02*
G37*
G36*
X533533D02*
Y310533D01*
X533000Y310000D01*
X530561D01*
X530028Y310533D01*
Y312971D01*
X530561Y313505D01*
X533000D01*
X533533Y312971D01*
D02*
G37*
G36*
X527031D02*
Y310533D01*
X526523Y310000D01*
X524059D01*
X523526Y310533D01*
Y312971D01*
X524059Y313505D01*
X526523D01*
X527031Y312971D01*
D02*
G37*
G36*
X520528D02*
Y310533D01*
X520020Y310000D01*
X517557D01*
X517023Y310533D01*
Y312971D01*
X517557Y313505D01*
X520020D01*
X520528Y312971D01*
D02*
G37*
G36*
X514026D02*
Y310533D01*
X513518Y310000D01*
X511054D01*
X510546Y310533D01*
Y312971D01*
X511054Y313505D01*
X513518D01*
X514026Y312971D01*
D02*
G37*
G36*
X507524D02*
Y310533D01*
X507016Y310000D01*
X504552D01*
X504044Y310533D01*
Y312971D01*
X504552Y313505D01*
X507016D01*
X507524Y312971D01*
D02*
G37*
G36*
X501047D02*
Y310533D01*
X500513Y310000D01*
X498049D01*
X497541Y310533D01*
Y312971D01*
X498049Y313505D01*
X500513D01*
X501047Y312971D01*
D02*
G37*
G36*
X494544D02*
Y310533D01*
X494011Y310000D01*
X491572D01*
X491039Y310533D01*
Y312971D01*
X491572Y313505D01*
X494011D01*
X494544Y312971D01*
D02*
G37*
G36*
X128222Y309977D02*
Y305377D01*
X127822Y304977D01*
X122816D01*
X122416Y305377D01*
Y309977D01*
X122816Y310377D01*
X127822D01*
X128222Y309977D01*
D02*
G37*
G36*
X119716D02*
Y305377D01*
X119316Y304977D01*
X114309D01*
X113909Y305377D01*
Y309977D01*
X114309Y310377D01*
X119316D01*
X119716Y309977D01*
D02*
G37*
G36*
X788719Y309863D02*
Y305263D01*
X788319Y304863D01*
X783312D01*
X782912Y305263D01*
Y309863D01*
X783312Y310263D01*
X788319D01*
X788719Y309863D01*
D02*
G37*
G36*
X780212D02*
Y305263D01*
X779812Y304863D01*
X774806D01*
X774406Y305263D01*
Y309863D01*
X774806Y310263D01*
X779812D01*
X780212Y309863D01*
D02*
G37*
G36*
X872821Y309755D02*
Y305155D01*
X872421Y304755D01*
X867415D01*
X867015Y305155D01*
Y309755D01*
X867415Y310155D01*
X872421D01*
X872821Y309755D01*
D02*
G37*
G36*
X864315D02*
Y305155D01*
X863915Y304755D01*
X858909D01*
X858509Y305155D01*
Y309755D01*
X858909Y310155D01*
X863915D01*
X864315Y309755D01*
D02*
G37*
G36*
X1028236Y309640D02*
Y305040D01*
X1027836Y304640D01*
X1022830D01*
X1022430Y305040D01*
Y309640D01*
X1022830Y310040D01*
X1027836D01*
X1028236Y309640D01*
D02*
G37*
G36*
X1019730D02*
Y305040D01*
X1019330Y304640D01*
X1014324D01*
X1013923Y305040D01*
Y309640D01*
X1014324Y310040D01*
X1019330D01*
X1019730Y309640D01*
D02*
G37*
G36*
X308112Y310031D02*
Y305231D01*
X307612Y304531D01*
X303112D01*
X302612Y305231D01*
Y310031D01*
X303112Y310531D01*
X307612D01*
X308112Y310031D01*
D02*
G37*
G36*
X598532Y304970D02*
Y302532D01*
X597998Y301999D01*
X595560D01*
X595027Y302532D01*
Y304970D01*
X595560Y305504D01*
X597998D01*
X598532Y304970D01*
D02*
G37*
G36*
X592029D02*
Y302532D01*
X591521Y301999D01*
X589058D01*
X588524Y302532D01*
Y304970D01*
X589058Y305504D01*
X591521D01*
X592029Y304970D01*
D02*
G37*
G36*
X585527D02*
Y302532D01*
X585019Y301999D01*
X582555D01*
X582047Y302532D01*
Y304970D01*
X582555Y305504D01*
X585019D01*
X585527Y304970D01*
D02*
G37*
G36*
X579025D02*
Y302532D01*
X578517Y301999D01*
X576053D01*
X575545Y302532D01*
Y304970D01*
X576053Y305504D01*
X578517D01*
X579025Y304970D01*
D02*
G37*
G36*
X572548D02*
Y302532D01*
X572014Y301999D01*
X569550D01*
X569042Y302532D01*
Y304970D01*
X569550Y305504D01*
X572014D01*
X572548Y304970D01*
D02*
G37*
G36*
X566045D02*
Y302532D01*
X565512Y301999D01*
X563048D01*
X562540Y302532D01*
Y304970D01*
X563048Y305504D01*
X565512D01*
X566045Y304970D01*
D02*
G37*
G36*
X559543D02*
Y302532D01*
X559009Y301999D01*
X556571D01*
X556038Y302532D01*
Y304970D01*
X556571Y305504D01*
X559009D01*
X559543Y304970D01*
D02*
G37*
G36*
X553040D02*
Y302532D01*
X552507Y301999D01*
X550069D01*
X549535Y302532D01*
Y304970D01*
X550069Y305504D01*
X552507D01*
X553040Y304970D01*
D02*
G37*
G36*
X546538D02*
Y302532D01*
X546005Y301999D01*
X543566D01*
X543033Y302532D01*
Y304970D01*
X543566Y305504D01*
X546005D01*
X546538Y304970D01*
D02*
G37*
G36*
X540036D02*
Y302532D01*
X539502Y301999D01*
X537064D01*
X536530Y302532D01*
Y304970D01*
X537064Y305504D01*
X539502D01*
X540036Y304970D01*
D02*
G37*
G36*
X533533D02*
Y302532D01*
X533000Y301999D01*
X530561D01*
X530028Y302532D01*
Y304970D01*
X530561Y305504D01*
X533000D01*
X533533Y304970D01*
D02*
G37*
G36*
X527031D02*
Y302532D01*
X526523Y301999D01*
X524059D01*
X523526Y302532D01*
Y304970D01*
X524059Y305504D01*
X526523D01*
X527031Y304970D01*
D02*
G37*
G36*
X520528D02*
Y302532D01*
X520020Y301999D01*
X517557D01*
X517023Y302532D01*
Y304970D01*
X517557Y305504D01*
X520020D01*
X520528Y304970D01*
D02*
G37*
G36*
X514026D02*
Y302532D01*
X513518Y301999D01*
X511054D01*
X510546Y302532D01*
Y304970D01*
X511054Y305504D01*
X513518D01*
X514026Y304970D01*
D02*
G37*
G36*
X507524D02*
Y302532D01*
X507016Y301999D01*
X504552D01*
X504044Y302532D01*
Y304970D01*
X504552Y305504D01*
X507016D01*
X507524Y304970D01*
D02*
G37*
G36*
X501047D02*
Y302532D01*
X500513Y301999D01*
X498049D01*
X497541Y302532D01*
Y304970D01*
X498049Y305504D01*
X500513D01*
X501047Y304970D01*
D02*
G37*
G36*
X494544D02*
Y302532D01*
X494011Y301999D01*
X491572D01*
X491039Y302532D01*
Y304970D01*
X491572Y305504D01*
X494011D01*
X494544Y304970D01*
D02*
G37*
G36*
X473813Y305645D02*
Y301045D01*
X473413Y300645D01*
X468407D01*
X468007Y301045D01*
Y305645D01*
X468407Y306045D01*
X473413D01*
X473813Y305645D01*
D02*
G37*
G36*
X465307D02*
Y301045D01*
X464907Y300645D01*
X459900D01*
X459500Y301045D01*
Y305645D01*
X459900Y306045D01*
X464907D01*
X465307Y305645D01*
D02*
G37*
G36*
X308112Y300231D02*
Y295431D01*
X307612Y294931D01*
X303112D01*
X302612Y295431D01*
Y300231D01*
X303112Y300931D01*
X307612D01*
X308112Y300231D01*
D02*
G37*
G36*
X598532Y296969D02*
Y294531D01*
X597998Y293998D01*
X595560D01*
X595027Y294531D01*
Y296969D01*
X595560Y297503D01*
X597998D01*
X598532Y296969D01*
D02*
G37*
G36*
X592029D02*
Y294531D01*
X591521Y293998D01*
X589058D01*
X588524Y294531D01*
Y296969D01*
X589058Y297503D01*
X591521D01*
X592029Y296969D01*
D02*
G37*
G36*
X585527D02*
Y294531D01*
X585019Y293998D01*
X582555D01*
X582047Y294531D01*
Y296969D01*
X582555Y297503D01*
X585019D01*
X585527Y296969D01*
D02*
G37*
G36*
X579025D02*
Y294531D01*
X578517Y293998D01*
X576053D01*
X575545Y294531D01*
Y296969D01*
X576053Y297503D01*
X578517D01*
X579025Y296969D01*
D02*
G37*
G36*
X572548D02*
Y294531D01*
X572014Y293998D01*
X569550D01*
X569042Y294531D01*
Y296969D01*
X569550Y297503D01*
X572014D01*
X572548Y296969D01*
D02*
G37*
G36*
X566045D02*
Y294531D01*
X565512Y293998D01*
X563048D01*
X562540Y294531D01*
Y296969D01*
X563048Y297503D01*
X565512D01*
X566045Y296969D01*
D02*
G37*
G36*
X559543D02*
Y294531D01*
X559009Y293998D01*
X556571D01*
X556038Y294531D01*
Y296969D01*
X556571Y297503D01*
X559009D01*
X559543Y296969D01*
D02*
G37*
G36*
X553040D02*
Y294531D01*
X552507Y293998D01*
X550069D01*
X549535Y294531D01*
Y296969D01*
X550069Y297503D01*
X552507D01*
X553040Y296969D01*
D02*
G37*
G36*
X546538D02*
Y294531D01*
X546005Y293998D01*
X543566D01*
X543033Y294531D01*
Y296969D01*
X543566Y297503D01*
X546005D01*
X546538Y296969D01*
D02*
G37*
G36*
X540036D02*
Y294531D01*
X539502Y293998D01*
X537064D01*
X536530Y294531D01*
Y296969D01*
X537064Y297503D01*
X539502D01*
X540036Y296969D01*
D02*
G37*
G36*
X533533D02*
Y294531D01*
X533000Y293998D01*
X530561D01*
X530028Y294531D01*
Y296969D01*
X530561Y297503D01*
X533000D01*
X533533Y296969D01*
D02*
G37*
G36*
X527031D02*
Y294531D01*
X526523Y293998D01*
X524059D01*
X523526Y294531D01*
Y296969D01*
X524059Y297503D01*
X526523D01*
X527031Y296969D01*
D02*
G37*
G36*
X520528D02*
Y294531D01*
X520020Y293998D01*
X517557D01*
X517023Y294531D01*
Y296969D01*
X517557Y297503D01*
X520020D01*
X520528Y296969D01*
D02*
G37*
G36*
X514026D02*
Y294531D01*
X513518Y293998D01*
X511054D01*
X510546Y294531D01*
Y296969D01*
X511054Y297503D01*
X513518D01*
X514026Y296969D01*
D02*
G37*
G36*
X507524D02*
Y294531D01*
X507016Y293998D01*
X504552D01*
X504044Y294531D01*
Y296969D01*
X504552Y297503D01*
X507016D01*
X507524Y296969D01*
D02*
G37*
G36*
X501047D02*
Y294531D01*
X500513Y293998D01*
X498049D01*
X497541Y294531D01*
Y296969D01*
X498049Y297503D01*
X500513D01*
X501047Y296969D01*
D02*
G37*
G36*
X494544D02*
Y294531D01*
X494011Y293998D01*
X491572D01*
X491039Y294531D01*
Y296969D01*
X491572Y297503D01*
X494011D01*
X494544Y296969D01*
D02*
G37*
G36*
X788850Y296890D02*
Y292390D01*
X788350Y291890D01*
X783550D01*
X782850Y292390D01*
Y296890D01*
X783550Y297390D01*
X788350D01*
X788850Y296890D01*
D02*
G37*
G36*
X779250D02*
Y292390D01*
X778550Y291890D01*
X773750D01*
X773250Y292390D01*
Y296890D01*
X773750Y297390D01*
X778550D01*
X779250Y296890D01*
D02*
G37*
G36*
X1027610Y295620D02*
Y291120D01*
X1027110Y290620D01*
X1022310D01*
X1021610Y291120D01*
Y295620D01*
X1022310Y296120D01*
X1027110D01*
X1027610Y295620D01*
D02*
G37*
G36*
X1018010D02*
Y291120D01*
X1017310Y290620D01*
X1012510D01*
X1012010Y291120D01*
Y295620D01*
X1012510Y296120D01*
X1017310D01*
X1018010Y295620D01*
D02*
G37*
G36*
X872670D02*
Y291120D01*
X872170Y290620D01*
X867370D01*
X866670Y291120D01*
Y295620D01*
X867370Y296120D01*
X872170D01*
X872670Y295620D01*
D02*
G37*
G36*
X863070D02*
Y291120D01*
X862370Y290620D01*
X857570D01*
X857070Y291120D01*
Y295620D01*
X857570Y296120D01*
X862370D01*
X863070Y295620D01*
D02*
G37*
G36*
X631895Y295120D02*
Y290620D01*
X631395Y290120D01*
X626595D01*
X625895Y290620D01*
Y295120D01*
X626595Y295620D01*
X631395D01*
X631895Y295120D01*
D02*
G37*
G36*
X622295D02*
Y290620D01*
X621595Y290120D01*
X616795D01*
X616295Y290620D01*
Y295120D01*
X616795Y295620D01*
X621595D01*
X622295Y295120D01*
D02*
G37*
G36*
X474610Y295096D02*
Y290595D01*
X474110Y290096D01*
X469310D01*
X468610Y290595D01*
Y295096D01*
X469310Y295595D01*
X474110D01*
X474610Y295096D01*
D02*
G37*
G36*
X465010D02*
Y290595D01*
X464310Y290096D01*
X459510D01*
X459010Y290595D01*
Y295096D01*
X459510Y295595D01*
X464310D01*
X465010Y295096D01*
D02*
G37*
G36*
X952309Y294350D02*
Y289850D01*
X951809Y289350D01*
X947009D01*
X946309Y289850D01*
Y294350D01*
X947009Y294850D01*
X951809D01*
X952309Y294350D01*
D02*
G37*
G36*
X942709D02*
Y289850D01*
X942009Y289350D01*
X937209D01*
X936709Y289850D01*
Y294350D01*
X937209Y294850D01*
X942009D01*
X942709Y294350D01*
D02*
G37*
G36*
X598532Y288968D02*
Y286530D01*
X597998Y285997D01*
X595560D01*
X595027Y286530D01*
Y288968D01*
X595560Y289502D01*
X597998D01*
X598532Y288968D01*
D02*
G37*
G36*
X592029D02*
Y286530D01*
X591521Y285997D01*
X589058D01*
X588524Y286530D01*
Y288968D01*
X589058Y289502D01*
X591521D01*
X592029Y288968D01*
D02*
G37*
G36*
X501047D02*
Y286530D01*
X500513Y285997D01*
X498049D01*
X497541Y286530D01*
Y288968D01*
X498049Y289502D01*
X500513D01*
X501047Y288968D01*
D02*
G37*
G36*
X494544D02*
Y286530D01*
X494011Y285997D01*
X491572D01*
X491039Y286530D01*
Y288968D01*
X491572Y289502D01*
X494011D01*
X494544Y288968D01*
D02*
G37*
G36*
X329868Y283207D02*
Y278607D01*
X329468Y278207D01*
X324461D01*
X324061Y278607D01*
Y283207D01*
X324461Y283606D01*
X329468D01*
X329868Y283207D01*
D02*
G37*
G36*
X321361D02*
Y278607D01*
X320961Y278207D01*
X315955D01*
X315555Y278607D01*
Y283207D01*
X315955Y283606D01*
X320961D01*
X321361Y283207D01*
D02*
G37*
G36*
X512732Y271540D02*
Y267039D01*
X512232Y266540D01*
X507432D01*
X506732Y267039D01*
Y271540D01*
X507432Y272039D01*
X512232D01*
X512732Y271540D01*
D02*
G37*
G36*
X503132D02*
Y267039D01*
X502432Y266540D01*
X497632D01*
X497132Y267039D01*
Y271540D01*
X497632Y272039D01*
X502432D01*
X503132Y271540D01*
D02*
G37*
G36*
X329868Y271523D02*
Y266923D01*
X329468Y266523D01*
X324461D01*
X324061Y266923D01*
Y271523D01*
X324461Y271923D01*
X329468D01*
X329868Y271523D01*
D02*
G37*
G36*
X321361D02*
Y266923D01*
X320961Y266523D01*
X315955D01*
X315555Y266923D01*
Y271523D01*
X315955Y271923D01*
X320961D01*
X321361Y271523D01*
D02*
G37*
G36*
X607742Y271485D02*
Y266985D01*
X607241Y266485D01*
X602441D01*
X601741Y266985D01*
Y271485D01*
X602441Y271985D01*
X607241D01*
X607742Y271485D01*
D02*
G37*
G36*
X598141D02*
Y266985D01*
X597441Y266485D01*
X592641D01*
X592141Y266985D01*
Y271485D01*
X592641Y271985D01*
X597441D01*
X598141Y271485D01*
D02*
G37*
G36*
X474610Y271474D02*
Y266973D01*
X474110Y266474D01*
X469310D01*
X468610Y266973D01*
Y271474D01*
X469310Y271973D01*
X474110D01*
X474610Y271474D01*
D02*
G37*
G36*
X465010D02*
Y266973D01*
X464310Y266474D01*
X459510D01*
X459010Y266973D01*
Y271474D01*
X459510Y271973D01*
X464310D01*
X465010Y271474D01*
D02*
G37*
G36*
X579049Y271473D02*
Y266973D01*
X578549Y266473D01*
X573749D01*
X573049Y266973D01*
Y271473D01*
X573749Y271973D01*
X578549D01*
X579049Y271473D01*
D02*
G37*
G36*
X569449D02*
Y266973D01*
X568749Y266473D01*
X563949D01*
X563449Y266973D01*
Y271473D01*
X563949Y271973D01*
X568749D01*
X569449Y271473D01*
D02*
G37*
G36*
X329868Y260093D02*
Y255493D01*
X329468Y255093D01*
X324461D01*
X324061Y255493D01*
Y260093D01*
X324461Y260493D01*
X329468D01*
X329868Y260093D01*
D02*
G37*
G36*
X321361D02*
Y255493D01*
X320961Y255093D01*
X315955D01*
X315555Y255493D01*
Y260093D01*
X315955Y260493D01*
X320961D01*
X321361Y260093D01*
D02*
G37*
G36*
X537226Y256589D02*
Y252089D01*
X536726Y251589D01*
X531926D01*
X531226Y252089D01*
Y256589D01*
X531926Y257089D01*
X536726D01*
X537226Y256589D01*
D02*
G37*
G36*
X527626D02*
Y252089D01*
X526926Y251589D01*
X522126D01*
X521626Y252089D01*
Y256589D01*
X522126Y257089D01*
X526926D01*
X527626Y256589D01*
D02*
G37*
G36*
X555200Y256220D02*
Y251420D01*
X554700Y250720D01*
X550200D01*
X549700Y251420D01*
Y256220D01*
X550200Y256720D01*
X554700D01*
X555200Y256220D01*
D02*
G37*
G36*
X128222Y251203D02*
Y246603D01*
X127822Y246203D01*
X122816D01*
X122416Y246603D01*
Y251203D01*
X122816Y251603D01*
X127822D01*
X128222Y251203D01*
D02*
G37*
G36*
X119716D02*
Y246603D01*
X119316Y246203D01*
X114309D01*
X113909Y246603D01*
Y251203D01*
X114309Y251603D01*
X119316D01*
X119716Y251203D01*
D02*
G37*
G36*
X329868Y248663D02*
Y244063D01*
X329468Y243663D01*
X324461D01*
X324061Y244063D01*
Y248663D01*
X324461Y249063D01*
X329468D01*
X329868Y248663D01*
D02*
G37*
G36*
X321361D02*
Y244063D01*
X320961Y243663D01*
X315955D01*
X315555Y244063D01*
Y248663D01*
X315955Y249063D01*
X320961D01*
X321361Y248663D01*
D02*
G37*
G36*
X536738Y246162D02*
Y241562D01*
X536338Y241162D01*
X531331D01*
X530931Y241562D01*
Y246162D01*
X531331Y246562D01*
X536338D01*
X536738Y246162D01*
D02*
G37*
G36*
X528231D02*
Y241562D01*
X527831Y241162D01*
X522825D01*
X522425Y241562D01*
Y246162D01*
X522825Y246562D01*
X527831D01*
X528231Y246162D01*
D02*
G37*
G36*
X555200Y246420D02*
Y241620D01*
X554700Y241120D01*
X550200D01*
X549700Y241620D01*
Y246420D01*
X550200Y247120D01*
X554700D01*
X555200Y246420D01*
D02*
G37*
G36*
X128222Y238503D02*
Y233903D01*
X127822Y233503D01*
X122816D01*
X122416Y233903D01*
Y238503D01*
X122816Y238903D01*
X127822D01*
X128222Y238503D01*
D02*
G37*
G36*
X119716D02*
Y233903D01*
X119316Y233503D01*
X114309D01*
X113909Y233903D01*
Y238503D01*
X114309Y238903D01*
X119316D01*
X119716Y238503D01*
D02*
G37*
G36*
X329868Y237233D02*
Y232633D01*
X329468Y232233D01*
X324461D01*
X324061Y232633D01*
Y237233D01*
X324461Y237633D01*
X329468D01*
X329868Y237233D01*
D02*
G37*
G36*
X321361D02*
Y232633D01*
X320961Y232233D01*
X315955D01*
X315555Y232633D01*
Y237233D01*
X315955Y237633D01*
X320961D01*
X321361Y237233D01*
D02*
G37*
G36*
X536793Y235794D02*
Y231194D01*
X536393Y230794D01*
X531386D01*
X530987Y231194D01*
Y235794D01*
X531386Y236194D01*
X536393D01*
X536793Y235794D01*
D02*
G37*
G36*
X528287D02*
Y231194D01*
X527886Y230794D01*
X522880D01*
X522480Y231194D01*
Y235794D01*
X522880Y236194D01*
X527886D01*
X528287Y235794D01*
D02*
G37*
G36*
X128222Y224533D02*
Y219933D01*
X127822Y219533D01*
X122816D01*
X122416Y219933D01*
Y224533D01*
X122816Y224933D01*
X127822D01*
X128222Y224533D01*
D02*
G37*
G36*
X119716D02*
Y219933D01*
X119316Y219533D01*
X114309D01*
X113909Y219933D01*
Y224533D01*
X114309Y224933D01*
X119316D01*
X119716Y224533D01*
D02*
G37*
G36*
X330386Y220723D02*
Y216123D01*
X329986Y215723D01*
X324980D01*
X324579Y216123D01*
Y220723D01*
X324980Y221123D01*
X329986D01*
X330386Y220723D01*
D02*
G37*
G36*
X321879D02*
Y216123D01*
X321479Y215723D01*
X316473D01*
X316073Y216123D01*
Y220723D01*
X316473Y221123D01*
X321479D01*
X321879Y220723D01*
D02*
G37*
G36*
X128222Y214373D02*
Y209773D01*
X127822Y209373D01*
X122816D01*
X122416Y209773D01*
Y214373D01*
X122816Y214773D01*
X127822D01*
X128222Y214373D01*
D02*
G37*
G36*
X119716D02*
Y209773D01*
X119316Y209373D01*
X114309D01*
X113909Y209773D01*
Y214373D01*
X114309Y214773D01*
X119316D01*
X119716Y214373D01*
D02*
G37*
G36*
X558336Y195340D02*
Y190740D01*
X557936Y190340D01*
X552930D01*
X552530Y190740D01*
Y195340D01*
X552930Y195740D01*
X557936D01*
X558336Y195340D01*
D02*
G37*
G36*
X549830D02*
Y190740D01*
X549430Y190340D01*
X544424D01*
X544024Y190740D01*
Y195340D01*
X544424Y195740D01*
X549430D01*
X549830Y195340D01*
D02*
G37*
G36*
X417492Y192750D02*
Y188250D01*
X416992Y187750D01*
X412192D01*
X411493Y188250D01*
Y192750D01*
X412192Y193250D01*
X416992D01*
X417492Y192750D01*
D02*
G37*
G36*
X407892D02*
Y188250D01*
X407192Y187750D01*
X402392D01*
X401892Y188250D01*
Y192750D01*
X402392Y193250D01*
X407192D01*
X407892Y192750D01*
D02*
G37*
G36*
X558855Y182640D02*
Y178040D01*
X558455Y177640D01*
X553448D01*
X553048Y178040D01*
Y182640D01*
X553448Y183040D01*
X558455D01*
X558855Y182640D01*
D02*
G37*
G36*
X550348D02*
Y178040D01*
X549948Y177640D01*
X544942D01*
X544542Y178040D01*
Y182640D01*
X544942Y183040D01*
X549948D01*
X550348Y182640D01*
D02*
G37*
G36*
X367986Y182573D02*
Y177973D01*
X367587Y177573D01*
X362580D01*
X362180Y177973D01*
Y182573D01*
X362580Y182973D01*
X367587D01*
X367986Y182573D01*
D02*
G37*
G36*
X359480D02*
Y177973D01*
X359080Y177573D01*
X354074D01*
X353674Y177973D01*
Y182573D01*
X354074Y182973D01*
X359080D01*
X359480Y182573D01*
D02*
G37*
G36*
X277499Y178780D02*
Y174280D01*
X276999Y173780D01*
X272199D01*
X271499Y174280D01*
Y178780D01*
X272199Y179280D01*
X276999D01*
X277499Y178780D01*
D02*
G37*
G36*
X267899D02*
Y174280D01*
X267199Y173780D01*
X262399D01*
X261899Y174280D01*
Y178780D01*
X262399Y179280D01*
X267199D01*
X267899Y178780D01*
D02*
G37*
G36*
X304760Y178671D02*
Y174171D01*
X304260Y173671D01*
X299460D01*
X298760Y174171D01*
Y178671D01*
X299460Y179171D01*
X304260D01*
X304760Y178671D01*
D02*
G37*
G36*
X295160D02*
Y174171D01*
X294460Y173671D01*
X289660D01*
X289160Y174171D01*
Y178671D01*
X289660Y179171D01*
X294460D01*
X295160Y178671D01*
D02*
G37*
G36*
X368898Y168886D02*
Y164386D01*
X368398Y163886D01*
X363598D01*
X362898Y164386D01*
Y168886D01*
X363598Y169386D01*
X368398D01*
X368898Y168886D01*
D02*
G37*
G36*
X359298D02*
Y164386D01*
X358598Y163886D01*
X353798D01*
X353298Y164386D01*
Y168886D01*
X353798Y169386D01*
X358598D01*
X359298Y168886D01*
D02*
G37*
G36*
X228574Y164883D02*
Y159876D01*
X228174Y159476D01*
X223574D01*
X223174Y159876D01*
Y164883D01*
X223574Y165283D01*
X228174D01*
X228574Y164883D01*
D02*
G37*
G36*
X368960Y155970D02*
Y151370D01*
X368560Y150970D01*
X363553D01*
X363153Y151370D01*
Y155970D01*
X363553Y156370D01*
X368560D01*
X368960Y155970D01*
D02*
G37*
G36*
X360453D02*
Y151370D01*
X360053Y150970D01*
X355047D01*
X354647Y151370D01*
Y155970D01*
X355047Y156370D01*
X360053D01*
X360453Y155970D01*
D02*
G37*
G36*
X228574Y156376D02*
Y151370D01*
X228174Y150970D01*
X223574D01*
X223174Y151370D01*
Y156376D01*
X223574Y156776D01*
X228174D01*
X228574Y156376D01*
D02*
G37*
G36*
X382574Y126058D02*
Y121258D01*
X382074Y120558D01*
X377574D01*
X377074Y121258D01*
Y126058D01*
X377574Y126558D01*
X382074D01*
X382574Y126058D01*
D02*
G37*
G36*
X953930Y125592D02*
Y120586D01*
X953530Y120186D01*
X948930D01*
X948530Y120586D01*
Y125592D01*
X948930Y125992D01*
X953530D01*
X953930Y125592D01*
D02*
G37*
G36*
X562146Y124220D02*
Y119620D01*
X561746Y119220D01*
X556740D01*
X556340Y119620D01*
Y124220D01*
X556740Y124620D01*
X561746D01*
X562146Y124220D01*
D02*
G37*
G36*
X553640D02*
Y119620D01*
X553240Y119220D01*
X548234D01*
X547834Y119620D01*
Y124220D01*
X548234Y124620D01*
X553240D01*
X553640Y124220D01*
D02*
G37*
G36*
X371074Y124550D02*
Y119544D01*
X370674Y119144D01*
X366074D01*
X365674Y119544D01*
Y124550D01*
X366074Y124951D01*
X370674D01*
X371074Y124550D01*
D02*
G37*
G36*
X915880Y122870D02*
Y118070D01*
X915380Y117370D01*
X910880D01*
X910380Y118070D01*
Y122870D01*
X910880Y123370D01*
X915380D01*
X915880Y122870D01*
D02*
G37*
G36*
X953930Y117086D02*
Y112079D01*
X953530Y111679D01*
X948930D01*
X948530Y112079D01*
Y117086D01*
X948930Y117486D01*
X953530D01*
X953930Y117086D01*
D02*
G37*
G36*
X382574Y116258D02*
Y111458D01*
X382074Y110958D01*
X377574D01*
X377074Y111458D01*
Y116258D01*
X377574Y116958D01*
X382074D01*
X382574Y116258D01*
D02*
G37*
G36*
X371074Y116044D02*
Y111038D01*
X370674Y110638D01*
X366074D01*
X365674Y111038D01*
Y116044D01*
X366074Y116444D01*
X370674D01*
X371074Y116044D01*
D02*
G37*
G36*
X915880Y113070D02*
Y108270D01*
X915380Y107770D01*
X910880D01*
X910380Y108270D01*
Y113070D01*
X910880Y113770D01*
X915380D01*
X915880Y113070D01*
D02*
G37*
G36*
X148130Y107643D02*
Y103143D01*
X147630Y102644D01*
X142830D01*
X142130Y103143D01*
Y107643D01*
X142830Y108143D01*
X147630D01*
X148130Y107643D01*
D02*
G37*
G36*
X138530D02*
Y103143D01*
X137830Y102644D01*
X133030D01*
X132530Y103143D01*
Y107643D01*
X133030Y108143D01*
X137830D01*
X138530Y107643D01*
D02*
G37*
G36*
X260786Y93740D02*
Y89140D01*
X260386Y88740D01*
X255380D01*
X254979Y89140D01*
Y93740D01*
X255380Y94140D01*
X260386D01*
X260786Y93740D01*
D02*
G37*
G36*
X252279D02*
Y89140D01*
X251879Y88740D01*
X246873D01*
X246473Y89140D01*
Y93740D01*
X246873Y94140D01*
X251879D01*
X252279Y93740D01*
D02*
G37*
G36*
X953930Y89825D02*
Y84818D01*
X953530Y84418D01*
X948930D01*
X948530Y84818D01*
Y89825D01*
X948930Y90225D01*
X953530D01*
X953930Y89825D01*
D02*
G37*
G36*
X261429Y83530D02*
Y79030D01*
X260929Y78530D01*
X256129D01*
X255429Y79030D01*
Y83530D01*
X256129Y84030D01*
X260929D01*
X261429Y83530D01*
D02*
G37*
G36*
X251829D02*
Y79030D01*
X251129Y78530D01*
X246329D01*
X245829Y79030D01*
Y83530D01*
X246329Y84030D01*
X251129D01*
X251829Y83530D01*
D02*
G37*
G36*
X953930Y81318D02*
Y76312D01*
X953530Y75912D01*
X948930D01*
X948530Y76312D01*
Y81318D01*
X948930Y81718D01*
X953530D01*
X953930Y81318D01*
D02*
G37*
G36*
X442120Y75855D02*
Y70848D01*
X441720Y70448D01*
X437120D01*
X436720Y70848D01*
Y75855D01*
X437120Y76255D01*
X441720D01*
X442120Y75855D01*
D02*
G37*
G36*
X261429Y73370D02*
Y68870D01*
X260929Y68370D01*
X256129D01*
X255429Y68870D01*
Y73370D01*
X256129Y73870D01*
X260929D01*
X261429Y73370D01*
D02*
G37*
G36*
X251829D02*
Y68870D01*
X251129Y68370D01*
X246329D01*
X245829Y68870D01*
Y73370D01*
X246329Y73870D01*
X251129D01*
X251829Y73370D01*
D02*
G37*
G36*
X464934Y73685D02*
Y68885D01*
X464434Y68185D01*
X459934D01*
X459434Y68885D01*
Y73685D01*
X459934Y74185D01*
X464434D01*
X464934Y73685D01*
D02*
G37*
G36*
X442120Y67348D02*
Y62342D01*
X441720Y61942D01*
X437120D01*
X436720Y62342D01*
Y67348D01*
X437120Y67748D01*
X441720D01*
X442120Y67348D01*
D02*
G37*
G36*
X464934Y63885D02*
Y59085D01*
X464434Y58585D01*
X459934D01*
X459434Y59085D01*
Y63885D01*
X459934Y64585D01*
X464434D01*
X464934Y63885D01*
D02*
G37*
G36*
X304745Y51630D02*
Y47130D01*
X304245Y46630D01*
X299445D01*
X298745Y47130D01*
Y51630D01*
X299445Y52130D01*
X304245D01*
X304745Y51630D01*
D02*
G37*
G36*
X295145D02*
Y47130D01*
X294445Y46630D01*
X289645D01*
X289145Y47130D01*
Y51630D01*
X289645Y52130D01*
X294445D01*
X295145Y51630D01*
D02*
G37*
D19*
X366239Y610019D02*
D03*
Y596019D02*
D03*
X352060Y609755D02*
D03*
Y595754D02*
D03*
X325165Y469365D02*
D03*
Y455364D02*
D03*
X243808Y149423D02*
D03*
Y163424D02*
D03*
X419100Y476475D02*
D03*
Y462475D02*
D03*
X105410Y564530D02*
D03*
Y550530D02*
D03*
X144780Y626730D02*
D03*
Y640730D02*
D03*
X105410Y505552D02*
D03*
Y491552D02*
D03*
X245524Y594922D02*
D03*
Y608922D02*
D03*
X229378Y594635D02*
D03*
Y608636D02*
D03*
Y791342D02*
D03*
Y777342D02*
D03*
X477963Y72497D02*
D03*
Y58496D02*
D03*
D20*
X800119Y265653D02*
D03*
X756421D02*
D03*
X885014D02*
D03*
X841316D02*
D03*
X1040389Y266700D02*
D03*
X996691D02*
D03*
X963950Y265653D02*
D03*
X920251D02*
D03*
D21*
X180916Y203988D02*
D03*
X189806D02*
D03*
X198950D02*
D03*
X207840D02*
D03*
X216984D02*
D03*
X225874D02*
D03*
X234764D02*
D03*
X243908D02*
D03*
X252798D02*
D03*
X261942D02*
D03*
X270832D02*
D03*
Y321778D02*
D03*
X261942D02*
D03*
X252798D02*
D03*
X243908D02*
D03*
X234764D02*
D03*
X225874D02*
D03*
X216984D02*
D03*
X207840D02*
D03*
X198950D02*
D03*
X189806D02*
D03*
X180916D02*
D03*
D22*
X284769Y217925D02*
D03*
Y226815D02*
D03*
Y235959D02*
D03*
Y244849D02*
D03*
Y253993D02*
D03*
Y262883D02*
D03*
Y271773D02*
D03*
Y280917D02*
D03*
Y289807D02*
D03*
Y298951D02*
D03*
Y307841D02*
D03*
X166979D02*
D03*
Y298951D02*
D03*
Y289807D02*
D03*
Y280917D02*
D03*
Y271773D02*
D03*
Y262883D02*
D03*
Y253993D02*
D03*
Y244849D02*
D03*
Y235959D02*
D03*
Y226815D02*
D03*
Y217925D02*
D03*
D23*
X189806Y235883D02*
D03*
Y253884D02*
D03*
Y271882D02*
D03*
D24*
X213950Y862838D02*
D03*
X224950D02*
D03*
X235951D02*
D03*
X246951D02*
D03*
X257949D02*
D03*
X268950D02*
D03*
X279950D02*
D03*
X290949D02*
D03*
X301950Y862842D02*
D03*
D25*
X313950Y871342D02*
D03*
X167150D02*
D03*
D26*
X158750Y968360D02*
D03*
X313950D02*
D03*
D27*
X985228Y948699D02*
D03*
D28*
X917230Y907200D02*
D03*
Y976199D02*
D03*
D29*
X985230Y890701D02*
D03*
D30*
X866352Y840037D02*
D03*
X842900D02*
D03*
D31*
X619114Y836714D02*
D03*
X633115D02*
D03*
X471975Y837837D02*
D03*
X485975D02*
D03*
X302941Y507922D02*
D03*
X288940D02*
D03*
X288829Y524428D02*
D03*
X302829D02*
D03*
X399430Y549910D02*
D03*
X385430D02*
D03*
X616866Y305320D02*
D03*
X630866D02*
D03*
X178561Y701731D02*
D03*
X192562D02*
D03*
X178401Y719019D02*
D03*
X192402D02*
D03*
X296294Y568922D02*
D03*
X282293D02*
D03*
X203962Y415542D02*
D03*
X189961D02*
D03*
X247053D02*
D03*
X261054D02*
D03*
X288625Y491754D02*
D03*
X302625D02*
D03*
X361357Y849771D02*
D03*
X375358D02*
D03*
X416413Y176530D02*
D03*
X402413D02*
D03*
D32*
X655669Y657263D02*
D03*
X677671D02*
D03*
Y640262D02*
D03*
X655669D02*
D03*
X270720Y160790D02*
D03*
X292721D02*
D03*
Y143790D02*
D03*
X270720D02*
D03*
D33*
X653990Y589671D02*
D03*
X716993D02*
D03*
Y598172D02*
D03*
X653990D02*
D03*
D34*
X744220Y590111D02*
D03*
Y598609D02*
D03*
X818816Y839911D02*
D03*
Y831412D02*
D03*
X820916Y864760D02*
D03*
Y873259D02*
D03*
X803957Y865804D02*
D03*
Y874303D02*
D03*
X792524Y865919D02*
D03*
Y874418D02*
D03*
X780859Y865919D02*
D03*
Y874418D02*
D03*
X280800Y827969D02*
D03*
Y836468D02*
D03*
X292230Y827969D02*
D03*
Y836468D02*
D03*
X213490Y827969D02*
D03*
Y836468D02*
D03*
X224920Y827969D02*
D03*
Y836468D02*
D03*
X237620Y827969D02*
D03*
Y836468D02*
D03*
X258258Y827969D02*
D03*
Y836468D02*
D03*
X302628Y827969D02*
D03*
Y836468D02*
D03*
X247545Y827969D02*
D03*
Y836468D02*
D03*
D35*
X346486Y365166D02*
D03*
X346740Y318166D02*
D03*
D36*
X443250Y115404D02*
D03*
X490250Y115658D02*
D03*
D37*
X750571Y146481D02*
D03*
Y139481D02*
D03*
Y125481D02*
D03*
Y132481D02*
D03*
Y118481D02*
D03*
Y111481D02*
D03*
Y104480D02*
D03*
Y97480D02*
D03*
Y90480D02*
D03*
Y83480D02*
D03*
Y76479D02*
D03*
Y69479D02*
D03*
Y62479D02*
D03*
D38*
X381107Y809600D02*
D03*
Y790600D02*
D03*
D39*
X358033D02*
D03*
Y800100D02*
D03*
Y809600D02*
D03*
D40*
X416645Y856135D02*
D03*
X408146D02*
D03*
X391169Y855980D02*
D03*
X399668D02*
D03*
X940631Y306070D02*
D03*
X949129D02*
D03*
X530860Y835660D02*
D03*
X522361D02*
D03*
X506574D02*
D03*
X515073D02*
D03*
X601708Y835662D02*
D03*
X593209D02*
D03*
X577173Y835660D02*
D03*
X585672D02*
D03*
D41*
X560680Y161360D02*
D03*
X551180Y138360D02*
D03*
X541680Y161360D02*
D03*
D42*
X747432Y762026D02*
D03*
Y738574D02*
D03*
D43*
X177500Y744197D02*
D03*
X221498D02*
D03*
D44*
X115471Y105393D02*
D03*
D45*
X100224Y90644D02*
D03*
Y120143D02*
D03*
D46*
X498494Y777285D02*
D03*
X479495D02*
D03*
X640690Y777133D02*
D03*
X621690D02*
D03*
X283870Y92817D02*
D03*
X302870D02*
D03*
D47*
X479495Y800359D02*
D03*
X488995D02*
D03*
X498494D02*
D03*
X621690Y800207D02*
D03*
X631190D02*
D03*
X640690D02*
D03*
X302870Y69743D02*
D03*
X293370D02*
D03*
X283870D02*
D03*
D48*
X395472Y112790D02*
D03*
X404972D02*
D03*
X414492D02*
D03*
Y138670D02*
D03*
X395493D02*
D03*
D49*
X158116Y567318D02*
D03*
X126117D02*
D03*
X163447Y615359D02*
D03*
X195446D02*
D03*
X158116Y520835D02*
D03*
X126117D02*
D03*
D50*
X201597Y433614D02*
D03*
Y465613D02*
D03*
X253603Y433781D02*
D03*
Y465780D02*
D03*
D51*
X912701Y357988D02*
D03*
X928691Y357991D02*
D03*
Y386574D02*
D03*
X912701Y386572D02*
D03*
D52*
X817828Y781173D02*
D03*
X827327Y756472D02*
D03*
X808328D02*
D03*
X864404Y781420D02*
D03*
X873904Y756718D02*
D03*
X854905D02*
D03*
X772062Y785722D02*
D03*
X781562Y761020D02*
D03*
X762562D02*
D03*
X1003255Y363714D02*
D03*
X993756Y388415D02*
D03*
X1012755D02*
D03*
M02*
