G04*
G04 #@! TF.GenerationSoftware,Altium Limited,Altium Designer,25.0.2 (28)*
G04*
G04 Layer_Color=128*
%FSLAX44Y44*%
%MOMM*%
G71*
G04*
G04 #@! TF.SameCoordinates,9CC9931D-9A39-465D-B94E-96E1981A4A0C*
G04*
G04*
G04 #@! TF.FilePolarity,Positive*
G04*
G01*
G75*
%ADD19R,0.9000X0.8000*%
%ADD31R,0.8000X0.9000*%
G04:AMPARAMS|DCode=157|XSize=0.8mm|YSize=0.9mm|CornerRadius=0mm|HoleSize=0mm|Usage=FLASHONLY|Rotation=45.000|XOffset=0mm|YOffset=0mm|HoleType=Round|Shape=Rectangle|*
%AMROTATEDRECTD157*
4,1,4,0.0354,-0.6010,-0.6010,0.0354,-0.0354,0.6010,0.6010,-0.0354,0.0354,-0.6010,0.0*
%
%ADD157ROTATEDRECTD157*%

G36*
X513621Y668325D02*
Y663525D01*
X513121Y662825D01*
X508621D01*
X508121Y663525D01*
Y668325D01*
X508621Y668825D01*
X513121D01*
X513621Y668325D01*
D02*
G37*
G36*
X503255Y668089D02*
Y663289D01*
X502755Y662589D01*
X498255D01*
X497755Y663289D01*
Y668089D01*
X498255Y668589D01*
X502755D01*
X503255Y668089D01*
D02*
G37*
G36*
X479092Y668075D02*
Y663275D01*
X478592Y662575D01*
X474092D01*
X473592Y663275D01*
Y668075D01*
X474092Y668575D01*
X478592D01*
X479092Y668075D01*
D02*
G37*
G36*
X675264Y660737D02*
X678517Y657484D01*
Y656918D01*
X674977Y653378D01*
X674411D01*
X671158Y656631D01*
Y657197D01*
X674698Y660737D01*
X675264Y660737D01*
D02*
G37*
G36*
X513621Y658525D02*
Y653725D01*
X513121Y653225D01*
X508621D01*
X508121Y653725D01*
Y658525D01*
X508621Y659225D01*
X513121D01*
X513621Y658525D01*
D02*
G37*
G36*
X503255Y658289D02*
Y653489D01*
X502755Y652989D01*
X498255D01*
X497755Y653489D01*
Y658289D01*
X498255Y658989D01*
X502755D01*
X503255Y658289D01*
D02*
G37*
G36*
X618399Y658484D02*
Y653684D01*
X617899Y652984D01*
X613399D01*
X612899Y653684D01*
Y658484D01*
X613399Y658984D01*
X617899D01*
X618399Y658484D01*
D02*
G37*
G36*
X479092Y658275D02*
Y653475D01*
X478592Y652975D01*
X474092D01*
X473592Y653475D01*
Y658275D01*
X474092Y658975D01*
X478592D01*
X479092Y658275D01*
D02*
G37*
G36*
X672502Y651469D02*
Y650903D01*
X668962Y647363D01*
X668396Y647363D01*
X665143Y650616D01*
Y651182D01*
X668683Y654722D01*
X669249D01*
X672502Y651469D01*
D02*
G37*
G36*
X618399Y648684D02*
Y643884D01*
X617899Y643384D01*
X613399D01*
X612899Y643884D01*
Y648684D01*
X613399Y649384D01*
X617899D01*
X618399Y648684D01*
D02*
G37*
G36*
X605752Y647253D02*
Y642653D01*
X605352Y642253D01*
X600345D01*
X599945Y642653D01*
Y647253D01*
X600345Y647653D01*
X605352D01*
X605752Y647253D01*
D02*
G37*
G36*
X597245D02*
Y642653D01*
X596845Y642253D01*
X591839D01*
X591439Y642653D01*
Y647253D01*
X591839Y647653D01*
X596845D01*
X597245Y647253D01*
D02*
G37*
G36*
X653674Y648037D02*
X656927Y644784D01*
Y644218D01*
X653387Y640678D01*
X652821D01*
X649568Y643931D01*
Y644497D01*
X653108Y648037D01*
X653674Y648037D01*
D02*
G37*
G36*
X650912Y638769D02*
Y638203D01*
X647372Y634663D01*
X646806Y634663D01*
X643553Y637916D01*
Y638482D01*
X647093Y642022D01*
X647659D01*
X650912Y638769D01*
D02*
G37*
G36*
X667750Y636238D02*
X667749Y635531D01*
X664355Y632137D01*
X663507Y631995D01*
X660325Y635177D01*
X660467Y636026D01*
X663860Y639420D01*
X664568Y639420D01*
X667750Y636238D01*
D02*
G37*
G36*
X450850Y635326D02*
Y630826D01*
X450350Y630326D01*
X445550D01*
X444850Y630826D01*
Y635326D01*
X445550Y635826D01*
X450350D01*
X450850Y635326D01*
D02*
G37*
G36*
X441250D02*
Y630826D01*
X440550Y630326D01*
X435750D01*
X435250Y630826D01*
Y635326D01*
X435750Y635826D01*
X440550D01*
X441250Y635326D01*
D02*
G37*
G36*
X660961Y629450D02*
X660820Y628601D01*
X657426Y625207D01*
X656719Y625207D01*
X653537Y628389D01*
X653537Y629096D01*
X656931Y632490D01*
X657779Y632632D01*
X660961Y629450D01*
D02*
G37*
G36*
X638537Y620233D02*
X638537Y619525D01*
X635143Y616131D01*
X634294Y615990D01*
X631112Y619172D01*
X631254Y620020D01*
X634648Y623414D01*
X635355Y623415D01*
X638537Y620233D01*
D02*
G37*
G36*
X631749Y613444D02*
X631607Y612596D01*
X628213Y609202D01*
X627506Y609202D01*
X624324Y612384D01*
X624324Y613091D01*
X627718Y616485D01*
X628567Y616626D01*
X631749Y613444D01*
D02*
G37*
G36*
X451196Y609697D02*
Y605196D01*
X450696Y604697D01*
X445896D01*
X445196Y605196D01*
Y609697D01*
X445896Y610196D01*
X450696D01*
X451196Y609697D01*
D02*
G37*
G36*
X441596D02*
Y605196D01*
X440896Y604697D01*
X436096D01*
X435596Y605196D01*
Y609697D01*
X436096Y610196D01*
X440896D01*
X441596Y609697D01*
D02*
G37*
G36*
X771039Y605459D02*
Y600658D01*
X770539Y599959D01*
X766039D01*
X765539Y600658D01*
Y605459D01*
X766039Y605959D01*
X770539D01*
X771039Y605459D01*
D02*
G37*
G36*
Y595658D02*
Y590859D01*
X770539Y590359D01*
X766039D01*
X765539Y590859D01*
Y595658D01*
X766039Y596358D01*
X770539D01*
X771039Y595658D01*
D02*
G37*
G36*
X552585Y584023D02*
Y579522D01*
X552085Y579023D01*
X547285D01*
X546585Y579522D01*
Y584023D01*
X547285Y584522D01*
X552085D01*
X552585Y584023D01*
D02*
G37*
G36*
X542985D02*
Y579522D01*
X542285Y579023D01*
X537485D01*
X536985Y579522D01*
Y584023D01*
X537485Y584522D01*
X542285D01*
X542985Y584023D01*
D02*
G37*
G36*
X574004Y582138D02*
Y577638D01*
X573504Y577138D01*
X568704D01*
X568004Y577638D01*
Y582138D01*
X568704Y582638D01*
X573504D01*
X574004Y582138D01*
D02*
G37*
G36*
X564404D02*
Y577638D01*
X563704Y577138D01*
X558904D01*
X558404Y577638D01*
Y582138D01*
X558904Y582638D01*
X563704D01*
X564404Y582138D01*
D02*
G37*
G36*
X764047Y580634D02*
Y575834D01*
X763548Y575134D01*
X759047D01*
X758548Y575834D01*
Y580634D01*
X759047Y581134D01*
X763548D01*
X764047Y580634D01*
D02*
G37*
G36*
X752754Y580328D02*
Y575528D01*
X752254Y574828D01*
X747754D01*
X747254Y575528D01*
Y580328D01*
X747754Y580828D01*
X752254D01*
X752754Y580328D01*
D02*
G37*
G36*
X552920Y575410D02*
Y570910D01*
X552420Y570410D01*
X547620D01*
X546920Y570910D01*
Y575410D01*
X547620Y575910D01*
X552420D01*
X552920Y575410D01*
D02*
G37*
G36*
X543320D02*
Y570910D01*
X542620Y570410D01*
X537820D01*
X537319Y570910D01*
Y575410D01*
X537820Y575910D01*
X542620D01*
X543320Y575410D01*
D02*
G37*
G36*
X561224Y574036D02*
Y569237D01*
X560725Y568537D01*
X556224D01*
X555725Y569237D01*
Y574036D01*
X556224Y574537D01*
X560725D01*
X561224Y574036D01*
D02*
G37*
G36*
X764047Y570834D02*
Y566034D01*
X763548Y565533D01*
X759047D01*
X758548Y566034D01*
Y570834D01*
X759047Y571534D01*
X763548D01*
X764047Y570834D01*
D02*
G37*
G36*
X752754Y570528D02*
Y565728D01*
X752254Y565228D01*
X747754D01*
X747254Y565728D01*
Y570528D01*
X747754Y571228D01*
X752254D01*
X752754Y570528D01*
D02*
G37*
G36*
X581588Y570028D02*
Y565228D01*
X581088Y564528D01*
X576588D01*
X576088Y565228D01*
Y570028D01*
X576588Y570528D01*
X581088D01*
X581588Y570028D01*
D02*
G37*
G36*
X530217Y569986D02*
Y565185D01*
X529717Y564486D01*
X525217D01*
X524717Y565185D01*
Y569986D01*
X525217Y570486D01*
X529717D01*
X530217Y569986D01*
D02*
G37*
G36*
X520910Y569910D02*
Y565110D01*
X520410Y564410D01*
X515910D01*
X515410Y565110D01*
Y569910D01*
X515910Y570410D01*
X520410D01*
X520910Y569910D01*
D02*
G37*
G36*
X425786Y568252D02*
Y563752D01*
X425286Y563252D01*
X420486D01*
X419786Y563752D01*
Y568252D01*
X420486Y568752D01*
X425286D01*
X425786Y568252D01*
D02*
G37*
G36*
X416186D02*
Y563752D01*
X415486Y563252D01*
X410686D01*
X410186Y563752D01*
Y568252D01*
X410686Y568752D01*
X415486D01*
X416186Y568252D01*
D02*
G37*
G36*
X451196Y568187D02*
Y563687D01*
X450696Y563187D01*
X445896D01*
X445196Y563687D01*
Y568187D01*
X445896Y568687D01*
X450696D01*
X451196Y568187D01*
D02*
G37*
G36*
X441596D02*
Y563687D01*
X440896Y563187D01*
X436096D01*
X435596Y563687D01*
Y568187D01*
X436096Y568687D01*
X440896D01*
X441596Y568187D01*
D02*
G37*
G36*
X542893Y566361D02*
Y561562D01*
X542393Y560862D01*
X537893D01*
X537393Y561562D01*
Y566361D01*
X537893Y566862D01*
X542393D01*
X542893Y566361D01*
D02*
G37*
G36*
X552660Y566100D02*
Y561300D01*
X552160Y560600D01*
X547660D01*
X547160Y561300D01*
Y566100D01*
X547660Y566600D01*
X552160D01*
X552660Y566100D01*
D02*
G37*
G36*
X561224Y564237D02*
Y559437D01*
X560725Y558937D01*
X556224D01*
X555725Y559437D01*
Y564237D01*
X556224Y564936D01*
X560725D01*
X561224Y564237D01*
D02*
G37*
G36*
X923061Y562051D02*
Y557551D01*
X922561Y557051D01*
X917761D01*
X917061Y557551D01*
Y562051D01*
X917761Y562551D01*
X922561D01*
X923061Y562051D01*
D02*
G37*
G36*
X913461D02*
Y557551D01*
X912761Y557051D01*
X907961D01*
X907461Y557551D01*
Y562051D01*
X907961Y562551D01*
X912761D01*
X913461Y562051D01*
D02*
G37*
G36*
X581588Y560228D02*
Y555428D01*
X581088Y554928D01*
X576588D01*
X576088Y555428D01*
Y560228D01*
X576588Y560928D01*
X581088D01*
X581588Y560228D01*
D02*
G37*
G36*
X530217Y560185D02*
Y555386D01*
X529717Y554885D01*
X525217D01*
X524717Y555386D01*
Y560185D01*
X525217Y560885D01*
X529717D01*
X530217Y560185D01*
D02*
G37*
G36*
X520910Y560110D02*
Y555310D01*
X520410Y554810D01*
X515910D01*
X515410Y555310D01*
Y560110D01*
X515910Y560810D01*
X520410D01*
X520910Y560110D01*
D02*
G37*
G36*
X936624Y557390D02*
Y552590D01*
X936124Y551890D01*
X931624D01*
X931124Y552590D01*
Y557390D01*
X931624Y557890D01*
X936124D01*
X936624Y557390D01*
D02*
G37*
G36*
X542893Y556562D02*
Y551762D01*
X542393Y551261D01*
X537893D01*
X537393Y551762D01*
Y556562D01*
X537893Y557261D01*
X542393D01*
X542893Y556562D01*
D02*
G37*
G36*
X552660Y556300D02*
Y551500D01*
X552160Y551000D01*
X547660D01*
X547160Y551500D01*
Y556300D01*
X547660Y557000D01*
X552160D01*
X552660Y556300D01*
D02*
G37*
G36*
X893224Y555993D02*
Y551493D01*
X892724Y550993D01*
X887924D01*
X887225Y551493D01*
Y555993D01*
X887924Y556493D01*
X892724D01*
X893224Y555993D01*
D02*
G37*
G36*
X883624D02*
Y551493D01*
X882924Y550993D01*
X878124D01*
X877624Y551493D01*
Y555993D01*
X878124Y556493D01*
X882924D01*
X883624Y555993D01*
D02*
G37*
G36*
X757666Y555878D02*
Y551078D01*
X757166Y550378D01*
X752666D01*
X752166Y551078D01*
Y555878D01*
X752666Y556378D01*
X757166D01*
X757666Y555878D01*
D02*
G37*
G36*
X655052Y555506D02*
Y550706D01*
X654552Y550006D01*
X650052D01*
X649552Y550706D01*
Y555506D01*
X650052Y556006D01*
X654552D01*
X655052Y555506D01*
D02*
G37*
G36*
X634499Y554619D02*
Y549613D01*
X634099Y549213D01*
X629499D01*
X629099Y549613D01*
Y554619D01*
X629499Y555019D01*
X634099D01*
X634499Y554619D01*
D02*
G37*
G36*
X645038Y554513D02*
Y549506D01*
X644638Y549106D01*
X640038D01*
X639638Y549506D01*
Y554513D01*
X640038Y554913D01*
X644638D01*
X645038Y554513D01*
D02*
G37*
G36*
X621153Y552320D02*
Y547820D01*
X620653Y547320D01*
X615853D01*
X615153Y547820D01*
Y552320D01*
X615853Y552820D01*
X620653D01*
X621153Y552320D01*
D02*
G37*
G36*
X611553D02*
Y547820D01*
X610853Y547320D01*
X606053D01*
X605553Y547820D01*
Y552320D01*
X606053Y552820D01*
X610853D01*
X611553Y552320D01*
D02*
G37*
G36*
X580814Y548750D02*
Y544250D01*
X580314Y543750D01*
X575514D01*
X574814Y544250D01*
Y548750D01*
X575514Y549249D01*
X580314D01*
X580814Y548750D01*
D02*
G37*
G36*
X571214D02*
Y544250D01*
X570514Y543750D01*
X565714D01*
X565214Y544250D01*
Y548750D01*
X565714Y549249D01*
X570514D01*
X571214Y548750D01*
D02*
G37*
G36*
X542841Y548350D02*
Y543850D01*
X542341Y543350D01*
X537541D01*
X536841Y543850D01*
Y548350D01*
X537541Y548850D01*
X542341D01*
X542841Y548350D01*
D02*
G37*
G36*
X533241D02*
Y543850D01*
X532541Y543350D01*
X527741D01*
X527241Y543850D01*
Y548350D01*
X527741Y548850D01*
X532541D01*
X533241Y548350D01*
D02*
G37*
G36*
X518340Y548350D02*
Y543850D01*
X517840Y543350D01*
X513040D01*
X512340Y543850D01*
Y548350D01*
X513040Y548850D01*
X517840D01*
X518340Y548350D01*
D02*
G37*
G36*
X508740D02*
Y543850D01*
X508040Y543350D01*
X503240D01*
X502740Y543850D01*
Y548350D01*
X503240Y548850D01*
X508040D01*
X508740Y548350D01*
D02*
G37*
G36*
X936624Y547590D02*
Y542790D01*
X936124Y542290D01*
X931624D01*
X931124Y542790D01*
Y547590D01*
X931624Y548290D01*
X936124D01*
X936624Y547590D01*
D02*
G37*
G36*
X757666Y546078D02*
Y541278D01*
X757166Y540778D01*
X752666D01*
X752166Y541278D01*
Y546078D01*
X752666Y546778D01*
X757166D01*
X757666Y546078D01*
D02*
G37*
G36*
X634499Y546113D02*
Y541106D01*
X634099Y540706D01*
X629499D01*
X629099Y541106D01*
Y546113D01*
X629499Y546513D01*
X634099D01*
X634499Y546113D01*
D02*
G37*
G36*
X645038Y546006D02*
Y541000D01*
X644638Y540600D01*
X640038D01*
X639638Y541000D01*
Y546006D01*
X640038Y546406D01*
X644638D01*
X645038Y546006D01*
D02*
G37*
G36*
X655052Y545706D02*
Y540906D01*
X654552Y540406D01*
X650052D01*
X649552Y540906D01*
Y545706D01*
X650052Y546406D01*
X654552D01*
X655052Y545706D01*
D02*
G37*
G36*
X620991Y542031D02*
Y537531D01*
X620491Y537031D01*
X615691D01*
X614991Y537531D01*
Y542031D01*
X615691Y542531D01*
X620491D01*
X620991Y542031D01*
D02*
G37*
G36*
X611391D02*
Y537531D01*
X610691Y537031D01*
X605891D01*
X605391Y537531D01*
Y542031D01*
X605891Y542531D01*
X610691D01*
X611391Y542031D01*
D02*
G37*
G36*
X574179Y537375D02*
Y532575D01*
X573679Y531875D01*
X569179D01*
X568679Y532575D01*
Y537375D01*
X569179Y537876D01*
X573679D01*
X574179Y537375D01*
D02*
G37*
G36*
X567119D02*
Y532575D01*
X566619Y531875D01*
X562119D01*
X561619Y532575D01*
Y537375D01*
X562119Y537876D01*
X566619D01*
X567119Y537375D01*
D02*
G37*
G36*
X559267D02*
Y532575D01*
X558767Y531875D01*
X554267D01*
X553767Y532575D01*
Y537375D01*
X554267Y537876D01*
X558767D01*
X559267Y537375D01*
D02*
G37*
G36*
X551703D02*
Y532575D01*
X551203Y531875D01*
X546703D01*
X546203Y532575D01*
Y537375D01*
X546703Y537876D01*
X551203D01*
X551703Y537375D01*
D02*
G37*
G36*
X643465Y533725D02*
Y529224D01*
X642965Y528725D01*
X638165D01*
X637465Y529224D01*
Y533725D01*
X638165Y534224D01*
X642965D01*
X643465Y533725D01*
D02*
G37*
G36*
X633865D02*
Y529224D01*
X633165Y528725D01*
X628365D01*
X627865Y529224D01*
Y533725D01*
X628365Y534224D01*
X633165D01*
X633865Y533725D01*
D02*
G37*
G36*
X449067Y532245D02*
X449066Y531538D01*
X445672Y528143D01*
X444824Y528002D01*
X441642Y531184D01*
X441783Y532032D01*
X445177Y535427D01*
X445885Y535427D01*
X449067Y532245D01*
D02*
G37*
G36*
X621069Y531421D02*
Y526921D01*
X620569Y526421D01*
X615769D01*
X615069Y526921D01*
Y531421D01*
X615769Y531921D01*
X620569D01*
X621069Y531421D01*
D02*
G37*
G36*
X611469D02*
Y526921D01*
X610769Y526421D01*
X605969D01*
X605468Y526921D01*
Y531421D01*
X605969Y531921D01*
X610769D01*
X611469Y531421D01*
D02*
G37*
G36*
X486220Y530570D02*
Y526070D01*
X485720Y525570D01*
X480919D01*
X480220Y526070D01*
Y530570D01*
X480919Y531070D01*
X485720D01*
X486220Y530570D01*
D02*
G37*
G36*
X476620D02*
Y526070D01*
X475919Y525570D01*
X471120D01*
X470620Y526070D01*
Y530570D01*
X471120Y531070D01*
X475919D01*
X476620Y530570D01*
D02*
G37*
G36*
X574179Y527575D02*
Y522775D01*
X573679Y522275D01*
X569179D01*
X568679Y522775D01*
Y527575D01*
X569179Y528275D01*
X573679D01*
X574179Y527575D01*
D02*
G37*
G36*
X567119D02*
Y522775D01*
X566619Y522275D01*
X562119D01*
X561619Y522775D01*
Y527575D01*
X562119Y528275D01*
X566619D01*
X567119Y527575D01*
D02*
G37*
G36*
X559267D02*
Y522775D01*
X558767Y522275D01*
X554267D01*
X553767Y522775D01*
Y527575D01*
X554267Y528275D01*
X558767D01*
X559267Y527575D01*
D02*
G37*
G36*
X551703D02*
Y522775D01*
X551203Y522275D01*
X546703D01*
X546203Y522775D01*
Y527575D01*
X546703Y528275D01*
X551203D01*
X551703Y527575D01*
D02*
G37*
G36*
X516913Y526271D02*
X516913Y525563D01*
X513519Y522169D01*
X512671Y522028D01*
X509489Y525210D01*
X509630Y526058D01*
X513024Y529452D01*
X513731Y529453D01*
X516913Y526271D01*
D02*
G37*
G36*
X442278Y525456D02*
X442137Y524608D01*
X438743Y521214D01*
X438036Y521214D01*
X434854Y524396D01*
X434854Y525103D01*
X438248Y528497D01*
X439096Y528638D01*
X442278Y525456D01*
D02*
G37*
G36*
X510125Y519482D02*
X509983Y518634D01*
X506590Y515240D01*
X505882Y515240D01*
X502700Y518422D01*
X502701Y519129D01*
X506095Y522523D01*
X506943Y522664D01*
X510125Y519482D01*
D02*
G37*
G36*
X959688Y520011D02*
Y515511D01*
X959188Y515011D01*
X954388D01*
X953688Y515511D01*
Y520011D01*
X954388Y520511D01*
X959188D01*
X959688Y520011D01*
D02*
G37*
G36*
X950088D02*
Y515511D01*
X949388Y515011D01*
X944588D01*
X944088Y515511D01*
Y520011D01*
X944588Y520511D01*
X949388D01*
X950088Y520011D01*
D02*
G37*
G36*
X424249Y499036D02*
X424249Y498329D01*
X420855Y494935D01*
X420007Y494794D01*
X416825Y497976D01*
X416966Y498824D01*
X420360Y502218D01*
X421068Y502218D01*
X424249Y499036D01*
D02*
G37*
G36*
X897807Y496405D02*
Y491605D01*
X897307Y490905D01*
X892807D01*
X892307Y491605D01*
Y496405D01*
X892807Y496905D01*
X897307D01*
X897807Y496405D01*
D02*
G37*
G36*
X887720Y496321D02*
Y491521D01*
X887220Y490821D01*
X882720D01*
X882220Y491521D01*
Y496321D01*
X882720Y496822D01*
X887220D01*
X887720Y496321D01*
D02*
G37*
G36*
X432625Y495546D02*
Y490746D01*
X432125Y490046D01*
X427625D01*
X427125Y490746D01*
Y495546D01*
X427625Y496046D01*
X432125D01*
X432625Y495546D01*
D02*
G37*
G36*
X417461Y492248D02*
X417320Y491399D01*
X413926Y488005D01*
X413218Y488005D01*
X410037Y491187D01*
X410037Y491894D01*
X413431Y495289D01*
X414279Y495430D01*
X417461Y492248D01*
D02*
G37*
G36*
X897807Y486605D02*
Y481805D01*
X897307Y481305D01*
X892807D01*
X892307Y481805D01*
Y486605D01*
X892807Y487305D01*
X897307D01*
X897807Y486605D01*
D02*
G37*
G36*
X887720Y486522D02*
Y481721D01*
X887220Y481221D01*
X882720D01*
X882220Y481721D01*
Y486522D01*
X882720Y487221D01*
X887220D01*
X887720Y486522D01*
D02*
G37*
G36*
X432625Y485746D02*
Y480946D01*
X432125Y480446D01*
X427625D01*
X427125Y480946D01*
Y485746D01*
X427625Y486446D01*
X432125D01*
X432625Y485746D01*
D02*
G37*
G36*
X311166Y470119D02*
Y465319D01*
X310666Y464619D01*
X306166D01*
X305666Y465319D01*
Y470119D01*
X306166Y470620D01*
X310666D01*
X311166Y470119D01*
D02*
G37*
G36*
Y460319D02*
Y455519D01*
X310666Y455019D01*
X306166D01*
X305666Y455519D01*
Y460319D01*
X306166Y461019D01*
X310666D01*
X311166Y460319D01*
D02*
G37*
G36*
X600408Y342310D02*
X600408Y341603D01*
X597014Y338209D01*
X596165Y338068D01*
X592983Y341250D01*
X593125Y342098D01*
X596519Y345492D01*
X597226Y345492D01*
X600408Y342310D01*
D02*
G37*
G36*
X593620Y335522D02*
X593478Y334674D01*
X590084Y331280D01*
X589377Y331279D01*
X586195Y334461D01*
X586195Y335168D01*
X589589Y338563D01*
X590438Y338704D01*
X593620Y335522D01*
D02*
G37*
G36*
X556975Y335488D02*
Y330688D01*
X556475Y329988D01*
X551975D01*
X551475Y330688D01*
Y335488D01*
X551975Y335988D01*
X556475D01*
X556975Y335488D01*
D02*
G37*
G36*
X570527Y331571D02*
Y326772D01*
X570027Y326072D01*
X565527D01*
X565027Y326772D01*
Y331571D01*
X565527Y332071D01*
X570027D01*
X570527Y331571D01*
D02*
G37*
G36*
X556975Y325688D02*
Y320888D01*
X556475Y320388D01*
X551975D01*
X551475Y320888D01*
Y325688D01*
X551975Y326388D01*
X556475D01*
X556975Y325688D01*
D02*
G37*
G36*
X570527Y321772D02*
Y316971D01*
X570027Y316471D01*
X565527D01*
X565027Y316971D01*
Y321772D01*
X565527Y322471D01*
X570027D01*
X570527Y321772D01*
D02*
G37*
G36*
X474610Y285792D02*
Y281292D01*
X474110Y280792D01*
X469310D01*
X468610Y281292D01*
Y285792D01*
X469310Y286292D01*
X474110D01*
X474610Y285792D01*
D02*
G37*
G36*
X465010D02*
Y281292D01*
X464310Y280792D01*
X459510D01*
X459010Y281292D01*
Y285792D01*
X459510Y286292D01*
X464310D01*
X465010Y285792D01*
D02*
G37*
G36*
X552533Y271800D02*
Y267200D01*
X552133Y266800D01*
X547126D01*
X546726Y267200D01*
Y271800D01*
X547126Y272200D01*
X552133D01*
X552533Y271800D01*
D02*
G37*
G36*
X544026D02*
Y267200D01*
X543626Y266800D01*
X538620D01*
X538220Y267200D01*
Y271800D01*
X538620Y272200D01*
X543626D01*
X544026Y271800D01*
D02*
G37*
G36*
X578780Y271687D02*
Y267187D01*
X578280Y266687D01*
X573480D01*
X572780Y267187D01*
Y271687D01*
X573480Y272187D01*
X578280D01*
X578780Y271687D01*
D02*
G37*
G36*
X569180D02*
Y267187D01*
X568480Y266687D01*
X563680D01*
X563180Y267187D01*
Y271687D01*
X563680Y272187D01*
X568480D01*
X569180Y271687D01*
D02*
G37*
G36*
X513260Y271490D02*
Y266990D01*
X512760Y266490D01*
X507960D01*
X507260Y266990D01*
Y271490D01*
X507960Y271990D01*
X512760D01*
X513260Y271490D01*
D02*
G37*
G36*
X503660D02*
Y266990D01*
X502960Y266490D01*
X498160D01*
X497660Y266990D01*
Y271490D01*
X498160Y271990D01*
X502960D01*
X503660Y271490D01*
D02*
G37*
G36*
X607095Y271473D02*
Y266973D01*
X606595Y266473D01*
X601795D01*
X601095Y266973D01*
Y271473D01*
X601795Y271973D01*
X606595D01*
X607095Y271473D01*
D02*
G37*
G36*
X597495D02*
Y266973D01*
X596795Y266473D01*
X591995D01*
X591494Y266973D01*
Y271473D01*
X591995Y271973D01*
X596795D01*
X597495Y271473D01*
D02*
G37*
G36*
X555200Y256220D02*
Y251420D01*
X554700Y250720D01*
X550200D01*
X549700Y251420D01*
Y256220D01*
X550200Y256720D01*
X554700D01*
X555200Y256220D01*
D02*
G37*
G36*
Y246420D02*
Y241620D01*
X554700Y241120D01*
X550200D01*
X549700Y241620D01*
Y246420D01*
X550200Y247120D01*
X554700D01*
X555200Y246420D01*
D02*
G37*
D19*
X488787Y667657D02*
D03*
Y653656D02*
D03*
X250081Y551170D02*
D03*
Y565171D02*
D03*
X325623Y469949D02*
D03*
Y455948D02*
D03*
X206961Y502067D02*
D03*
Y488067D02*
D03*
X220122Y502099D02*
D03*
Y488098D02*
D03*
X252661Y501395D02*
D03*
Y487394D02*
D03*
X433070Y356900D02*
D03*
Y342900D02*
D03*
X235088Y565347D02*
D03*
Y551347D02*
D03*
D31*
X435932Y620116D02*
D03*
X449933D02*
D03*
X385430Y549910D02*
D03*
X399430D02*
D03*
X251278Y516002D02*
D03*
X265278D02*
D03*
X204888Y546176D02*
D03*
X190888D02*
D03*
X204888Y516754D02*
D03*
X190888D02*
D03*
D157*
X415468Y508717D02*
D03*
X425368Y518617D02*
D03*
M02*
