M48
;Layer_Color=9474304
;FILE_FORMAT=4:4
METRIC,LZ
;TYPE=PLATED
T01F00S00C0.2030
T02F00S00C0.2032
T03F00S00C0.3048
T04F00S00C0.5000
T06F00S00C0.7000
T07F00S00C0.8000
T09F00S00C1.0200
T10F00S00C1.1000
T13F00S00C2.4000
T14F00S00C3.2000
;TYPE=NON_PLATED
T15F00S00C0.6000
%
T01
X00116738Y00212073
Y00222233
Y00236203
Y00248903
Y00307677
X00282885Y00348774
X0031877Y0025781
X00337077Y00275111
X0034798Y0026797
X0036322Y0026289
X00366925Y00214802
X00360501Y00213402
X00360599Y00200793
X00370776Y00196081
X0031369Y0019685
X0030734Y002032
X002921Y0019304
X0025908Y0018923
X0025654Y0016383
Y0013716
X0027559Y00127
X00304165Y00128905
X0030607Y0016129
X00339973Y00224447
X00234453Y00204268
X0022606Y002032
X003683Y0012319
X00499339Y00295656
X00511973Y00295914
X00512343Y00303657
X00519052Y00303375
X00525266Y00303493
X00525323Y00295656
X005186Y00290235
X00506184Y0028896
X00532578Y00286737
X00529112Y00276434
X0053863Y00277682
X0055306Y0027943
X00556852Y00275341
X00555699Y00285559
X0054528Y0029591
X00543902Y00303952
X0055118Y0030353
X0056377Y00303815
X0057161Y00303386
X00577708Y00295915
X00578064Y00286982
X00590234Y00295511
X00587112Y00307661
X00590321Y00312214
X00590413Y00319921
X00596857Y00327729
X00597228Y00344466
X00606549Y00349688
X00611128Y00360584
X00610079Y00370947
X0059606Y00391067
X0057321Y00379866
X00572373Y00367711
X00564026Y0036744
X00558475Y00367897
X0055851Y00359665
X0055294Y0035941
X00564276Y00359782
X00570824Y00359794
X00571178Y00351787
X00577287Y00351537
X0056388Y0035179
X00564481Y0034341
X00558027Y003432
X00551332Y00343662
X00538328
X00532225Y00343734
X00525772Y00343528
X00525136Y00351887
X00531825Y00351663
X0053213Y0035941
X00525274Y00359922
X00519702Y00360172
Y00368581
X00525413Y0036768
X00525439Y00375803
X00523511Y00383744
X00510347Y00381884
X00506291Y00375804
X00498451Y00375613
X00484316Y00371303
X00474734Y0036184
X00468892Y00352859
X00475183Y00344699
X00493836Y00328736
X00505841Y0032766
X00512343
X0051882
X00525323
X0051882Y00319659
X00512371Y00319765
X00505841Y00319659
X0051882Y00311658
X00518249Y00337856
X00534305Y0033409
X00552323Y00320454
X00557753Y00311717
X00564758
X00568294Y00317224
X005683Y00332357
X00545077Y00312349
X00533003Y00368713
X00537131Y0037566
X00552073Y00376192
X00511497Y00351612
X0061769Y00192288
X00624798Y00190272
X00639229Y00188256
X00648623Y00184167
X0069816Y00207257
X00703517Y00213573
X00723465Y00250156
X0073406Y0026543
X0074549Y0030734
X0075184Y0010414
X0075057Y0008382
Y000762
X0092329Y0014478
X00936424Y00163417
X00994421Y00233981
X0084328Y0030734
X00797044Y00419705
X00834725Y0051475
X0084328Y0050673
X00854641Y00507921
X00863034Y00508213
X00873728Y00513451
X00884615Y00513052
X00889497Y00517707
Y00507707
Y00527707
X00884498Y00522708
Y00532708
X00873179Y00539657
X00868135Y00542019
X00867077Y00554688
X00854744Y00552945
X00851685Y00538764
X00894012Y00553133
X00914498Y00552708
X0091694Y0054737
X00924498Y00542708
Y00527707
X00930645Y00528271
X00934498Y00532708
X0094825
X00944498Y00527707
X00939497Y00522708
Y00512708
X00944498Y00517707
X00914498Y00527707
X009144Y0050292
X00924448Y00494907
X00922393Y00469309
X00913737
X00919552Y00558173
X00930074Y00553704
X00987727Y00522426
X0098806Y0051308
X00887698Y0073087
X0088773Y00738716
X00698805Y00744526
X00681461Y00745844
X00667262
X00650948Y00745022
X00635995Y00745761
X00629924Y00708655
X00640573Y00704493
X0063881Y0068707
X0062865Y0069342
Y0067691
X0060833Y006731
X00601902Y00680861
X00595617Y00689148
X00589563Y0069976
X00578998Y00710677
X00565061Y00713003
X00551165Y00709267
X00536571Y00708978
X00522308Y00708105
X00515987Y00706853
X00511841Y00716363
X00501874Y00715086
X00507983Y00728528
X00525053Y00724349
X00536474Y0074306
X00551463
X00564862Y0073522
X00578488
X00600939Y00711136
X00613401Y007071
X0065913Y0070739
X00673369Y00699501
X00693399Y00691182
X00696878Y00704617
X00703912Y00709236
X0069232Y00712265
X00699008Y00781326
X00712956Y0078307
X00724662Y00782323
X00681822Y00780421
X00669307Y00781326
X00669944Y0057741
X00681312Y00576584
X00686442Y00572077
X00692474Y00564063
X00705469Y00570133
X00711556Y00566773
X00702516Y00579695
X0072136Y00580159
X00731362
X00616087Y00583166
X00609531Y00580319
Y00586819
X00603029
Y00580319
X00596529
Y00586819
X00581715Y00586958
X00584242Y00605878
X00590563Y00606173
X00596726Y0060658
X00603087
X00609598Y00606669
X00616124Y00607141
X00596529Y00612818
X00590029
X0057053
X00570993Y00619014
X005713Y00631242
X0055103Y0062582
Y00619318
X0053805Y00598665
X00531797Y00598711
X00524211Y00599729
X00518461Y00606035
X0051222Y00605863
X00512031Y00593319
X00518531
X00505531Y00580319
X0050546Y0056896
X00487372Y00566865
X00485728Y00561527
X00491794
X0048918Y00574705
X00486031Y00580319
X0049352Y00581727
X00492531Y00599818
X00492582Y00605863
X00486355Y00605654
X00479425Y00607682
X00469458Y00600054
X0046482Y0061722
X00464223Y00573826
X00473139Y00561553
X00472845Y00553713
X00479213Y005668
X00518531Y00560819
Y00554319
Y0054782
X00525031
Y00554319
X005334Y0053467
X00511803Y00527971
X00498644Y00514813
X00499031Y00502321
Y00495821
X00512031
X00518531Y00502321
X00526884Y00497875
X0053803Y00502321
X0055103Y00495821
X00563562Y00495382
X0055753Y00502319
Y0050882
X0055103Y0050882
X0057053Y00502321
X0057703Y0049582
X00583199Y00496042
X00589971Y004949
X00590143Y00502776
X00589455Y00482861
X00589177Y00463231
X0058419Y00453505
X00583947Y00444808
X00577142Y00440425
X00578987Y00431179
X00575527Y00424047
X00574023Y00414359
X00577785Y00459311
X00562399Y00462514
X00566786Y00467511
X005461Y00457274
X00530124Y00458926
X00526729Y00464084
X00522018Y00467084
X00522069Y00473001
X00535576Y00465098
X0053737Y00434644
X00543779Y00433843
X00525355Y00426226
X00518537Y00425807
X00511964Y00456393
X00506929Y00460672
X00503202Y00464943
X00500586Y00470453
X00486031Y00502321
X00422616Y00543901
X00426202Y00548666
X00416414Y00548786
X00419671Y00553333
X00400547Y00537384
X00443218Y005859
X00499031Y00599818
Y00606318
X0050673Y0063246
X0051065Y00637521
X0053821Y00657691
X00534734Y00662043
X005363Y00671835
X00551254Y00666824
X0056515Y0067056
X00577628Y00668161
X00581548Y00658448
X00581508Y00652878
X00590955Y00567537
X00596905Y00567719
X00603084Y00567485
X00602645Y00561347
X00597078Y00561189
X0059003Y0056082
X00577442Y00560771
X00577153Y00554168
X00570997Y00554278
X0057053Y00560819
X00576976Y00547436
X0057703Y0054132
X00583424Y00534944
X00590261Y00532999
X00597531Y00541382
X00622172Y00554341
X00620558Y00523352
X00616217Y00483783
X00603193Y00489477
X00648826Y00506582
X00685452Y00494968
X00694008Y00494858
X00689453Y00485169
X00680514Y0048305
X0078964Y0041227
X00475929Y00665151
X00394439Y00534374
X00387256Y00532264
X00390199Y00527535
X00328368Y00527094
X00327921Y00537989
X00288829Y00524428
X0028894Y00508058
X00288625Y00491754
X00309403Y00478595
X0028702Y0045339
X00254852Y00485405
X00250448Y00489015
X00221059Y00489933
X00218137Y00486354
X00208519Y00488262
X0020588Y00484461
X00193581Y00516715
X00188786Y0051654
X00188572Y00545571
X00193164Y00545521
X00211329Y00563665
X00235542Y00562849
X00235379Y00567889
X00250553Y00569255
X0024638Y00594065
X00229378Y00594635
X00292242Y00581618
X00282293Y00568922
X00309205Y00604738
X00267705Y00515364
X00161068Y00473315
X00147524Y00430997
X00115718Y00519408
X00116237Y00523771
X00110347Y00523826
X00110316Y00519096
X00105018
X00105023Y00523971
X00119285Y00600273
X0011938Y0060579
X0012573
Y0059944
Y0061214
Y0061849
X0011938Y0061976
Y0061214
Y0062738
X00119842Y00633171
X00125976Y00632985
X0012573Y0062738
X0015621Y0068453
X0016256
Y0069215
Y006985
X00149269Y00726079
X00112492
X0021082Y00789188
X00229378Y00791342
X00246156Y0079153
X00303869Y00791854
X00302628Y00827969
X0029223
X00290555Y00817676
X0028071Y00836341
X00270651Y00842142
X00258258Y00827969
X00247545Y00836468
X0023762Y00827969
X0022492
X00225473Y00836712
X0021349Y00827969
X00488516Y00814369
X00513213Y00820905
X00515073Y0083566
X00522361
X00536744Y00815682
X00536186Y00798717
X0055136Y00798696
X00565256Y00802432
X00577628Y00800033
X00584058Y008208
X00585672Y0083566
X00593209Y00835662
X0066929Y0083058
X0069088Y0083312
X006985Y0081407
X0071247Y0080518
X0073406
X00749185
X0073914Y0081661
X0073787Y0084201
X00744092Y00858096
X00743993Y00884001
X00729615Y00884555
X00710072Y00884091
X00710456Y0084455
X0071628Y0083185
X0069469Y0085598
X0068199Y0080772
X00669472Y00801224
X00760256Y00837726
X0077216Y00828155
X00773651Y00854233
X00780859Y00865919
X00792524
X00760256Y00884482
X00803957Y00865804
X00820916Y0086476
X00815265Y00853137
X00841021Y00796587
T02
X00138451Y00099147
X00145429Y00097773
X0015254Y00097883
X00159652
X00166763Y00098017
X00173768Y00099247
X00180322Y00102007
X00186121Y00106125
X00190947Y00111349
X00194477Y00117523
X00196641Y00124298
X00197316Y00131377
Y0013849
Y00145602
Y00152713
Y00159825
Y00166938
Y00174049
Y00181161
Y00188274
X00182296Y00185021
Y00192133
Y00177909
Y00170797
Y00163685
Y00156573
Y00149461
Y00142349
Y00135237
X00182042Y0012813
X00179608Y00121448
X00174758Y00116246
X00168262Y00113349
X00161164Y00112904
X00154052
X00146941Y00113014
X00139843Y0011257
X0024892Y00091107
X0033401Y0010668
X003556Y0019177
X00368993Y00204775
X00377534Y00216979
X00327039Y00234933
Y00246363
X00327256Y00257505
X00327039Y00269223
Y00280907
X00305362Y00297281
X00306441Y00308405
X0030607Y00340094
X00308973Y00368487
X00275009Y00339829
X00284769Y00289807
X00218055Y00355772
X00211688Y00356091
X00206117Y00356329
X0019991
X00193305
X00185983
X0020447Y003937
X0021082
X0021844
X00194689Y00216034
X00416413Y0017653
X00414492Y0013867
X0049403Y0018415
X00493664Y00233939
X00525308Y00233494
X0055245Y00254371
X00565798Y00269223
X00605392Y00269235
X00510383Y00269289
X00472261Y00269223
X0047244Y0028321
X004699Y002921
X00492104Y00303037
X0043307Y003429
X00416297Y00373329
X0061722Y0016637
X0062357
X00639868Y00163296
X0064897Y0016383
X007874Y0012446
X0091313Y00121021
X0095123Y0012192
Y0007874
X0102743Y0023114
X00941304Y003175
X0102743Y0040513
X0100076Y004445
X00934528Y004953
X0090424Y0052324
X009017Y0057912
X0091821Y0058547
X0090551Y0060198
X00908856Y00619702
X0089408Y0061214
X0093345Y0060452
X00919472Y00645012
X00926393Y00707166
X00914296Y00726323
X00859009Y00725134
X0081026Y0072517
X00814326Y00595977
X0082555Y0057658
X0082071Y00483439
X01023587Y00560369
X00787634Y0056515
X00768641Y00591589
X0076068Y00589539
X00753951Y0059891
X00721243Y00613103
X00721313Y00625542
X0072136Y00638375
X00721422Y0065076
X0069088Y0061214
X00676664Y00556011
X00651545Y00556977
X00643734Y00522658
X00637472Y0052539
X00622106Y00511587
X00599133Y00524424
X00592028Y00542618
X00590029Y0054782
Y00554319
X00585425Y00540143
X00578047Y00528652
X00570446Y00522278
X00557787Y00522305
X00551097Y00522356
X0055103Y0054132
X0054453
X00538333Y00541094
X0053803Y0054782
X0054453
X0055103
X0055753
Y0054132
X00551224Y00573829
X00551307Y00580268
X00557724Y00580455
X00558019Y00598925
X00565533Y00592834
X0057053Y00586819
Y00567319
X00585343Y00573838
X00583529Y00580319
X00584061Y00595163
X00591334Y00588831
X00596325Y00592804
X00604718Y00549295
X00608398Y00633618
X00625032Y00657966
X00624462Y00665565
X00593526Y00710875
X00593978Y00753129
X0052451Y0078359
X00449288Y00734802
X00405084Y00746714
X00398273Y00775611
X0039943Y0054991
X0042291Y0056515
X00437946Y00565937
X00461804Y00530264
X00442708Y00503603
X00429875Y00493697
X0042545Y0048641
X004191Y00476475
X00505579Y0051561
X0051873Y00521634
X00512031Y0053482
X00505531
X0053803Y0051532
X005402Y00497189
X00538096Y00587759
X00518531Y00586819
X00535022Y00643507
X00649062Y0049645
X0067183Y0049022
X00762Y0069215
X00767878Y00729049
X00388714Y0075765
X0039624Y0078359
X0025781Y007493
X0029464Y0064135
X0030099Y0061595
X00282875Y00581036
X0034544Y0057785
X0036195Y0057658
X00355741Y0056261
X003429Y0054991
X00336467Y00538484
X0033655Y0052705
X00337678Y00515719
X00328337Y00504504
X00346268Y00500015
X00325165Y00469365
X00324927Y00455684
X00312281Y00457235
X0021844Y0040005
X0021082
X0020447
X0018156Y00402884
X00173912Y00422313
X00147524Y0042234
X00187684Y00538391
X00211329Y00606299
X00352161Y00597215
X00366952Y00597749
X00378536Y00598106
X00388694Y00597749
X0038543Y0054991
X0038862Y0082423
X0027995Y00862838
X0066294Y0080645
X0084328Y0082296
X0086614Y0082169
T03
X00217331Y00519596
X00227326
X00237326
Y00529589
X00227331Y00529591
Y00539591
X00217331
Y00529596
X00237331Y00539591
T04
X0008509Y0002032
X0008001Y0003556
X0008636Y0005207
X0010287Y0005842
X0011938Y0005207
X0012573Y0003556
X0011938Y0001905
X0010287Y0001143
X0102108Y0002032
X01016Y0003556
X0102235Y0005207
X0103886Y0005842
X0105537Y0005207
X0106172Y0003556
X0105537Y0001905
X0103886Y0001143
X0011938Y0095504
X0012573Y0097155
X0011938Y0098806
X0010287Y0099441
X0008636Y0098806
X0008001Y0097155
X0008509Y0095631
X0010287Y0094742
X0101981Y0095631
X0101473Y0097155
X0102108Y0098806
X0103759Y0099441
X010541Y0098806
X0106045Y0097155
X010541Y0095504
X0103759Y0094742
T06
X00510734Y00861692
X00530734
X00550734
X00570734
X00590734
X00585734Y00876693
X00590734Y00893692
X00570734
X00550734
X00530734
X00510734
X00515734Y00908692
X00540734
X00560734
X00585734
X00560734Y00876693
X00540734
X00515734
T07
X00379997Y0089282
X00393993
X00407963
X00421958
T09
X0105156Y0034036
Y0036576
Y0039116
T10
X00979157Y0008763
Y0011303
Y0013843
Y0016383
Y0018923
Y0021463
X01012896
Y0018923
Y0016383
Y0013843
Y0011303
Y0008763
X0104648
Y0011303
Y0013843
Y0016383
Y0018923
Y0021463
T13
X00485034Y00871892
Y00928692
X00616434
Y00871892
T14
X0010287Y0003556
X0103886
X0010287Y0097155
X0103759
T15
X00117343Y0068588
Y00753878
M30
