G04*
G04 #@! TF.GenerationSoftware,Altium Limited,Altium Designer,25.0.2 (28)*
G04*
G04 Layer_Physical_Order=4*
G04 Layer_Color=6736896*
%FSLAX44Y44*%
%MOMM*%
G71*
G04*
G04 #@! TF.SameCoordinates,9CC9931D-9A39-465D-B94E-96E1981A4A0C*
G04*
G04*
G04 #@! TF.FilePolarity,Positive*
G04*
G01*
G75*
%ADD11C,0.2540*%
%ADD23C,0.6000*%
%ADD118C,0.5080*%
%ADD134C,0.3048*%
%ADD136C,0.3810*%
%ADD138R,1.7000X1.7000*%
%ADD139C,1.7000*%
%ADD140C,0.5000*%
%ADD141C,6.0000*%
%ADD142O,2.0000X3.5000*%
%ADD143O,2.0000X2.5000*%
%ADD144O,2.0000X0.9000*%
%ADD145O,0.9000X1.5000*%
%ADD146O,2.4000X1.0000*%
%ADD147C,3.2000*%
%ADD148C,1.1000*%
%ADD149O,3.0000X1.8000*%
%ADD150O,2.1000X2.7000*%
%ADD151O,2.1000X2.7000*%
%ADD152C,1.1999*%
%ADD153C,0.4572*%
%ADD154C,0.4570*%
%ADD155C,0.6096*%
%ADD156C,1.0160*%
G36*
X1069414Y975181D02*
X1068414Y975102D01*
X1067827Y978809D01*
X1066319Y983450D01*
X1064104Y987797D01*
X1061236Y991745D01*
X1057785Y995195D01*
X1053838Y998064D01*
X1050518Y999755D01*
X1050172Y1001054D01*
X1050273Y1001210D01*
X1069414D01*
Y975181D01*
D02*
G37*
G36*
X1025008Y1001054D02*
X1024662Y999755D01*
X1021342Y998064D01*
X1017395Y995195D01*
X1013944Y991745D01*
X1011076Y987797D01*
X1008861Y983450D01*
X1007353Y978809D01*
X1006590Y973990D01*
Y969110D01*
X1007353Y964291D01*
X1008861Y959650D01*
X1011076Y955303D01*
X1013944Y951355D01*
X1017395Y947905D01*
X1021342Y945036D01*
X1025690Y942821D01*
X1030331Y941313D01*
X1035150Y940550D01*
X1040030D01*
X1044849Y941313D01*
X1049490Y942821D01*
X1053838Y945036D01*
X1057785Y947905D01*
X1061236Y951355D01*
X1064104Y955303D01*
X1066319Y959650D01*
X1067827Y964291D01*
X1068414Y967998D01*
X1069414Y967919D01*
Y248273D01*
X1068414Y247970D01*
X1067441Y249426D01*
X1012039Y304828D01*
Y421612D01*
X1058484Y468057D01*
X1059827Y470068D01*
X1060299Y472440D01*
Y796290D01*
X1059827Y798662D01*
X1058484Y800673D01*
X1033083Y826073D01*
X1031072Y827417D01*
X1028700Y827889D01*
X883555D01*
X883172Y828813D01*
X888304Y833944D01*
X889647Y835956D01*
X890119Y838328D01*
Y935990D01*
X889647Y938362D01*
X888304Y940373D01*
X875603Y953073D01*
X873592Y954417D01*
X871220Y954889D01*
X673128D01*
X659703Y968313D01*
X657692Y969657D01*
X655320Y970129D01*
X472440D01*
X470068Y969657D01*
X468056Y968313D01*
X450822Y951079D01*
X328958D01*
X321883Y958153D01*
X319872Y959497D01*
X317500Y959969D01*
X190500D01*
X188128Y959497D01*
X186117Y958154D01*
X156907Y928943D01*
X155563Y926932D01*
X155091Y924560D01*
Y721388D01*
X152611Y718908D01*
X152563Y718916D01*
X151841Y719587D01*
X151470Y719725D01*
X151104Y719877D01*
X151085Y719869D01*
X151065Y719876D01*
X150705Y719711D01*
X150339Y719560D01*
X147825Y717045D01*
X147508Y716280D01*
Y672278D01*
X140522Y665292D01*
X91440Y665292D01*
X91440Y665293D01*
X90674Y664975D01*
X90674Y664975D01*
X83055Y657355D01*
X82738Y656590D01*
X82738Y565150D01*
X83055Y564385D01*
X83055Y564385D01*
X90675Y556765D01*
X91440Y556448D01*
X92493D01*
X92907Y555448D01*
X85595Y548135D01*
X85278Y547370D01*
Y372110D01*
X85595Y371345D01*
X97024Y359915D01*
X97790Y359598D01*
X177690Y359598D01*
X178073Y358674D01*
X177035Y357635D01*
X176718Y356870D01*
Y340360D01*
X177035Y339595D01*
X177035Y339595D01*
X183385Y333245D01*
X184150Y332928D01*
X289560D01*
X290325Y333245D01*
X305565Y348485D01*
X305882Y349250D01*
Y364042D01*
X307327Y365486D01*
X307644Y366251D01*
X307327Y367016D01*
X307104Y367239D01*
X306769Y368048D01*
Y368925D01*
X307104Y369735D01*
X307724Y370355D01*
X308534Y370690D01*
X309411D01*
X310221Y370355D01*
X310443Y370133D01*
X311050Y369882D01*
X311077Y369870D01*
X311077Y369870D01*
X311208Y369816D01*
X311974Y370133D01*
X311974Y370133D01*
X321758Y379918D01*
X433070Y379918D01*
X433835Y380235D01*
X433835Y380235D01*
X441455Y387855D01*
X441772Y388620D01*
Y470722D01*
X447488Y476438D01*
X452010D01*
X452393Y475514D01*
X450085Y473205D01*
X449768Y472440D01*
Y381448D01*
X440242Y371922D01*
X425450D01*
X424685Y371605D01*
X417065Y363985D01*
X416748Y363220D01*
Y243840D01*
X416748Y243840D01*
X417065Y243075D01*
X433575Y226565D01*
X434340Y226248D01*
X491090D01*
Y185639D01*
X490744Y184804D01*
Y183496D01*
X491244Y182289D01*
X492169Y181364D01*
X493376Y180864D01*
X494684D01*
X495891Y181364D01*
X496816Y182289D01*
X497316Y183496D01*
Y184804D01*
X496816Y186011D01*
X496237Y186590D01*
Y226248D01*
X511773D01*
X511972Y226330D01*
X512188D01*
X512340Y226482D01*
X512427Y226518D01*
X513080Y226248D01*
X635000D01*
X635000Y226248D01*
X635765Y226565D01*
X652275Y243075D01*
X652592Y243840D01*
Y449547D01*
X764540D01*
X765525Y449742D01*
X766360Y450300D01*
X781600Y465540D01*
X782158Y466375D01*
X782354Y467360D01*
Y570434D01*
X785926Y574007D01*
X823476D01*
X823688Y573794D01*
X824896Y573294D01*
X826203D01*
X827411Y573794D01*
X828335Y574719D01*
X828836Y575926D01*
Y577234D01*
X828335Y578441D01*
X827411Y579366D01*
X826203Y579866D01*
X824896D01*
X823688Y579366D01*
X823476Y579154D01*
X784860D01*
X783875Y578958D01*
X783040Y578400D01*
X777960Y573320D01*
X777402Y572485D01*
X777206Y571500D01*
Y468426D01*
X763474Y454693D01*
X652592D01*
Y492944D01*
X652532Y493090D01*
X652549Y493247D01*
X652379Y493459D01*
X652275Y493709D01*
X651892Y494694D01*
X652348Y495796D01*
Y497104D01*
X651891Y498206D01*
X652275Y499190D01*
X652379Y499441D01*
X652549Y499653D01*
X652532Y499810D01*
X652592Y499956D01*
Y503314D01*
X652509Y503514D01*
X652509Y503731D01*
X652357Y503882D01*
X652275Y504079D01*
X651909Y504797D01*
X651895Y505407D01*
X652111Y505929D01*
Y507236D01*
X651895Y507758D01*
X651906Y508226D01*
X652275Y509086D01*
X652275D01*
X652509Y509434D01*
X652509Y509650D01*
X652592Y509851D01*
X652592Y509959D01*
Y511810D01*
X652592Y511810D01*
X652275Y512575D01*
X645493Y519358D01*
X645595Y519872D01*
X646520Y520796D01*
X647020Y522004D01*
Y523311D01*
X646520Y524519D01*
X645595Y525443D01*
X644388Y525944D01*
X643080D01*
X641872Y525443D01*
X640948Y524519D01*
X640448Y523311D01*
X639539Y522712D01*
X639171Y522748D01*
X639162Y522762D01*
X638900Y522937D01*
X638676Y523160D01*
X638566D01*
X638473Y523222D01*
X638180Y523164D01*
X638125Y523186D01*
X637034D01*
X636224Y523522D01*
X635604Y524142D01*
X635268Y524952D01*
Y525828D01*
X635604Y526638D01*
X636143Y527177D01*
X636143Y527177D01*
X636460Y527943D01*
X636409Y528064D01*
X636143Y528708D01*
X631955Y532895D01*
X631190Y533212D01*
X593546D01*
Y533653D01*
X593046Y534860D01*
X592122Y535784D01*
X590915Y536284D01*
X589608D01*
X588400Y535784D01*
X587476Y534860D01*
X586976Y533653D01*
Y533212D01*
X585214D01*
X585015Y533130D01*
X584800D01*
X583862Y532741D01*
X582985D01*
X582047Y533130D01*
X581832D01*
X581633Y533212D01*
X580630D01*
X580431Y533130D01*
X580216D01*
X580064Y532978D01*
X579865Y532895D01*
X579782Y532696D01*
X579630Y532544D01*
X579280Y531698D01*
X578700Y531938D01*
X577393D01*
X576814Y531698D01*
X576464Y532544D01*
X576311Y532696D01*
X576229Y532895D01*
X576030Y532978D01*
X575878Y533130D01*
X575663D01*
X575464Y533212D01*
X535506D01*
X534740Y532895D01*
X534740Y532895D01*
X534648Y532803D01*
X533838Y532467D01*
X532962D01*
X532152Y532803D01*
X532060Y532895D01*
X531294Y533212D01*
X524620D01*
X524237Y534136D01*
X534165Y544065D01*
X534482Y544830D01*
Y560070D01*
X534165Y560835D01*
X531857Y563144D01*
X532240Y564068D01*
X563880D01*
X564645Y564385D01*
X568144Y567883D01*
X568252Y568145D01*
X568356Y568280D01*
X568425Y568370D01*
X568425Y568370D01*
X568502Y568660D01*
X569331Y569208D01*
X569335Y569212D01*
X569344Y569213D01*
X570091Y569523D01*
X570968D01*
X571778Y569187D01*
X572398Y568567D01*
X572733Y567757D01*
Y566881D01*
X572398Y566071D01*
X571778Y565451D01*
X570968Y565116D01*
X570091D01*
X569344Y565425D01*
X569336D01*
X569331Y565431D01*
X568923Y565425D01*
X568516D01*
X568510Y565419D01*
X568502Y565419D01*
X567631Y565044D01*
X567528Y564939D01*
X567386Y564898D01*
X567018Y564606D01*
X566986Y564549D01*
X566925Y564524D01*
X566788Y564194D01*
X566615Y563883D01*
X566633Y563819D01*
X566608Y563758D01*
Y537737D01*
X566608Y537737D01*
X566925Y536971D01*
X566925Y536971D01*
X568195Y535701D01*
X568960Y535384D01*
X580390D01*
X580390Y535384D01*
X581155Y535701D01*
X581341Y535887D01*
X581404Y536039D01*
X582328Y536964D01*
X582333Y536974D01*
X582486Y537044D01*
X582769Y537345D01*
X583564Y537357D01*
X584772Y536857D01*
X586079D01*
X587287Y537357D01*
X588211Y538282D01*
X588711Y539489D01*
Y539874D01*
X589711Y540288D01*
X590167Y539833D01*
X591374Y539332D01*
X592681D01*
X593889Y539833D01*
X594814Y540757D01*
X595314Y541965D01*
Y543272D01*
X594814Y544480D01*
X593889Y545404D01*
X592839Y545839D01*
X592815Y545958D01*
X593315Y547166D01*
Y548473D01*
X592815Y549681D01*
X592000Y550496D01*
X591939Y551069D01*
X592000Y551643D01*
X592362Y552005D01*
X601474D01*
X601870Y551005D01*
X601432Y549949D01*
Y548642D01*
X601933Y547434D01*
X602857Y546510D01*
X604065Y546009D01*
X605372D01*
X606580Y546510D01*
X606792Y546722D01*
X652329D01*
X658040Y541010D01*
Y471208D01*
X658236Y470223D01*
X658794Y469388D01*
X668992Y459190D01*
X669827Y458632D01*
X670812Y458437D01*
X760730D01*
X761715Y458632D01*
X762550Y459190D01*
X773980Y470620D01*
X774538Y471455D01*
X774734Y472440D01*
Y576784D01*
X780846Y582896D01*
X855481D01*
X855580Y581897D01*
X855378Y581856D01*
X854417Y581214D01*
X841315Y568112D01*
X789070D01*
X788288Y568436D01*
X786981D01*
X785773Y567936D01*
X784848Y567011D01*
X784348Y565804D01*
Y564496D01*
X784848Y563289D01*
X785773Y562364D01*
X786981Y561864D01*
X788288D01*
X789070Y562188D01*
X842542D01*
X843675Y562413D01*
X844636Y563056D01*
X857739Y576158D01*
X900264D01*
X901046Y575834D01*
X902354D01*
X903561Y576334D01*
X904486Y577259D01*
X904986Y578466D01*
Y579774D01*
X904486Y580981D01*
X903571Y581897D01*
X903571Y581950D01*
X903783Y582896D01*
X916136D01*
X916349Y582684D01*
X917556Y582184D01*
X918864D01*
X920071Y582684D01*
X920996Y583609D01*
X921496Y584816D01*
Y586124D01*
X920996Y587331D01*
X920071Y588256D01*
X918864Y588756D01*
X917556D01*
X916349Y588256D01*
X916136Y588044D01*
X779780D01*
X778795Y587848D01*
X777960Y587290D01*
X770340Y579670D01*
X769782Y578835D01*
X769586Y577850D01*
Y473506D01*
X759664Y463583D01*
X671878D01*
X663187Y472274D01*
Y542076D01*
X662991Y543061D01*
X662434Y543896D01*
X655214Y551115D01*
X654380Y551673D01*
X653395Y551869D01*
X612403D01*
X612213Y552142D01*
X612022Y552869D01*
X613777Y554623D01*
X614278Y555374D01*
X614454Y556260D01*
Y563769D01*
X632571Y581885D01*
X698785D01*
X699453Y580886D01*
X699231Y580349D01*
Y579042D01*
X699731Y577834D01*
X700655Y576910D01*
X701862Y576410D01*
X703169D01*
X704377Y576910D01*
X705301Y577834D01*
X705801Y579042D01*
Y580349D01*
X705301Y581556D01*
X705188Y581669D01*
X705602Y582669D01*
X717917D01*
X718430Y581669D01*
X718075Y580813D01*
Y579506D01*
X718575Y578298D01*
X719499Y577374D01*
X720707Y576874D01*
X722013D01*
X723221Y577374D01*
X724145Y578298D01*
X724645Y579506D01*
Y580813D01*
X724290Y581669D01*
X724802Y582669D01*
X727920D01*
X728432Y581669D01*
X728077Y580813D01*
Y579506D01*
X728577Y578298D01*
X729501Y577374D01*
X730709Y576874D01*
X732016D01*
X733223Y577374D01*
X734147Y578298D01*
X734647Y579506D01*
Y580813D01*
X734293Y581669D01*
X734805Y582669D01*
X762567D01*
X763452Y582845D01*
X764203Y583347D01*
X769159Y588303D01*
X769294D01*
X770502Y588803D01*
X771426Y589728D01*
X771927Y590935D01*
Y591602D01*
X773988Y593663D01*
X811993D01*
X812465Y593191D01*
X813672Y592691D01*
X814980D01*
X816187Y593191D01*
X817112Y594116D01*
X817612Y595324D01*
Y596631D01*
X817112Y597839D01*
X816187Y598763D01*
X814980Y599263D01*
X813672D01*
X812465Y598763D01*
X811993Y598292D01*
X773029D01*
X772143Y598116D01*
X771393Y597614D01*
X768654Y594875D01*
X767987D01*
X766779Y594375D01*
X765855Y593450D01*
X765355Y592243D01*
Y591378D01*
X764633Y590752D01*
X763644Y590970D01*
X763465Y591401D01*
X762541Y592325D01*
X761333Y592825D01*
X760026D01*
X758818Y592325D01*
X758606Y592113D01*
X721402D01*
X721299Y592395D01*
X721236Y593113D01*
X721910Y593563D01*
X735880Y607533D01*
X736438Y608368D01*
X736634Y609353D01*
Y622300D01*
X736438Y623285D01*
X735880Y624120D01*
X732638Y627361D01*
X731803Y627919D01*
X730818Y628115D01*
X723386D01*
X723174Y628327D01*
X721966Y628828D01*
X720659D01*
X719451Y628327D01*
X718527Y627403D01*
X718027Y626195D01*
Y624888D01*
X718527Y623680D01*
X719451Y622756D01*
X720659Y622256D01*
X721966D01*
X723174Y622756D01*
X723386Y622968D01*
X729752D01*
X731487Y621234D01*
Y610419D01*
X719024Y597956D01*
X711042D01*
X710660Y598880D01*
X721597Y609817D01*
X721897D01*
X723104Y610317D01*
X724029Y611242D01*
X724529Y612449D01*
Y613757D01*
X724029Y614964D01*
X723104Y615889D01*
X721897Y616389D01*
X720590D01*
X719382Y615889D01*
X718457Y614964D01*
X717957Y613757D01*
Y613456D01*
X705045Y600544D01*
X704025D01*
X703041Y600348D01*
X702963Y600296D01*
X683982D01*
X683600Y601220D01*
X691233Y608854D01*
X691534D01*
X692741Y609354D01*
X693666Y610279D01*
X694166Y611486D01*
Y612794D01*
X693666Y614001D01*
X692741Y614926D01*
X691534Y615426D01*
X690226D01*
X689019Y614926D01*
X688094Y614001D01*
X687594Y612794D01*
Y612493D01*
X679445Y604344D01*
X613226D01*
X612605Y605344D01*
X612883Y606016D01*
Y607323D01*
X612383Y608530D01*
X611459Y609454D01*
X610251Y609954D01*
X608945D01*
X607737Y609454D01*
X606887Y608604D01*
X606496Y608541D01*
X605746Y608567D01*
X604948Y609365D01*
X603741Y609865D01*
X602434D01*
X601227Y609365D01*
X600508Y608646D01*
X599907Y608522D01*
X599305Y608646D01*
X598807Y609144D01*
X598615Y609553D01*
X598740Y610384D01*
X599314Y610957D01*
X599814Y612165D01*
Y613472D01*
X599314Y614679D01*
X598390Y615603D01*
X597183Y616103D01*
X595876D01*
X594668Y615603D01*
X593852Y614787D01*
X593279Y614727D01*
X592706Y614787D01*
X591890Y615603D01*
X590683Y616103D01*
X590384D01*
X589466Y617020D01*
Y643655D01*
X594202Y648391D01*
X719144D01*
X719560Y647974D01*
X720768Y647474D01*
X722075D01*
X723283Y647974D01*
X724208Y648899D01*
X724708Y650106D01*
Y651414D01*
X724208Y652621D01*
X723283Y653546D01*
X722075Y654046D01*
X720768D01*
X719560Y653546D01*
X719553Y653538D01*
X593136D01*
X592152Y653342D01*
X591317Y652784D01*
X585073Y646541D01*
X584515Y645706D01*
X584319Y644721D01*
Y615955D01*
X584515Y614970D01*
X585073Y614135D01*
X586744Y612464D01*
Y612165D01*
X587244Y610957D01*
X588168Y610033D01*
X588427Y609926D01*
X588531Y609561D01*
X588541Y608797D01*
X587909Y608164D01*
X587645Y608037D01*
X586707Y608059D01*
X586103Y608663D01*
X584895Y609163D01*
X583588D01*
X582381Y608663D01*
X581457Y607739D01*
X580957Y606532D01*
Y605225D01*
X581214Y604603D01*
X580565Y603603D01*
X565451D01*
X564466Y603407D01*
X563631Y602849D01*
X562572Y601790D01*
X559689D01*
X558673Y602211D01*
X557365D01*
X556158Y601711D01*
X555817Y601371D01*
X554851Y601475D01*
X554560Y601596D01*
X554297Y601772D01*
X554188Y601750D01*
X554086Y601792D01*
X542101D01*
X541998Y601750D01*
X541889Y601772D01*
X541627Y601596D01*
X541335Y601475D01*
X541325Y601450D01*
X540907Y601250D01*
X540182Y601178D01*
X539911Y601450D01*
X538703Y601950D01*
X537397D01*
X536189Y601450D01*
X535561Y600822D01*
X534889Y600650D01*
X534313Y600841D01*
X533658Y601496D01*
X532450Y601996D01*
X531144D01*
X529936Y601496D01*
X529012Y600572D01*
X528522Y599389D01*
X527496Y599593D01*
Y600382D01*
X526996Y601589D01*
X526072Y602513D01*
X524865Y603013D01*
X523558D01*
X522350Y602513D01*
X521426Y601589D01*
X520918Y601772D01*
X520809Y601750D01*
X520707Y601792D01*
X519218D01*
X519114Y602750D01*
X520322Y603250D01*
X521246Y604174D01*
X521746Y605381D01*
Y606688D01*
X521246Y607895D01*
X520322Y608819D01*
X519114Y609319D01*
X517808D01*
X516600Y608819D01*
X515908Y608128D01*
X515467Y607930D01*
X514664Y608065D01*
X514081Y608648D01*
X512873Y609148D01*
X511567D01*
X510359Y608648D01*
X509435Y607724D01*
X508935Y606517D01*
Y605210D01*
X509435Y604003D01*
X510359Y603079D01*
X511050Y602792D01*
X510851Y601792D01*
X502475D01*
X502373Y601750D01*
X502264Y601772D01*
X502002Y601596D01*
X501710Y601475D01*
X501668Y601373D01*
X501575Y601311D01*
X501416Y601073D01*
X501355Y600764D01*
X501234Y600472D01*
Y599380D01*
X500899Y598571D01*
X500279Y597951D01*
X499469Y597616D01*
X498593D01*
X497784Y597951D01*
X497303Y598432D01*
X497029Y598545D01*
X496789Y598719D01*
X496721Y598735D01*
X495992Y599081D01*
X495816Y599878D01*
Y600472D01*
X495316Y601679D01*
X494833Y602162D01*
X494530Y602874D01*
X494833Y603469D01*
X495367Y604002D01*
X495375Y604022D01*
X495520Y604094D01*
X496523Y604180D01*
X497170Y603533D01*
X498378Y603033D01*
X499685D01*
X500892Y603533D01*
X501816Y604458D01*
X502316Y605665D01*
Y606972D01*
X501816Y608179D01*
X500892Y609103D01*
X499685Y609603D01*
X498378D01*
X497170Y609103D01*
X496246Y608179D01*
X496238Y608159D01*
X496094Y608087D01*
X495090Y608001D01*
X494443Y608648D01*
X493236Y609148D01*
X491929D01*
X490722Y608648D01*
X490017Y607944D01*
X489622Y607750D01*
X488778Y607876D01*
X488216Y608438D01*
X487009Y608939D01*
X485702D01*
X484494Y608438D01*
X483710Y607654D01*
X483048Y607785D01*
X482710Y607961D01*
Y608335D01*
X482210Y609543D01*
X481286Y610467D01*
X480079Y610967D01*
X478772D01*
X477564Y610467D01*
X476640Y609543D01*
X476140Y608335D01*
Y607028D01*
X476640Y605821D01*
X477564Y604897D01*
X478772Y604397D01*
X480079D01*
X481286Y604897D01*
X482070Y605681D01*
X482732Y605550D01*
X483070Y605374D01*
Y605000D01*
X483570Y603793D01*
X484494Y602869D01*
X484679Y602792D01*
X484480Y601792D01*
X472744D01*
X472643Y601750D01*
X472534Y601772D01*
X472493Y601744D01*
X472271Y601596D01*
X471979Y601475D01*
X471978Y601473D01*
X471977Y601473D01*
X471936Y601373D01*
X471845Y601312D01*
X471843Y601310D01*
X471843Y601310D01*
X471781Y601000D01*
X471660Y600708D01*
Y599616D01*
X471325Y598806D01*
X470705Y598187D01*
X469896Y597851D01*
X469020D01*
X468210Y598187D01*
X467590Y598806D01*
X467255Y599616D01*
Y600708D01*
X467134Y601000D01*
X467072Y601310D01*
X467072Y601310D01*
X467070Y601312D01*
X466979Y601373D01*
X466938Y601473D01*
X466937Y601473D01*
X466936Y601475D01*
X466644Y601596D01*
X466422Y601744D01*
X466381Y601772D01*
X466273Y601750D01*
X466171Y601792D01*
X312319D01*
X311905Y602792D01*
X311990Y602878D01*
X312490Y604085D01*
Y605392D01*
X311990Y606599D01*
X311066Y607523D01*
X309858Y608023D01*
X308552D01*
X307344Y607523D01*
X306420Y606599D01*
X305920Y605392D01*
Y604085D01*
X306420Y602878D01*
X306505Y602792D01*
X306091Y601792D01*
X168615D01*
X161102Y609305D01*
Y635527D01*
X160785Y636292D01*
X153165Y643912D01*
X152400Y644229D01*
X119380D01*
X119380Y644229D01*
X118615Y643912D01*
X118615Y643912D01*
X113535Y638832D01*
X113218Y638067D01*
Y587267D01*
X113217Y587267D01*
X113535Y586501D01*
X113535Y586501D01*
X117871Y582165D01*
X118637Y581848D01*
X279484Y581848D01*
X279589Y581690D01*
Y580383D01*
X280089Y579175D01*
X281014Y578251D01*
X282222Y577750D01*
X283529D01*
X284736Y578251D01*
X285661Y579175D01*
X286161Y580383D01*
Y581690D01*
X286266Y581848D01*
X288957D01*
Y580965D01*
X289457Y579757D01*
X290381Y578833D01*
X291588Y578333D01*
X292895D01*
X294102Y578833D01*
X295026Y579757D01*
X295527Y580965D01*
Y581848D01*
X343891D01*
X344090Y580848D01*
X343579Y580636D01*
X342654Y579711D01*
X342154Y578504D01*
Y577196D01*
X342654Y575989D01*
X343579Y575064D01*
X344786Y574564D01*
X345476D01*
X345574Y573564D01*
X345371Y573524D01*
X344536Y572966D01*
X341080Y569510D01*
X340522Y568675D01*
X340326Y567690D01*
Y563860D01*
X339327Y563556D01*
X339102Y563892D01*
X331520Y571474D01*
X330349Y572257D01*
X328968Y572532D01*
X282293D01*
X280912Y572257D01*
X279741Y571474D01*
X278959Y570303D01*
X278684Y568922D01*
X278959Y567541D01*
X279512Y566713D01*
X278735Y566076D01*
X266195Y578615D01*
X265430Y578932D01*
X117288D01*
X109032Y587188D01*
Y638362D01*
X117288Y646618D01*
X181610D01*
X181610Y646618D01*
X182375Y646935D01*
X182376Y646935D01*
X191265Y655825D01*
X191582Y656590D01*
Y713740D01*
X191265Y714505D01*
X191265Y714505D01*
X184915Y720855D01*
X184150Y721172D01*
X167489D01*
Y921992D01*
X193068Y947571D01*
X314932D01*
X322007Y940497D01*
X324018Y939153D01*
X326390Y938681D01*
X447191D01*
Y832969D01*
X391160D01*
X388788Y832497D01*
X386777Y831153D01*
X384237Y828613D01*
X382893Y826602D01*
X382421Y824230D01*
X382893Y821858D01*
X384237Y819847D01*
X386248Y818503D01*
X388620Y818031D01*
X390992Y818503D01*
X393003Y819847D01*
X393728Y820571D01*
X447191D01*
Y802640D01*
X447663Y800268D01*
X449007Y798257D01*
X468056Y779207D01*
X470068Y777863D01*
X472440Y777391D01*
X524510D01*
X526882Y777863D01*
X528893Y779207D01*
X530237Y781218D01*
X530709Y783590D01*
X530237Y785962D01*
X528893Y787973D01*
X526882Y789317D01*
X524510Y789789D01*
X475008D01*
X459589Y805208D01*
Y826770D01*
Y942312D01*
X475008Y957731D01*
X652752D01*
X661793Y948690D01*
X652207Y939103D01*
X650863Y937092D01*
X650391Y934720D01*
Y812800D01*
X650863Y810428D01*
X652207Y808417D01*
X658557Y802067D01*
X660568Y800723D01*
X662940Y800251D01*
X665312Y800723D01*
X667323Y802067D01*
X668667Y804078D01*
X669139Y806450D01*
X668667Y808822D01*
X667323Y810834D01*
X662789Y815368D01*
Y932152D01*
X673128Y942491D01*
X868652D01*
X877721Y933422D01*
Y840896D01*
X864360Y827535D01*
X863768Y827417D01*
X861757Y826073D01*
X860413Y824062D01*
X859941Y821690D01*
X860413Y819318D01*
X861757Y817307D01*
X863768Y815963D01*
X866140Y815491D01*
X1026132D01*
X1047901Y793722D01*
Y475008D01*
X1001457Y428563D01*
X1000113Y426552D01*
X999641Y424180D01*
Y302260D01*
X1000113Y299888D01*
X1001457Y297877D01*
X1056858Y242475D01*
Y140266D01*
X1055858Y140135D01*
X1055333Y142097D01*
X1054082Y144263D01*
X1052313Y146032D01*
X1050147Y147283D01*
X1047731Y147930D01*
X1045229D01*
X1042813Y147283D01*
X1040647Y146032D01*
X1038878Y144263D01*
X1037627Y142097D01*
X1036980Y139681D01*
Y137179D01*
X1037627Y134763D01*
X1038878Y132597D01*
X1040647Y130828D01*
X1042813Y129577D01*
X1045229Y128930D01*
X1047731D01*
X1050147Y129577D01*
X1052313Y130828D01*
X1054082Y132597D01*
X1055333Y134763D01*
X1055858Y136725D01*
X1056858Y136594D01*
Y114866D01*
X1055858Y114735D01*
X1055333Y116697D01*
X1054082Y118863D01*
X1052313Y120632D01*
X1050147Y121883D01*
X1047731Y122530D01*
X1045229D01*
X1042813Y121883D01*
X1040647Y120632D01*
X1038878Y118863D01*
X1037627Y116697D01*
X1036980Y114281D01*
Y111779D01*
X1037627Y109363D01*
X1038878Y107197D01*
X1040647Y105428D01*
X1042813Y104177D01*
X1045229Y103530D01*
X1047731D01*
X1050147Y104177D01*
X1052313Y105428D01*
X1054082Y107197D01*
X1055333Y109363D01*
X1055858Y111325D01*
X1056858Y111194D01*
Y106775D01*
X1047213Y97130D01*
X1036980D01*
Y86897D01*
X1027922Y77839D01*
X1023276D01*
X1022396Y78130D01*
X1022396Y78839D01*
Y97130D01*
X1003397D01*
Y78839D01*
X1003397Y78130D01*
X1002517Y77839D01*
X989537D01*
X988657Y78130D01*
X988657Y78839D01*
Y97130D01*
X969657D01*
Y78130D01*
X985549D01*
X985853Y77130D01*
X984197Y76024D01*
X937232Y29059D01*
X441988D01*
X420691Y50356D01*
Y138670D01*
Y172041D01*
X420797Y172146D01*
X422141Y174158D01*
X422612Y176530D01*
X422141Y178902D01*
X420797Y180913D01*
X418786Y182257D01*
X416413Y182729D01*
X414041Y182257D01*
X412030Y180913D01*
X410109Y178992D01*
X408765Y176981D01*
X408293Y174609D01*
Y138670D01*
Y47788D01*
X408765Y45416D01*
X410109Y43405D01*
X435037Y18477D01*
X437048Y17133D01*
X439420Y16661D01*
X939800D01*
X942172Y17133D01*
X944183Y18477D01*
X991148Y65441D01*
X1027270D01*
X1027428Y64441D01*
X1026960Y64289D01*
X1022613Y62074D01*
X1018665Y59205D01*
X1015214Y55755D01*
X1012346Y51807D01*
X1010131Y47460D01*
X1008623Y42819D01*
X1007860Y38000D01*
Y33120D01*
X1008623Y28301D01*
X1010131Y23660D01*
X1012346Y19312D01*
X1015214Y15365D01*
X1018665Y11914D01*
X1022613Y9046D01*
X1026960Y6831D01*
X1031601Y5323D01*
X1036420Y4560D01*
X1041300D01*
X1046119Y5323D01*
X1050760Y6831D01*
X1055107Y9046D01*
X1059055Y11914D01*
X1062505Y15365D01*
X1065374Y19312D01*
X1067589Y23660D01*
X1068414Y26199D01*
X1069414Y26041D01*
Y1805D01*
X1068594Y1370D01*
X69330D01*
X69165Y1000241D01*
X70134Y1001210D01*
X90187D01*
X90288Y1001054D01*
X89942Y999755D01*
X86622Y998064D01*
X82675Y995195D01*
X79225Y991745D01*
X76356Y987797D01*
X74141Y983450D01*
X72633Y978809D01*
X71870Y973990D01*
Y969110D01*
X72633Y964291D01*
X74141Y959650D01*
X76356Y955303D01*
X79225Y951355D01*
X82675Y947905D01*
X86622Y945036D01*
X90970Y942821D01*
X95611Y941313D01*
X100430Y940550D01*
X105310D01*
X110129Y941313D01*
X114770Y942821D01*
X119117Y945036D01*
X123065Y947905D01*
X126516Y951355D01*
X129384Y955303D01*
X131599Y959650D01*
X133107Y964291D01*
X133870Y969110D01*
Y973990D01*
X133107Y978809D01*
X131599Y983450D01*
X129384Y987797D01*
X126516Y991745D01*
X123065Y995195D01*
X119117Y998064D01*
X115798Y999755D01*
X115452Y1001054D01*
X115553Y1001210D01*
X1024907D01*
X1025008Y1001054D01*
D02*
G37*
G36*
X190500Y713740D02*
Y656590D01*
X181610Y647700D01*
X116840D01*
X107950Y638810D01*
Y586740D01*
X116840Y577850D01*
X265430D01*
X278130Y565150D01*
X278130Y478790D01*
X271780Y472440D01*
X182880D01*
X176530Y478790D01*
Y549910D01*
X168910Y557530D01*
X91440Y557530D01*
X83820Y565150D01*
X83820Y656590D01*
X91440Y664210D01*
X140970Y664210D01*
X148590Y671830D01*
Y716280D01*
X151104Y718794D01*
X151827Y718123D01*
X150483Y716112D01*
X150011Y713740D01*
Y684530D01*
X150483Y682158D01*
X151827Y680147D01*
X153838Y678803D01*
X156210Y678331D01*
X158582Y678803D01*
X160593Y680147D01*
X161937Y682158D01*
X162409Y684530D01*
Y711172D01*
X165674Y714437D01*
X167017Y716448D01*
X167489Y718820D01*
Y720090D01*
X184150D01*
X190500Y713740D01*
D02*
G37*
G36*
X566608Y575122D02*
Y570880D01*
X566633Y570819D01*
X566615Y570756D01*
X566788Y570444D01*
X566925Y570115D01*
X566986Y570090D01*
X567018Y570032D01*
X567339Y569777D01*
X567456Y568939D01*
X567379Y568649D01*
X563880Y565150D01*
X507459D01*
X507260Y566150D01*
X507321Y566175D01*
X508245Y567099D01*
X508745Y568307D01*
Y569613D01*
X508245Y570821D01*
X507321Y571745D01*
X506113Y572245D01*
X504807D01*
X503599Y571745D01*
X502675Y570821D01*
X502175Y569613D01*
Y568307D01*
X502675Y567099D01*
X503599Y566175D01*
X503660Y566150D01*
X503461Y565150D01*
X491117D01*
X490561Y565981D01*
X490657Y566211D01*
Y567518D01*
X490157Y568726D01*
X489233Y569650D01*
X488025Y570150D01*
X486718D01*
X485511Y569650D01*
X484587Y568726D01*
X484087Y567518D01*
Y566211D01*
X483360Y565497D01*
X483252D01*
X483175Y565563D01*
X482498Y566391D01*
Y567453D01*
X481998Y568661D01*
X481074Y569585D01*
X479866Y570085D01*
X478560D01*
X477352Y569585D01*
X476428Y568661D01*
X475928Y567453D01*
Y566147D01*
X475996Y565981D01*
X475441Y565150D01*
X441321D01*
X441231Y565283D01*
Y566591D01*
X440731Y567798D01*
X439807Y568723D01*
X438599Y569223D01*
X437292D01*
X436084Y568723D01*
X435160Y567798D01*
X434660Y566591D01*
Y565283D01*
X434570Y565150D01*
X426196D01*
Y565804D01*
X425696Y567011D01*
X424771Y567936D01*
X423564Y568436D01*
X422256D01*
X421049Y567936D01*
X420124Y567011D01*
X419624Y565804D01*
Y565150D01*
X400050D01*
X388620Y553720D01*
Y552781D01*
X387620Y552367D01*
X387291Y552696D01*
X386083Y553196D01*
X384776D01*
X383568Y552696D01*
X382644Y551771D01*
X382144Y550564D01*
Y549256D01*
X382644Y548049D01*
X383568Y547124D01*
X384776Y546624D01*
X386083D01*
X387291Y547124D01*
X387620Y547453D01*
X388620Y547039D01*
Y536024D01*
X387909Y535549D01*
X386602D01*
X385395Y535049D01*
X384471Y534125D01*
X383971Y532917D01*
Y531610D01*
X384471Y530403D01*
X385395Y529479D01*
X386602Y528979D01*
X386997Y528388D01*
X386914Y528188D01*
Y526881D01*
X387414Y525674D01*
X388338Y524750D01*
X388620Y524633D01*
X388620Y438150D01*
X377190Y426720D01*
X229870D01*
X226060Y422910D01*
Y391160D01*
X220980Y386080D01*
X196850D01*
X191770Y391160D01*
X191770Y435048D01*
X191770Y435048D01*
X191770Y452120D01*
X200660Y461010D01*
X351790Y461010D01*
X360680Y469900D01*
X360680Y556431D01*
X362500Y558250D01*
X363058Y559085D01*
X363254Y560070D01*
Y569715D01*
X363058Y570699D01*
X362500Y571534D01*
X362242Y571792D01*
X372110Y581660D01*
X482287D01*
X482747Y580972D01*
Y579665D01*
X483247Y578458D01*
X484171Y577534D01*
X485378Y577034D01*
X485557D01*
X486175Y576034D01*
X485895Y575359D01*
Y574052D01*
X486395Y572845D01*
X487319Y571920D01*
X488527Y571420D01*
X489834D01*
X491041Y571920D01*
X491965Y572845D01*
X492465Y574052D01*
Y575359D01*
X491965Y576566D01*
X491041Y577490D01*
X489834Y577990D01*
X489655D01*
X489037Y578990D01*
X489316Y579665D01*
Y580677D01*
X490317Y580876D01*
X490735Y579866D01*
X491659Y578942D01*
X492866Y578442D01*
X494173D01*
X495380Y578942D01*
X496304Y579866D01*
X496805Y581074D01*
Y581660D01*
X501787D01*
X502246Y580972D01*
Y579665D01*
X502746Y578458D01*
X503670Y577534D01*
X504878Y577034D01*
X506185D01*
X507392Y577534D01*
X508316Y578458D01*
X508816Y579665D01*
Y580972D01*
X509276Y581660D01*
X560070D01*
X566608Y575122D01*
D02*
G37*
G36*
X160020Y635527D02*
Y608857D01*
X168167Y600710D01*
X466171D01*
X466173Y600708D01*
Y599401D01*
X466673Y598193D01*
X467597Y597269D01*
X468804Y596769D01*
X470111D01*
X471318Y597269D01*
X472243Y598193D01*
X472743Y599401D01*
Y600708D01*
X472744Y600710D01*
X489087D01*
X489246Y600472D01*
Y599165D01*
X489747Y597958D01*
X490671Y597034D01*
X491878Y596534D01*
X493185D01*
X494392Y597034D01*
X495025Y597666D01*
X495781Y597847D01*
X496538Y597666D01*
X497170Y597034D01*
X498378Y596534D01*
X499685D01*
X500892Y597034D01*
X501816Y597958D01*
X502316Y599165D01*
Y600472D01*
X502475Y600710D01*
X520707D01*
X520926Y600382D01*
Y599075D01*
X521426Y597868D01*
X522350Y596944D01*
X523558Y596443D01*
X524865D01*
X526072Y596944D01*
X526996Y597868D01*
X527272Y598534D01*
X528512Y598288D01*
Y598058D01*
X529012Y596851D01*
X529936Y595926D01*
X531144Y595426D01*
X532450D01*
X533658Y595926D01*
X534102Y596371D01*
X534954Y596688D01*
X535710Y596359D01*
X536189Y595880D01*
X537397Y595380D01*
X538703D01*
X539911Y595880D01*
X540835Y596804D01*
X541335Y598012D01*
Y599318D01*
X541272Y599470D01*
X542101Y600710D01*
X554086D01*
X554775Y599679D01*
X554733Y599579D01*
Y598271D01*
X555233Y597064D01*
X556158Y596139D01*
X557365Y595639D01*
X558673D01*
X559880Y596139D01*
X560384Y596643D01*
X563075D01*
X563203Y596423D01*
X563455Y595403D01*
X562747Y594695D01*
X562247Y593488D01*
Y592180D01*
X562747Y590973D01*
X563671Y590048D01*
X564879Y589548D01*
X566186D01*
X567394Y590048D01*
X568210Y589146D01*
X567744Y588680D01*
X567244Y587472D01*
Y586165D01*
X567744Y584957D01*
X568668Y584033D01*
X569876Y583533D01*
X571183D01*
X572391Y584033D01*
X573316Y584957D01*
X573816Y586165D01*
Y587472D01*
X573316Y588680D01*
X572391Y589604D01*
X571183Y590105D01*
X569876D01*
X568668Y589604D01*
X567852Y590507D01*
X568318Y590973D01*
X568819Y592180D01*
Y593488D01*
X568318Y594695D01*
X567394Y595620D01*
X566186Y596120D01*
X565778D01*
X565402Y597360D01*
X565458Y597397D01*
X566517Y598456D01*
X572484D01*
X580077Y590863D01*
X579854Y589743D01*
X578930Y588819D01*
X578430Y587612D01*
Y586305D01*
X578930Y585097D01*
X579855Y584173D01*
X580653Y583843D01*
X581026Y582723D01*
X581016Y582452D01*
X580744Y582180D01*
X580243Y580973D01*
Y579665D01*
X580744Y578457D01*
X581668Y577533D01*
X582566Y577161D01*
X582733Y575976D01*
X582717Y575859D01*
X582557Y575700D01*
X582057Y574492D01*
Y573185D01*
X582557Y571977D01*
X582930Y571604D01*
X582930Y542295D01*
X582640Y542004D01*
X582139Y540797D01*
Y539489D01*
X582494Y538633D01*
X581697Y537784D01*
X581563Y537729D01*
X580639Y536805D01*
X580576Y536652D01*
X580390Y536467D01*
X568960D01*
X567690Y537737D01*
Y563758D01*
X568059Y564050D01*
X568930Y564425D01*
X569876Y564033D01*
X571183D01*
X572391Y564533D01*
X573316Y565458D01*
X573816Y566665D01*
Y567973D01*
X573316Y569180D01*
X572391Y570105D01*
X571183Y570605D01*
X569876D01*
X568930Y570213D01*
X568059Y570588D01*
X567690Y570880D01*
Y576580D01*
X561340Y582930D01*
X559897D01*
X559586Y583241D01*
X558378Y583741D01*
X557071D01*
X555863Y583241D01*
X555552Y582930D01*
X553292D01*
X553169Y583053D01*
X551961Y583554D01*
X550654D01*
X549446Y583053D01*
X549323Y582930D01*
X520909D01*
X520630Y583526D01*
X520529Y584170D01*
X521317Y584957D01*
X521817Y586165D01*
Y587472D01*
X521317Y588680D01*
X520684Y589313D01*
X520503Y590069D01*
X520684Y590826D01*
X521316Y591458D01*
X521816Y592665D01*
Y593972D01*
X521316Y595179D01*
X520392Y596104D01*
X519184Y596604D01*
X517877D01*
X516670Y596104D01*
X516037Y595471D01*
X515281Y595290D01*
X514524Y595471D01*
X513892Y596104D01*
X512684Y596604D01*
X511378D01*
X510170Y596104D01*
X509246Y595179D01*
X508746Y593972D01*
Y592665D01*
X509246Y591458D01*
X510170Y590534D01*
X511378Y590034D01*
X512684D01*
X513892Y590534D01*
X514524Y591166D01*
X515281Y591347D01*
X516037Y591166D01*
X516378Y590826D01*
X516559Y590069D01*
X516378Y589313D01*
X515745Y588680D01*
X515245Y587472D01*
Y586165D01*
X515745Y584957D01*
X516533Y584170D01*
X516432Y583526D01*
X516152Y582930D01*
X507566D01*
X507392Y583104D01*
X506185Y583604D01*
X504878D01*
X503670Y583104D01*
X503497Y582930D01*
X496577D01*
X496304Y583588D01*
X495380Y584512D01*
X494173Y585012D01*
X492866D01*
X491659Y584512D01*
X490735Y583588D01*
X490462Y582930D01*
X488066D01*
X487892Y583104D01*
X486685Y583604D01*
X485378D01*
X484171Y583104D01*
X483997Y582930D01*
X446648Y582930D01*
X446283Y583557D01*
X446058Y584170D01*
X446503Y585246D01*
Y586553D01*
X446003Y587761D01*
X445079Y588685D01*
X443872Y589185D01*
X442565D01*
X441358Y588685D01*
X440434Y587761D01*
X439933Y586553D01*
Y585246D01*
X440379Y584170D01*
X440154Y583557D01*
X439789Y582930D01*
X295254D01*
X295026Y583479D01*
X294102Y584403D01*
X292895Y584903D01*
X291588D01*
X290381Y584403D01*
X289457Y583479D01*
X289229Y582930D01*
X285629D01*
X284736Y583822D01*
X283529Y584322D01*
X282222D01*
X281014Y583822D01*
X280122Y582930D01*
X118637Y582930D01*
X114300Y587267D01*
Y638067D01*
X119380Y643147D01*
X152400D01*
X160020Y635527D01*
D02*
G37*
G36*
X533400Y560070D02*
Y544830D01*
X521970Y533400D01*
X515829D01*
X515317Y534166D01*
Y535474D01*
X514817Y536681D01*
X513892Y537606D01*
X512685Y538106D01*
X511377D01*
X510170Y537606D01*
X509354Y536790D01*
X508781Y536730D01*
X508208Y536790D01*
X507393Y537606D01*
X506185Y538106D01*
X504878D01*
X503670Y537606D01*
X502745Y536681D01*
X502245Y535474D01*
Y534166D01*
X501733Y533400D01*
X462820D01*
X462458Y533550D01*
X461150D01*
X460789Y533400D01*
X420370D01*
X411480Y524510D01*
X411480Y416560D01*
X401320Y406400D01*
X278130Y406400D01*
X268158Y396428D01*
Y388620D01*
X268158Y371028D01*
X257810Y360680D01*
X97790Y360680D01*
X86360Y372110D01*
Y547370D01*
X93980Y554990D01*
X125730D01*
X132080Y548640D01*
Y392430D01*
X140970Y383540D01*
X224790Y383540D01*
X229870Y388620D01*
Y412750D01*
X241300Y424180D01*
X378460Y424180D01*
X392430Y438150D01*
X392430Y525120D01*
X392984Y525674D01*
X393484Y526881D01*
Y528188D01*
X392984Y529396D01*
X392700Y529680D01*
X392767Y530593D01*
X393641Y531149D01*
X393785Y531089D01*
X395092D01*
X396300Y531589D01*
X397224Y532513D01*
X397724Y533721D01*
Y534148D01*
X398686Y534599D01*
X399894Y534099D01*
X401201D01*
X402408Y534599D01*
X403332Y535523D01*
X403832Y536731D01*
Y538038D01*
X403332Y539245D01*
X402408Y540169D01*
X401201Y540669D01*
X399894D01*
X398686Y540169D01*
X397762Y539245D01*
X397262Y538038D01*
Y537610D01*
X396300Y537159D01*
X395092Y537659D01*
X393785D01*
X393430Y537512D01*
X392430Y538180D01*
Y551180D01*
X405130Y563880D01*
X419879D01*
X420124Y563289D01*
X421049Y562364D01*
X422256Y561864D01*
X423564D01*
X424771Y562364D01*
X425696Y563289D01*
X425941Y563880D01*
X435355D01*
X436084Y563151D01*
X437292Y562651D01*
X438599D01*
X439807Y563151D01*
X440536Y563880D01*
X469513Y563880D01*
X470133Y562880D01*
X469854Y562207D01*
Y560900D01*
X470354Y559693D01*
X471278Y558769D01*
X472485Y558268D01*
X473792D01*
X475000Y558769D01*
X475924Y559693D01*
X476424Y560900D01*
Y562207D01*
X476145Y562880D01*
X476764Y563880D01*
X477678D01*
X478560Y563515D01*
X479866D01*
X480748Y563880D01*
X482129D01*
X482733Y562880D01*
X482443Y562181D01*
Y560874D01*
X482943Y559666D01*
X483867Y558742D01*
X485075Y558242D01*
X486382D01*
X487589Y558742D01*
X488108Y559261D01*
X488761Y559555D01*
X489414Y559261D01*
X489933Y558742D01*
X491140Y558242D01*
X492447D01*
X493654Y558742D01*
X494579Y559666D01*
X495079Y560874D01*
Y562181D01*
X494789Y562880D01*
X495393Y563880D01*
X529590D01*
X533400Y560070D01*
D02*
G37*
G36*
X358106Y566198D02*
X357107Y565601D01*
X356395Y565896D01*
X355088D01*
X353880Y565396D01*
X352956Y564471D01*
X352455Y563264D01*
Y562622D01*
X348883Y559051D01*
X348382Y558300D01*
X348205Y557414D01*
Y511499D01*
X343525Y506818D01*
X330670D01*
X330199Y507290D01*
X328991Y507790D01*
X327684D01*
X326476Y507290D01*
X325552Y506365D01*
X325051Y505158D01*
Y503850D01*
X325552Y502643D01*
X326476Y501718D01*
X327684Y501218D01*
X328991D01*
X330199Y501718D01*
X330670Y502189D01*
X342529D01*
X343197Y501189D01*
X342981Y500669D01*
Y499361D01*
X343482Y498154D01*
X344406Y497229D01*
X345614Y496729D01*
X346921D01*
X348129Y497229D01*
X349053Y498154D01*
X349474Y499170D01*
X350193Y499888D01*
X351960D01*
X352945Y500084D01*
X353780Y500642D01*
X357420Y504282D01*
X357978Y505117D01*
X358173Y506101D01*
Y553618D01*
X358598Y553946D01*
X359598Y553455D01*
X359598Y470348D01*
X351342Y462092D01*
X200660Y462092D01*
X199895Y461775D01*
X199894Y461775D01*
X191005Y452885D01*
X191005Y452885D01*
X190688Y452120D01*
X190688Y435048D01*
X190688Y435048D01*
Y433070D01*
X190688Y391160D01*
X190688Y391160D01*
X191005Y390395D01*
X191005Y390395D01*
X195777Y385622D01*
X195363Y384622D01*
X141418Y384622D01*
X133162Y392878D01*
Y548640D01*
X132845Y549405D01*
X132845Y549405D01*
X126803Y555448D01*
X127217Y556448D01*
X168462Y556448D01*
X175448Y549462D01*
Y478790D01*
X175765Y478025D01*
X175765Y478025D01*
X182115Y471675D01*
X182880Y471358D01*
X271780D01*
X272545Y471675D01*
X272545Y471675D01*
X278895Y478025D01*
X279212Y478790D01*
X279212Y565150D01*
X278948Y565789D01*
X279741Y566370D01*
X280912Y565588D01*
X282293Y565313D01*
X327473D01*
X332941Y559845D01*
Y538904D01*
X332857Y538484D01*
X332941Y538065D01*
Y527050D01*
X333215Y525669D01*
X333998Y524498D01*
X335169Y523715D01*
X336550Y523441D01*
X337931Y523715D01*
X339102Y524498D01*
X339885Y525669D01*
X340159Y527050D01*
Y538401D01*
X340143Y538484D01*
X340159Y538568D01*
Y546697D01*
X341159Y547074D01*
X342246Y546624D01*
X343554D01*
X344761Y547124D01*
X345686Y548049D01*
X346186Y549256D01*
Y550564D01*
X345686Y551771D01*
X345474Y551984D01*
Y566624D01*
X347422Y568573D01*
X358106D01*
Y566198D01*
D02*
G37*
G36*
X635378Y527943D02*
X634686Y527251D01*
X634186Y526043D01*
Y524736D01*
X634686Y523528D01*
X635611Y522604D01*
X636818Y522104D01*
X638125D01*
X638262Y522160D01*
X638829Y521313D01*
X631146Y513630D01*
X630588Y512795D01*
X630392Y511810D01*
Y510252D01*
X629027Y508887D01*
X627032D01*
X626632Y509155D01*
X625794Y509321D01*
X625495Y509656D01*
X625151Y510350D01*
X625392Y510933D01*
Y512241D01*
X624892Y513448D01*
X623968Y514373D01*
X622760Y514873D01*
X621453D01*
X620245Y514373D01*
X619320Y513448D01*
X618820Y512241D01*
Y510933D01*
X618961Y510594D01*
X618399Y509707D01*
X617509Y509641D01*
X613520Y513630D01*
X612685Y514188D01*
X611700Y514384D01*
X604316D01*
X601706Y516993D01*
Y522350D01*
X601919Y522563D01*
X602419Y523770D01*
Y525078D01*
X601919Y526285D01*
X600994Y527210D01*
X599787Y527710D01*
X598479D01*
X597272Y527210D01*
X596347Y526285D01*
X595847Y525078D01*
Y523770D01*
X596347Y522563D01*
X596559Y522350D01*
Y515927D01*
X596755Y514942D01*
X597313Y514107D01*
X601430Y509990D01*
X602265Y509432D01*
X603250Y509236D01*
X610634D01*
X614914Y504957D01*
X615748Y504399D01*
X616733Y504203D01*
X623536D01*
Y467360D01*
X623732Y466375D01*
X624290Y465540D01*
X639530Y450300D01*
X640365Y449742D01*
X641350Y449547D01*
X651510D01*
Y243840D01*
X635000Y227330D01*
X513080D01*
X490220Y250190D01*
X512156Y228254D01*
X511773Y227330D01*
X496237D01*
Y231865D01*
X496449Y232078D01*
X496950Y233285D01*
Y234593D01*
X496449Y235800D01*
X495525Y236725D01*
X494317Y237225D01*
X493010D01*
X491802Y236725D01*
X490878Y235800D01*
X490378Y234593D01*
Y233285D01*
X490878Y232078D01*
X491090Y231865D01*
Y227330D01*
X434340D01*
X417830Y243840D01*
Y363220D01*
X425450Y370840D01*
X440690D01*
X450850Y381000D01*
Y472440D01*
X455930Y477520D01*
X447040D01*
X440690Y471170D01*
Y388620D01*
X433070Y381000D01*
X321310Y381000D01*
X311208Y370898D01*
X310834Y371273D01*
X309626Y371773D01*
X308319D01*
X307111Y371273D01*
X306187Y370348D01*
X305687Y369140D01*
Y367833D01*
X306187Y366625D01*
X306561Y366251D01*
X304800Y364490D01*
Y349250D01*
X289560Y334010D01*
X184150D01*
X177800Y340360D01*
Y356870D01*
X180528Y359598D01*
X256339Y359598D01*
X260471Y359531D01*
X269240Y368300D01*
Y393700D01*
X279400Y403860D01*
X403860D01*
X414020Y414020D01*
Y524510D01*
X421640Y532130D01*
X457938D01*
X458606Y531130D01*
X458518Y530918D01*
Y529610D01*
X459018Y528402D01*
X459943Y527478D01*
X461150Y526978D01*
X462458D01*
X463665Y527478D01*
X464590Y528402D01*
X465090Y529610D01*
Y530918D01*
X465002Y531130D01*
X465670Y532130D01*
X503574D01*
X503670Y532034D01*
X504878Y531534D01*
X506185D01*
X507393Y532034D01*
X507488Y532130D01*
X509353D01*
X509741Y531755D01*
X509783Y531544D01*
X509662Y530476D01*
X509018Y529832D01*
X508518Y528624D01*
Y527317D01*
X509018Y526110D01*
X509942Y525186D01*
X511149Y524686D01*
X512456D01*
X513663Y525186D01*
X514588Y526110D01*
X515088Y527317D01*
Y528624D01*
X514588Y529832D01*
X513942Y530477D01*
X513916Y531527D01*
X513976Y531709D01*
X514441Y532130D01*
X531294D01*
X531539Y531885D01*
X532747Y531385D01*
X534053D01*
X535261Y531885D01*
X535506Y532130D01*
X575464D01*
X575878Y531130D01*
X575261Y530513D01*
X574761Y529305D01*
Y527998D01*
X575261Y526791D01*
X576185Y525866D01*
X577393Y525366D01*
X578700D01*
X579908Y525866D01*
X580833Y526791D01*
X581333Y527998D01*
Y529305D01*
X580833Y530513D01*
X580216Y531130D01*
X580630Y532130D01*
X581633D01*
X582770Y531659D01*
X584077D01*
X585214Y532130D01*
X587066D01*
X587476Y531138D01*
X588400Y530214D01*
X589608Y529714D01*
X590915D01*
X592122Y530214D01*
X593046Y531138D01*
X593457Y532130D01*
X631190D01*
X635378Y527943D01*
D02*
G37*
G36*
X651510Y511810D02*
Y509851D01*
X650510Y509441D01*
X649480Y509867D01*
X648173D01*
X646965Y509367D01*
X646041Y508443D01*
X645541Y507236D01*
Y505929D01*
X646041Y504722D01*
X646965Y503797D01*
X648173Y503297D01*
X649480D01*
X650510Y503724D01*
X651510Y503314D01*
Y499956D01*
X650510Y499407D01*
X649716Y499736D01*
X648409D01*
X647201Y499236D01*
X646276Y498311D01*
X645776Y497104D01*
Y495796D01*
X646276Y494589D01*
X647201Y493664D01*
X648409Y493164D01*
X649716D01*
X650510Y493493D01*
X651510Y492944D01*
Y454693D01*
X642416D01*
X628684Y468426D01*
Y503741D01*
X630093D01*
X631078Y503937D01*
X631913Y504494D01*
X634785Y507366D01*
X635343Y508201D01*
X635539Y509186D01*
Y510744D01*
X644057Y519263D01*
X651510Y511810D01*
D02*
G37*
G36*
X1069414Y100977D02*
Y45079D01*
X1068414Y44921D01*
X1067589Y47460D01*
X1065374Y51807D01*
X1062505Y55755D01*
X1059055Y59205D01*
X1055107Y62074D01*
X1050760Y64289D01*
X1046119Y65797D01*
X1041300Y66560D01*
X1036420D01*
X1035882Y66475D01*
X1035683Y66652D01*
X1035646Y68029D01*
X1045747Y78130D01*
X1055980D01*
Y88363D01*
X1067441Y99824D01*
X1068414Y101280D01*
X1069414Y100977D01*
D02*
G37*
%LPC*%
G36*
X952217Y980284D02*
X950243D01*
X950107Y980228D01*
X949962Y980247D01*
X948055Y979736D01*
X947939Y979647D01*
X947794Y979628D01*
X946084Y978640D01*
X945995Y978524D01*
X945859Y978468D01*
X944463Y977072D01*
X944407Y976936D01*
X944291Y976848D01*
X943304Y975137D01*
X943285Y974992D01*
X943195Y974876D01*
X942684Y972969D01*
X942703Y972824D01*
X942647Y972689D01*
Y970714D01*
X942703Y970579D01*
X942684Y970434D01*
X943195Y968526D01*
X943285Y968410D01*
X943304Y968265D01*
X944291Y966555D01*
X944407Y966466D01*
X944463Y966331D01*
X945859Y964934D01*
X945995Y964878D01*
X946084Y964762D01*
X947794Y963775D01*
X947939Y963756D01*
X948055Y963667D01*
X949962Y963156D01*
X950107Y963175D01*
X950243Y963119D01*
X952217D01*
X952353Y963175D01*
X952497Y963156D01*
X954405Y963667D01*
X954521Y963756D01*
X954666Y963775D01*
X956376Y964762D01*
X956465Y964878D01*
X956601Y964934D01*
X957997Y966331D01*
X958053Y966466D01*
X958169Y966555D01*
X959156Y968265D01*
X959175Y968410D01*
X959265Y968526D01*
X959776Y970434D01*
X959756Y970579D01*
X959812Y970714D01*
Y972689D01*
X959756Y972824D01*
X959776Y972969D01*
X959265Y974876D01*
X959175Y974992D01*
X959156Y975137D01*
X958169Y976848D01*
X958053Y976936D01*
X957997Y977072D01*
X956601Y978468D01*
X956465Y978524D01*
X956376Y978640D01*
X954666Y979628D01*
X954521Y979647D01*
X954405Y979736D01*
X952497Y980247D01*
X952353Y980228D01*
X952217Y980284D01*
D02*
G37*
G36*
X286844Y977342D02*
X284855D01*
X284656Y977260D01*
X284441D01*
X282603Y976499D01*
X282451Y976346D01*
X282252Y976264D01*
X280845Y974857D01*
X280763Y974659D01*
X280611Y974506D01*
X279849Y972669D01*
Y972453D01*
X279767Y972254D01*
Y970265D01*
X279849Y970066D01*
Y969851D01*
X280611Y968013D01*
X280763Y967861D01*
X280845Y967662D01*
X282252Y966256D01*
X282451Y966173D01*
X282603Y966021D01*
X284441Y965260D01*
X284656D01*
X284855Y965177D01*
X286844D01*
X287043Y965260D01*
X287258D01*
X289096Y966021D01*
X289248Y966173D01*
X289447Y966256D01*
X290854Y967662D01*
X290936Y967861D01*
X291088Y968013D01*
X291849Y969851D01*
Y970066D01*
X291932Y970265D01*
Y972254D01*
X291849Y972453D01*
Y972669D01*
X291088Y974506D01*
X290936Y974659D01*
X290854Y974857D01*
X289447Y976264D01*
X289248Y976346D01*
X289096Y976499D01*
X287258Y977260D01*
X287043D01*
X286844Y977342D01*
D02*
G37*
G36*
X206844D02*
X204855D01*
X204656Y977260D01*
X204441D01*
X202603Y976499D01*
X202451Y976346D01*
X202252Y976264D01*
X200845Y974857D01*
X200763Y974659D01*
X200611Y974506D01*
X199849Y972669D01*
Y972453D01*
X199767Y972254D01*
Y970265D01*
X199849Y970066D01*
Y969851D01*
X200611Y968013D01*
X200763Y967861D01*
X200845Y967662D01*
X202252Y966256D01*
X202451Y966173D01*
X202603Y966021D01*
X204441Y965260D01*
X204656D01*
X204855Y965177D01*
X206844D01*
X207043Y965260D01*
X207258D01*
X209096Y966021D01*
X209248Y966173D01*
X209447Y966256D01*
X210854Y967662D01*
X210936Y967861D01*
X211088Y968013D01*
X211849Y969851D01*
Y970066D01*
X211932Y970265D01*
Y972254D01*
X211849Y972453D01*
Y972669D01*
X211088Y974506D01*
X210936Y974659D01*
X210854Y974857D01*
X209447Y976264D01*
X209248Y976346D01*
X209096Y976499D01*
X207258Y977260D01*
X207043D01*
X206844Y977342D01*
D02*
G37*
G36*
X952217Y920281D02*
X950243D01*
X950107Y920225D01*
X949962Y920244D01*
X948055Y919733D01*
X947939Y919644D01*
X947794Y919625D01*
X946084Y918638D01*
X945995Y918522D01*
X945859Y918466D01*
X944463Y917069D01*
X944407Y916934D01*
X944291Y916845D01*
X943304Y915135D01*
X943285Y914990D01*
X943195Y914874D01*
X942684Y912966D01*
X942703Y912821D01*
X942647Y912686D01*
Y910711D01*
X942703Y910576D01*
X942684Y910431D01*
X943195Y908524D01*
X943285Y908408D01*
X943304Y908263D01*
X944291Y906552D01*
X944407Y906463D01*
X944463Y906328D01*
X945859Y904932D01*
X945995Y904876D01*
X946084Y904760D01*
X947794Y903772D01*
X947939Y903753D01*
X948055Y903664D01*
X949962Y903153D01*
X950107Y903172D01*
X950243Y903116D01*
X952217D01*
X952353Y903172D01*
X952497Y903153D01*
X954405Y903664D01*
X954521Y903753D01*
X954666Y903772D01*
X956376Y904760D01*
X956465Y904876D01*
X956601Y904932D01*
X957997Y906328D01*
X958053Y906463D01*
X958169Y906552D01*
X959156Y908263D01*
X959175Y908408D01*
X959265Y908524D01*
X959776Y910431D01*
X959756Y910576D01*
X959812Y910711D01*
Y912686D01*
X959756Y912821D01*
X959776Y912966D01*
X959265Y914874D01*
X959175Y914990D01*
X959156Y915135D01*
X958169Y916845D01*
X958053Y916934D01*
X957997Y917069D01*
X956601Y918466D01*
X956465Y918522D01*
X956376Y918638D01*
X954666Y919625D01*
X954521Y919644D01*
X954405Y919733D01*
X952497Y920244D01*
X952353Y920225D01*
X952217Y920281D01*
D02*
G37*
G36*
X586588Y915192D02*
X584877D01*
X583224Y914749D01*
X581742Y913894D01*
X580531Y912683D01*
X579676Y911201D01*
X579233Y909548D01*
Y907837D01*
X579676Y906183D01*
X580531Y904701D01*
X581742Y903491D01*
X583224Y902635D01*
X584877Y902192D01*
X586588D01*
X588242Y902635D01*
X589724Y903491D01*
X590934Y904701D01*
X591790Y906183D01*
X592233Y907837D01*
Y909548D01*
X591790Y911201D01*
X590934Y912683D01*
X589724Y913894D01*
X588242Y914749D01*
X586588Y915192D01*
D02*
G37*
G36*
X561590D02*
X559878D01*
X558225Y914749D01*
X556743Y913894D01*
X555533Y912683D01*
X554677Y911201D01*
X554234Y909548D01*
Y907837D01*
X554677Y906183D01*
X555533Y904701D01*
X556743Y903491D01*
X558225Y902635D01*
X559878Y902192D01*
X561590D01*
X563243Y902635D01*
X564725Y903491D01*
X565935Y904701D01*
X566791Y906183D01*
X567234Y907837D01*
Y909548D01*
X566791Y911201D01*
X565935Y912683D01*
X564725Y913894D01*
X563243Y914749D01*
X561590Y915192D01*
D02*
G37*
G36*
X541590D02*
X539878D01*
X538225Y914749D01*
X536743Y913894D01*
X535533Y912683D01*
X534677Y911201D01*
X534234Y909548D01*
Y907837D01*
X534677Y906183D01*
X535533Y904701D01*
X536743Y903491D01*
X538225Y902635D01*
X539878Y902192D01*
X541590D01*
X543243Y902635D01*
X544725Y903491D01*
X545935Y904701D01*
X546791Y906183D01*
X547234Y907837D01*
Y909548D01*
X546791Y911201D01*
X545935Y912683D01*
X544725Y913894D01*
X543243Y914749D01*
X541590Y915192D01*
D02*
G37*
G36*
X408884Y899820D02*
X407041D01*
X405261Y899343D01*
X403665Y898421D01*
X402362Y897118D01*
X401516Y895652D01*
X400978Y895582D01*
X400440Y895652D01*
X399594Y897118D01*
X398291Y898421D01*
X396695Y899343D01*
X394914Y899820D01*
X393071D01*
X391291Y899343D01*
X389695Y898421D01*
X388392Y897118D01*
X387528Y895622D01*
X386995Y895544D01*
X386462Y895622D01*
X385598Y897118D01*
X384295Y898421D01*
X382699Y899343D01*
X380919Y899820D01*
X379076D01*
X377296Y899343D01*
X375700Y898421D01*
X374397Y897118D01*
X373475Y895522D01*
X372998Y893742D01*
Y891899D01*
X373475Y890119D01*
X374397Y888523D01*
X375700Y887219D01*
X377296Y886298D01*
X379076Y885821D01*
X380919D01*
X382699Y886298D01*
X384295Y887219D01*
X385598Y888523D01*
X386462Y890018D01*
X386995Y890097D01*
X387528Y890018D01*
X388392Y888523D01*
X389695Y887219D01*
X391291Y886298D01*
X393071Y885821D01*
X394914D01*
X396695Y886298D01*
X398291Y887219D01*
X399594Y888523D01*
X400440Y889988D01*
X400978Y890058D01*
X401516Y889988D01*
X402362Y888523D01*
X403665Y887219D01*
X405261Y886298D01*
X407041Y885821D01*
X408884D01*
X410665Y886298D01*
X412261Y887219D01*
X413564Y888523D01*
X414485Y890119D01*
X414962Y891899D01*
Y893742D01*
X414485Y895522D01*
X413564Y897118D01*
X412261Y898421D01*
X410665Y899343D01*
X408884Y899820D01*
D02*
G37*
G36*
X591590Y900194D02*
X589878D01*
X588225Y899751D01*
X586743Y898895D01*
X585533Y897685D01*
X584677Y896203D01*
X584234Y894549D01*
Y892838D01*
X584677Y891185D01*
X585533Y889703D01*
X586743Y888492D01*
X588225Y887637D01*
X589878Y887194D01*
X591590D01*
X593243Y887637D01*
X594725Y888492D01*
X595935Y889703D01*
X596791Y891185D01*
X597234Y892838D01*
Y894549D01*
X596791Y896203D01*
X595935Y897685D01*
X594725Y898895D01*
X593243Y899751D01*
X591590Y900194D01*
D02*
G37*
G36*
X571590D02*
X569878D01*
X568225Y899751D01*
X566743Y898895D01*
X565533Y897685D01*
X564677Y896203D01*
X564234Y894549D01*
Y892838D01*
X564677Y891185D01*
X565533Y889703D01*
X566743Y888492D01*
X568225Y887637D01*
X569878Y887194D01*
X571590D01*
X573243Y887637D01*
X574725Y888492D01*
X575935Y889703D01*
X576791Y891185D01*
X577234Y892838D01*
Y894549D01*
X576791Y896203D01*
X575935Y897685D01*
X574725Y898895D01*
X573243Y899751D01*
X571590Y900194D01*
D02*
G37*
G36*
X531590D02*
X529878D01*
X528225Y899751D01*
X526743Y898895D01*
X525533Y897685D01*
X524677Y896203D01*
X524234Y894549D01*
Y892838D01*
X524677Y891185D01*
X525533Y889703D01*
X526743Y888492D01*
X528225Y887637D01*
X529878Y887194D01*
X531590D01*
X533243Y887637D01*
X534725Y888492D01*
X535935Y889703D01*
X536791Y891185D01*
X537234Y892838D01*
Y894549D01*
X536791Y896203D01*
X535935Y897685D01*
X534725Y898895D01*
X533243Y899751D01*
X531590Y900194D01*
D02*
G37*
G36*
X511590D02*
X509878D01*
X508225Y899751D01*
X506743Y898895D01*
X505533Y897685D01*
X504677Y896203D01*
X504234Y894549D01*
Y892838D01*
X504677Y891185D01*
X505533Y889703D01*
X506743Y888492D01*
X508225Y887637D01*
X509878Y887194D01*
X511590D01*
X513243Y887637D01*
X514725Y888492D01*
X515935Y889703D01*
X516791Y891185D01*
X517234Y892838D01*
Y894549D01*
X516791Y896203D01*
X515935Y897685D01*
X514725Y898895D01*
X513243Y899751D01*
X511590Y900194D01*
D02*
G37*
G36*
X586588Y883194D02*
X584877D01*
X583224Y882750D01*
X581742Y881895D01*
X580531Y880685D01*
X579676Y879202D01*
X579233Y877549D01*
Y875838D01*
X579676Y874185D01*
X580531Y872702D01*
X581742Y871492D01*
X583224Y870637D01*
X584877Y870193D01*
X586588D01*
X588242Y870637D01*
X589724Y871492D01*
X590934Y872702D01*
X591790Y874185D01*
X592233Y875838D01*
Y877549D01*
X591790Y879202D01*
X590934Y880685D01*
X589724Y881895D01*
X588242Y882750D01*
X586588Y883194D01*
D02*
G37*
G36*
X561590D02*
X559878D01*
X558225Y882750D01*
X556743Y881895D01*
X555533Y880685D01*
X554677Y879202D01*
X554234Y877549D01*
Y875838D01*
X554677Y874185D01*
X555533Y872702D01*
X556743Y871492D01*
X558225Y870637D01*
X559878Y870193D01*
X561590D01*
X563243Y870637D01*
X564725Y871492D01*
X565935Y872702D01*
X566791Y874185D01*
X567234Y875838D01*
Y877549D01*
X566791Y879202D01*
X565935Y880685D01*
X564725Y881895D01*
X563243Y882750D01*
X561590Y883194D01*
D02*
G37*
G36*
X541590D02*
X539878D01*
X538225Y882750D01*
X536743Y881895D01*
X535533Y880685D01*
X534677Y879202D01*
X534234Y877549D01*
Y875838D01*
X534677Y874185D01*
X535533Y872702D01*
X536743Y871492D01*
X538225Y870637D01*
X539878Y870193D01*
X541590D01*
X543243Y870637D01*
X544725Y871492D01*
X545935Y872702D01*
X546791Y874185D01*
X547234Y875838D01*
Y877549D01*
X546791Y879202D01*
X545935Y880685D01*
X544725Y881895D01*
X543243Y882750D01*
X541590Y883194D01*
D02*
G37*
G36*
X280604Y866124D02*
X279297D01*
X278089Y865624D01*
X277165Y864699D01*
X276664Y863492D01*
Y862185D01*
X277165Y860977D01*
X278089Y860052D01*
X279297Y859552D01*
X280604D01*
X281812Y860052D01*
X282736Y860977D01*
X283236Y862185D01*
Y863492D01*
X282736Y864699D01*
X281812Y865624D01*
X280604Y866124D01*
D02*
G37*
G36*
X591590Y868192D02*
X589878D01*
X588225Y867749D01*
X586743Y866893D01*
X585533Y865683D01*
X584677Y864201D01*
X584234Y862548D01*
Y860836D01*
X584677Y859183D01*
X585533Y857701D01*
X586743Y856491D01*
X588225Y855635D01*
X589878Y855192D01*
X591590D01*
X593243Y855635D01*
X594725Y856491D01*
X595935Y857701D01*
X596791Y859183D01*
X597234Y860836D01*
Y862548D01*
X596791Y864201D01*
X595935Y865683D01*
X594725Y866893D01*
X593243Y867749D01*
X591590Y868192D01*
D02*
G37*
G36*
X571590D02*
X569878D01*
X568225Y867749D01*
X566743Y866893D01*
X565533Y865683D01*
X564677Y864201D01*
X564234Y862548D01*
Y860836D01*
X564677Y859183D01*
X565533Y857701D01*
X566743Y856491D01*
X568225Y855635D01*
X569878Y855192D01*
X571590D01*
X573243Y855635D01*
X574725Y856491D01*
X575935Y857701D01*
X576791Y859183D01*
X577234Y860836D01*
Y862548D01*
X576791Y864201D01*
X575935Y865683D01*
X574725Y866893D01*
X573243Y867749D01*
X571590Y868192D01*
D02*
G37*
G36*
X531590D02*
X529878D01*
X528225Y867749D01*
X526743Y866893D01*
X525533Y865683D01*
X524677Y864201D01*
X524234Y862548D01*
Y860836D01*
X524677Y859183D01*
X525533Y857701D01*
X526743Y856491D01*
X528225Y855635D01*
X529878Y855192D01*
X531590D01*
X533243Y855635D01*
X534725Y856491D01*
X535935Y857701D01*
X536791Y859183D01*
X537234Y860836D01*
Y862548D01*
X536791Y864201D01*
X535935Y865683D01*
X534725Y866893D01*
X533243Y867749D01*
X531590Y868192D01*
D02*
G37*
G36*
X511590D02*
X509878D01*
X508225Y867749D01*
X506743Y866893D01*
X505533Y865683D01*
X504677Y864201D01*
X504234Y862548D01*
Y860836D01*
X504677Y859183D01*
X505533Y857701D01*
X506743Y856491D01*
X508225Y855635D01*
X509878Y855192D01*
X511590D01*
X513243Y855635D01*
X514725Y856491D01*
X515935Y857701D01*
X516791Y859183D01*
X517234Y860836D01*
Y862548D01*
X516791Y864201D01*
X515935Y865683D01*
X514725Y866893D01*
X513243Y867749D01*
X511590Y868192D01*
D02*
G37*
G36*
X815919Y856422D02*
X814612D01*
X813404Y855921D01*
X812480Y854997D01*
X811980Y853790D01*
Y852483D01*
X812480Y851276D01*
X813404Y850352D01*
X814612Y849852D01*
X815919D01*
X817126Y850352D01*
X818050Y851276D01*
X818550Y852483D01*
Y853790D01*
X818050Y854997D01*
X817126Y855921D01*
X815919Y856422D01*
D02*
G37*
G36*
X271305Y845427D02*
X269998D01*
X268790Y844927D01*
X267866Y844003D01*
X267366Y842795D01*
Y841489D01*
X267866Y840281D01*
X268790Y839357D01*
X269998Y838857D01*
X271305D01*
X272512Y839357D01*
X273436Y840281D01*
X273936Y841489D01*
Y842795D01*
X273436Y844003D01*
X272512Y844927D01*
X271305Y845427D01*
D02*
G37*
G36*
X523015Y838945D02*
X521708D01*
X520500Y838445D01*
X519576Y837521D01*
X519258Y836753D01*
X518176D01*
X517858Y837521D01*
X516934Y838445D01*
X515726Y838945D01*
X514419D01*
X513212Y838445D01*
X512288Y837521D01*
X511788Y836313D01*
Y835007D01*
X512288Y833799D01*
X513212Y832875D01*
X514419Y832375D01*
X515726D01*
X516934Y832875D01*
X517858Y833799D01*
X518176Y834567D01*
X519258D01*
X519576Y833799D01*
X520500Y832875D01*
X521708Y832375D01*
X523015D01*
X524222Y832875D01*
X525146Y833799D01*
X525646Y835007D01*
Y836313D01*
X525146Y837521D01*
X524222Y838445D01*
X523015Y838945D01*
D02*
G37*
G36*
X593862Y838947D02*
X592556D01*
X591348Y838447D01*
X590424Y837523D01*
X589924Y836315D01*
X588957Y836313D01*
X588457Y837521D01*
X587533Y838445D01*
X586325Y838945D01*
X585018D01*
X583811Y838445D01*
X582887Y837521D01*
X582387Y836313D01*
Y835007D01*
X582887Y833799D01*
X583811Y832875D01*
X585018Y832375D01*
X586325D01*
X587533Y832875D01*
X588457Y833799D01*
X588957Y835007D01*
X589924Y835008D01*
X590424Y833801D01*
X591348Y832877D01*
X592556Y832377D01*
X593862D01*
X595070Y832877D01*
X595994Y833801D01*
X596494Y835008D01*
Y836315D01*
X595994Y837523D01*
X595070Y838447D01*
X593862Y838947D01*
D02*
G37*
G36*
X226126Y839997D02*
X224820D01*
X223612Y839497D01*
X222688Y838573D01*
X222188Y837366D01*
Y836059D01*
X222688Y834851D01*
X223612Y833927D01*
X224820Y833427D01*
X226126D01*
X227334Y833927D01*
X228258Y834851D01*
X228758Y836059D01*
Y837366D01*
X228258Y838573D01*
X227334Y839497D01*
X226126Y839997D01*
D02*
G37*
G36*
X248199Y839753D02*
X246892D01*
X245685Y839253D01*
X244760Y838329D01*
X244260Y837121D01*
Y835815D01*
X244760Y834607D01*
X245685Y833683D01*
X246892Y833183D01*
X248199D01*
X249406Y833683D01*
X250330Y834607D01*
X250830Y835815D01*
Y837121D01*
X250330Y838329D01*
X249406Y839253D01*
X248199Y839753D01*
D02*
G37*
G36*
X281363Y839626D02*
X280056D01*
X278849Y839126D01*
X277925Y838202D01*
X277425Y836995D01*
Y835688D01*
X277925Y834481D01*
X278849Y833556D01*
X280056Y833056D01*
X281363D01*
X282570Y833556D01*
X283494Y834481D01*
X283995Y835688D01*
Y836995D01*
X283494Y838202D01*
X282570Y839126D01*
X281363Y839626D01*
D02*
G37*
G36*
X843934Y826246D02*
X842626D01*
X841419Y825746D01*
X840494Y824821D01*
X839994Y823614D01*
Y822306D01*
X840494Y821099D01*
X841419Y820174D01*
X842626Y819674D01*
X843934D01*
X845141Y820174D01*
X846066Y821099D01*
X846566Y822306D01*
Y823614D01*
X846066Y824821D01*
X845141Y825746D01*
X843934Y826246D01*
D02*
G37*
G36*
X291208Y820961D02*
X289902D01*
X288694Y820461D01*
X287770Y819537D01*
X287270Y818329D01*
Y817022D01*
X287770Y815815D01*
X288694Y814891D01*
X289902Y814391D01*
X291208D01*
X292416Y814891D01*
X293340Y815815D01*
X293840Y817022D01*
Y818329D01*
X293340Y819537D01*
X292416Y820461D01*
X291208Y820961D01*
D02*
G37*
G36*
X841674Y799872D02*
X840368D01*
X839160Y799372D01*
X838236Y798448D01*
X837736Y797241D01*
Y795934D01*
X838236Y794726D01*
X839160Y793802D01*
X840368Y793302D01*
X841674D01*
X842882Y793802D01*
X843806Y794726D01*
X844306Y795934D01*
Y797241D01*
X843806Y798448D01*
X842882Y799372D01*
X841674Y799872D01*
D02*
G37*
G36*
X304522Y795139D02*
X303215D01*
X302008Y794639D01*
X301084Y793715D01*
X300583Y792507D01*
Y791200D01*
X301084Y789993D01*
X302008Y789069D01*
X303215Y788569D01*
X304522D01*
X305729Y789069D01*
X306653Y789993D01*
X307153Y791200D01*
Y792507D01*
X306653Y793715D01*
X305729Y794639D01*
X304522Y795139D01*
D02*
G37*
G36*
X246810Y794815D02*
X245503D01*
X244295Y794315D01*
X243371Y793391D01*
X242871Y792183D01*
Y790877D01*
X243371Y789669D01*
X244295Y788745D01*
X245503Y788245D01*
X246810D01*
X248017Y788745D01*
X248941Y789669D01*
X249441Y790877D01*
Y792183D01*
X248941Y793391D01*
X248017Y794315D01*
X246810Y794815D01*
D02*
G37*
G36*
X230031Y794627D02*
X228725D01*
X227517Y794127D01*
X226593Y793203D01*
X226093Y791995D01*
Y790689D01*
X226593Y789481D01*
X227517Y788557D01*
X228725Y788057D01*
X230031D01*
X231239Y788557D01*
X232163Y789481D01*
X232663Y790689D01*
Y791995D01*
X232163Y793203D01*
X231239Y794127D01*
X230031Y794627D01*
D02*
G37*
G36*
X211473Y792473D02*
X210167D01*
X208959Y791973D01*
X208035Y791049D01*
X207535Y789842D01*
Y788535D01*
X208035Y787327D01*
X208959Y786403D01*
X210167Y785903D01*
X211473D01*
X212681Y786403D01*
X213605Y787327D01*
X214105Y788535D01*
Y789842D01*
X213605Y791049D01*
X212681Y791973D01*
X211473Y792473D01*
D02*
G37*
G36*
X396894Y786876D02*
X395586D01*
X394379Y786376D01*
X393454Y785451D01*
X392954Y784244D01*
Y782936D01*
X393454Y781729D01*
X394379Y780804D01*
X395586Y780304D01*
X396894D01*
X398101Y780804D01*
X399026Y781729D01*
X399526Y782936D01*
Y784244D01*
X399026Y785451D01*
X398101Y786376D01*
X396894Y786876D01*
D02*
G37*
G36*
X398927Y778897D02*
X397619D01*
X396412Y778397D01*
X395487Y777473D01*
X394987Y776265D01*
Y774958D01*
X395487Y773750D01*
X396412Y772826D01*
X397619Y772326D01*
X398927D01*
X400134Y772826D01*
X401059Y773750D01*
X401559Y774958D01*
Y776265D01*
X401059Y777473D01*
X400134Y778397D01*
X398927Y778897D01*
D02*
G37*
G36*
X389368Y760936D02*
X388060D01*
X386853Y760436D01*
X385928Y759511D01*
X385428Y758304D01*
Y756996D01*
X385928Y755788D01*
X386853Y754864D01*
X388060Y754364D01*
X389368D01*
X390575Y754864D01*
X391500Y755788D01*
X392000Y756996D01*
Y758304D01*
X391500Y759511D01*
X390575Y760436D01*
X389368Y760936D01*
D02*
G37*
G36*
X118139Y757878D02*
X116548D01*
X115077Y757269D01*
X113952Y756144D01*
X113343Y754674D01*
Y753082D01*
X113952Y751612D01*
X115077Y750487D01*
X116548Y749878D01*
X118139D01*
X119609Y750487D01*
X120734Y751612D01*
X121343Y753082D01*
Y754674D01*
X120734Y756144D01*
X119609Y757269D01*
X118139Y757878D01*
D02*
G37*
G36*
X594632Y756415D02*
X593324D01*
X592117Y755914D01*
X591192Y754990D01*
X590692Y753782D01*
Y752475D01*
X591192Y751267D01*
X592117Y750343D01*
X593324Y749843D01*
X594632D01*
X595839Y750343D01*
X596764Y751267D01*
X597264Y752475D01*
Y753782D01*
X596764Y754990D01*
X595839Y755914D01*
X594632Y756415D01*
D02*
G37*
G36*
X258464Y752586D02*
X257156D01*
X255949Y752086D01*
X255024Y751161D01*
X254524Y749954D01*
Y748646D01*
X255024Y747439D01*
X255949Y746514D01*
X257156Y746014D01*
X258464D01*
X259671Y746514D01*
X260596Y747439D01*
X261096Y748646D01*
Y749954D01*
X260596Y751161D01*
X259671Y752086D01*
X258464Y752586D01*
D02*
G37*
G36*
X405738Y750000D02*
X404430D01*
X403223Y749500D01*
X402298Y748575D01*
X401798Y747368D01*
Y746060D01*
X402298Y744853D01*
X403223Y743928D01*
X404430Y743428D01*
X405738D01*
X406945Y743928D01*
X407870Y744853D01*
X408370Y746060D01*
Y747368D01*
X407870Y748575D01*
X406945Y749500D01*
X405738Y750000D01*
D02*
G37*
G36*
X888383Y742001D02*
X887076D01*
X885869Y741501D01*
X884945Y740577D01*
X884445Y739370D01*
Y738063D01*
X884945Y736855D01*
X885869Y735931D01*
X887076Y735431D01*
X888383D01*
X889591Y735931D01*
X890515Y736855D01*
X891015Y738063D01*
Y739370D01*
X890515Y740577D01*
X889591Y741501D01*
X888383Y742001D01*
D02*
G37*
G36*
X449942Y738088D02*
X448635D01*
X447427Y737588D01*
X446503Y736663D01*
X446002Y735455D01*
Y734148D01*
X446503Y732940D01*
X447427Y732016D01*
X448635Y731516D01*
X449942D01*
X451150Y732016D01*
X452074Y732940D01*
X452574Y734148D01*
Y735455D01*
X452074Y736663D01*
X451150Y737588D01*
X449942Y738088D01*
D02*
G37*
G36*
X888352Y734155D02*
X887045D01*
X885838Y733655D01*
X884913Y732731D01*
X884413Y731523D01*
Y730216D01*
X884913Y729009D01*
X885215Y728708D01*
X884801Y727708D01*
X861083D01*
X860871Y727920D01*
X859663Y728420D01*
X858356D01*
X857148Y727920D01*
X856953Y727726D01*
X812352D01*
X812121Y727956D01*
X810914Y728456D01*
X809606D01*
X808399Y727956D01*
X808186Y727744D01*
X773236D01*
X771085Y729894D01*
X770664Y730911D01*
X769740Y731835D01*
X768532Y732335D01*
X767225D01*
X766017Y731835D01*
X765093Y730911D01*
X764593Y729703D01*
Y729403D01*
X760180Y724991D01*
X759622Y724156D01*
X759426Y723171D01*
Y694224D01*
X759214Y694011D01*
X758714Y692804D01*
Y691496D01*
X759214Y690289D01*
X759652Y689851D01*
X760180Y689060D01*
X761015Y688502D01*
X762000Y688307D01*
X762985Y688502D01*
X763820Y689060D01*
X764348Y689851D01*
X764786Y690289D01*
X765286Y691496D01*
Y692804D01*
X764786Y694011D01*
X764574Y694224D01*
Y722105D01*
X768085Y725616D01*
X770351Y723350D01*
X771186Y722792D01*
X772170Y722597D01*
X808186D01*
X808399Y722384D01*
X809606Y721884D01*
X810914D01*
X812121Y722384D01*
X812316Y722579D01*
X856918D01*
X857148Y722348D01*
X858356Y721848D01*
X859663D01*
X860871Y722348D01*
X861083Y722561D01*
X911536D01*
X912521Y722757D01*
X913209Y723217D01*
X913642Y723037D01*
X914949D01*
X916157Y723538D01*
X917082Y724462D01*
X917582Y725670D01*
Y726977D01*
X917082Y728185D01*
X916157Y729109D01*
X914949Y729610D01*
X913642D01*
X912434Y729109D01*
X911806Y728481D01*
X911449Y728410D01*
X910614Y727852D01*
X910470Y727708D01*
X890596D01*
X890182Y728708D01*
X890483Y729009D01*
X890983Y730216D01*
Y731523D01*
X890483Y732731D01*
X889559Y733655D01*
X888352Y734155D01*
D02*
G37*
G36*
X508637Y731813D02*
X507330D01*
X506122Y731313D01*
X505198Y730389D01*
X504698Y729181D01*
Y727875D01*
X505198Y726667D01*
X506122Y725743D01*
X507330Y725243D01*
X508637D01*
X509844Y725743D01*
X510768Y726667D01*
X511268Y727875D01*
Y729181D01*
X510768Y730389D01*
X509844Y731313D01*
X508637Y731813D01*
D02*
G37*
G36*
X149923Y729364D02*
X148616D01*
X147409Y728864D01*
X146484Y727940D01*
X145984Y726733D01*
Y725426D01*
X146484Y724219D01*
X147409Y723294D01*
X148616Y722794D01*
X149923D01*
X151130Y723294D01*
X152054Y724219D01*
X152554Y725426D01*
Y726733D01*
X152054Y727940D01*
X151130Y728864D01*
X149923Y729364D01*
D02*
G37*
G36*
X113145D02*
X111838D01*
X110631Y728864D01*
X109707Y727940D01*
X109207Y726733D01*
Y725426D01*
X109707Y724219D01*
X110631Y723294D01*
X111838Y722794D01*
X113145D01*
X114353Y723294D01*
X115277Y724219D01*
X115777Y725426D01*
Y726733D01*
X115277Y727940D01*
X114353Y728864D01*
X113145Y729364D01*
D02*
G37*
G36*
X525706Y727634D02*
X524399D01*
X523192Y727134D01*
X522268Y726209D01*
X521768Y725002D01*
Y723695D01*
X522268Y722488D01*
X523192Y721564D01*
X524399Y721064D01*
X525706D01*
X526914Y721564D01*
X527838Y722488D01*
X528338Y723695D01*
Y725002D01*
X527838Y726209D01*
X526914Y727134D01*
X525706Y727634D01*
D02*
G37*
G36*
X512495Y719648D02*
X511188D01*
X509981Y719148D01*
X509057Y718224D01*
X508557Y717016D01*
Y715710D01*
X509057Y714502D01*
X509981Y713578D01*
X511188Y713078D01*
X512495D01*
X513702Y713578D01*
X514626Y714502D01*
X515126Y715710D01*
Y717016D01*
X514626Y718224D01*
X513702Y719148D01*
X512495Y719648D01*
D02*
G37*
G36*
X502528Y718371D02*
X501221D01*
X500014Y717871D01*
X499090Y716947D01*
X498589Y715740D01*
Y714433D01*
X499090Y713225D01*
X500014Y712301D01*
X501221Y711801D01*
X502528D01*
X503735Y712301D01*
X504659Y713225D01*
X505159Y714433D01*
Y715740D01*
X504659Y716947D01*
X503735Y717871D01*
X502528Y718371D01*
D02*
G37*
G36*
X522961Y711390D02*
X521654D01*
X520447Y710890D01*
X519523Y709966D01*
X519350Y709549D01*
X518171Y709315D01*
X517847Y709638D01*
X516640Y710138D01*
X515333D01*
X514126Y709638D01*
X513202Y708714D01*
X512701Y707506D01*
Y706200D01*
X513202Y704992D01*
X514126Y704068D01*
X515333Y703568D01*
X516640D01*
X517847Y704068D01*
X518771Y704992D01*
X518944Y705409D01*
X520124Y705644D01*
X520447Y705321D01*
X521654Y704820D01*
X522961D01*
X524168Y705321D01*
X525093Y706245D01*
X525593Y707452D01*
Y708759D01*
X525093Y709966D01*
X524168Y710890D01*
X522961Y711390D01*
D02*
G37*
G36*
X692973Y715550D02*
X691667D01*
X690459Y715050D01*
X689535Y714126D01*
X689035Y712919D01*
Y711612D01*
X689535Y710405D01*
X690459Y709481D01*
X691667Y708980D01*
X692973D01*
X694181Y709481D01*
X695105Y710405D01*
X695605Y711612D01*
Y712919D01*
X695105Y714126D01*
X694181Y715050D01*
X692973Y715550D01*
D02*
G37*
G36*
X594180Y714161D02*
X592873D01*
X591665Y713661D01*
X590741Y712736D01*
X590240Y711528D01*
Y710221D01*
X590741Y709014D01*
X591665Y708089D01*
X592873Y707589D01*
X594180D01*
X595388Y708089D01*
X596312Y709014D01*
X596812Y710221D01*
Y711528D01*
X596312Y712736D01*
X595388Y713661D01*
X594180Y714161D01*
D02*
G37*
G36*
X704565Y712521D02*
X703258D01*
X702051Y712021D01*
X701127Y711097D01*
X700627Y709889D01*
Y708582D01*
X701127Y707375D01*
X702051Y706451D01*
X703258Y705951D01*
X704565D01*
X705772Y706451D01*
X706696Y707375D01*
X707197Y708582D01*
Y709889D01*
X706696Y711097D01*
X705772Y712021D01*
X704565Y712521D01*
D02*
G37*
G36*
X927046Y710452D02*
X925739D01*
X924531Y709952D01*
X923607Y709027D01*
X923107Y707820D01*
Y706513D01*
X923607Y705305D01*
X924531Y704380D01*
X925739Y703880D01*
X927046D01*
X928254Y704380D01*
X929178Y705305D01*
X929679Y706513D01*
Y707820D01*
X929178Y709027D01*
X928254Y709952D01*
X927046Y710452D01*
D02*
G37*
G36*
X697531Y707902D02*
X696224D01*
X695017Y707402D01*
X694093Y706478D01*
X693593Y705271D01*
Y703964D01*
X694093Y702757D01*
X695017Y701833D01*
X696224Y701332D01*
X697531D01*
X698738Y701833D01*
X699662Y702757D01*
X700163Y703964D01*
Y705271D01*
X699662Y706478D01*
X698738Y707402D01*
X697531Y707902D01*
D02*
G37*
G36*
X674022Y702786D02*
X672715D01*
X671508Y702286D01*
X670584Y701362D01*
X670084Y700155D01*
Y698848D01*
X670584Y697640D01*
X671508Y696716D01*
X672715Y696216D01*
X674022D01*
X675230Y696716D01*
X676154Y697640D01*
X676654Y698848D01*
Y700155D01*
X676154Y701362D01*
X675230Y702286D01*
X674022Y702786D01*
D02*
G37*
G36*
X694052Y694467D02*
X692746D01*
X691538Y693967D01*
X690614Y693043D01*
X690114Y691835D01*
Y690529D01*
X690614Y689321D01*
X691538Y688397D01*
X692746Y687897D01*
X694052D01*
X695260Y688397D01*
X696184Y689321D01*
X696684Y690529D01*
Y691835D01*
X696184Y693043D01*
X695260Y693967D01*
X694052Y694467D01*
D02*
G37*
G36*
X118139Y689880D02*
X116548D01*
X115077Y689271D01*
X113952Y688146D01*
X113343Y686675D01*
Y685084D01*
X113952Y683614D01*
X115077Y682489D01*
X116548Y681880D01*
X118139D01*
X119609Y682489D01*
X120734Y683614D01*
X121343Y685084D01*
Y686675D01*
X120734Y688146D01*
X119609Y689271D01*
X118139Y689880D01*
D02*
G37*
G36*
X625686Y661252D02*
X624379D01*
X623171Y660752D01*
X622246Y659827D01*
X621746Y658620D01*
Y657312D01*
X622246Y656105D01*
X623171Y655180D01*
X624379Y654680D01*
X625686D01*
X626894Y655180D01*
X627818Y656105D01*
X628318Y657312D01*
Y658620D01*
X627818Y659827D01*
X626894Y660752D01*
X625686Y661252D01*
D02*
G37*
G36*
X535387Y665328D02*
X534080D01*
X532873Y664828D01*
X531949Y663904D01*
X531449Y662696D01*
Y661389D01*
X531949Y660182D01*
X532873Y659258D01*
X534080Y658758D01*
X534649D01*
X534925Y658345D01*
Y657038D01*
X535425Y655830D01*
X536350Y654906D01*
X537557Y654406D01*
X538864D01*
X540071Y654906D01*
X540995Y655830D01*
X541495Y657038D01*
Y658345D01*
X540995Y659552D01*
X540071Y660476D01*
X538864Y660976D01*
X538295D01*
X538019Y661389D01*
Y662696D01*
X537519Y663904D01*
X536595Y664828D01*
X535387Y665328D01*
D02*
G37*
G36*
X582202Y661733D02*
X580895D01*
X579688Y661233D01*
X578763Y660309D01*
X578263Y659102D01*
Y657795D01*
X578763Y656588D01*
X579654Y655697D01*
X579647Y655663D01*
X578723Y654739D01*
X578223Y653532D01*
Y652225D01*
X578723Y651018D01*
X579647Y650094D01*
X580855Y649594D01*
X582162D01*
X583369Y650094D01*
X584293Y651018D01*
X584793Y652225D01*
Y653532D01*
X584293Y654739D01*
X583402Y655630D01*
X583409Y655664D01*
X584333Y656588D01*
X584833Y657795D01*
Y659102D01*
X584333Y660309D01*
X583409Y661233D01*
X582202Y661733D01*
D02*
G37*
G36*
X920126Y648298D02*
X918819D01*
X917611Y647798D01*
X916686Y646873D01*
X916186Y645666D01*
Y644358D01*
X916686Y643151D01*
X917611Y642226D01*
X918819Y641726D01*
X920126D01*
X921334Y642226D01*
X922258Y643151D01*
X922758Y644358D01*
Y645666D01*
X922258Y646873D01*
X921334Y647798D01*
X920126Y648298D01*
D02*
G37*
G36*
X625115Y668851D02*
X623808D01*
X622600Y668351D01*
X621676Y667427D01*
X621176Y666219D01*
Y664912D01*
X621676Y663704D01*
X622600Y662780D01*
X623808Y662279D01*
X625115D01*
X626323Y662780D01*
X626535Y662992D01*
X726559D01*
X732757Y656794D01*
Y643686D01*
X730019Y640948D01*
X723434D01*
X723221Y641161D01*
X722014Y641661D01*
X720706D01*
X719499Y641161D01*
X718574Y640236D01*
X718074Y639029D01*
Y637721D01*
X718574Y636513D01*
X719499Y635589D01*
X720706Y635089D01*
X722014D01*
X723221Y635589D01*
X723434Y635801D01*
X731085D01*
X732070Y635997D01*
X732905Y636555D01*
X737150Y640800D01*
X737708Y641635D01*
X737904Y642620D01*
Y657860D01*
X737708Y658845D01*
X737150Y659680D01*
X729444Y667385D01*
X728609Y667943D01*
X727625Y668139D01*
X626535D01*
X626323Y668351D01*
X625115Y668851D01*
D02*
G37*
G36*
X535676Y646793D02*
X534369D01*
X533161Y646293D01*
X532237Y645368D01*
X531736Y644161D01*
Y642854D01*
X532237Y641646D01*
X533161Y640721D01*
X534369Y640221D01*
X535676D01*
X536884Y640721D01*
X537808Y641646D01*
X538308Y642854D01*
Y644161D01*
X537808Y645368D01*
X536884Y646293D01*
X535676Y646793D01*
D02*
G37*
G36*
X295294Y644636D02*
X293986D01*
X292779Y644136D01*
X291854Y643211D01*
X291354Y642004D01*
Y640696D01*
X291854Y639489D01*
X292779Y638564D01*
X293986Y638064D01*
X295294D01*
X296501Y638564D01*
X297426Y639489D01*
X297926Y640696D01*
Y642004D01*
X297426Y643211D01*
X296501Y644136D01*
X295294Y644636D01*
D02*
G37*
G36*
X609051Y636904D02*
X607744D01*
X606536Y636404D01*
X605612Y635479D01*
X605112Y634272D01*
Y632964D01*
X605612Y631757D01*
X606536Y630832D01*
X607744Y630332D01*
X609051D01*
X610259Y630832D01*
X611183Y631757D01*
X611684Y632964D01*
Y634272D01*
X611183Y635479D01*
X610259Y636404D01*
X609051Y636904D01*
D02*
G37*
G36*
X511303Y640806D02*
X509997D01*
X508789Y640306D01*
X507865Y639382D01*
X507365Y638174D01*
Y636868D01*
X507422Y636729D01*
X506748Y635745D01*
X506077D01*
X504869Y635245D01*
X503945Y634321D01*
X503445Y633113D01*
Y631807D01*
X503945Y630599D01*
X504869Y629675D01*
X506077Y629175D01*
X507383D01*
X508591Y629675D01*
X509515Y630599D01*
X510015Y631807D01*
Y633113D01*
X509958Y633252D01*
X510632Y634236D01*
X511303D01*
X512511Y634736D01*
X513435Y635660D01*
X513935Y636868D01*
Y638174D01*
X513435Y639382D01*
X512511Y640306D01*
X511303Y640806D01*
D02*
G37*
G36*
X909509Y622988D02*
X908202D01*
X906994Y622488D01*
X906070Y621563D01*
X905570Y620355D01*
Y619048D01*
X906070Y617840D01*
X906994Y616916D01*
X908202Y616416D01*
X909509D01*
X910717Y616916D01*
X911641Y617840D01*
X912142Y619048D01*
Y620355D01*
X911641Y621563D01*
X910717Y622488D01*
X909509Y622988D01*
D02*
G37*
G36*
X551684Y629105D02*
X550377D01*
X549169Y628605D01*
X548245Y627681D01*
X547745Y626474D01*
Y625167D01*
X548245Y623960D01*
X549063Y623142D01*
X549122Y622569D01*
X549063Y621997D01*
X548245Y621179D01*
X547745Y619972D01*
Y618665D01*
X548245Y617457D01*
X549169Y616533D01*
X550377Y616033D01*
X551684D01*
X552891Y616533D01*
X553815Y617457D01*
X554315Y618665D01*
Y619972D01*
X553815Y621179D01*
X552997Y621997D01*
X552938Y622569D01*
X552997Y623142D01*
X553815Y623960D01*
X554315Y625167D01*
Y626474D01*
X553815Y627681D01*
X552891Y628605D01*
X551684Y629105D01*
D02*
G37*
G36*
X465473Y620505D02*
X464167D01*
X462959Y620005D01*
X462035Y619081D01*
X461535Y617873D01*
Y616567D01*
X462035Y615359D01*
X462959Y614435D01*
X464167Y613935D01*
X465473D01*
X466681Y614435D01*
X467605Y615359D01*
X468105Y616567D01*
Y617873D01*
X467605Y619081D01*
X466681Y620005D01*
X465473Y620505D01*
D02*
G37*
G36*
X301644Y619236D02*
X300336D01*
X299129Y618736D01*
X298204Y617811D01*
X297704Y616604D01*
Y615296D01*
X298204Y614089D01*
X299129Y613164D01*
X300336Y612664D01*
X301644D01*
X302851Y613164D01*
X303776Y614089D01*
X304276Y615296D01*
Y616604D01*
X303776Y617811D01*
X302851Y618736D01*
X301644Y619236D01*
D02*
G37*
G36*
X571647Y622299D02*
X570340D01*
X569132Y621799D01*
X568208Y620875D01*
X567708Y619668D01*
Y618361D01*
X568208Y617153D01*
X568674Y616688D01*
X568669Y615634D01*
X568560Y615495D01*
X567745Y614679D01*
X567245Y613472D01*
Y612165D01*
X567745Y610957D01*
X568669Y610033D01*
X569876Y609533D01*
X571183D01*
X572391Y610033D01*
X573315Y610957D01*
X573815Y612165D01*
Y613472D01*
X573315Y614679D01*
X572849Y615145D01*
X572854Y616198D01*
X572962Y616338D01*
X573778Y617153D01*
X574278Y618361D01*
Y619668D01*
X573778Y620875D01*
X572854Y621799D01*
X571647Y622299D01*
D02*
G37*
G36*
X894734Y615426D02*
X893426D01*
X892219Y614926D01*
X891294Y614001D01*
X890794Y612794D01*
Y611486D01*
X891294Y610279D01*
X892219Y609354D01*
X893426Y608854D01*
X894734D01*
X895941Y609354D01*
X896866Y610279D01*
X897366Y611486D01*
Y612794D01*
X896866Y614001D01*
X895941Y614926D01*
X894734Y615426D01*
D02*
G37*
G36*
X211983Y609585D02*
X210676D01*
X209468Y609085D01*
X208543Y608161D01*
X208043Y606953D01*
Y605646D01*
X208543Y604438D01*
X209468Y603513D01*
X210676Y603013D01*
X211983D01*
X213191Y603513D01*
X214115Y604438D01*
X214615Y605646D01*
Y606953D01*
X214115Y608161D01*
X213191Y609085D01*
X211983Y609585D01*
D02*
G37*
G36*
X754605Y602196D02*
X753298D01*
X752090Y601696D01*
X751165Y600771D01*
X750665Y599564D01*
Y598256D01*
X751165Y597049D01*
X752090Y596124D01*
X753298Y595624D01*
X754605D01*
X755813Y596124D01*
X756737Y597049D01*
X757237Y598256D01*
Y599564D01*
X756737Y600771D01*
X755813Y601696D01*
X754605Y602196D01*
D02*
G37*
G36*
X670597Y580695D02*
X669291D01*
X668083Y580195D01*
X667159Y579271D01*
X666659Y578064D01*
Y576757D01*
X667159Y575549D01*
X668083Y574625D01*
X669291Y574125D01*
X670597D01*
X671805Y574625D01*
X672729Y575549D01*
X673229Y576757D01*
Y578064D01*
X672729Y579271D01*
X671805Y580195D01*
X670597Y580695D01*
D02*
G37*
G36*
X681965Y579869D02*
X680659D01*
X679451Y579369D01*
X678527Y578445D01*
X678027Y577238D01*
Y575931D01*
X678527Y574724D01*
X679451Y573799D01*
X680659Y573299D01*
X681965D01*
X682382Y573472D01*
X683158Y572730D01*
Y571423D01*
X683658Y570216D01*
X684582Y569292D01*
X685789Y568792D01*
X687096D01*
X688303Y569292D01*
X689227Y570216D01*
X689727Y571423D01*
Y572730D01*
X689227Y573937D01*
X688303Y574862D01*
X687096Y575362D01*
X685789D01*
X685372Y575189D01*
X684597Y575931D01*
Y577238D01*
X684097Y578445D01*
X683173Y579369D01*
X681965Y579869D01*
D02*
G37*
G36*
X706123Y573418D02*
X704816D01*
X703608Y572918D01*
X702684Y571994D01*
X702184Y570786D01*
Y569479D01*
X702684Y568272D01*
X703608Y567348D01*
X704816Y566848D01*
X706123D01*
X707330Y567348D01*
X708271Y566875D01*
Y566120D01*
X708771Y564912D01*
X709696Y563988D01*
X710903Y563488D01*
X712210D01*
X713417Y563988D01*
X714341Y564912D01*
X714841Y566120D01*
Y567427D01*
X714341Y568634D01*
X713417Y569558D01*
X712210Y570058D01*
X710903D01*
X709696Y569558D01*
X708754Y570031D01*
Y570786D01*
X708254Y571994D01*
X707330Y572918D01*
X706123Y573418D01*
D02*
G37*
G36*
X693128Y567348D02*
X691821D01*
X690613Y566848D01*
X689689Y565924D01*
X689189Y564716D01*
Y563410D01*
X689689Y562202D01*
X690613Y561278D01*
X691821Y560778D01*
X693128D01*
X694335Y561278D01*
X695259Y562202D01*
X695759Y563410D01*
Y564716D01*
X695259Y565924D01*
X694335Y566848D01*
X693128Y567348D01*
D02*
G37*
G36*
X906164Y605266D02*
X904856D01*
X903649Y604766D01*
X902724Y603841D01*
X902224Y602634D01*
Y601326D01*
X902724Y600119D01*
X903649Y599194D01*
X904856Y598694D01*
X906164D01*
X907371Y599194D01*
X907584Y599407D01*
X920954D01*
X924527Y595834D01*
Y561136D01*
X923846Y560456D01*
X921915D01*
X921412Y560958D01*
X920205Y561459D01*
X918898D01*
X917691Y560958D01*
X916767Y560034D01*
X916267Y558827D01*
Y557520D01*
X916767Y556313D01*
X917691Y555389D01*
X918898Y554889D01*
X920205D01*
X921220Y555309D01*
X923341D01*
X923575Y555152D01*
X924560Y554957D01*
X925545Y555152D01*
X926223Y555606D01*
X926702Y555363D01*
X927050Y554988D01*
X926789Y554357D01*
Y553051D01*
X927289Y551843D01*
X928213Y550919D01*
X929420Y550419D01*
X930727D01*
X931935Y550919D01*
X932859Y551843D01*
X933359Y553051D01*
Y554357D01*
X932859Y555565D01*
X931935Y556489D01*
X931916Y556497D01*
X932115Y557496D01*
X1021935D01*
X1022934Y557083D01*
X1024241D01*
X1025448Y557583D01*
X1026373Y558508D01*
X1026873Y559715D01*
Y561023D01*
X1026373Y562230D01*
X1025448Y563155D01*
X1024241Y563655D01*
X1022934D01*
X1021726Y563155D01*
X1021214Y562644D01*
X929673D01*
Y596900D01*
X929478Y597885D01*
X928920Y598720D01*
X923840Y603800D01*
X923005Y604358D01*
X922020Y604553D01*
X907584D01*
X907371Y604766D01*
X906164Y605266D01*
D02*
G37*
G36*
X652198Y560263D02*
X650891D01*
X649683Y559763D01*
X648759Y558839D01*
X648259Y557631D01*
Y556324D01*
X648759Y555116D01*
X649683Y554192D01*
X650891Y553691D01*
X652198D01*
X653406Y554192D01*
X654331Y555116D01*
X654831Y556324D01*
Y557631D01*
X654331Y558839D01*
X653406Y559763D01*
X652198Y560263D01*
D02*
G37*
G36*
X677318Y559297D02*
X676011D01*
X674803Y558797D01*
X673878Y557872D01*
X673378Y556665D01*
Y555357D01*
X673878Y554150D01*
X674803Y553225D01*
X676011Y552725D01*
X677318D01*
X678525Y553225D01*
X679450Y554150D01*
X679950Y555357D01*
Y556665D01*
X679450Y557872D01*
X678525Y558797D01*
X677318Y559297D01*
D02*
G37*
G36*
X867730Y557973D02*
X866423D01*
X865216Y557473D01*
X864292Y556549D01*
X863792Y555341D01*
Y554034D01*
X864292Y552827D01*
X865216Y551903D01*
X866423Y551403D01*
X867730D01*
X868938Y551903D01*
X869862Y552827D01*
X870362Y554034D01*
Y555341D01*
X869862Y556549D01*
X868938Y557473D01*
X867730Y557973D01*
D02*
G37*
G36*
X894666Y556418D02*
X893359D01*
X892151Y555918D01*
X891227Y554994D01*
X890727Y553786D01*
Y552480D01*
X891227Y551272D01*
X892151Y550348D01*
X893359Y549848D01*
X894666D01*
X895873Y550348D01*
X896797Y551272D01*
X897297Y552480D01*
Y553786D01*
X896797Y554994D01*
X895873Y555918D01*
X894666Y556418D01*
D02*
G37*
G36*
X855397Y556230D02*
X854091D01*
X852883Y555729D01*
X851959Y554805D01*
X851459Y553598D01*
Y552291D01*
X851959Y551084D01*
X852883Y550160D01*
X854091Y549660D01*
X855397D01*
X856605Y550160D01*
X857529Y551084D01*
X858029Y552291D01*
Y553598D01*
X857529Y554805D01*
X856605Y555729D01*
X855397Y556230D01*
D02*
G37*
G36*
X917593Y550655D02*
X916287D01*
X915079Y550155D01*
X914155Y549231D01*
X913655Y548023D01*
Y546717D01*
X914155Y545509D01*
X915079Y544585D01*
X916287Y544085D01*
X917593D01*
X918801Y544585D01*
X919725Y545509D01*
X920225Y546717D01*
Y548023D01*
X919725Y549231D01*
X918801Y550155D01*
X917593Y550655D01*
D02*
G37*
G36*
X868788Y545304D02*
X867482D01*
X866274Y544804D01*
X865350Y543880D01*
X864850Y542672D01*
Y541365D01*
X865350Y540158D01*
X866274Y539234D01*
X867482Y538734D01*
X868788D01*
X869996Y539234D01*
X870920Y540158D01*
X871420Y541365D01*
Y542672D01*
X870920Y543880D01*
X869996Y544804D01*
X868788Y545304D01*
D02*
G37*
G36*
X852338Y542049D02*
X851031D01*
X849824Y541549D01*
X848900Y540625D01*
X848400Y539417D01*
Y538111D01*
X848900Y536903D01*
X849824Y535979D01*
X851031Y535479D01*
X852338D01*
X853546Y535979D01*
X854470Y536903D01*
X854970Y538111D01*
Y539417D01*
X854470Y540625D01*
X853546Y541549D01*
X852338Y542049D01*
D02*
G37*
G36*
X935152Y535993D02*
X933845D01*
X932637Y535493D01*
X931713Y534569D01*
X931213Y533362D01*
Y532055D01*
X930337Y531556D01*
X929992D01*
X928785Y531056D01*
X927943Y530214D01*
X927859Y530132D01*
X926761Y530090D01*
X926359Y530492D01*
X925152Y530992D01*
X923845D01*
X922637Y530492D01*
X921713Y529568D01*
X921213Y528360D01*
Y527054D01*
X921713Y525846D01*
X922637Y524922D01*
X923845Y524422D01*
X925152D01*
X926359Y524922D01*
X927200Y525764D01*
X927285Y525846D01*
X928383Y525888D01*
X928785Y525486D01*
X929992Y524986D01*
X931299D01*
X932506Y525486D01*
X933430Y526410D01*
X933930Y527617D01*
Y528924D01*
X934806Y529423D01*
X935152D01*
X936359Y529924D01*
X937283Y530848D01*
X937783Y532055D01*
Y533362D01*
X937283Y534569D01*
X936359Y535493D01*
X935152Y535993D01*
D02*
G37*
G36*
X885152D02*
X883845D01*
X882637Y535493D01*
X881713Y534569D01*
X881213Y533362D01*
Y532055D01*
X881713Y530848D01*
X882637Y529924D01*
X883845Y529423D01*
X885152D01*
X885656Y529632D01*
X886422Y528867D01*
X886212Y528360D01*
Y527054D01*
X886421Y526550D01*
X885655Y525785D01*
X885152Y525993D01*
X883845D01*
X882637Y525493D01*
X881713Y524569D01*
X881213Y523362D01*
Y522055D01*
X881713Y520848D01*
X882637Y519924D01*
X883845Y519423D01*
X885152D01*
X885656Y519632D01*
X886422Y518867D01*
X886212Y518360D01*
Y517054D01*
X886224Y517024D01*
X885459Y516259D01*
X885269Y516337D01*
X883962D01*
X882754Y515837D01*
X881830Y514913D01*
X881330Y513706D01*
Y512399D01*
X881830Y511192D01*
X882754Y510267D01*
X883962Y509767D01*
X885269D01*
X885843Y510005D01*
X886570Y509224D01*
X886212Y508361D01*
Y507054D01*
X886712Y505846D01*
X887636Y504922D01*
X888844Y504422D01*
X890150D01*
X891358Y504922D01*
X892282Y505846D01*
X892782Y507054D01*
Y508361D01*
X892282Y509568D01*
X891358Y510492D01*
X890150Y510992D01*
X888844D01*
X888269Y510754D01*
X887542Y511536D01*
X887900Y512399D01*
Y513706D01*
X887888Y513736D01*
X888653Y514501D01*
X888844Y514422D01*
X890150D01*
X891358Y514922D01*
X892282Y515846D01*
X892782Y517054D01*
Y518360D01*
X892282Y519568D01*
X891358Y520492D01*
X890150Y520992D01*
X888844D01*
X888339Y520783D01*
X887573Y521548D01*
X887783Y522055D01*
Y523362D01*
X887575Y523865D01*
X888340Y524631D01*
X888844Y524422D01*
X890150D01*
X891358Y524922D01*
X892282Y525846D01*
X892782Y527054D01*
Y528360D01*
X892282Y529568D01*
X891358Y530492D01*
X890150Y530992D01*
X888844D01*
X888339Y530783D01*
X887573Y531548D01*
X887783Y532055D01*
Y533362D01*
X887283Y534569D01*
X886359Y535493D01*
X885152Y535993D01*
D02*
G37*
G36*
X945152Y530992D02*
X943845D01*
X942637Y530492D01*
X941713Y529568D01*
X941213Y528360D01*
Y527054D01*
X941422Y526549D01*
X940657Y525784D01*
X940150Y525993D01*
X938843D01*
X937636Y525493D01*
X936712Y524569D01*
X936212Y523362D01*
Y522055D01*
X936712Y520848D01*
X937636Y519924D01*
X938843Y519423D01*
X940150D01*
X940658Y519634D01*
X941423Y518868D01*
X941213Y518360D01*
Y517054D01*
X941713Y515846D01*
X942637Y514922D01*
X943845Y514422D01*
X945152D01*
X946359Y514922D01*
X947283Y515846D01*
X947783Y517054D01*
Y518360D01*
X947283Y519568D01*
X946359Y520492D01*
X945152Y520992D01*
X943845D01*
X943337Y520782D01*
X942571Y521547D01*
X942782Y522055D01*
Y523362D01*
X942573Y523867D01*
X943338Y524632D01*
X943845Y524422D01*
X945152D01*
X946359Y524922D01*
X947283Y525846D01*
X947783Y527054D01*
Y528360D01*
X947283Y529568D01*
X946359Y530492D01*
X945152Y530992D01*
D02*
G37*
G36*
X934104Y607806D02*
X932796D01*
X931589Y607306D01*
X930664Y606381D01*
X930164Y605174D01*
Y603866D01*
X930664Y602659D01*
X931589Y601734D01*
X932796Y601234D01*
X933097D01*
X937226Y597104D01*
Y575310D01*
X937422Y574325D01*
X937980Y573490D01*
X944330Y567140D01*
X945165Y566582D01*
X946150Y566386D01*
X1026364D01*
X1031207Y561544D01*
Y530656D01*
X1025550Y524999D01*
X989800D01*
X989588Y525211D01*
X988381Y525711D01*
X987074D01*
X985867Y525211D01*
X984942Y524287D01*
X984442Y523079D01*
Y521772D01*
X984942Y520565D01*
X985867Y519641D01*
X987074Y519141D01*
X988381D01*
X989588Y519641D01*
X989800Y519852D01*
X1026616D01*
X1027601Y520048D01*
X1028436Y520606D01*
X1035600Y527770D01*
X1036158Y528605D01*
X1036354Y529590D01*
Y562610D01*
X1036158Y563595D01*
X1035600Y564430D01*
X1029250Y570780D01*
X1028415Y571338D01*
X1027430Y571534D01*
X947216D01*
X942374Y576376D01*
Y598170D01*
X942178Y599155D01*
X941620Y599990D01*
X936736Y604873D01*
Y605174D01*
X936236Y606381D01*
X935311Y607306D01*
X934104Y607806D01*
D02*
G37*
G36*
X915152Y530992D02*
X913845D01*
X912637Y530492D01*
X911713Y529568D01*
X911213Y528360D01*
Y527054D01*
X911713Y525846D01*
X912637Y524922D01*
X913845Y524422D01*
X915152D01*
X916359Y524922D01*
X917283Y525846D01*
X917783Y527054D01*
Y528360D01*
X917283Y529568D01*
X916359Y530492D01*
X915152Y530992D01*
D02*
G37*
G36*
X835379Y518035D02*
X834072D01*
X832865Y517535D01*
X831940Y516610D01*
X831440Y515403D01*
Y514096D01*
X831940Y512889D01*
X832865Y511965D01*
X834072Y511465D01*
X835379D01*
X836586Y511965D01*
X837510Y512889D01*
X838010Y514096D01*
Y515403D01*
X837510Y516610D01*
X836586Y517535D01*
X835379Y518035D01*
D02*
G37*
G36*
X874381Y516736D02*
X873074D01*
X871867Y516236D01*
X870943Y515312D01*
X870443Y514105D01*
Y512798D01*
X870943Y511590D01*
X871867Y510666D01*
X873074Y510166D01*
X874381D01*
X875589Y510666D01*
X876513Y511590D01*
X877013Y512798D01*
Y514105D01*
X876513Y515312D01*
X875589Y516236D01*
X874381Y516736D01*
D02*
G37*
G36*
X988713Y516365D02*
X987407D01*
X986199Y515865D01*
X985275Y514941D01*
X984775Y513733D01*
Y512427D01*
X985275Y511219D01*
X986199Y510295D01*
X987407Y509795D01*
X988713D01*
X989921Y510295D01*
X990845Y511219D01*
X991345Y512427D01*
Y513733D01*
X990845Y514941D01*
X989921Y515865D01*
X988713Y516365D01*
D02*
G37*
G36*
X863687Y511498D02*
X862380D01*
X861173Y510998D01*
X860249Y510074D01*
X859749Y508867D01*
Y507560D01*
X860249Y506353D01*
X861173Y505428D01*
X862380Y504928D01*
X863687D01*
X864894Y505428D01*
X865818Y506353D01*
X866319Y507560D01*
Y508867D01*
X865818Y510074D01*
X864894Y510998D01*
X863687Y511498D01*
D02*
G37*
G36*
X855294Y511206D02*
X853987D01*
X852780Y510706D01*
X851856Y509782D01*
X851356Y508575D01*
Y507268D01*
X851856Y506061D01*
X852780Y505136D01*
X853987Y504636D01*
X855294D01*
X856501Y505136D01*
X857425Y506061D01*
X857925Y507268D01*
Y508575D01*
X857425Y509782D01*
X856501Y510706D01*
X855294Y511206D01*
D02*
G37*
G36*
X843933Y510015D02*
X842627D01*
X841419Y509515D01*
X840495Y508591D01*
X839995Y507383D01*
Y506077D01*
X840495Y504869D01*
X841419Y503945D01*
X842627Y503445D01*
X843933D01*
X845141Y503945D01*
X846065Y504869D01*
X846565Y506077D01*
Y507383D01*
X846065Y508591D01*
X845141Y509515D01*
X843933Y510015D01*
D02*
G37*
G36*
X915053Y506205D02*
X913747D01*
X912539Y505705D01*
X911615Y504781D01*
X911115Y503573D01*
Y502267D01*
X911615Y501059D01*
X912539Y500135D01*
X913747Y499635D01*
X915053D01*
X916261Y500135D01*
X917185Y501059D01*
X917685Y502267D01*
Y503573D01*
X917185Y504781D01*
X916261Y505705D01*
X915053Y506205D01*
D02*
G37*
G36*
X904894Y526526D02*
X903586D01*
X902379Y526026D01*
X901454Y525101D01*
X900954Y523894D01*
Y522586D01*
X901454Y521379D01*
X902379Y520454D01*
X903586Y519954D01*
X904894D01*
X905842Y520347D01*
X931242Y494947D01*
Y494646D01*
X931742Y493439D01*
X932666Y492514D01*
X933874Y492014D01*
X935181D01*
X936389Y492514D01*
X937313Y493439D01*
X937814Y494646D01*
Y495954D01*
X937313Y497161D01*
X936389Y498086D01*
X935181Y498586D01*
X934881D01*
X908699Y524768D01*
X907864Y525326D01*
X906879Y525522D01*
X906605D01*
X906101Y526026D01*
X904894Y526526D01*
D02*
G37*
G36*
X686105Y498253D02*
X684799D01*
X683591Y497753D01*
X682667Y496829D01*
X682167Y495621D01*
Y494314D01*
X682667Y493107D01*
X683591Y492183D01*
X684799Y491683D01*
X686105D01*
X687313Y492183D01*
X688237Y493107D01*
X688737Y494314D01*
Y495621D01*
X688237Y496829D01*
X687313Y497753D01*
X686105Y498253D01*
D02*
G37*
G36*
X925102Y498192D02*
X923795D01*
X922588Y497692D01*
X921664Y496768D01*
X921163Y495561D01*
Y494254D01*
X921664Y493046D01*
X922588Y492122D01*
X923795Y491622D01*
X925102D01*
X926309Y492122D01*
X927233Y493046D01*
X927733Y494254D01*
Y495561D01*
X927233Y496768D01*
X926309Y497692D01*
X925102Y498192D01*
D02*
G37*
G36*
X694661Y498143D02*
X693354D01*
X692147Y497643D01*
X691223Y496718D01*
X690723Y495511D01*
Y494204D01*
X691223Y492997D01*
X692147Y492073D01*
X693354Y491573D01*
X694661D01*
X695869Y492073D01*
X696793Y492997D01*
X697293Y494204D01*
Y495511D01*
X696793Y496718D01*
X695869Y497643D01*
X694661Y498143D01*
D02*
G37*
G36*
X672484Y493506D02*
X671176D01*
X669969Y493006D01*
X669044Y492081D01*
X668544Y490874D01*
Y489566D01*
X669044Y488359D01*
X669969Y487434D01*
X671176Y486934D01*
X672484D01*
X673691Y487434D01*
X674616Y488359D01*
X675116Y489566D01*
Y490874D01*
X674616Y492081D01*
X673691Y493006D01*
X672484Y493506D01*
D02*
G37*
G36*
X690106Y488454D02*
X688800D01*
X687592Y487953D01*
X686668Y487029D01*
X686168Y485822D01*
Y484515D01*
X686668Y483308D01*
X687592Y482384D01*
X688800Y481884D01*
X690106D01*
X691314Y482384D01*
X692238Y483308D01*
X692738Y484515D01*
Y485822D01*
X692238Y487029D01*
X691314Y487953D01*
X690106Y488454D01*
D02*
G37*
G36*
X821363Y486725D02*
X820056D01*
X818848Y486225D01*
X817924Y485300D01*
X817424Y484093D01*
Y482785D01*
X817924Y481578D01*
X818848Y480653D01*
X820056Y480153D01*
X821363D01*
X822571Y480653D01*
X823495Y481578D01*
X823996Y482785D01*
Y484093D01*
X823495Y485300D01*
X822571Y486225D01*
X821363Y486725D01*
D02*
G37*
G36*
X681168Y486335D02*
X679861D01*
X678654Y485835D01*
X677729Y484910D01*
X677229Y483703D01*
Y482396D01*
X677729Y481189D01*
X678654Y480265D01*
X679861Y479765D01*
X681168D01*
X682375Y480265D01*
X683299Y481189D01*
X683799Y482396D01*
Y483703D01*
X683299Y484910D01*
X682375Y485835D01*
X681168Y486335D01*
D02*
G37*
G36*
X914390Y472594D02*
X913083D01*
X911876Y472094D01*
X910952Y471170D01*
X910452Y469962D01*
Y468655D01*
X910952Y467448D01*
X911876Y466524D01*
X913083Y466024D01*
X914390D01*
X915598Y466524D01*
X916522Y467448D01*
X917022Y468655D01*
Y469962D01*
X916522Y471170D01*
X915598Y472094D01*
X914390Y472594D01*
D02*
G37*
G36*
X1001414Y447786D02*
X1000106D01*
X998899Y447286D01*
X997974Y446361D01*
X997474Y445154D01*
Y443846D01*
X997974Y442639D01*
X998899Y441714D01*
X1000106Y441214D01*
X1001414D01*
X1002621Y441714D01*
X1003546Y442639D01*
X1004046Y443846D01*
Y445154D01*
X1003546Y446361D01*
X1002621Y447286D01*
X1001414Y447786D01*
D02*
G37*
G36*
X797697Y422990D02*
X796390D01*
X795183Y422490D01*
X794259Y421566D01*
X793758Y420358D01*
Y419051D01*
X794259Y417844D01*
X795183Y416920D01*
X796390Y416420D01*
X797697D01*
X798904Y416920D01*
X799828Y417844D01*
X800328Y419051D01*
Y420358D01*
X799828Y421566D01*
X798904Y422490D01*
X797697Y422990D01*
D02*
G37*
G36*
X790293Y415555D02*
X788986D01*
X787779Y415055D01*
X786855Y414130D01*
X786355Y412923D01*
Y411616D01*
X786855Y410409D01*
X787779Y409485D01*
X788986Y408985D01*
X790293D01*
X791500Y409485D01*
X792424Y410409D01*
X792925Y411616D01*
Y412923D01*
X792424Y414130D01*
X791500Y415055D01*
X790293Y415555D01*
D02*
G37*
G36*
X1028084Y408416D02*
X1026776D01*
X1025569Y407916D01*
X1024644Y406991D01*
X1024144Y405784D01*
Y404476D01*
X1024644Y403269D01*
X1025569Y402344D01*
X1026776Y401844D01*
X1028084D01*
X1029291Y402344D01*
X1030216Y403269D01*
X1030716Y404476D01*
Y405784D01*
X1030216Y406991D01*
X1029291Y407916D01*
X1028084Y408416D01*
D02*
G37*
G36*
X416951Y376615D02*
X415644D01*
X414436Y376115D01*
X413511Y375190D01*
X413011Y373982D01*
Y372675D01*
X413511Y371468D01*
X414436Y370543D01*
X415644Y370043D01*
X416951D01*
X418158Y370543D01*
X419083Y371468D01*
X419583Y372675D01*
Y373982D01*
X419083Y375190D01*
X418158Y376115D01*
X416951Y376615D01*
D02*
G37*
G36*
X1052811Y375260D02*
X1050309D01*
X1047893Y374613D01*
X1045727Y373362D01*
X1043958Y371593D01*
X1042707Y369427D01*
X1042060Y367011D01*
Y364509D01*
X1042707Y362093D01*
X1043958Y359927D01*
X1045727Y358158D01*
X1047893Y356907D01*
X1050309Y356260D01*
X1052811D01*
X1055227Y356907D01*
X1057393Y358158D01*
X1059162Y359927D01*
X1060413Y362093D01*
X1061060Y364509D01*
Y367011D01*
X1060413Y369427D01*
X1059162Y371593D01*
X1057393Y373362D01*
X1055227Y374613D01*
X1052811Y375260D01*
D02*
G37*
G36*
X306724Y343380D02*
X305416D01*
X304209Y342879D01*
X303284Y341955D01*
X302784Y340747D01*
Y339440D01*
X303284Y338232D01*
X304209Y337308D01*
X305416Y336808D01*
X306724D01*
X307931Y337308D01*
X308856Y338232D01*
X309356Y339440D01*
Y340747D01*
X308856Y341955D01*
X307931Y342879D01*
X306724Y343380D01*
D02*
G37*
G36*
X1061060Y349860D02*
X1042060D01*
Y330860D01*
X1061060D01*
Y349860D01*
D02*
G37*
G36*
X941957Y320786D02*
X940650D01*
X939442Y320286D01*
X938518Y319361D01*
X938018Y318154D01*
Y316846D01*
X938518Y315639D01*
X939442Y314714D01*
X940650Y314214D01*
X941957D01*
X943165Y314714D01*
X944089Y315639D01*
X944590Y316846D01*
Y318154D01*
X944089Y319361D01*
X943165Y320286D01*
X941957Y320786D01*
D02*
G37*
G36*
X307095Y311691D02*
X305788D01*
X304580Y311190D01*
X303656Y310266D01*
X303155Y309058D01*
Y307751D01*
X303656Y306543D01*
X304580Y305619D01*
X305788Y305119D01*
X307095D01*
X308303Y305619D01*
X309227Y306543D01*
X309727Y307751D01*
Y309058D01*
X309227Y310266D01*
X308303Y311190D01*
X307095Y311691D01*
D02*
G37*
G36*
X117391Y310962D02*
X116084D01*
X114877Y310462D01*
X113953Y309538D01*
X113453Y308331D01*
Y307024D01*
X113953Y305817D01*
X114877Y304893D01*
X116084Y304392D01*
X117391D01*
X118598Y304893D01*
X119522Y305817D01*
X120022Y307024D01*
Y308331D01*
X119522Y309538D01*
X118598Y310462D01*
X117391Y310962D01*
D02*
G37*
G36*
X843933Y310625D02*
X842627D01*
X841419Y310125D01*
X840495Y309201D01*
X839995Y307993D01*
Y306687D01*
X840495Y305479D01*
X841419Y304555D01*
X842627Y304055D01*
X843933D01*
X845141Y304555D01*
X846065Y305479D01*
X846565Y306687D01*
Y307993D01*
X846065Y309201D01*
X845141Y310125D01*
X843933Y310625D01*
D02*
G37*
G36*
X746143D02*
X744837D01*
X743629Y310125D01*
X742705Y309201D01*
X742205Y307993D01*
Y306687D01*
X742705Y305479D01*
X743629Y304555D01*
X744837Y304055D01*
X746143D01*
X747351Y304555D01*
X748275Y305479D01*
X748775Y306687D01*
Y307993D01*
X748275Y309201D01*
X747351Y310125D01*
X746143Y310625D01*
D02*
G37*
G36*
X327693Y284193D02*
X326386D01*
X325178Y283692D01*
X324254Y282768D01*
X323753Y281560D01*
Y280253D01*
X324254Y279045D01*
X325178Y278121D01*
X326386Y277621D01*
X327693D01*
X328901Y278121D01*
X329825Y279045D01*
X330325Y280253D01*
Y281560D01*
X329825Y282768D01*
X328901Y283692D01*
X327693Y284193D01*
D02*
G37*
G36*
X337730Y278396D02*
X336423D01*
X335216Y277896D01*
X334292Y276971D01*
X333792Y275764D01*
Y274457D01*
X334292Y273250D01*
X335216Y272326D01*
X336423Y271826D01*
X337730D01*
X338937Y272326D01*
X339861Y273250D01*
X340362Y274457D01*
Y275764D01*
X339861Y276971D01*
X338937Y277896D01*
X337730Y278396D01*
D02*
G37*
G36*
X327693Y272509D02*
X326386D01*
X325178Y272009D01*
X324254Y271085D01*
X323753Y269877D01*
Y268570D01*
X324254Y267362D01*
X325178Y266438D01*
X326386Y265937D01*
X327693D01*
X328901Y266438D01*
X329825Y267362D01*
X330325Y268570D01*
Y269877D01*
X329825Y271085D01*
X328901Y272009D01*
X327693Y272509D01*
D02*
G37*
G36*
X348633Y271255D02*
X347327D01*
X346119Y270755D01*
X345195Y269831D01*
X344695Y268623D01*
Y267317D01*
X345195Y266109D01*
X346119Y265185D01*
X347327Y264685D01*
X348633D01*
X349841Y265185D01*
X350765Y266109D01*
X351265Y267317D01*
Y268623D01*
X350765Y269831D01*
X349841Y270755D01*
X348633Y271255D01*
D02*
G37*
G36*
X734713Y268715D02*
X733407D01*
X732199Y268215D01*
X731275Y267291D01*
X730775Y266083D01*
Y264777D01*
X731275Y263569D01*
X732199Y262645D01*
X733407Y262145D01*
X734713D01*
X735921Y262645D01*
X736845Y263569D01*
X737345Y264777D01*
Y266083D01*
X736845Y267291D01*
X735921Y268215D01*
X734713Y268715D01*
D02*
G37*
G36*
X363873Y266175D02*
X362567D01*
X361359Y265675D01*
X360435Y264751D01*
X359935Y263543D01*
Y262237D01*
X360435Y261029D01*
X361359Y260105D01*
X362567Y259605D01*
X363873D01*
X365081Y260105D01*
X366005Y261029D01*
X366505Y262237D01*
Y263543D01*
X366005Y264751D01*
X365081Y265675D01*
X363873Y266175D01*
D02*
G37*
G36*
X319423Y261095D02*
X318117D01*
X316909Y260595D01*
X315985Y259671D01*
X315485Y258463D01*
Y257157D01*
X315985Y255949D01*
X316909Y255025D01*
X318117Y254525D01*
X319423D01*
X320631Y255025D01*
X321555Y255949D01*
X322055Y257157D01*
Y258463D01*
X321555Y259671D01*
X320631Y260595D01*
X319423Y261095D01*
D02*
G37*
G36*
X327910Y260791D02*
X326603D01*
X325395Y260291D01*
X324471Y259367D01*
X323970Y258159D01*
Y256852D01*
X324471Y255644D01*
X325395Y254720D01*
X326603Y254219D01*
X327910D01*
X329118Y254720D01*
X330042Y255644D01*
X330542Y256852D01*
Y258159D01*
X330042Y259367D01*
X329118Y260291D01*
X327910Y260791D01*
D02*
G37*
G36*
X724119Y253441D02*
X722812D01*
X721605Y252941D01*
X720680Y252017D01*
X720180Y250809D01*
Y249502D01*
X720680Y248295D01*
X721605Y247371D01*
X722812Y246871D01*
X724119D01*
X725326Y247371D01*
X726250Y248295D01*
X726750Y249502D01*
Y250809D01*
X726250Y252017D01*
X725326Y252941D01*
X724119Y253441D01*
D02*
G37*
G36*
X117391Y252188D02*
X116084D01*
X114877Y251688D01*
X113953Y250764D01*
X113453Y249557D01*
Y248250D01*
X113953Y247043D01*
X114877Y246119D01*
X116084Y245618D01*
X117391D01*
X118598Y246119D01*
X119522Y247043D01*
X120022Y248250D01*
Y249557D01*
X119522Y250764D01*
X118598Y251688D01*
X117391Y252188D01*
D02*
G37*
G36*
X327693Y249649D02*
X326386D01*
X325178Y249149D01*
X324254Y248225D01*
X323753Y247017D01*
Y245710D01*
X324254Y244502D01*
X325178Y243578D01*
X326386Y243077D01*
X327693D01*
X328901Y243578D01*
X329825Y244502D01*
X330325Y245710D01*
Y247017D01*
X329825Y248225D01*
X328901Y249149D01*
X327693Y249649D01*
D02*
G37*
G36*
X117391Y239488D02*
X116084D01*
X114877Y238988D01*
X113953Y238064D01*
X113453Y236857D01*
Y235550D01*
X113953Y234343D01*
X114877Y233419D01*
X116084Y232918D01*
X117391D01*
X118598Y233419D01*
X119522Y234343D01*
X120022Y235550D01*
Y236857D01*
X119522Y238064D01*
X118598Y238988D01*
X117391Y239488D01*
D02*
G37*
G36*
X327693Y238219D02*
X326386D01*
X325178Y237719D01*
X324254Y236795D01*
X323753Y235587D01*
Y234280D01*
X324254Y233072D01*
X325178Y232148D01*
X326386Y231647D01*
X327693D01*
X328901Y232148D01*
X329825Y233072D01*
X330325Y234280D01*
Y235587D01*
X329825Y236795D01*
X328901Y237719D01*
X327693Y238219D01*
D02*
G37*
G36*
X995075Y237266D02*
X993768D01*
X992561Y236766D01*
X991637Y235842D01*
X991136Y234634D01*
Y233328D01*
X991637Y232120D01*
X992561Y231196D01*
X993143Y230955D01*
X993377Y229775D01*
X992090Y228488D01*
X959974D01*
X958989Y228292D01*
X958155Y227734D01*
X949410Y218990D01*
X948852Y218155D01*
X948656Y217170D01*
Y124494D01*
X872112D01*
X869851Y126754D01*
X869016Y127312D01*
X868031Y127508D01*
X788628D01*
X788054Y127746D01*
X786746D01*
X785539Y127246D01*
X784614Y126321D01*
X784114Y125114D01*
Y123806D01*
X784614Y122599D01*
X785539Y121674D01*
X786746Y121174D01*
X788054D01*
X789261Y121674D01*
X789948Y122361D01*
X866965D01*
X869226Y120100D01*
X870061Y119542D01*
X871046Y119347D01*
X910267D01*
X910344Y119159D01*
X911269Y118235D01*
X912476Y117735D01*
X913784D01*
X914991Y118235D01*
X915916Y119159D01*
X915993Y119347D01*
X948656D01*
Y80814D01*
X948444Y80601D01*
X947944Y79394D01*
Y78086D01*
X948444Y76879D01*
X949369Y75954D01*
X950576Y75454D01*
X951884D01*
X953091Y75954D01*
X954016Y76879D01*
X954516Y78086D01*
Y79394D01*
X954016Y80601D01*
X953803Y80814D01*
Y119846D01*
X954016Y120059D01*
X954516Y121266D01*
Y122574D01*
X954016Y123781D01*
X953803Y123994D01*
Y216104D01*
X961040Y223341D01*
X973313D01*
X973572Y222375D01*
X973324Y222232D01*
X971555Y220463D01*
X970304Y218297D01*
X969657Y215881D01*
Y213379D01*
X970304Y210963D01*
X971555Y208797D01*
X973324Y207028D01*
X975490Y205777D01*
X977906Y205130D01*
X980408D01*
X982824Y205777D01*
X984990Y207028D01*
X986759Y208797D01*
X988010Y210963D01*
X988657Y213379D01*
Y215881D01*
X988010Y218297D01*
X986759Y220463D01*
X984990Y222232D01*
X984743Y222375D01*
X985001Y223341D01*
X993156D01*
X994140Y223537D01*
X994975Y224095D01*
X999447Y228566D01*
X1025356D01*
X1025569Y228354D01*
X1026776Y227854D01*
X1028084D01*
X1029291Y228354D01*
X1030216Y229279D01*
X1030716Y230486D01*
Y231794D01*
X1030216Y233001D01*
X1029291Y233926D01*
X1028084Y234426D01*
X1026776D01*
X1025569Y233926D01*
X1025356Y233713D01*
X998382D01*
X997707Y234267D01*
Y234634D01*
X997206Y235842D01*
X996282Y236766D01*
X995075Y237266D01*
D02*
G37*
G36*
X340626Y227732D02*
X339320D01*
X338112Y227232D01*
X337188Y226308D01*
X336688Y225100D01*
Y223794D01*
X337188Y222586D01*
X338112Y221662D01*
X339320Y221162D01*
X340626D01*
X341834Y221662D01*
X342758Y222586D01*
X343258Y223794D01*
Y225100D01*
X342758Y226308D01*
X341834Y227232D01*
X340626Y227732D01*
D02*
G37*
G36*
X117391Y225518D02*
X116084D01*
X114877Y225018D01*
X113953Y224094D01*
X113453Y222887D01*
Y221580D01*
X113953Y220373D01*
X114877Y219449D01*
X116084Y218948D01*
X117391D01*
X118598Y219449D01*
X119522Y220373D01*
X120022Y221580D01*
Y222887D01*
X119522Y224094D01*
X118598Y225018D01*
X117391Y225518D01*
D02*
G37*
G36*
X367579Y218088D02*
X366272D01*
X365064Y217587D01*
X364140Y216663D01*
X363894Y216069D01*
X362716Y215833D01*
X362361Y216187D01*
X361154Y216687D01*
X359847D01*
X358640Y216187D01*
X357716Y215263D01*
X357216Y214056D01*
Y212749D01*
X357716Y211542D01*
X358640Y210618D01*
X359847Y210117D01*
X361154D01*
X362361Y210618D01*
X363285Y211542D01*
X363532Y212136D01*
X364710Y212372D01*
X365064Y212018D01*
X366272Y211518D01*
X367579D01*
X368786Y212018D01*
X369710Y212942D01*
X370210Y214149D01*
Y215456D01*
X369710Y216663D01*
X368786Y217587D01*
X367579Y218088D01*
D02*
G37*
G36*
X378188Y220265D02*
X376881D01*
X375673Y219765D01*
X374749Y218840D01*
X374248Y217633D01*
Y216325D01*
X374749Y215118D01*
X375673Y214193D01*
X376881Y213693D01*
X378188D01*
X379396Y214193D01*
X380320Y215118D01*
X380820Y216325D01*
Y217633D01*
X380320Y218840D01*
X379396Y219765D01*
X378188Y220265D01*
D02*
G37*
G36*
X704170Y216859D02*
X702863D01*
X701656Y216358D01*
X700732Y215434D01*
X700232Y214227D01*
Y212920D01*
X700732Y211713D01*
X701656Y210789D01*
X702863Y210289D01*
X704170D01*
X705378Y210789D01*
X706302Y211713D01*
X706802Y212920D01*
Y214227D01*
X706302Y215434D01*
X705378Y216358D01*
X704170Y216859D01*
D02*
G37*
G36*
X117391Y215358D02*
X116084D01*
X114877Y214858D01*
X113953Y213934D01*
X113453Y212727D01*
Y211420D01*
X113953Y210213D01*
X114877Y209289D01*
X116084Y208788D01*
X117391D01*
X118598Y209289D01*
X119522Y210213D01*
X120022Y211420D01*
Y212727D01*
X119522Y213934D01*
X118598Y214858D01*
X117391Y215358D01*
D02*
G37*
G36*
X698814Y210542D02*
X697507D01*
X696299Y210042D01*
X695375Y209118D01*
X694875Y207911D01*
Y206604D01*
X695375Y205396D01*
X696299Y204472D01*
X697507Y203972D01*
X698814D01*
X700021Y204472D01*
X700945Y205396D01*
X701445Y206604D01*
Y207911D01*
X700945Y209118D01*
X700021Y210042D01*
X698814Y210542D01*
D02*
G37*
G36*
X369646Y208061D02*
X368339D01*
X367132Y207561D01*
X366207Y206637D01*
X365707Y205429D01*
Y204122D01*
X366207Y202914D01*
X367132Y201990D01*
X368339Y201489D01*
X369646D01*
X370854Y201990D01*
X371779Y202914D01*
X372279Y204122D01*
Y205429D01*
X371779Y206637D01*
X370854Y207561D01*
X369646Y208061D01*
D02*
G37*
G36*
X235106Y207553D02*
X233799D01*
X232592Y207053D01*
X231668Y206129D01*
X231168Y204921D01*
Y203615D01*
X231668Y202407D01*
X232592Y201483D01*
X233799Y200983D01*
X235106D01*
X236313Y201483D01*
X237238Y202407D01*
X237738Y203615D01*
Y204921D01*
X237238Y206129D01*
X236313Y207053D01*
X235106Y207553D01*
D02*
G37*
G36*
X307993Y206485D02*
X306687D01*
X305479Y205985D01*
X304555Y205061D01*
X304055Y203853D01*
Y202547D01*
X304555Y201339D01*
X305479Y200415D01*
X306687Y199915D01*
X307993D01*
X309201Y200415D01*
X310125Y201339D01*
X310625Y202547D01*
Y203853D01*
X310125Y205061D01*
X309201Y205985D01*
X307993Y206485D01*
D02*
G37*
G36*
X226713D02*
X225407D01*
X224199Y205985D01*
X223275Y205061D01*
X222775Y203853D01*
Y202547D01*
X223275Y201339D01*
X224199Y200415D01*
X225407Y199915D01*
X226713D01*
X227921Y200415D01*
X228845Y201339D01*
X229345Y202547D01*
Y203853D01*
X228845Y205061D01*
X227921Y205985D01*
X226713Y206485D01*
D02*
G37*
G36*
X361253Y204078D02*
X359946D01*
X358738Y203578D01*
X357814Y202654D01*
X357314Y201447D01*
Y200140D01*
X357814Y198932D01*
X358738Y198008D01*
X359946Y197508D01*
X361253D01*
X362460Y198008D01*
X363384Y198932D01*
X363884Y200140D01*
Y201447D01*
X363384Y202654D01*
X362460Y203578D01*
X361253Y204078D01*
D02*
G37*
G36*
X314343Y200135D02*
X313037D01*
X311829Y199635D01*
X310905Y198711D01*
X310405Y197503D01*
Y196197D01*
X310905Y194989D01*
X311829Y194065D01*
X313037Y193565D01*
X314343D01*
X315551Y194065D01*
X316475Y194989D01*
X316975Y196197D01*
Y197503D01*
X316475Y198711D01*
X315551Y199635D01*
X314343Y200135D01*
D02*
G37*
G36*
X371429Y199366D02*
X370123D01*
X368915Y198866D01*
X367991Y197942D01*
X367491Y196735D01*
Y195428D01*
X367991Y194221D01*
X368915Y193296D01*
X370123Y192796D01*
X371429D01*
X372637Y193296D01*
X373561Y194221D01*
X374061Y195428D01*
Y196735D01*
X373561Y197942D01*
X372637Y198866D01*
X371429Y199366D01*
D02*
G37*
G36*
X356254Y195056D02*
X354946D01*
X353739Y194556D01*
X352814Y193631D01*
X352314Y192424D01*
Y191116D01*
X352814Y189909D01*
X353739Y188984D01*
X354946Y188484D01*
X356254D01*
X357461Y188984D01*
X358386Y189909D01*
X358886Y191116D01*
Y192424D01*
X358386Y193631D01*
X357461Y194556D01*
X356254Y195056D01*
D02*
G37*
G36*
X618343Y195573D02*
X617037D01*
X615829Y195073D01*
X614905Y194149D01*
X614405Y192942D01*
Y191635D01*
X614905Y190427D01*
X615829Y189503D01*
X617037Y189003D01*
X618343D01*
X619551Y189503D01*
X620475Y190427D01*
X620513Y190519D01*
X621513Y190320D01*
Y189619D01*
X622013Y188412D01*
X622937Y187487D01*
X624144Y186987D01*
X625451D01*
X626659Y187487D01*
X627583Y188412D01*
X628083Y189619D01*
Y190926D01*
X627583Y192133D01*
X626659Y193057D01*
X625451Y193557D01*
X624144D01*
X622937Y193057D01*
X622013Y192133D01*
X621975Y192041D01*
X620975Y192240D01*
Y192942D01*
X620475Y194149D01*
X619551Y195073D01*
X618343Y195573D01*
D02*
G37*
G36*
X639883Y191541D02*
X638576D01*
X637369Y191041D01*
X636444Y190117D01*
X635944Y188910D01*
Y187603D01*
X636444Y186395D01*
X637369Y185471D01*
X638576Y184971D01*
X639883D01*
X641090Y185471D01*
X642014Y186395D01*
X642514Y187603D01*
Y188910D01*
X642014Y190117D01*
X641090Y191041D01*
X639883Y191541D01*
D02*
G37*
G36*
X649276Y187452D02*
X647969D01*
X646762Y186952D01*
X645838Y186028D01*
X645338Y184820D01*
Y183514D01*
X645838Y182306D01*
X646762Y181382D01*
X647969Y180882D01*
X649276D01*
X650483Y181382D01*
X651407Y182306D01*
X651908Y183514D01*
Y184820D01*
X651407Y186028D01*
X650483Y186952D01*
X649276Y187452D01*
D02*
G37*
G36*
X1014147Y198730D02*
X1011646D01*
X1009230Y198083D01*
X1007063Y196832D01*
X1005295Y195063D01*
X1004044Y192897D01*
X1003397Y190481D01*
Y187979D01*
X1004044Y185563D01*
X1005295Y183397D01*
X1007063Y181628D01*
X1009230Y180377D01*
X1011646Y179730D01*
X1014147D01*
X1016563Y180377D01*
X1018730Y181628D01*
X1020498Y183397D01*
X1021749Y185563D01*
X1022396Y187979D01*
Y190481D01*
X1021749Y192897D01*
X1020498Y195063D01*
X1018730Y196832D01*
X1016563Y198083D01*
X1014147Y198730D01*
D02*
G37*
G36*
X980408D02*
X977906D01*
X975490Y198083D01*
X973324Y196832D01*
X971555Y195063D01*
X970304Y192897D01*
X969657Y190481D01*
Y187979D01*
X970304Y185563D01*
X971555Y183397D01*
X973324Y181628D01*
X975490Y180377D01*
X977906Y179730D01*
X980408D01*
X982824Y180377D01*
X984990Y181628D01*
X986759Y183397D01*
X988010Y185563D01*
X988657Y187979D01*
Y190481D01*
X988010Y192897D01*
X986759Y195063D01*
X984990Y196832D01*
X982824Y198083D01*
X980408Y198730D01*
D02*
G37*
G36*
X624224Y169656D02*
X622916D01*
X621709Y169156D01*
X620999Y168446D01*
X620395Y168316D01*
X619791Y168446D01*
X619081Y169156D01*
X617874Y169656D01*
X616566D01*
X615359Y169156D01*
X614434Y168231D01*
X613934Y167024D01*
Y165716D01*
X614434Y164509D01*
X615359Y163584D01*
X616566Y163084D01*
X617874D01*
X619081Y163584D01*
X619791Y164294D01*
X620395Y164424D01*
X620999Y164294D01*
X621709Y163584D01*
X622916Y163084D01*
X624224D01*
X625431Y163584D01*
X626356Y164509D01*
X626856Y165716D01*
Y167024D01*
X626356Y168231D01*
X625431Y169156D01*
X624224Y169656D01*
D02*
G37*
G36*
X649624Y167116D02*
X648316D01*
X647109Y166616D01*
X646184Y165691D01*
X645684Y164484D01*
Y163176D01*
X646184Y161969D01*
X647109Y161044D01*
X648316Y160544D01*
X649624D01*
X650831Y161044D01*
X651756Y161969D01*
X652256Y163176D01*
Y164484D01*
X651756Y165691D01*
X650831Y166616D01*
X649624Y167116D01*
D02*
G37*
G36*
X937077Y166702D02*
X935770D01*
X934563Y166201D01*
X933639Y165277D01*
X933139Y164070D01*
Y162763D01*
X933639Y161556D01*
X934563Y160632D01*
X935770Y160132D01*
X937077D01*
X938284Y160632D01*
X939209Y161556D01*
X939709Y162763D01*
Y164070D01*
X939209Y165277D01*
X938284Y166201D01*
X937077Y166702D01*
D02*
G37*
G36*
X640521Y166582D02*
X639214D01*
X638006Y166082D01*
X637082Y165158D01*
X636582Y163950D01*
Y162642D01*
X637082Y161435D01*
X638006Y160510D01*
X639214Y160010D01*
X640521D01*
X641729Y160510D01*
X642654Y161435D01*
X643154Y162642D01*
Y163950D01*
X642654Y165158D01*
X641729Y166082D01*
X640521Y166582D01*
D02*
G37*
G36*
X1014147Y173330D02*
X1011646D01*
X1009230Y172683D01*
X1007063Y171432D01*
X1005295Y169663D01*
X1004044Y167497D01*
X1003397Y165081D01*
Y162579D01*
X1004044Y160163D01*
X1005295Y157997D01*
X1007063Y156228D01*
X1009230Y154977D01*
X1011646Y154330D01*
X1014147D01*
X1016563Y154977D01*
X1018730Y156228D01*
X1020498Y157997D01*
X1021749Y160163D01*
X1022396Y162579D01*
Y165081D01*
X1021749Y167497D01*
X1020498Y169663D01*
X1018730Y171432D01*
X1016563Y172683D01*
X1014147Y173330D01*
D02*
G37*
G36*
X980408D02*
X977906D01*
X975490Y172683D01*
X973324Y171432D01*
X971555Y169663D01*
X970304Y167497D01*
X969657Y165081D01*
Y162579D01*
X970304Y160163D01*
X971555Y157997D01*
X973324Y156228D01*
X975490Y154977D01*
X977906Y154330D01*
X980408D01*
X982824Y154977D01*
X984990Y156228D01*
X986759Y157997D01*
X988010Y160163D01*
X988657Y162579D01*
Y165081D01*
X988010Y167497D01*
X986759Y169663D01*
X984990Y171432D01*
X982824Y172683D01*
X980408Y173330D01*
D02*
G37*
G36*
X923943Y148065D02*
X922637D01*
X921429Y147565D01*
X920505Y146641D01*
X920005Y145433D01*
Y144127D01*
X920505Y142919D01*
X921429Y141995D01*
X922637Y141495D01*
X923943D01*
X925151Y141995D01*
X926075Y142919D01*
X926575Y144127D01*
Y145433D01*
X926075Y146641D01*
X925151Y147565D01*
X923943Y148065D01*
D02*
G37*
G36*
X1014147Y147930D02*
X1011646D01*
X1009230Y147283D01*
X1007063Y146032D01*
X1005295Y144263D01*
X1004044Y142097D01*
X1003397Y139681D01*
Y137179D01*
X1004044Y134763D01*
X1005295Y132597D01*
X1007063Y130828D01*
X1009230Y129577D01*
X1011646Y128930D01*
X1014147D01*
X1016563Y129577D01*
X1018730Y130828D01*
X1020498Y132597D01*
X1021749Y134763D01*
X1022396Y137179D01*
Y139681D01*
X1021749Y142097D01*
X1020498Y144263D01*
X1018730Y146032D01*
X1016563Y147283D01*
X1014147Y147930D01*
D02*
G37*
G36*
X980408D02*
X977906D01*
X975490Y147283D01*
X973324Y146032D01*
X971555Y144263D01*
X970304Y142097D01*
X969657Y139681D01*
Y137179D01*
X970304Y134763D01*
X971555Y132597D01*
X973324Y130828D01*
X975490Y129577D01*
X977906Y128930D01*
X980408D01*
X982824Y129577D01*
X984990Y130828D01*
X986759Y132597D01*
X988010Y134763D01*
X988657Y137179D01*
Y139681D01*
X988010Y142097D01*
X986759Y144263D01*
X984990Y146032D01*
X982824Y147283D01*
X980408Y147930D01*
D02*
G37*
G36*
X368953Y126475D02*
X367647D01*
X366439Y125975D01*
X365515Y125051D01*
X365015Y123843D01*
Y122537D01*
X365515Y121329D01*
X366439Y120405D01*
X367647Y119905D01*
X368953D01*
X370161Y120405D01*
X371085Y121329D01*
X371585Y122537D01*
Y123843D01*
X371085Y125051D01*
X370161Y125975D01*
X368953Y126475D01*
D02*
G37*
G36*
X1014147Y122530D02*
X1011646D01*
X1009230Y121883D01*
X1007063Y120632D01*
X1005295Y118863D01*
X1004044Y116697D01*
X1003397Y114281D01*
Y111779D01*
X1004044Y109363D01*
X1005295Y107197D01*
X1007063Y105428D01*
X1009230Y104177D01*
X1011646Y103530D01*
X1014147D01*
X1016563Y104177D01*
X1018730Y105428D01*
X1020498Y107197D01*
X1021749Y109363D01*
X1022396Y111779D01*
Y114281D01*
X1021749Y116697D01*
X1020498Y118863D01*
X1018730Y120632D01*
X1016563Y121883D01*
X1014147Y122530D01*
D02*
G37*
G36*
X980408D02*
X977906D01*
X975490Y121883D01*
X973324Y120632D01*
X971555Y118863D01*
X970304Y116697D01*
X969657Y114281D01*
Y111779D01*
X970304Y109363D01*
X971555Y107197D01*
X973324Y105428D01*
X975490Y104177D01*
X977906Y103530D01*
X980408D01*
X982824Y104177D01*
X984990Y105428D01*
X986759Y107197D01*
X988010Y109363D01*
X988657Y111779D01*
Y114281D01*
X988010Y116697D01*
X986759Y118863D01*
X984990Y120632D01*
X982824Y121883D01*
X980408Y122530D01*
D02*
G37*
G36*
X334664Y109966D02*
X333356D01*
X332149Y109466D01*
X331224Y108541D01*
X330724Y107334D01*
Y106026D01*
X331224Y104819D01*
X332149Y103894D01*
X333356Y103394D01*
X334664D01*
X335871Y103894D01*
X336796Y104819D01*
X337296Y106026D01*
Y107334D01*
X336796Y108541D01*
X335871Y109466D01*
X334664Y109966D01*
D02*
G37*
G36*
X752493Y107425D02*
X751187D01*
X749979Y106925D01*
X749055Y106001D01*
X748555Y104793D01*
Y103487D01*
X749055Y102279D01*
X749979Y101355D01*
X751187Y100855D01*
X752493D01*
X753701Y101355D01*
X754625Y102279D01*
X755125Y103487D01*
Y104793D01*
X754625Y106001D01*
X753701Y106925D01*
X752493Y107425D01*
D02*
G37*
G36*
X249574Y94393D02*
X248266D01*
X247059Y93892D01*
X246134Y92968D01*
X245634Y91760D01*
Y90453D01*
X246134Y89245D01*
X247059Y88321D01*
X248266Y87821D01*
X249574D01*
X250781Y88321D01*
X251706Y89245D01*
X252206Y90453D01*
Y91760D01*
X251706Y92968D01*
X250781Y93892D01*
X249574Y94393D01*
D02*
G37*
G36*
X751223Y87105D02*
X749917D01*
X748709Y86605D01*
X747785Y85681D01*
X747285Y84473D01*
Y83167D01*
X747785Y81959D01*
X748709Y81035D01*
X749917Y80535D01*
X751223D01*
X752431Y81035D01*
X753355Y81959D01*
X753855Y83167D01*
Y84473D01*
X753355Y85681D01*
X752431Y86605D01*
X751223Y87105D01*
D02*
G37*
G36*
Y79485D02*
X749917D01*
X748709Y78985D01*
X747785Y78061D01*
X747285Y76853D01*
Y75547D01*
X747785Y74339D01*
X748709Y73415D01*
X749917Y72915D01*
X751223D01*
X752431Y73415D01*
X753355Y74339D01*
X753855Y75547D01*
Y76853D01*
X753355Y78061D01*
X752431Y78985D01*
X751223Y79485D01*
D02*
G37*
G36*
X105310Y66560D02*
X100430D01*
X95611Y65797D01*
X90970Y64289D01*
X86622Y62074D01*
X82675Y59205D01*
X79225Y55755D01*
X76356Y51807D01*
X74141Y47460D01*
X72633Y42819D01*
X71870Y38000D01*
Y33120D01*
X72633Y28301D01*
X74141Y23660D01*
X76356Y19312D01*
X79225Y15365D01*
X82675Y11914D01*
X86622Y9046D01*
X90970Y6831D01*
X95611Y5323D01*
X100430Y4560D01*
X105310D01*
X110129Y5323D01*
X114770Y6831D01*
X119117Y9046D01*
X123065Y11914D01*
X126516Y15365D01*
X129384Y19312D01*
X131599Y23660D01*
X133107Y28301D01*
X133870Y33120D01*
Y38000D01*
X133107Y42819D01*
X131599Y47460D01*
X129384Y51807D01*
X126516Y55755D01*
X123065Y59205D01*
X119117Y62074D01*
X114770Y64289D01*
X110129Y65797D01*
X105310Y66560D01*
D02*
G37*
G36*
X211983Y566950D02*
X210676D01*
X209468Y566450D01*
X208544Y565526D01*
X208044Y564319D01*
Y563012D01*
X208544Y561805D01*
X209468Y560881D01*
X210676Y560380D01*
X211983D01*
X213190Y560881D01*
X214114Y561805D01*
X214614Y563012D01*
Y564319D01*
X214114Y565526D01*
X213190Y566450D01*
X211983Y566950D01*
D02*
G37*
G36*
X238137Y543639D02*
X236526D01*
X235038Y543023D01*
X233899Y541884D01*
X233283Y540396D01*
Y538786D01*
X233899Y537298D01*
X235038Y536160D01*
X236526Y535543D01*
X238137D01*
X239624Y536160D01*
X240763Y537298D01*
X241379Y538786D01*
Y540396D01*
X240763Y541884D01*
X239624Y543023D01*
X238137Y543639D01*
D02*
G37*
G36*
X228137D02*
X226526D01*
X225038Y543023D01*
X223900Y541884D01*
X223283Y540396D01*
Y538786D01*
X223900Y537298D01*
X225038Y536160D01*
X226526Y535543D01*
X228137D01*
X229624Y536160D01*
X230763Y537298D01*
X231379Y538786D01*
Y540396D01*
X230763Y541884D01*
X229624Y543023D01*
X228137Y543639D01*
D02*
G37*
G36*
X218137D02*
X216526D01*
X215038Y543023D01*
X213900Y541884D01*
X213283Y540396D01*
Y538786D01*
X213900Y537298D01*
X215038Y536160D01*
X216526Y535543D01*
X218137D01*
X219624Y536160D01*
X220763Y537298D01*
X221379Y538786D01*
Y540396D01*
X220763Y541884D01*
X219624Y543023D01*
X218137Y543639D01*
D02*
G37*
G36*
X188338Y541676D02*
X187031D01*
X185823Y541176D01*
X184899Y540252D01*
X184398Y539044D01*
Y537737D01*
X184899Y536529D01*
X185823Y535605D01*
X187031Y535104D01*
X188338D01*
X189546Y535605D01*
X190470Y536529D01*
X190970Y537737D01*
Y539044D01*
X190470Y540252D01*
X189546Y541176D01*
X188338Y541676D01*
D02*
G37*
G36*
X218137Y533644D02*
X216526D01*
X215038Y533028D01*
X213900Y531889D01*
X213283Y530402D01*
Y528791D01*
X213900Y527303D01*
X215038Y526165D01*
X216526Y525548D01*
X218137D01*
X219624Y526165D01*
X220763Y527303D01*
X221379Y528791D01*
Y530402D01*
X220763Y531889D01*
X219624Y533028D01*
X218137Y533644D01*
D02*
G37*
G36*
X228137Y533639D02*
X226526D01*
X225038Y533023D01*
X223900Y531884D01*
X223283Y530396D01*
Y528786D01*
X223900Y527298D01*
X225038Y526160D01*
X226526Y525543D01*
X228137D01*
X229624Y526160D01*
X230763Y527298D01*
X231379Y528786D01*
Y530396D01*
X230763Y531884D01*
X229624Y533023D01*
X228137Y533639D01*
D02*
G37*
G36*
X238131Y533637D02*
X236521D01*
X235033Y533020D01*
X233895Y531882D01*
X233278Y530394D01*
Y528783D01*
X233895Y527296D01*
X235033Y526157D01*
X236521Y525541D01*
X238131D01*
X239619Y526157D01*
X240758Y527296D01*
X241374Y528783D01*
Y530394D01*
X240758Y531882D01*
X239619Y533020D01*
X238131Y533637D01*
D02*
G37*
G36*
Y523644D02*
X236521D01*
X235033Y523028D01*
X233895Y521889D01*
X233278Y520402D01*
Y518791D01*
X233895Y517303D01*
X235033Y516165D01*
X236521Y515548D01*
X238131D01*
X239619Y516165D01*
X240758Y517303D01*
X241374Y518791D01*
Y520402D01*
X240758Y521889D01*
X239619Y523028D01*
X238131Y523644D01*
D02*
G37*
G36*
X228131D02*
X226521D01*
X225033Y523028D01*
X223895Y521889D01*
X223278Y520402D01*
Y518791D01*
X223895Y517303D01*
X225033Y516165D01*
X226521Y515548D01*
X228131D01*
X229619Y516165D01*
X230758Y517303D01*
X231374Y518791D01*
Y520402D01*
X230758Y521889D01*
X229619Y523028D01*
X228131Y523644D01*
D02*
G37*
G36*
X218137D02*
X216526D01*
X215038Y523028D01*
X213900Y521889D01*
X213283Y520402D01*
Y518791D01*
X213900Y517303D01*
X215038Y516165D01*
X216526Y515548D01*
X218137D01*
X219624Y516165D01*
X220763Y517303D01*
X221379Y518791D01*
Y520402D01*
X220763Y521889D01*
X219624Y523028D01*
X218137Y523644D01*
D02*
G37*
G36*
X464877Y577111D02*
X463570D01*
X462363Y576610D01*
X461438Y575686D01*
X460938Y574479D01*
Y573172D01*
X461438Y571965D01*
X462363Y571041D01*
X463570Y570541D01*
X464877D01*
X466084Y571041D01*
X467008Y571965D01*
X467508Y573172D01*
Y574479D01*
X467008Y575686D01*
X466084Y576610D01*
X464877Y577111D01*
D02*
G37*
G36*
X287673Y456675D02*
X286367D01*
X285159Y456175D01*
X284235Y455251D01*
X283735Y454043D01*
Y452737D01*
X284235Y451529D01*
X285159Y450605D01*
X286367Y450105D01*
X287673D01*
X288881Y450605D01*
X289805Y451529D01*
X290305Y452737D01*
Y454043D01*
X289805Y455251D01*
X288881Y456175D01*
X287673Y456675D01*
D02*
G37*
G36*
X230031Y597920D02*
X228725D01*
X227517Y597420D01*
X226593Y596496D01*
X226093Y595289D01*
Y593982D01*
X226593Y592775D01*
X227517Y591850D01*
X228725Y591350D01*
X230031D01*
X231239Y591850D01*
X232163Y592775D01*
X232663Y593982D01*
Y595289D01*
X232163Y596496D01*
X231239Y597420D01*
X230031Y597920D01*
D02*
G37*
G36*
X247033Y597350D02*
X245727D01*
X244519Y596850D01*
X243595Y595926D01*
X243095Y594719D01*
Y593412D01*
X243595Y592205D01*
X244519Y591281D01*
X245727Y590780D01*
X247033D01*
X248241Y591281D01*
X249165Y592205D01*
X249665Y593412D01*
Y594719D01*
X249165Y595926D01*
X248241Y596850D01*
X247033Y597350D01*
D02*
G37*
G36*
X538749Y591045D02*
X537442D01*
X536234Y590544D01*
X535310Y589620D01*
X534810Y588412D01*
Y587105D01*
X535310Y585897D01*
X536234Y584973D01*
X537442Y584473D01*
X538749D01*
X539957Y584973D01*
X540882Y585897D01*
X541382Y587105D01*
Y588412D01*
X540882Y589620D01*
X539957Y590544D01*
X538749Y591045D01*
D02*
G37*
G36*
X473499Y556998D02*
X472192D01*
X470985Y556498D01*
X470061Y555574D01*
X469561Y554367D01*
Y553060D01*
X470061Y551852D01*
X470985Y550928D01*
X472192Y550428D01*
X473499D01*
X474706Y550928D01*
X475630Y551852D01*
X476130Y553060D01*
Y554367D01*
X475630Y555574D01*
X474706Y556498D01*
X473499Y556998D01*
D02*
G37*
G36*
X420325Y556618D02*
X419018D01*
X417811Y556118D01*
X416886Y555194D01*
X416386Y553986D01*
Y552679D01*
X415586Y551999D01*
X414553Y551571D01*
X413629Y550647D01*
X413129Y549440D01*
Y548133D01*
X413629Y546925D01*
X414553Y546001D01*
X415760Y545501D01*
X417067D01*
X418275Y546001D01*
X419199Y546925D01*
X419699Y548133D01*
Y549439D01*
X420499Y550120D01*
X421532Y550548D01*
X422456Y551472D01*
X422956Y552679D01*
Y553986D01*
X422456Y555194D01*
X421532Y556118D01*
X420325Y556618D01*
D02*
G37*
G36*
X426856Y551951D02*
X425549D01*
X424342Y551451D01*
X423418Y550527D01*
X422917Y549320D01*
Y548013D01*
X422365Y547186D01*
X421963D01*
X420756Y546686D01*
X419831Y545762D01*
X419331Y544554D01*
Y543248D01*
X419831Y542040D01*
X420756Y541116D01*
X421963Y540616D01*
X423270D01*
X424477Y541116D01*
X425401Y542040D01*
X425901Y543248D01*
Y544554D01*
X426454Y545381D01*
X426856D01*
X428063Y545881D01*
X428987Y546805D01*
X429487Y548013D01*
Y549320D01*
X428987Y550527D01*
X428063Y551451D01*
X426856Y551951D01*
D02*
G37*
G36*
X328575Y541274D02*
X327268D01*
X326060Y540774D01*
X325136Y539850D01*
X324636Y538643D01*
Y537336D01*
X325136Y536129D01*
X326060Y535205D01*
X327268Y534704D01*
X328575D01*
X329782Y535205D01*
X330706Y536129D01*
X331206Y537336D01*
Y538643D01*
X330706Y539850D01*
X329782Y540774D01*
X328575Y541274D01*
D02*
G37*
G36*
X329021Y530379D02*
X327715D01*
X326507Y529879D01*
X325583Y528955D01*
X325083Y527747D01*
Y526441D01*
X325583Y525233D01*
X326507Y524309D01*
X327715Y523809D01*
X329021D01*
X330229Y524309D01*
X331153Y525233D01*
X331653Y526441D01*
Y527747D01*
X331153Y528955D01*
X330229Y529879D01*
X329021Y530379D01*
D02*
G37*
G36*
X338331Y519005D02*
X337024D01*
X335816Y518505D01*
X334892Y517580D01*
X334392Y516373D01*
Y515065D01*
X334892Y513858D01*
X335816Y512933D01*
X337024Y512433D01*
X338331D01*
X339539Y512933D01*
X340463Y513858D01*
X340964Y515065D01*
Y516373D01*
X340463Y517580D01*
X339539Y518505D01*
X338331Y519005D01*
D02*
G37*
G36*
X289594Y511343D02*
X288287D01*
X287080Y510843D01*
X286155Y509919D01*
X285655Y508711D01*
Y507404D01*
X286155Y506197D01*
X287080Y505273D01*
X288287Y504773D01*
X289594D01*
X290801Y505273D01*
X291725Y506197D01*
X292225Y507404D01*
Y508711D01*
X291725Y509919D01*
X290801Y510843D01*
X289594Y511343D01*
D02*
G37*
G36*
X289482Y527713D02*
X288175D01*
X286968Y527213D01*
X286044Y526288D01*
X285544Y525081D01*
Y523774D01*
X286044Y522567D01*
X286968Y521643D01*
X288175Y521143D01*
X289482D01*
X290690Y521643D01*
X290901Y521854D01*
X301276D01*
X303496Y519634D01*
Y495096D01*
X302464Y494063D01*
X290961D01*
X290486Y494539D01*
X289278Y495039D01*
X287971D01*
X286764Y494539D01*
X285840Y493615D01*
X285340Y492407D01*
Y491101D01*
X285840Y489893D01*
X286764Y488969D01*
X287971Y488469D01*
X289278D01*
X290359Y488917D01*
X303530D01*
X304515Y489112D01*
X305350Y489670D01*
X307890Y492210D01*
X308448Y493045D01*
X308643Y494030D01*
Y520700D01*
X308448Y521685D01*
X307890Y522520D01*
X304162Y526247D01*
X303327Y526805D01*
X302342Y527001D01*
X290901D01*
X290690Y527213D01*
X289482Y527713D01*
D02*
G37*
G36*
X310057Y481880D02*
X308750D01*
X307543Y481380D01*
X306618Y480456D01*
X306118Y479249D01*
Y477942D01*
X306618Y476735D01*
X307543Y475811D01*
X308750Y475310D01*
X310057D01*
X311264Y475811D01*
X312188Y476735D01*
X312688Y477942D01*
Y479249D01*
X312188Y480456D01*
X311264Y481380D01*
X310057Y481880D01*
D02*
G37*
G36*
X161721Y476600D02*
X160415D01*
X159207Y476100D01*
X158283Y475176D01*
X157783Y473968D01*
Y472662D01*
X158283Y471454D01*
X159207Y470530D01*
X160415Y470030D01*
X161721D01*
X162929Y470530D01*
X163853Y471454D01*
X164353Y472662D01*
Y473968D01*
X163853Y475176D01*
X162929Y476100D01*
X161721Y476600D01*
D02*
G37*
G36*
X148178Y434282D02*
X146871D01*
X145664Y433782D01*
X144740Y432858D01*
X144240Y431650D01*
Y430343D01*
X144740Y429136D01*
X145664Y428212D01*
X146871Y427712D01*
X148178D01*
X149385Y428212D01*
X150309Y429136D01*
X150809Y430343D01*
Y431650D01*
X150309Y432858D01*
X149385Y433782D01*
X148178Y434282D01*
D02*
G37*
G36*
X148178Y425626D02*
X146871D01*
X145663Y425126D01*
X144739Y424202D01*
X144239Y422994D01*
Y421687D01*
X144739Y420479D01*
X145663Y419555D01*
X146871Y419054D01*
X148178D01*
X149386Y419555D01*
X150310Y420479D01*
X150810Y421687D01*
Y422994D01*
X150310Y424202D01*
X149386Y425126D01*
X148178Y425626D01*
D02*
G37*
G36*
X174566Y425599D02*
X173259D01*
X172051Y425099D01*
X171126Y424174D01*
X170626Y422966D01*
Y421659D01*
X171126Y420452D01*
X172051Y419527D01*
X173259Y419027D01*
X174566D01*
X175774Y419527D01*
X176698Y420452D01*
X177198Y421659D01*
Y422966D01*
X176698Y424174D01*
X175774Y425099D01*
X174566Y425599D01*
D02*
G37*
G36*
X621211Y526637D02*
X619904D01*
X618697Y526137D01*
X617773Y525213D01*
X617273Y524006D01*
Y522699D01*
X617773Y521492D01*
X618697Y520568D01*
X619904Y520067D01*
X621211D01*
X622419Y520568D01*
X623343Y521492D01*
X623843Y522699D01*
Y524006D01*
X623343Y525213D01*
X622419Y526137D01*
X621211Y526637D01*
D02*
G37*
G36*
X506232Y518895D02*
X504925D01*
X503717Y518395D01*
X502793Y517471D01*
X502487Y516732D01*
X501429Y516674D01*
X500505Y517598D01*
X499297Y518098D01*
X497991D01*
X496783Y517598D01*
X495859Y516674D01*
X495359Y515467D01*
Y514160D01*
X495859Y512952D01*
X496783Y512029D01*
X497991Y511528D01*
X499297D01*
X500505Y512029D01*
X501429Y512952D01*
X501735Y513690D01*
X502793Y513748D01*
X503717Y512824D01*
X504925Y512323D01*
X506232D01*
X507440Y512824D01*
X508365Y513748D01*
X508865Y514956D01*
Y516263D01*
X508365Y517471D01*
X507440Y518395D01*
X506232Y518895D01*
D02*
G37*
G36*
X443361Y506889D02*
X442054D01*
X440846Y506389D01*
X439922Y505464D01*
X439422Y504257D01*
Y502949D01*
X439922Y501742D01*
X440846Y500817D01*
X442054Y500317D01*
X443361D01*
X444569Y500817D01*
X445494Y501742D01*
X445994Y502949D01*
Y504257D01*
X445494Y505464D01*
X444569Y506389D01*
X443361Y506889D01*
D02*
G37*
G36*
X590797Y506061D02*
X589490D01*
X588283Y505561D01*
X587358Y504637D01*
X586858Y503429D01*
Y502122D01*
X587358Y500915D01*
X588283Y499991D01*
X589490Y499491D01*
X590797D01*
X592004Y499991D01*
X592928Y500915D01*
X593428Y502122D01*
Y503429D01*
X592928Y504637D01*
X592004Y505561D01*
X590797Y506061D01*
D02*
G37*
G36*
X571183Y505606D02*
X569876D01*
X568669Y505105D01*
X567745Y504181D01*
X567245Y502974D01*
Y501667D01*
X567745Y500460D01*
X568669Y499536D01*
X569876Y499036D01*
X571183D01*
X572391Y499536D01*
X573315Y500460D01*
X573815Y501667D01*
Y502974D01*
X573315Y504181D01*
X572391Y505105D01*
X571183Y505606D01*
D02*
G37*
G36*
X519184D02*
X517877D01*
X516670Y505105D01*
X515746Y504181D01*
X515246Y502974D01*
Y501667D01*
X515746Y500460D01*
X516670Y499536D01*
X517877Y499036D01*
X519184D01*
X520392Y499536D01*
X521316Y500460D01*
X521816Y501667D01*
Y502974D01*
X521316Y504181D01*
X520392Y505105D01*
X519184Y505606D01*
D02*
G37*
G36*
X486685D02*
X485378D01*
X484171Y505105D01*
X483247Y504181D01*
X482747Y502974D01*
Y501667D01*
X483247Y500460D01*
X484171Y499536D01*
X485378Y499036D01*
X486685D01*
X487892Y499536D01*
X488816Y500460D01*
X489316Y501667D01*
Y502974D01*
X488816Y504181D01*
X487892Y505105D01*
X486685Y505606D01*
D02*
G37*
G36*
X551684Y512105D02*
X550377D01*
X549169Y511605D01*
X548245Y510681D01*
X547745Y509474D01*
Y508167D01*
X548245Y506960D01*
X549169Y506035D01*
X550377Y505535D01*
X551684D01*
X552891Y506035D01*
X553707Y506852D01*
X554282Y506911D01*
X554853Y506851D01*
X555562Y506142D01*
X555621Y505569D01*
X555562Y504997D01*
X554745Y504180D01*
X554245Y502973D01*
Y501666D01*
X554745Y500459D01*
X555670Y499535D01*
X556877Y499035D01*
X558184D01*
X559391Y499535D01*
X560315Y500459D01*
X560815Y501666D01*
Y502973D01*
X560315Y504180D01*
X559499Y504997D01*
X559439Y505569D01*
X559499Y506142D01*
X560315Y506959D01*
X560815Y508166D01*
Y509473D01*
X560315Y510680D01*
X559391Y511604D01*
X558184Y512104D01*
X556877D01*
X555670Y511604D01*
X554853Y510788D01*
X554279Y510729D01*
X553708Y510788D01*
X552891Y511605D01*
X551684Y512105D01*
D02*
G37*
G36*
X583853Y499327D02*
X582546D01*
X581338Y498827D01*
X580657Y498145D01*
X580267Y497930D01*
X579408Y498087D01*
X578891Y498604D01*
X577684Y499104D01*
X576377D01*
X575169Y498604D01*
X574245Y497680D01*
X573745Y496473D01*
Y495166D01*
X574245Y493959D01*
X575169Y493035D01*
X576377Y492534D01*
X577684D01*
X578891Y493035D01*
X579573Y493716D01*
X579963Y493932D01*
X580821Y493774D01*
X581338Y493257D01*
X582546Y492757D01*
X583853D01*
X585060Y493257D01*
X585762Y493959D01*
X586664Y493872D01*
X586882Y493773D01*
X587186Y493039D01*
X588110Y492115D01*
X589317Y491615D01*
X590624D01*
X591832Y492115D01*
X592756Y493039D01*
X593256Y494247D01*
Y495554D01*
X592756Y496761D01*
X591832Y497685D01*
X590624Y498185D01*
X589317D01*
X588110Y497685D01*
X587408Y496983D01*
X586506Y497070D01*
X586288Y497169D01*
X585984Y497903D01*
X585060Y498827D01*
X583853Y499327D01*
D02*
G37*
G36*
X527537Y501160D02*
X526231D01*
X525023Y500660D01*
X524099Y499736D01*
X523599Y498528D01*
Y497222D01*
X524099Y496014D01*
X525023Y495090D01*
X526231Y494590D01*
X527537D01*
X528745Y495090D01*
X529669Y496014D01*
X530169Y497222D01*
Y498528D01*
X529669Y499736D01*
X528745Y500660D01*
X527537Y501160D01*
D02*
G37*
G36*
X538684Y505606D02*
X537377D01*
X536170Y505105D01*
X535246Y504181D01*
X534745Y502974D01*
Y501667D01*
X535246Y500460D01*
X536170Y499536D01*
X536479Y499407D01*
X537025Y498112D01*
X536914Y497843D01*
Y496536D01*
X537414Y495328D01*
X538338Y494403D01*
X539546Y493903D01*
X540853D01*
X542061Y494403D01*
X542986Y495328D01*
X543486Y496536D01*
Y497843D01*
X542986Y499051D01*
X542061Y499975D01*
X540854Y500475D01*
X540834Y500505D01*
X541315Y501667D01*
Y502974D01*
X540815Y504181D01*
X539891Y505105D01*
X538684Y505606D01*
D02*
G37*
G36*
X551684Y499106D02*
X550377D01*
X549169Y498606D01*
X548245Y497682D01*
X547745Y496474D01*
Y495167D01*
X548245Y493960D01*
X549169Y493036D01*
X550377Y492536D01*
X551684D01*
X552891Y493036D01*
X553815Y493960D01*
X554315Y495167D01*
Y496474D01*
X553815Y497682D01*
X552891Y498606D01*
X551684Y499106D01*
D02*
G37*
G36*
X512684D02*
X511378D01*
X510170Y498606D01*
X509246Y497682D01*
X508746Y496474D01*
Y495167D01*
X509246Y493960D01*
X510170Y493036D01*
X511378Y492536D01*
X512684D01*
X513892Y493036D01*
X514816Y493960D01*
X515316Y495167D01*
Y496474D01*
X514816Y497682D01*
X513892Y498606D01*
X512684Y499106D01*
D02*
G37*
G36*
X499685Y505606D02*
X498378D01*
X497170Y505105D01*
X496246Y504181D01*
X495746Y502974D01*
Y501667D01*
X496246Y500460D01*
X497063Y499643D01*
X497122Y499071D01*
X497063Y498498D01*
X496246Y497682D01*
X495746Y496474D01*
Y495167D01*
X496246Y493960D01*
X497170Y493036D01*
X498378Y492536D01*
X499685D01*
X500892Y493036D01*
X501816Y493960D01*
X502316Y495167D01*
Y496474D01*
X501816Y497682D01*
X501000Y498498D01*
X500940Y499071D01*
X501000Y499643D01*
X501816Y500460D01*
X502316Y501667D01*
Y502974D01*
X501816Y504181D01*
X500892Y505105D01*
X499685Y505606D01*
D02*
G37*
G36*
X564215Y498667D02*
X562908D01*
X561701Y498167D01*
X560777Y497243D01*
X560276Y496036D01*
Y494729D01*
X560777Y493522D01*
X561701Y492598D01*
X562908Y492097D01*
X564215D01*
X565422Y492598D01*
X566346Y493522D01*
X566847Y494729D01*
Y496036D01*
X566346Y497243D01*
X565422Y498167D01*
X564215Y498667D01*
D02*
G37*
G36*
X603846Y492762D02*
X602539D01*
X601332Y492262D01*
X600408Y491338D01*
X599908Y490131D01*
Y488824D01*
X600408Y487616D01*
X601332Y486692D01*
X602539Y486192D01*
X603846D01*
X605053Y486692D01*
X605978Y487616D01*
X606478Y488824D01*
Y490131D01*
X605978Y491338D01*
X605053Y492262D01*
X603846Y492762D01*
D02*
G37*
G36*
X426104Y489696D02*
X424796D01*
X423589Y489196D01*
X422664Y488271D01*
X422164Y487064D01*
Y485756D01*
X422664Y484549D01*
X423589Y483624D01*
X424796Y483124D01*
X426104D01*
X427311Y483624D01*
X428236Y484549D01*
X428736Y485756D01*
Y487064D01*
X428236Y488271D01*
X427311Y489196D01*
X426104Y489696D01*
D02*
G37*
G36*
X616870Y487068D02*
X615564D01*
X614356Y486568D01*
X613432Y485644D01*
X612932Y484437D01*
Y483130D01*
X613432Y481923D01*
X614356Y480998D01*
X615564Y480498D01*
X616870D01*
X618078Y480998D01*
X619002Y481923D01*
X619502Y483130D01*
Y484437D01*
X619002Y485644D01*
X618078Y486568D01*
X616870Y487068D01*
D02*
G37*
G36*
X590109Y486146D02*
X588802D01*
X587594Y485646D01*
X586670Y484722D01*
X586170Y483515D01*
Y482208D01*
X586670Y481001D01*
X587594Y480076D01*
X588802Y479576D01*
X590109D01*
X591316Y480076D01*
X592240Y481001D01*
X592740Y482208D01*
Y483515D01*
X592240Y484722D01*
X591316Y485646D01*
X590109Y486146D01*
D02*
G37*
G36*
X476250Y477520D02*
X486410Y467360D01*
D01*
X476250Y477520D01*
D02*
G37*
G36*
X536229Y468383D02*
X534923D01*
X533715Y467883D01*
X532791Y466959D01*
X532291Y465752D01*
Y464445D01*
X532791Y463237D01*
X533715Y462313D01*
X534923Y461813D01*
X536229D01*
X537437Y462313D01*
X538361Y463237D01*
X538861Y464445D01*
Y465752D01*
X538361Y466959D01*
X537437Y467883D01*
X536229Y468383D01*
D02*
G37*
G36*
X589830Y466516D02*
X588523D01*
X587316Y466016D01*
X586392Y465091D01*
X585892Y463884D01*
Y462577D01*
X586392Y461370D01*
X587316Y460446D01*
X588523Y459946D01*
X589830D01*
X591037Y460446D01*
X591962Y461370D01*
X592462Y462577D01*
Y463884D01*
X591962Y465091D01*
X591037Y466016D01*
X589830Y466516D01*
D02*
G37*
G36*
X567440Y470796D02*
X566133D01*
X564926Y470295D01*
X564002Y469371D01*
X563501Y468164D01*
Y466857D01*
X563582Y466663D01*
X563360Y466301D01*
X562857Y465799D01*
X561746D01*
X560538Y465299D01*
X559614Y464375D01*
X559114Y463168D01*
Y461861D01*
X559614Y460654D01*
X560538Y459730D01*
X561746Y459230D01*
X563053D01*
X564260Y459730D01*
X565184Y460654D01*
X565684Y461861D01*
Y463168D01*
X565604Y463363D01*
X565825Y463724D01*
X566329Y464226D01*
X567440D01*
X568647Y464726D01*
X569571Y465650D01*
X570071Y466857D01*
Y468164D01*
X569571Y469371D01*
X568647Y470295D01*
X567440Y470796D01*
D02*
G37*
G36*
X578438Y462596D02*
X577131D01*
X575924Y462095D01*
X575000Y461171D01*
X574500Y459964D01*
Y458657D01*
X575000Y457450D01*
X575924Y456526D01*
X577131Y456026D01*
X578438D01*
X579645Y456526D01*
X580569Y457450D01*
X581070Y458657D01*
Y459964D01*
X580569Y461171D01*
X579645Y462095D01*
X578438Y462596D01*
D02*
G37*
G36*
X522723Y476286D02*
X521416D01*
X520208Y475786D01*
X519284Y474862D01*
X518784Y473655D01*
Y472348D01*
X519284Y471140D01*
X519703Y470722D01*
X520080Y470013D01*
X519703Y469415D01*
X519233Y468945D01*
X518733Y467738D01*
Y466431D01*
X519233Y465223D01*
X520157Y464299D01*
X521365Y463799D01*
X522671D01*
X522808Y463856D01*
X523443Y463431D01*
X523944Y462224D01*
X524868Y461299D01*
X526075Y460799D01*
X526262D01*
X526930Y459799D01*
X526839Y459579D01*
Y458273D01*
X527339Y457065D01*
X528263Y456141D01*
X529471Y455641D01*
X530778D01*
X531985Y456141D01*
X532909Y457065D01*
X533409Y458273D01*
Y459579D01*
X532909Y460787D01*
X531985Y461711D01*
X530778Y462211D01*
X530591D01*
X529922Y463211D01*
X530014Y463431D01*
Y464738D01*
X529513Y465945D01*
X528589Y466869D01*
X527382Y467369D01*
X526075D01*
X525939Y467313D01*
X525303Y467738D01*
X524803Y468945D01*
X524384Y469364D01*
X524007Y470072D01*
X524384Y470670D01*
X524854Y471140D01*
X525354Y472348D01*
Y473655D01*
X524854Y474862D01*
X523930Y475786D01*
X522723Y476286D01*
D02*
G37*
G36*
X546753Y460559D02*
X545447D01*
X544239Y460059D01*
X543315Y459135D01*
X542815Y457927D01*
Y456620D01*
X543315Y455413D01*
X544239Y454489D01*
X545447Y453989D01*
X546753D01*
X547961Y454489D01*
X548885Y455413D01*
X549385Y456620D01*
Y457927D01*
X548885Y459135D01*
X547961Y460059D01*
X546753Y460559D01*
D02*
G37*
G36*
X501239Y473738D02*
X499932D01*
X498725Y473238D01*
X497801Y472314D01*
X497301Y471106D01*
Y469800D01*
X497801Y468592D01*
X498725Y467668D01*
X499621Y467297D01*
X499949Y467094D01*
X500154Y466168D01*
X499917Y465596D01*
Y464289D01*
X500417Y463082D01*
X501341Y462158D01*
X502548Y461658D01*
X503422D01*
X503644Y461326D01*
Y460019D01*
X504144Y458812D01*
X505068Y457888D01*
X506275Y457388D01*
X507582D01*
X507770Y457465D01*
X508057Y457333D01*
X508679Y456759D01*
Y455740D01*
X509179Y454533D01*
X510103Y453609D01*
X511310Y453108D01*
X512617D01*
X513825Y453609D01*
X514749Y454533D01*
X515249Y455740D01*
Y457047D01*
X514749Y458254D01*
X513825Y459178D01*
X512617Y459678D01*
X511310D01*
X511123Y459601D01*
X510835Y459733D01*
X510214Y460307D01*
Y461326D01*
X509714Y462533D01*
X508789Y463457D01*
X507582Y463957D01*
X506709D01*
X506487Y464289D01*
Y465596D01*
X505987Y466804D01*
X505063Y467728D01*
X504166Y468099D01*
X503839Y468302D01*
X503634Y469228D01*
X503871Y469800D01*
Y471106D01*
X503371Y472314D01*
X502447Y473238D01*
X501239Y473738D01*
D02*
G37*
G36*
X584843Y456790D02*
X583536D01*
X582329Y456290D01*
X581405Y455366D01*
X580905Y454159D01*
Y452852D01*
X581405Y451644D01*
X582329Y450720D01*
X583536Y450220D01*
X584843D01*
X586051Y450720D01*
X586975Y451644D01*
X587475Y452852D01*
Y454159D01*
X586975Y455366D01*
X586051Y456290D01*
X584843Y456790D01*
D02*
G37*
G36*
X584600Y448093D02*
X583293D01*
X582086Y447593D01*
X581162Y446669D01*
X580662Y445462D01*
Y444155D01*
X581162Y442947D01*
X582086Y442023D01*
X583293Y441523D01*
X584600D01*
X585807Y442023D01*
X586731Y442947D01*
X587232Y444155D01*
Y445462D01*
X586731Y446669D01*
X585807Y447593D01*
X584600Y448093D01*
D02*
G37*
G36*
X577795Y443710D02*
X576488D01*
X575281Y443210D01*
X574357Y442286D01*
X573857Y441079D01*
Y439772D01*
X574357Y438564D01*
X575281Y437640D01*
X576488Y437140D01*
X577795D01*
X579002Y437640D01*
X579926Y438564D01*
X580427Y439772D01*
Y441079D01*
X579926Y442286D01*
X579002Y443210D01*
X577795Y443710D01*
D02*
G37*
G36*
X538023Y437929D02*
X536716D01*
X535509Y437429D01*
X534585Y436505D01*
X534085Y435298D01*
Y433991D01*
X534585Y432783D01*
X535509Y431859D01*
X536716Y431359D01*
X538023D01*
X539230Y431859D01*
X539748Y432377D01*
X540908Y432189D01*
X540994Y431982D01*
X541918Y431058D01*
X543126Y430558D01*
X544432D01*
X545640Y431058D01*
X546564Y431982D01*
X547064Y433189D01*
Y434496D01*
X546564Y435703D01*
X545640Y436628D01*
X544432Y437128D01*
X543126D01*
X541918Y436628D01*
X541400Y436110D01*
X540240Y436298D01*
X540154Y436505D01*
X539230Y437429D01*
X538023Y437929D01*
D02*
G37*
G36*
X579640Y434464D02*
X578334D01*
X577126Y433963D01*
X576202Y433039D01*
X575702Y431832D01*
Y430525D01*
X576202Y429318D01*
X577126Y428394D01*
X578334Y427894D01*
X579640D01*
X580848Y428394D01*
X581772Y429318D01*
X582272Y430525D01*
Y431832D01*
X581772Y433039D01*
X580848Y433963D01*
X579640Y434464D01*
D02*
G37*
G36*
X526008Y429511D02*
X524702D01*
X523494Y429011D01*
X522570Y428087D01*
X522400Y427677D01*
X521322Y427667D01*
X520398Y428591D01*
X519191Y429091D01*
X517884D01*
X516676Y428591D01*
X515752Y427667D01*
X515252Y426460D01*
Y425153D01*
X515752Y423946D01*
X516676Y423022D01*
X517884Y422522D01*
X519191D01*
X520398Y423022D01*
X521322Y423946D01*
X521492Y424356D01*
X522570Y424366D01*
X523494Y423442D01*
X524702Y422941D01*
X526008D01*
X527216Y423442D01*
X528140Y424366D01*
X528640Y425573D01*
Y426880D01*
X528140Y428087D01*
X527216Y429011D01*
X526008Y429511D01*
D02*
G37*
G36*
X576180Y427332D02*
X574874D01*
X573666Y426832D01*
X572742Y425908D01*
X572242Y424701D01*
Y423394D01*
X572742Y422186D01*
X573666Y421262D01*
X574874Y420762D01*
X576180D01*
X577388Y421262D01*
X578312Y422186D01*
X578812Y423394D01*
Y424701D01*
X578312Y425908D01*
X577388Y426832D01*
X576180Y427332D01*
D02*
G37*
G36*
X574676Y417644D02*
X573370D01*
X572162Y417144D01*
X571238Y416219D01*
X570738Y415012D01*
Y413705D01*
X571238Y412498D01*
X572162Y411574D01*
X573370Y411074D01*
X574676D01*
X575884Y411574D01*
X576808Y412498D01*
X577308Y413705D01*
Y415012D01*
X576808Y416219D01*
X575884Y417144D01*
X574676Y417644D01*
D02*
G37*
G36*
X596713Y394352D02*
X595407D01*
X594199Y393852D01*
X593275Y392928D01*
X592775Y391720D01*
Y390414D01*
X593275Y389206D01*
X594199Y388282D01*
X595407Y387782D01*
X596713D01*
X597921Y388282D01*
X598845Y389206D01*
X599345Y390414D01*
Y391720D01*
X598845Y392928D01*
X597921Y393852D01*
X596713Y394352D01*
D02*
G37*
G36*
X511000Y385169D02*
X509693D01*
X508486Y384669D01*
X507562Y383745D01*
X507062Y382537D01*
Y381231D01*
X507562Y380023D01*
X508486Y379099D01*
X509693Y378599D01*
X511000D01*
X512208Y379099D01*
X513132Y380023D01*
X513632Y381231D01*
Y382537D01*
X513132Y383745D01*
X512208Y384669D01*
X511000Y385169D01*
D02*
G37*
G36*
X573864Y383151D02*
X572557D01*
X571349Y382651D01*
X570425Y381727D01*
X569925Y380520D01*
Y379213D01*
X570425Y378006D01*
X571349Y377081D01*
X572557Y376581D01*
X573864D01*
X575071Y377081D01*
X575995Y378006D01*
X576495Y379213D01*
Y380520D01*
X575995Y381727D01*
X575071Y382651D01*
X573864Y383151D01*
D02*
G37*
G36*
X526093Y379088D02*
X524786D01*
X523578Y378588D01*
X522654Y377664D01*
X522154Y376456D01*
Y375149D01*
X522654Y373942D01*
X523578Y373018D01*
X524786Y372518D01*
X526093D01*
X527300Y373018D01*
X528224Y373942D01*
X528724Y375149D01*
Y376456D01*
X528224Y377664D01*
X527300Y378588D01*
X526093Y379088D01*
D02*
G37*
G36*
X499104Y378898D02*
X497797D01*
X496590Y378398D01*
X495666Y377474D01*
X495166Y376267D01*
Y374960D01*
X495666Y373753D01*
X496590Y372828D01*
X497797Y372328D01*
X499104D01*
X500311Y372828D01*
X501236Y373753D01*
X501736Y374960D01*
Y376267D01*
X501236Y377474D01*
X500311Y378398D01*
X499104Y378898D01*
D02*
G37*
G36*
X533657Y371998D02*
X532350D01*
X531143Y371498D01*
X530219Y370574D01*
X529718Y369366D01*
Y368060D01*
X530219Y366852D01*
X531143Y365928D01*
X532350Y365428D01*
X533657D01*
X534864Y365928D01*
X535788Y366852D01*
X536288Y368060D01*
Y369366D01*
X535788Y370574D01*
X534864Y371498D01*
X533657Y371998D01*
D02*
G37*
G36*
X573026Y370996D02*
X571719D01*
X570512Y370496D01*
X569588Y369572D01*
X569087Y368364D01*
Y367058D01*
X569588Y365850D01*
X570512Y364926D01*
X571719Y364426D01*
X573026D01*
X574233Y364926D01*
X575157Y365850D01*
X575657Y367058D01*
Y368364D01*
X575157Y369572D01*
X574233Y370496D01*
X573026Y370996D01*
D02*
G37*
G36*
X520356Y371866D02*
X519049D01*
X517842Y371366D01*
X516918Y370442D01*
X516418Y369235D01*
Y367928D01*
X516918Y366720D01*
X517842Y365796D01*
X519049Y365296D01*
X520356D01*
X521557Y365794D01*
X521960Y365953D01*
X522629Y365820D01*
X523553Y364896D01*
X524760Y364395D01*
X526067D01*
X527274Y364896D01*
X528198Y365820D01*
X528698Y367027D01*
Y368334D01*
X528198Y369541D01*
X527274Y370465D01*
X526067Y370965D01*
X524760D01*
X523559Y370468D01*
X523156Y370309D01*
X522487Y370442D01*
X521563Y371366D01*
X520356Y371866D01*
D02*
G37*
G36*
X559128Y371182D02*
X557821D01*
X556614Y370682D01*
X555690Y369758D01*
X555190Y368551D01*
Y367244D01*
X555690Y366037D01*
X556614Y365113D01*
X557821Y364613D01*
X559128D01*
X560335Y365113D01*
X560405Y365182D01*
X561728Y365091D01*
X562165Y364655D01*
X563372Y364155D01*
X564679D01*
X565886Y364655D01*
X566811Y365579D01*
X567311Y366786D01*
Y368093D01*
X566811Y369300D01*
X565886Y370224D01*
X564679Y370725D01*
X563372D01*
X562165Y370224D01*
X562095Y370155D01*
X560772Y370246D01*
X560335Y370682D01*
X559128Y371182D01*
D02*
G37*
G36*
X571478Y363079D02*
X570171D01*
X568963Y362579D01*
X568109Y361725D01*
X567577Y361683D01*
X566984Y361720D01*
X566136Y362567D01*
X564929Y363067D01*
X563622D01*
X562415Y362567D01*
X561987Y362140D01*
X561453Y361666D01*
X560681Y362140D01*
X560371Y362450D01*
X559163Y362950D01*
X557857D01*
X556649Y362450D01*
X555725Y361526D01*
X555512Y361483D01*
X554801Y362195D01*
X553593Y362695D01*
X552287D01*
X551079Y362195D01*
X550155Y361271D01*
X549655Y360063D01*
Y358757D01*
X550155Y357549D01*
X551079Y356625D01*
X552287Y356125D01*
X553593D01*
X554801Y356625D01*
X555725Y357549D01*
X555938Y357592D01*
X556649Y356880D01*
X557857Y356380D01*
X559163D01*
X560371Y356880D01*
X560798Y357307D01*
X561333Y357781D01*
X562105Y357307D01*
X562415Y356997D01*
X563622Y356497D01*
X564929D01*
X566136Y356997D01*
X566991Y357851D01*
X567523Y357893D01*
X568116Y357856D01*
X568963Y357009D01*
X570171Y356509D01*
X571478D01*
X572685Y357009D01*
X573609Y357933D01*
X574109Y359140D01*
Y360447D01*
X573609Y361655D01*
X572685Y362579D01*
X571478Y363079D01*
D02*
G37*
G36*
X475388Y365125D02*
X474081D01*
X472873Y364625D01*
X471949Y363701D01*
X471449Y362493D01*
Y361187D01*
X471949Y359979D01*
X472873Y359055D01*
X474081Y358555D01*
X475388D01*
X476595Y359055D01*
X477519Y359979D01*
X478019Y361187D01*
Y362493D01*
X477519Y363701D01*
X476595Y364625D01*
X475388Y365125D01*
D02*
G37*
G36*
X611782Y363870D02*
X610475D01*
X609268Y363369D01*
X608344Y362445D01*
X607843Y361238D01*
Y359931D01*
X608344Y358724D01*
X609268Y357800D01*
X610475Y357299D01*
X611782D01*
X612989Y357800D01*
X613913Y358724D01*
X614413Y359931D01*
Y361238D01*
X613913Y362445D01*
X612989Y363369D01*
X611782Y363870D01*
D02*
G37*
G36*
X520356Y363457D02*
X519049D01*
X517842Y362957D01*
X516918Y362032D01*
X516418Y360825D01*
Y359518D01*
X516918Y358311D01*
X517842Y357387D01*
X519049Y356887D01*
X520356D01*
X521563Y357387D01*
X521709Y357532D01*
X523036Y357515D01*
X523414Y357137D01*
X524621Y356637D01*
X525928D01*
X527135Y357137D01*
X528059Y358061D01*
X529137Y358051D01*
X529345Y357549D01*
X530269Y356625D01*
X531477Y356125D01*
X532783D01*
X533991Y356625D01*
X534915Y357549D01*
X535415Y358757D01*
Y360063D01*
X534915Y361271D01*
X533991Y362195D01*
X532783Y362695D01*
X531477D01*
X530269Y362195D01*
X529345Y361271D01*
X528267Y361281D01*
X528059Y361783D01*
X527135Y362707D01*
X525928Y363207D01*
X524621D01*
X523414Y362707D01*
X523268Y362561D01*
X521941Y362579D01*
X521563Y362957D01*
X520356Y363457D01*
D02*
G37*
G36*
X525789Y355172D02*
X524482D01*
X523275Y354672D01*
X522351Y353748D01*
X521851Y352541D01*
Y351234D01*
X522351Y350027D01*
X523275Y349102D01*
X524482Y348602D01*
X525789D01*
X526997Y349102D01*
X527921Y350026D01*
X528975Y349959D01*
X529040Y349802D01*
X529964Y348878D01*
X531172Y348378D01*
X532479D01*
X533686Y348878D01*
X534610Y349802D01*
X535110Y351010D01*
Y352316D01*
X534610Y353524D01*
X533686Y354448D01*
X532479Y354948D01*
X531172D01*
X529964Y354448D01*
X529040Y353524D01*
X527986Y353591D01*
X527921Y353748D01*
X526997Y354672D01*
X525789Y355172D01*
D02*
G37*
G36*
X512150Y354897D02*
X510843D01*
X509636Y354397D01*
X508712Y353473D01*
X508212Y352266D01*
Y350959D01*
X508712Y349752D01*
X509636Y348827D01*
X510843Y348327D01*
X512150D01*
X513357Y348827D01*
X514281Y349752D01*
X514781Y350959D01*
Y352266D01*
X514281Y353473D01*
X513357Y354397D01*
X512150Y354897D01*
D02*
G37*
G36*
X564533Y355075D02*
X563227D01*
X562019Y354575D01*
X561095Y353651D01*
X560595Y352443D01*
Y351137D01*
X561095Y349929D01*
X562019Y349005D01*
X563227Y348505D01*
X564533D01*
X565741Y349005D01*
X566665Y349929D01*
X566987Y350708D01*
X568070D01*
X568393Y349926D01*
X569317Y349002D01*
X570525Y348502D01*
X571831D01*
X573039Y349002D01*
X573505Y349469D01*
X574391Y349653D01*
X574761Y349418D01*
X575426Y348752D01*
X576633Y348252D01*
X577940D01*
X579148Y348752D01*
X580072Y349676D01*
X580572Y350883D01*
Y352190D01*
X580072Y353398D01*
X579148Y354322D01*
X577940Y354822D01*
X576633D01*
X575426Y354322D01*
X574959Y353855D01*
X574073Y353671D01*
X573704Y353907D01*
X573039Y354572D01*
X571831Y355072D01*
X570525D01*
X569317Y354572D01*
X568393Y353648D01*
X568071Y352870D01*
X566988D01*
X566665Y353651D01*
X565741Y354575D01*
X564533Y355075D01*
D02*
G37*
G36*
X532878Y347019D02*
X531571D01*
X530364Y346519D01*
X529521Y345675D01*
X529246Y345594D01*
X528356Y345590D01*
X527633Y346313D01*
X526426Y346813D01*
X525119D01*
X523912Y346313D01*
X522988Y345389D01*
X522487Y344181D01*
Y342874D01*
X522988Y341667D01*
X523912Y340743D01*
X525119Y340243D01*
X526426D01*
X527633Y340743D01*
X528476Y341586D01*
X528751Y341668D01*
X529641Y341671D01*
X530364Y340949D01*
X531571Y340449D01*
X532878D01*
X534086Y340949D01*
X535010Y341873D01*
X535510Y343080D01*
Y344387D01*
X535010Y345594D01*
X534086Y346519D01*
X532878Y347019D01*
D02*
G37*
G36*
X283539Y352059D02*
X282232D01*
X281025Y351558D01*
X280100Y350634D01*
X279600Y349427D01*
Y348120D01*
X280100Y346913D01*
X281025Y345989D01*
X282232Y345489D01*
X283539D01*
X284746Y345989D01*
X285670Y346913D01*
X286170Y348120D01*
Y349427D01*
X285670Y350634D01*
X284746Y351558D01*
X283539Y352059D01*
D02*
G37*
G36*
X565135Y346696D02*
X563828D01*
X562620Y346195D01*
X561775Y345350D01*
X561508Y345270D01*
X560610Y345263D01*
X559888Y345985D01*
X558681Y346485D01*
X557374D01*
X556167Y345985D01*
X555243Y345061D01*
X554742Y343853D01*
Y342547D01*
X555243Y341339D01*
X556167Y340415D01*
X557374Y339915D01*
X558681D01*
X559888Y340415D01*
X560734Y341260D01*
X561000Y341341D01*
X561898Y341348D01*
X562620Y340626D01*
X563828Y340126D01*
X565135D01*
X566342Y340626D01*
X567266Y341550D01*
X567766Y342757D01*
Y344064D01*
X567266Y345271D01*
X566342Y346195D01*
X565135Y346696D01*
D02*
G37*
G36*
X275662Y343115D02*
X274355D01*
X273148Y342615D01*
X272223Y341690D01*
X271723Y340482D01*
Y339175D01*
X272223Y337967D01*
X273148Y337043D01*
X274355Y336543D01*
X275662D01*
X276870Y337043D01*
X277795Y337967D01*
X278295Y339175D01*
Y340482D01*
X277795Y341690D01*
X276870Y342615D01*
X275662Y343115D01*
D02*
G37*
G36*
X518902Y341141D02*
X517595D01*
X516388Y340641D01*
X515464Y339717D01*
X514964Y338509D01*
Y337203D01*
X515464Y335995D01*
X516388Y335071D01*
X517595Y334571D01*
X518902D01*
X520110Y335071D01*
X521034Y335995D01*
X521534Y337203D01*
Y338509D01*
X521034Y339717D01*
X520110Y340641D01*
X518902Y341141D01*
D02*
G37*
G36*
X534959Y337375D02*
X533652D01*
X532445Y336875D01*
X531521Y335951D01*
X531020Y334744D01*
Y333437D01*
X531521Y332230D01*
X532445Y331306D01*
X533652Y330806D01*
X534959D01*
X536166Y331306D01*
X537090Y332230D01*
X537590Y333437D01*
Y334744D01*
X537090Y335951D01*
X536166Y336875D01*
X534959Y337375D01*
D02*
G37*
G36*
X525976Y330945D02*
X524669D01*
X523462Y330445D01*
X522644Y329627D01*
X522072Y329568D01*
X521499Y329627D01*
X520681Y330445D01*
X519474Y330945D01*
X518167D01*
X516960Y330445D01*
X516035Y329521D01*
X515535Y328313D01*
Y327007D01*
X516035Y325799D01*
X516960Y324875D01*
X518167Y324375D01*
X519474D01*
X520681Y324875D01*
X521499Y325693D01*
X522072Y325752D01*
X522644Y325693D01*
X523462Y324875D01*
X524669Y324375D01*
X525976D01*
X527184Y324875D01*
X528108Y325799D01*
X528608Y327007D01*
Y328313D01*
X528108Y329521D01*
X527184Y330445D01*
X525976Y330945D01*
D02*
G37*
G36*
X494489Y332021D02*
X493182D01*
X491975Y331521D01*
X491051Y330596D01*
X490551Y329389D01*
Y328082D01*
X491051Y326875D01*
X491975Y325951D01*
X493182Y325451D01*
X494489D01*
X495696Y325951D01*
X496620Y326875D01*
X497121Y328082D01*
Y329389D01*
X496620Y330596D01*
X495696Y331521D01*
X494489Y332021D01*
D02*
G37*
G36*
X597510Y331013D02*
X596204D01*
X594996Y330513D01*
X594072Y329589D01*
X593572Y328382D01*
Y327075D01*
X594072Y325868D01*
X594996Y324944D01*
X596204Y324444D01*
X597510D01*
X598718Y324944D01*
X599642Y325868D01*
X600142Y327075D01*
Y328382D01*
X599642Y329589D01*
X598718Y330513D01*
X597510Y331013D01*
D02*
G37*
G36*
X506494Y330945D02*
X505188D01*
X503980Y330445D01*
X503056Y329521D01*
X502556Y328313D01*
Y327007D01*
X503056Y325799D01*
X503980Y324875D01*
X505188Y324375D01*
X506494D01*
X507702Y324875D01*
X508626Y325799D01*
X509126Y327007D01*
Y328313D01*
X508626Y329521D01*
X507702Y330445D01*
X506494Y330945D01*
D02*
G37*
G36*
X591066Y323206D02*
X589759D01*
X588552Y322706D01*
X587628Y321782D01*
X587128Y320574D01*
Y319268D01*
X587628Y318060D01*
X588552Y317136D01*
X589759Y316636D01*
X591066D01*
X592274Y317136D01*
X593198Y318060D01*
X593698Y319268D01*
Y320574D01*
X593198Y321782D01*
X592274Y322706D01*
X591066Y323206D01*
D02*
G37*
G36*
X519474Y322944D02*
X518167D01*
X516960Y322444D01*
X516035Y321520D01*
X515535Y320312D01*
Y319006D01*
X516035Y317798D01*
X516960Y316874D01*
X518167Y316374D01*
X519474D01*
X520681Y316874D01*
X521605Y317798D01*
X522105Y319006D01*
Y320312D01*
X521605Y321520D01*
X520681Y322444D01*
X519474Y322944D01*
D02*
G37*
G36*
X506494D02*
X505188D01*
X503980Y322444D01*
X503056Y321520D01*
X502556Y320312D01*
Y319006D01*
X503056Y317798D01*
X503980Y316874D01*
X505188Y316374D01*
X506494D01*
X507702Y316874D01*
X508626Y317798D01*
X509126Y319006D01*
Y320312D01*
X508626Y321520D01*
X507702Y322444D01*
X506494Y322944D01*
D02*
G37*
G36*
X568947Y320509D02*
X567640D01*
X566433Y320009D01*
X565509Y319085D01*
X565009Y317877D01*
Y316570D01*
X565244Y316003D01*
X564576Y315002D01*
X564105D01*
X562898Y314502D01*
X561974Y313578D01*
X561797Y313152D01*
X560715D01*
X560538Y313578D01*
X559614Y314502D01*
X558407Y315002D01*
X557100D01*
X555892Y314502D01*
X554968Y313578D01*
X554468Y312371D01*
Y311064D01*
X554968Y309857D01*
X555892Y308933D01*
X557100Y308433D01*
X558407D01*
X559614Y308933D01*
X560538Y309857D01*
X560715Y310283D01*
X561797D01*
X561974Y309857D01*
X562898Y308933D01*
X564105Y308433D01*
X565412D01*
X566619Y308933D01*
X567543Y309857D01*
X568043Y311064D01*
Y312371D01*
X567808Y312939D01*
X568476Y313939D01*
X568947D01*
X570155Y314439D01*
X571079Y315363D01*
X571579Y316570D01*
Y317877D01*
X571079Y319085D01*
X570155Y320009D01*
X568947Y320509D01*
D02*
G37*
G36*
X545731Y315634D02*
X544424D01*
X543217Y315134D01*
X542293Y314210D01*
X541792Y313003D01*
Y311696D01*
X542293Y310488D01*
X543217Y309564D01*
X544424Y309064D01*
X545731D01*
X546938Y309564D01*
X547862Y310488D01*
X548362Y311696D01*
Y313003D01*
X547862Y314210D01*
X546938Y315134D01*
X545731Y315634D01*
D02*
G37*
G36*
X519474Y314943D02*
X518167D01*
X516960Y314443D01*
X516035Y313519D01*
X515535Y312311D01*
Y311005D01*
X516035Y309797D01*
X516960Y308873D01*
X518167Y308373D01*
X519474D01*
X520681Y308873D01*
X521605Y309797D01*
X522105Y311005D01*
Y312311D01*
X521605Y313519D01*
X520681Y314443D01*
X519474Y314943D01*
D02*
G37*
G36*
X590975Y315499D02*
X589668D01*
X588461Y314999D01*
X587537Y314075D01*
X587036Y312868D01*
Y311561D01*
X586245Y310858D01*
X585251Y310446D01*
X584327Y309522D01*
X583827Y308314D01*
Y307008D01*
X584327Y305800D01*
X585251Y304876D01*
X586458Y304376D01*
X587765D01*
X588973Y304876D01*
X589897Y305800D01*
X590397Y307008D01*
Y308314D01*
X591188Y309018D01*
X592182Y309429D01*
X593106Y310354D01*
X593606Y311561D01*
Y312868D01*
X593106Y314075D01*
X592182Y314999D01*
X590975Y315499D01*
D02*
G37*
G36*
X564423Y307100D02*
X563117D01*
X561909Y306600D01*
X560985Y305676D01*
X560485Y304468D01*
Y303161D01*
X560985Y301954D01*
X561909Y301030D01*
X563117Y300530D01*
X564423D01*
X565631Y301030D01*
X566555Y301954D01*
X567055Y303161D01*
Y304468D01*
X566555Y305676D01*
X565631Y306600D01*
X564423Y307100D01*
D02*
G37*
G36*
X544556Y307237D02*
X543249D01*
X542041Y306737D01*
X541117Y305812D01*
X540617Y304605D01*
Y303298D01*
X541117Y302091D01*
X542041Y301167D01*
X543249Y300667D01*
X544556D01*
X545763Y301167D01*
X546687Y302091D01*
X546954Y302735D01*
X547108Y302758D01*
X547995Y302635D01*
X548395Y301669D01*
X549319Y300745D01*
X550527Y300245D01*
X551833D01*
X553041Y300745D01*
X553965Y301669D01*
X554465Y302877D01*
Y304183D01*
X553965Y305391D01*
X553041Y306315D01*
X551833Y306815D01*
X550527D01*
X549319Y306315D01*
X548395Y305391D01*
X548128Y304747D01*
X547974Y304724D01*
X547087Y304846D01*
X546687Y305812D01*
X545763Y306737D01*
X544556Y307237D01*
D02*
G37*
G36*
X512997Y306942D02*
X511690D01*
X510483Y306442D01*
X509558Y305518D01*
X509058Y304310D01*
Y303004D01*
X509558Y301796D01*
X510483Y300872D01*
X511690Y300372D01*
X512997D01*
X514204Y300872D01*
X515128Y301796D01*
X516181Y301724D01*
X516268Y301514D01*
X517192Y300590D01*
X518399Y300090D01*
X519706D01*
X520913Y300590D01*
X521565Y301242D01*
X522076Y301460D01*
X522826Y301287D01*
X523405Y300708D01*
X524613Y300208D01*
X525919D01*
X527127Y300708D01*
X528051Y301632D01*
X528551Y302839D01*
Y304146D01*
X528051Y305354D01*
X527127Y306278D01*
X525919Y306778D01*
X524613D01*
X523405Y306278D01*
X522754Y305626D01*
X522242Y305408D01*
X521493Y305581D01*
X520913Y306160D01*
X519706Y306660D01*
X518399D01*
X517192Y306160D01*
X516268Y305236D01*
X515215Y305308D01*
X515128Y305518D01*
X514204Y306442D01*
X512997Y306942D01*
D02*
G37*
G36*
X572263Y306671D02*
X570957D01*
X569749Y306171D01*
X568825Y305247D01*
X568325Y304039D01*
Y302732D01*
X568825Y301525D01*
X569749Y300601D01*
X570957Y300101D01*
X572263D01*
X573471Y300601D01*
X574395Y301525D01*
X574895Y302732D01*
Y304039D01*
X574395Y305247D01*
X573471Y306171D01*
X572263Y306671D01*
D02*
G37*
G36*
X492758Y306323D02*
X491451D01*
X490243Y305823D01*
X489319Y304898D01*
X488818Y303691D01*
Y302383D01*
X489319Y301176D01*
X490243Y300251D01*
X491451Y299751D01*
X492758D01*
X493966Y300251D01*
X494890Y301176D01*
X495390Y302383D01*
Y303691D01*
X494890Y304898D01*
X493966Y305823D01*
X492758Y306323D01*
D02*
G37*
G36*
X578361Y299200D02*
X577054D01*
X575847Y298700D01*
X574923Y297776D01*
X574423Y296568D01*
Y295261D01*
X574923Y294054D01*
X575847Y293130D01*
X577054Y292630D01*
X578361D01*
X579569Y293130D01*
X580493Y294054D01*
X580993Y295261D01*
Y296568D01*
X580493Y297776D01*
X579569Y298700D01*
X578361Y299200D01*
D02*
G37*
G36*
X512627Y299199D02*
X511320D01*
X510113Y298699D01*
X509188Y297775D01*
X508688Y296567D01*
Y295260D01*
X509188Y294053D01*
X510113Y293129D01*
X511320Y292629D01*
X512627D01*
X513834Y293129D01*
X514758Y294053D01*
X515258Y295260D01*
Y296567D01*
X514758Y297775D01*
X513834Y298699D01*
X512627Y299199D01*
D02*
G37*
G36*
X545933Y299195D02*
X544626D01*
X543419Y298695D01*
X542495Y297771D01*
X541995Y296563D01*
Y295257D01*
X542495Y294049D01*
X543419Y293125D01*
X544626Y292625D01*
X545933D01*
X547140Y293125D01*
X548064Y294049D01*
X548565Y295257D01*
Y296563D01*
X548064Y297771D01*
X547140Y298695D01*
X545933Y299195D01*
D02*
G37*
G36*
X499992Y298941D02*
X498685D01*
X497478Y298441D01*
X496554Y297517D01*
X496054Y296309D01*
Y295003D01*
X496554Y293795D01*
X497478Y292871D01*
X498685Y292371D01*
X499992D01*
X501199Y292871D01*
X502123Y293795D01*
X502624Y295003D01*
Y296309D01*
X502123Y297517D01*
X501199Y298441D01*
X499992Y298941D01*
D02*
G37*
G36*
X590888Y298796D02*
X589581D01*
X588373Y298296D01*
X587449Y297372D01*
X586949Y296164D01*
Y294858D01*
X587449Y293650D01*
X588373Y292726D01*
X589581Y292226D01*
X590888D01*
X592095Y292726D01*
X593019Y293650D01*
X593519Y294858D01*
Y296164D01*
X593019Y297372D01*
X592095Y298296D01*
X590888Y298796D01*
D02*
G37*
G36*
X519253Y293520D02*
X517946D01*
X516739Y293020D01*
X515815Y292096D01*
X515314Y290889D01*
Y289582D01*
X515815Y288374D01*
X516739Y287450D01*
X517946Y286950D01*
X519253D01*
X520460Y287450D01*
X521384Y288374D01*
X521884Y289582D01*
Y290889D01*
X521384Y292096D01*
X520460Y293020D01*
X519253Y293520D01*
D02*
G37*
G36*
X506837Y292244D02*
X505530D01*
X504323Y291744D01*
X503399Y290820D01*
X502898Y289613D01*
Y288306D01*
X503399Y287099D01*
X504323Y286175D01*
X505530Y285674D01*
X506837D01*
X508044Y286175D01*
X508968Y287099D01*
X509468Y288306D01*
Y289613D01*
X508968Y290820D01*
X508044Y291744D01*
X506837Y292244D01*
D02*
G37*
G36*
X578718Y290267D02*
X577411D01*
X576203Y289767D01*
X575279Y288843D01*
X574779Y287636D01*
Y286329D01*
X575279Y285121D01*
X576203Y284197D01*
X577411Y283697D01*
X578718D01*
X579925Y284197D01*
X580849Y285121D01*
X581349Y286329D01*
Y287636D01*
X580849Y288843D01*
X579925Y289767D01*
X578718Y290267D01*
D02*
G37*
G36*
X533231Y290023D02*
X531924D01*
X530717Y289522D01*
X529793Y288598D01*
X529293Y287391D01*
Y286084D01*
X529793Y284877D01*
X530717Y283953D01*
X531924Y283452D01*
X533231D01*
X534438Y283953D01*
X535363Y284877D01*
X535863Y286084D01*
Y287391D01*
X535363Y288598D01*
X534438Y289522D01*
X533231Y290023D01*
D02*
G37*
G36*
X556352Y288844D02*
X555046D01*
X553838Y288344D01*
X552914Y287420D01*
X552414Y286213D01*
Y284906D01*
X552914Y283698D01*
X552483Y282715D01*
X552407D01*
X551199Y282215D01*
X550275Y281291D01*
X549775Y280084D01*
Y278777D01*
X550275Y277570D01*
X551199Y276646D01*
X552407Y276145D01*
X553713D01*
X554921Y276646D01*
X555845Y277570D01*
X556345Y278777D01*
Y280084D01*
X555845Y281291D01*
X556276Y282274D01*
X556352D01*
X557560Y282774D01*
X558484Y283698D01*
X558984Y284906D01*
Y286213D01*
X558484Y287420D01*
X557560Y288344D01*
X556352Y288844D01*
D02*
G37*
G36*
X529766Y279719D02*
X528459D01*
X527252Y279219D01*
X526328Y278295D01*
X525827Y277088D01*
Y275781D01*
X526328Y274574D01*
X527252Y273650D01*
X528459Y273149D01*
X529766D01*
X530973Y273650D01*
X531897Y274574D01*
X532397Y275781D01*
Y277088D01*
X531897Y278295D01*
X530973Y279219D01*
X529766Y279719D01*
D02*
G37*
G36*
X553104Y257657D02*
X551796D01*
X550589Y257156D01*
X549664Y256232D01*
X549164Y255024D01*
Y253717D01*
X549664Y252509D01*
X550589Y251585D01*
X551796Y251085D01*
X553104D01*
X554311Y251585D01*
X555236Y252509D01*
X555736Y253717D01*
Y255024D01*
X555236Y256232D01*
X554311Y257156D01*
X553104Y257657D01*
D02*
G37*
%LPD*%
D11*
X350520Y557414D02*
X355716Y562610D01*
X355741D01*
X350520Y510540D02*
Y557414D01*
X762567Y584983D02*
X768641Y591058D01*
X700579Y584200D02*
X701362Y584983D01*
X762567D01*
X768641Y591058D02*
Y591589D01*
X328337Y504504D02*
X344484D01*
X350520Y510540D01*
X768641Y591589D02*
X773029Y595977D01*
X612140Y564728D02*
X631612Y584200D01*
X700579D01*
X612140Y556260D02*
Y564728D01*
X773029Y595977D02*
X814326D01*
X590029Y554319D02*
X610199D01*
X612140Y556260D01*
D23*
X117343Y685880D02*
D03*
Y753878D02*
D03*
D118*
X336550Y538568D02*
Y561340D01*
Y527050D02*
Y538401D01*
X336467Y538484D02*
X336550Y538401D01*
X336467Y538484D02*
X336550Y538568D01*
X328968Y568922D02*
X336550Y561340D01*
X282293Y568922D02*
X328968D01*
D134*
X603250Y511810D02*
X611700D01*
X616733Y506777D01*
X625647D02*
X626110Y506314D01*
X616733Y506777D02*
X625647D01*
X632965Y509186D02*
Y511810D01*
X626110Y467360D02*
Y506314D01*
X630093D02*
X632965Y509186D01*
X626110Y506314D02*
X630093D01*
X565451Y601030D02*
X592221D01*
X558311Y599217D02*
X563638D01*
X558019Y598925D02*
X558311Y599217D01*
X563638D02*
X565451Y601030D01*
X632965Y511810D02*
X643734Y522579D01*
Y522658D01*
X592221Y601030D02*
X592962Y601771D01*
X627719Y592804D02*
X628503Y593587D01*
X592622Y596921D02*
X593837D01*
X586524Y590823D02*
X592622Y596921D01*
X596325Y592804D02*
X627719D01*
X593837Y596921D02*
X594639Y597723D01*
X586524Y583726D02*
Y590823D01*
X680511Y601771D02*
X690880Y612140D01*
X703778Y597723D02*
X704025Y597971D01*
X594639Y597723D02*
X703778D01*
X592962Y601771D02*
X680511D01*
X1033780Y529590D02*
Y562610D01*
X1026616Y522426D02*
X1033780Y529590D01*
X591334Y579829D02*
Y588831D01*
X583529Y580731D02*
X586524Y583726D01*
X583529Y580319D02*
Y580731D01*
X585343Y573838D02*
X591334Y579829D01*
X586047Y573835D02*
X614475D01*
X630179Y589539D01*
X288889Y491490D02*
X303530D01*
X288625Y491754D02*
X288889Y491490D01*
X303530D02*
X306070Y494030D01*
Y520700D01*
X302342Y524428D02*
X306070Y520700D01*
X288829Y524428D02*
X302342D01*
X493664Y184516D02*
Y233939D01*
X346356Y571146D02*
X359249D01*
X355600Y554990D02*
X360680Y560070D01*
Y569715D01*
X359249Y571146D02*
X360680Y569715D01*
X351960Y502462D02*
X355600Y506101D01*
X346680Y500015D02*
X349127Y502462D01*
X346268Y500015D02*
X346680D01*
X349127Y502462D02*
X351960D01*
X355600Y506101D02*
Y554990D01*
X653395Y549295D02*
X660614Y542076D01*
X604718Y549295D02*
X653395D01*
X787435Y124935D02*
X868031D01*
X871046Y121920D01*
X951230D01*
X707452Y593587D02*
X709248Y595383D01*
X630179Y589539D02*
X760680D01*
X628503Y593587D02*
X707452D01*
X704025Y597971D02*
X706111D01*
X721243Y613103D01*
X951230Y121920D02*
Y217170D01*
Y78740D02*
Y121920D01*
Y217170D02*
X959974Y225914D01*
X993156D02*
X998381Y231140D01*
X959974Y225914D02*
X993156D01*
X998381Y231140D02*
X1027430D01*
X709248Y595383D02*
X720090D01*
X734060Y609353D02*
Y622300D01*
X720090Y595383D02*
X734060Y609353D01*
X721313Y625542D02*
X730818D01*
X734060Y622300D01*
X762000Y692150D02*
Y723171D01*
Y690880D02*
Y692150D01*
X342900Y549910D02*
Y567690D01*
X346356Y571146D01*
X933450Y604520D02*
X939800Y598170D01*
Y575310D02*
Y598170D01*
X987727Y522426D02*
X1026616D01*
X944498Y527707D02*
X944789Y527416D01*
X946150Y568960D02*
X1027430D01*
X1033780Y562610D01*
X939800Y575310D02*
X946150Y568960D01*
X493664Y184516D02*
X494030Y184150D01*
X779780Y585470D02*
X918210D01*
X772160Y577850D02*
X779780Y585470D01*
X784860Y576580D02*
X825550D01*
X779780Y571500D02*
X784860Y576580D01*
X779780Y467360D02*
Y571500D01*
X905510Y601980D02*
X922020D01*
X914004Y726032D02*
X914296Y726323D01*
X859009Y725134D02*
X911536D01*
X912433Y726032D02*
X914004D01*
X911536Y725134D02*
X912433Y726032D01*
X762000Y723171D02*
X767878Y729049D01*
X1022218Y560078D02*
X1023296D01*
X1023587Y560369D01*
X1022210Y560070D02*
X1022218Y560078D01*
X927100Y560070D02*
X1022210D01*
X904240Y523240D02*
X904532Y522948D01*
X906879D02*
X934528Y495300D01*
X904532Y522948D02*
X906879D01*
X919843Y557882D02*
X924208D01*
X919552Y558173D02*
X919843Y557882D01*
X924208D02*
X924560Y557530D01*
X927100Y560070D01*
Y596900D01*
X922020Y601980D02*
X927100Y596900D01*
X858991Y725152D02*
X859009Y725134D01*
X810278Y725152D02*
X858991D01*
X810260Y725170D02*
X810278Y725152D01*
X772170Y725170D02*
X810260D01*
X768291Y729049D02*
X772170Y725170D01*
X767878Y729049D02*
X768291D01*
X660614Y471208D02*
Y542076D01*
X670812Y461010D02*
X760730D01*
X660614Y471208D02*
X670812Y461010D01*
X599133Y515927D02*
X603250Y511810D01*
X599133Y515927D02*
Y524424D01*
X626110Y467360D02*
X641350Y452120D01*
X764540D01*
X779780Y467360D01*
X624462Y665565D02*
X727625D01*
X735330Y657860D01*
Y642620D02*
Y657860D01*
X731085Y638375D02*
X735330Y642620D01*
X721360Y638375D02*
X731085D01*
X593136Y650965D02*
X721678D01*
X586893Y615955D02*
Y644721D01*
X593136Y650965D01*
X586893Y615955D02*
X590029Y612818D01*
X760730Y461010D02*
X772160Y472440D01*
Y577850D01*
D136*
X787634Y565150D02*
X842542D01*
X856512Y579120D01*
X901700D01*
D138*
X1046480Y87630D02*
D03*
X1012896D02*
D03*
X979157D02*
D03*
X1051560Y340360D02*
D03*
D139*
X1046480Y113030D02*
D03*
Y138430D02*
D03*
Y163830D02*
D03*
Y189230D02*
D03*
Y214630D02*
D03*
X1012896Y113030D02*
D03*
Y138430D02*
D03*
Y163830D02*
D03*
Y189230D02*
D03*
Y214630D02*
D03*
X979157Y113030D02*
D03*
Y138430D02*
D03*
Y163830D02*
D03*
Y189230D02*
D03*
Y214630D02*
D03*
X1051560Y365760D02*
D03*
Y391160D02*
D03*
D140*
X102870Y11430D02*
D03*
X85090Y20320D02*
D03*
X119380Y19050D02*
D03*
X80010Y35560D02*
D03*
X125730D02*
D03*
X86360Y52070D02*
D03*
X119380D02*
D03*
X102870Y58420D02*
D03*
Y947420D02*
D03*
X85090Y956310D02*
D03*
X119380Y955040D02*
D03*
X80010Y971550D02*
D03*
X125730D02*
D03*
X86360Y988060D02*
D03*
X119380D02*
D03*
X102870Y994410D02*
D03*
X1037590Y947420D02*
D03*
X1019810Y956310D02*
D03*
X1054100Y955040D02*
D03*
X1014730Y971550D02*
D03*
X1060450D02*
D03*
X1021080Y988060D02*
D03*
X1054100D02*
D03*
X1037590Y994410D02*
D03*
X1038860Y58420D02*
D03*
X1055370Y52070D02*
D03*
X1022350D02*
D03*
X1061720Y35560D02*
D03*
X1016000D02*
D03*
X1055370Y19050D02*
D03*
X1021080Y20320D02*
D03*
X1038860Y11430D02*
D03*
D141*
X102870Y35560D02*
D03*
Y971550D02*
D03*
X1037590D02*
D03*
X1038860Y35560D02*
D03*
D142*
X690770Y913799D02*
D03*
X835770D02*
D03*
D143*
X690770Y973400D02*
D03*
X835770D02*
D03*
D144*
X130844Y763078D02*
D03*
X130843Y676680D02*
D03*
D145*
X125844Y759879D02*
D03*
X125843Y679879D02*
D03*
D146*
X85344Y763078D02*
D03*
X85343Y676680D02*
D03*
D147*
X616434Y928692D02*
D03*
Y871893D02*
D03*
X485034D02*
D03*
Y928692D02*
D03*
D148*
X590734Y861692D02*
D03*
X570734D02*
D03*
X550734D02*
D03*
X530734D02*
D03*
X510734D02*
D03*
X515733Y876693D02*
D03*
X540734D02*
D03*
X560734D02*
D03*
X585733D02*
D03*
X590734Y893694D02*
D03*
X570734D02*
D03*
X550734D02*
D03*
X530734D02*
D03*
X510734D02*
D03*
X515733Y908692D02*
D03*
X540734D02*
D03*
X560734D02*
D03*
X585733D02*
D03*
D149*
X401079Y968817D02*
D03*
D150*
X370168Y912810D02*
D03*
D151*
X431788D02*
D03*
D152*
X421958Y892820D02*
D03*
X407963D02*
D03*
X393993D02*
D03*
X379997D02*
D03*
D153*
X345440Y577850D02*
D03*
X182296Y192133D02*
D03*
Y185021D02*
D03*
Y177909D02*
D03*
Y170797D02*
D03*
Y163685D02*
D03*
Y156573D02*
D03*
Y149461D02*
D03*
Y142349D02*
D03*
Y135237D02*
D03*
X182042Y128130D02*
D03*
X179608Y121448D02*
D03*
X174758Y116246D02*
D03*
X168262Y113349D02*
D03*
X161164Y112904D02*
D03*
X154052D02*
D03*
X146941Y113014D02*
D03*
X139843Y112570D02*
D03*
X138451Y99147D02*
D03*
X145429Y97773D02*
D03*
X152540Y97883D02*
D03*
X159652D02*
D03*
X166763Y98017D02*
D03*
X173768Y99247D02*
D03*
X180322Y102007D02*
D03*
X186121Y106125D02*
D03*
X190947Y111349D02*
D03*
X194477Y117523D02*
D03*
X196641Y124298D02*
D03*
X197316Y131377D02*
D03*
Y138490D02*
D03*
Y145602D02*
D03*
Y152713D02*
D03*
Y159825D02*
D03*
Y166938D02*
D03*
Y174049D02*
D03*
Y181161D02*
D03*
Y188274D02*
D03*
X194689Y216034D02*
D03*
X492104Y303037D02*
D03*
X540200Y497189D02*
D03*
X622106Y511587D02*
D03*
X187684Y538391D02*
D03*
X416413Y176530D02*
D03*
X248920Y91107D02*
D03*
X414492Y138670D02*
D03*
X461804Y530264D02*
D03*
X336467Y538484D02*
D03*
X336550Y527050D02*
D03*
X512031Y534820D02*
D03*
X538333Y541094D02*
D03*
X538030Y547820D02*
D03*
X544530Y541320D02*
D03*
Y547820D02*
D03*
X551030D02*
D03*
Y541320D02*
D03*
X557530D02*
D03*
Y547820D02*
D03*
X565533Y592834D02*
D03*
X558019Y598925D02*
D03*
X442708Y503603D02*
D03*
X181560Y402884D02*
D03*
X308973Y368487D02*
D03*
X437946Y565937D02*
D03*
X637472Y525390D02*
D03*
X385430Y549910D02*
D03*
X425450Y486410D02*
D03*
X570530Y567319D02*
D03*
X325165Y469365D02*
D03*
X651545Y556977D02*
D03*
X643734Y522658D02*
D03*
X596325Y592804D02*
D03*
X578047Y528652D02*
D03*
X551224Y573829D02*
D03*
X1000760Y444500D02*
D03*
X584061Y595163D02*
D03*
X591334Y588831D02*
D03*
X585343Y573838D02*
D03*
X592028Y542618D02*
D03*
X493664Y233939D02*
D03*
X416297Y373329D02*
D03*
X355741Y562610D02*
D03*
X377534Y216979D02*
D03*
X368993Y204775D02*
D03*
X676664Y556011D02*
D03*
X505579Y515610D02*
D03*
X518730Y521634D02*
D03*
X843280Y822960D02*
D03*
X787634Y565150D02*
D03*
X901700Y579120D02*
D03*
X396240Y783590D02*
D03*
X648970Y163830D02*
D03*
X639868Y163296D02*
D03*
X623570Y166370D02*
D03*
X617220D02*
D03*
X275009Y339829D02*
D03*
X535022Y643507D02*
D03*
X538096Y587759D02*
D03*
X787400Y124460D02*
D03*
X913130Y121021D02*
D03*
X211329Y606299D02*
D03*
X361950Y576580D02*
D03*
X346268Y500015D02*
D03*
X557787Y522305D02*
D03*
X327256Y257505D02*
D03*
X279950Y862838D02*
D03*
X604718Y549295D02*
D03*
X552450Y254371D02*
D03*
X760680Y589539D02*
D03*
X1027430Y231140D02*
D03*
X951230Y78740D02*
D03*
Y121920D02*
D03*
X399430Y549910D02*
D03*
X305362Y297281D02*
D03*
X284769Y289807D02*
D03*
X306441Y308405D02*
D03*
X306070Y340094D02*
D03*
X312281Y457235D02*
D03*
X324927Y455684D02*
D03*
X433070Y342900D02*
D03*
X419100Y476475D02*
D03*
X429875Y493697D02*
D03*
X218055Y355772D02*
D03*
X211688Y356091D02*
D03*
X206117Y356329D02*
D03*
X199910D02*
D03*
X193305D02*
D03*
X185983D02*
D03*
X605392Y269235D02*
D03*
X565798Y269223D02*
D03*
X525308Y233494D02*
D03*
X510383Y269289D02*
D03*
X472261Y269223D02*
D03*
X472440Y283210D02*
D03*
X469900Y292100D02*
D03*
X570446Y522278D02*
D03*
X551097Y522356D02*
D03*
X538030Y515320D02*
D03*
X866140Y821690D02*
D03*
X662940Y806450D02*
D03*
X524510Y783590D02*
D03*
X388620Y824230D02*
D03*
X388694Y597749D02*
D03*
X378536Y598106D02*
D03*
X366952Y597749D02*
D03*
X352161Y597215D02*
D03*
X557724Y580455D02*
D03*
X570530Y586819D02*
D03*
X551307Y580268D02*
D03*
X218440Y393700D02*
D03*
X210820D02*
D03*
X204470D02*
D03*
X218440Y400050D02*
D03*
X210820D02*
D03*
X204470D02*
D03*
X762000Y692150D02*
D03*
X690880Y612140D02*
D03*
X753951Y598910D02*
D03*
X721313Y625542D02*
D03*
X894080Y612140D02*
D03*
X449288Y734802D02*
D03*
X294640Y641350D02*
D03*
X342900Y549910D02*
D03*
X337678Y515719D02*
D03*
X933450Y604520D02*
D03*
X398273Y775611D02*
D03*
X593978Y753129D02*
D03*
X405084Y746714D02*
D03*
X388714Y757650D02*
D03*
X300990Y615950D02*
D03*
X334010Y106680D02*
D03*
X355600Y191770D02*
D03*
X494030Y184150D02*
D03*
X327039Y234933D02*
D03*
Y246363D02*
D03*
Y269223D02*
D03*
Y280907D02*
D03*
X173912Y422313D02*
D03*
X625032Y657966D02*
D03*
X593526Y710875D02*
D03*
X768641Y591589D02*
D03*
X590029Y554319D02*
D03*
X814326Y595977D02*
D03*
X905510Y601980D02*
D03*
X914296Y726323D02*
D03*
X941304Y317500D02*
D03*
X583529Y580319D02*
D03*
X721243Y613103D02*
D03*
X908856Y619702D02*
D03*
X282875Y581036D02*
D03*
X825550Y576580D02*
D03*
X671830Y490220D02*
D03*
X820710Y483439D02*
D03*
X1023587Y560369D02*
D03*
X934528Y495300D02*
D03*
X518531Y586819D02*
D03*
X505531Y534820D02*
D03*
X422910Y565150D02*
D03*
X328337Y504504D02*
D03*
X1027430Y405130D02*
D03*
X904240Y523240D02*
D03*
X859009Y725134D02*
D03*
X810260Y725170D02*
D03*
X767878Y729049D02*
D03*
X257810Y749300D02*
D03*
X649062Y496450D02*
D03*
X585425Y540143D02*
D03*
X599133Y524424D02*
D03*
X608398Y633618D02*
D03*
X624462Y665565D02*
D03*
X721360Y638375D02*
D03*
X919472Y645012D02*
D03*
X721422Y650760D02*
D03*
X926393Y707166D02*
D03*
X590029Y547820D02*
D03*
X918210Y585470D02*
D03*
X147524Y422340D02*
D03*
D154*
X578998Y710677D02*
D03*
X589563Y699760D02*
D03*
X681461Y745844D02*
D03*
X629924Y708655D02*
D03*
X667262Y745844D02*
D03*
X640573Y704493D02*
D03*
X600939Y711136D02*
D03*
X635995Y745761D02*
D03*
X650948Y745022D02*
D03*
X511497Y351612D02*
D03*
X529112Y276434D02*
D03*
X587112Y307661D02*
D03*
X562399Y462514D02*
D03*
X563562Y495382D02*
D03*
X537370Y434644D02*
D03*
X523511Y383744D02*
D03*
X525355Y426226D02*
D03*
X518537Y425807D02*
D03*
X566786Y467511D02*
D03*
X558475Y367897D02*
D03*
X573210Y379866D02*
D03*
X564276Y359782D02*
D03*
X558510Y359665D02*
D03*
X552940Y359410D02*
D03*
X564026Y367440D02*
D03*
X552073Y376192D02*
D03*
X577142Y440425D02*
D03*
X577785Y459311D02*
D03*
X506184Y288960D02*
D03*
X518600Y290235D02*
D03*
X525266Y303493D02*
D03*
X511973Y295914D02*
D03*
X519052Y303375D02*
D03*
X534305Y334090D02*
D03*
X474734Y361840D02*
D03*
X522069Y473001D02*
D03*
X526729Y464084D02*
D03*
X522018Y467084D02*
D03*
X525439Y375803D02*
D03*
X511964Y456393D02*
D03*
X537131Y375660D02*
D03*
X610079Y370947D02*
D03*
X546100Y457274D02*
D03*
X535576Y465098D02*
D03*
X543779Y433843D02*
D03*
X578987Y431179D02*
D03*
X584190Y453505D02*
D03*
X596060Y391067D02*
D03*
X620558Y523352D02*
D03*
X577442Y560771D02*
D03*
X235542Y562849D02*
D03*
X193164Y545521D02*
D03*
X689453Y485169D02*
D03*
X601902Y680861D02*
D03*
X616124Y607141D02*
D03*
X609598Y606669D02*
D03*
X603087Y606580D02*
D03*
X596726D02*
D03*
X590563Y606173D02*
D03*
X584242Y605878D02*
D03*
X506730Y632460D02*
D03*
X510650Y637521D02*
D03*
X479425Y607682D02*
D03*
X218137Y486354D02*
D03*
X208519Y488262D02*
D03*
X930074Y553704D02*
D03*
X498644Y514813D02*
D03*
X616087Y583166D02*
D03*
X669944Y577410D02*
D03*
X581715Y586958D02*
D03*
X596905Y567719D02*
D03*
X597078Y561189D02*
D03*
X602645Y561347D02*
D03*
X590261Y532999D02*
D03*
X597531Y541382D02*
D03*
X360599Y200793D02*
D03*
X639229Y188256D02*
D03*
X624798Y190272D02*
D03*
X617690Y192288D02*
D03*
X370776Y196081D02*
D03*
X360501Y213402D02*
D03*
X694008Y494858D02*
D03*
X622172Y554341D02*
D03*
X773651Y854233D02*
D03*
X721360Y580159D02*
D03*
X731362D02*
D03*
X712956Y783070D02*
D03*
X603029Y580319D02*
D03*
X609531D02*
D03*
X648623Y184167D02*
D03*
X711556Y566773D02*
D03*
X590955Y567537D02*
D03*
X499031Y606318D02*
D03*
X486355Y605654D02*
D03*
X492582Y605863D02*
D03*
X570993Y619014D02*
D03*
X570530Y612818D02*
D03*
X390199Y527535D02*
D03*
X387256Y532264D02*
D03*
X426202Y548666D02*
D03*
X576976Y547436D02*
D03*
X511803Y527971D02*
D03*
X702516Y579695D02*
D03*
X994421Y233981D02*
D03*
X282885Y348774D02*
D03*
X669290Y830580D02*
D03*
X669472Y801224D02*
D03*
X493520Y581727D02*
D03*
X469458Y600054D02*
D03*
X105018Y519096D02*
D03*
X115718Y519408D02*
D03*
X116237Y523771D02*
D03*
X681312Y576584D02*
D03*
X705469Y570133D02*
D03*
X686442Y572077D02*
D03*
X536474Y743060D02*
D03*
X551463D02*
D03*
X578488Y735220D02*
D03*
X564862D02*
D03*
X507983Y728528D02*
D03*
X681822Y780421D02*
D03*
X887730Y738716D02*
D03*
X698805Y744526D02*
D03*
X339973Y224447D02*
D03*
X475929Y665151D02*
D03*
X724662Y782323D02*
D03*
X699008Y781326D02*
D03*
X669307D02*
D03*
X287020Y453390D02*
D03*
X692474Y564063D02*
D03*
X309205Y604738D02*
D03*
X648826Y506582D02*
D03*
X110316Y519096D02*
D03*
X110347Y523826D02*
D03*
X267705Y515364D02*
D03*
X105023Y523971D02*
D03*
X518531Y554319D02*
D03*
X525031Y547820D02*
D03*
X518531D02*
D03*
X525031Y554319D02*
D03*
X518531Y560819D02*
D03*
X577153Y554168D02*
D03*
X577030Y541320D02*
D03*
X570997Y554278D02*
D03*
X570530Y560819D02*
D03*
X125730Y599440D02*
D03*
X119285Y600273D02*
D03*
X125976Y632985D02*
D03*
X119842Y633171D02*
D03*
X125730Y627380D02*
D03*
Y618490D02*
D03*
Y612140D02*
D03*
Y605790D02*
D03*
X119380D02*
D03*
Y612140D02*
D03*
Y619760D02*
D03*
Y627380D02*
D03*
X250553Y569255D02*
D03*
X211329Y563665D02*
D03*
X229378Y594635D02*
D03*
X246380Y594065D02*
D03*
X292242Y581618D02*
D03*
X282293Y568922D02*
D03*
X288625Y491754D02*
D03*
X288940Y508058D02*
D03*
X288829Y524428D02*
D03*
X205880Y484461D02*
D03*
X161068Y473315D02*
D03*
X147524Y430997D02*
D03*
X193581Y516715D02*
D03*
X188786Y516540D02*
D03*
X188572Y545571D02*
D03*
X235379Y567889D02*
D03*
X250448Y489015D02*
D03*
X254852Y485405D02*
D03*
X221059Y489933D02*
D03*
X162560Y684530D02*
D03*
X156210D02*
D03*
X162560Y692150D02*
D03*
Y698500D02*
D03*
X112492Y726079D02*
D03*
X149269D02*
D03*
X368300Y123190D02*
D03*
X518531Y593319D02*
D03*
X256540Y163830D02*
D03*
Y137160D02*
D03*
X275590Y127000D02*
D03*
X304165Y128905D02*
D03*
X306070Y161290D02*
D03*
X292100Y193040D02*
D03*
X259080Y189230D02*
D03*
X366925Y214802D02*
D03*
X603029Y586819D02*
D03*
X309403Y478595D02*
D03*
X596529Y586819D02*
D03*
X685452Y494968D02*
D03*
X680514Y483050D02*
D03*
X734060Y265430D02*
D03*
X609531Y586819D02*
D03*
X327921Y537989D02*
D03*
X328368Y527094D02*
D03*
X590030Y560820D02*
D03*
X843280Y307340D02*
D03*
X745490D02*
D03*
X789640Y412270D02*
D03*
X797044Y419705D02*
D03*
X703517Y213573D02*
D03*
X698160Y207257D02*
D03*
X723465Y250156D02*
D03*
X603084Y567485D02*
D03*
X923290Y144780D02*
D03*
X936424Y163417D02*
D03*
X750570Y76200D02*
D03*
Y83820D02*
D03*
X751840Y104140D02*
D03*
X522308Y708105D02*
D03*
X515987Y706853D02*
D03*
X511841Y716363D02*
D03*
X501874Y715086D02*
D03*
X525053Y724349D02*
D03*
X703912Y709236D02*
D03*
X692320Y712265D02*
D03*
X613401Y707100D02*
D03*
X534734Y662043D02*
D03*
X531797Y598711D02*
D03*
X524211Y599729D02*
D03*
X538050Y598665D02*
D03*
X116738Y307677D02*
D03*
X307340Y203200D02*
D03*
X226060D02*
D03*
X313690Y196850D02*
D03*
X234453Y204268D02*
D03*
X596529Y580319D02*
D03*
X422616Y543901D02*
D03*
X394439Y534374D02*
D03*
X416414Y548786D02*
D03*
X347980Y267970D02*
D03*
X363220Y262890D02*
D03*
X337077Y275111D02*
D03*
X318770Y257810D02*
D03*
X489180Y574705D02*
D03*
X464223Y573826D02*
D03*
X473139Y561553D02*
D03*
X472845Y553713D02*
D03*
X485728Y561527D02*
D03*
X491794D02*
D03*
X487372Y566865D02*
D03*
X479213Y566800D02*
D03*
X116738Y212073D02*
D03*
Y222233D02*
D03*
Y236203D02*
D03*
Y248903D02*
D03*
X486031Y580319D02*
D03*
X505460Y568960D02*
D03*
X400547Y537384D02*
D03*
X419671Y553333D02*
D03*
X443218Y585900D02*
D03*
X499031Y502321D02*
D03*
X505531Y580319D02*
D03*
X887698Y730870D02*
D03*
X464820Y617220D02*
D03*
X595617Y689148D02*
D03*
X841021Y796587D02*
D03*
X815265Y853137D02*
D03*
X820916Y864760D02*
D03*
X710072Y884091D02*
D03*
X803957Y865804D02*
D03*
X792524Y865919D02*
D03*
X780859D02*
D03*
X760256Y884482D02*
D03*
X729615Y884555D02*
D03*
X744092Y858096D02*
D03*
X743993Y884001D02*
D03*
X696878Y704617D02*
D03*
X693399Y691182D02*
D03*
X673369Y699501D02*
D03*
X596529Y612818D02*
D03*
X512031Y593319D02*
D03*
X590029Y612818D02*
D03*
X518461Y606035D02*
D03*
X512220Y605863D02*
D03*
X628650Y676910D02*
D03*
X638810Y687070D02*
D03*
X659130Y707390D02*
D03*
X734060Y805180D02*
D03*
X749185D02*
D03*
X772160Y828155D02*
D03*
X760256Y837726D02*
D03*
X739140Y816610D02*
D03*
X712470Y805180D02*
D03*
X628650Y693420D02*
D03*
X698500Y814070D02*
D03*
X716280Y831850D02*
D03*
X737870Y842010D02*
D03*
X710456Y844550D02*
D03*
X690880Y833120D02*
D03*
X681990Y807720D02*
D03*
X694690Y855980D02*
D03*
X608330Y673100D02*
D03*
X571300Y631242D02*
D03*
X581548Y658448D02*
D03*
X577628Y800033D02*
D03*
Y668161D02*
D03*
X581508Y652878D02*
D03*
X585672Y835660D02*
D03*
X593209Y835662D02*
D03*
X488516Y814369D02*
D03*
X536300Y671835D02*
D03*
X536571Y708978D02*
D03*
X536186Y798717D02*
D03*
X584058Y820800D02*
D03*
X565061Y713003D02*
D03*
X565256Y802432D02*
D03*
X565150Y670560D02*
D03*
X551254Y666824D02*
D03*
X536744Y815682D02*
D03*
X551360Y798696D02*
D03*
X551165Y709267D02*
D03*
X513213Y820905D02*
D03*
X551030Y625820D02*
D03*
X538210Y657691D02*
D03*
X515073Y835660D02*
D03*
X522361D02*
D03*
X551030Y619318D02*
D03*
X492531Y599818D02*
D03*
X499031D02*
D03*
X270651Y842142D02*
D03*
X302628Y827969D02*
D03*
X292230D02*
D03*
X258258D02*
D03*
X237620D02*
D03*
X224920D02*
D03*
X213490D02*
D03*
X246156Y791530D02*
D03*
X303869Y791854D02*
D03*
X229378Y791342D02*
D03*
X210820Y789188D02*
D03*
X247545Y836468D02*
D03*
X280710Y836341D02*
D03*
X225473Y836712D02*
D03*
X290555Y817676D02*
D03*
X834725Y514750D02*
D03*
X851685Y538764D02*
D03*
X854744Y552945D02*
D03*
X867077Y554688D02*
D03*
X922393Y469309D02*
D03*
X913737D02*
D03*
X988060Y513080D02*
D03*
X987727Y522426D02*
D03*
X948250Y532708D02*
D03*
X944498Y527707D02*
D03*
X939497Y522708D02*
D03*
X944498Y517707D02*
D03*
X939497Y512708D02*
D03*
X924498Y542708D02*
D03*
X916940Y547370D02*
D03*
X873179Y539657D02*
D03*
X914498Y552708D02*
D03*
X919552Y558173D02*
D03*
X889497Y507707D02*
D03*
X868135Y542019D02*
D03*
X884498Y532708D02*
D03*
X889497Y527707D02*
D03*
X884498Y522708D02*
D03*
X889497Y517707D02*
D03*
X863034Y508213D02*
D03*
X924448Y494907D02*
D03*
X924498Y527707D02*
D03*
X873728Y513451D02*
D03*
X843280Y506730D02*
D03*
X854641Y507921D02*
D03*
X914400Y502920D02*
D03*
X914498Y527707D02*
D03*
X884615Y513052D02*
D03*
X930645Y528271D02*
D03*
X934498Y532708D02*
D03*
X894012Y553133D02*
D03*
X572373Y367711D02*
D03*
X574023Y414359D02*
D03*
X616217Y483783D02*
D03*
X597228Y344466D02*
D03*
X606549Y349688D02*
D03*
X545280Y295910D02*
D03*
X543902Y303952D02*
D03*
X553060Y279430D02*
D03*
X556852Y275341D02*
D03*
X510347Y381884D02*
D03*
X519702Y360172D02*
D03*
X525772Y343528D02*
D03*
X525136Y351887D02*
D03*
X484316Y371303D02*
D03*
X468892Y352859D02*
D03*
X555699Y285559D02*
D03*
X575527Y424047D02*
D03*
X583947Y444808D02*
D03*
X530124Y458926D02*
D03*
X611128Y360584D02*
D03*
X589177Y463231D02*
D03*
X589455Y482861D02*
D03*
X578064Y286982D02*
D03*
X533400Y534670D02*
D03*
X583424Y534944D02*
D03*
X590143Y502776D02*
D03*
X589971Y494900D02*
D03*
X603193Y489477D02*
D03*
X475183Y344699D02*
D03*
X493836Y328736D02*
D03*
X564481Y343410D02*
D03*
X563880Y351790D02*
D03*
X577287Y351537D02*
D03*
X499339Y295656D02*
D03*
X512343Y303657D02*
D03*
X518820Y311658D02*
D03*
X505841Y319659D02*
D03*
X518820D02*
D03*
X505841Y327660D02*
D03*
X518820D02*
D03*
X525323D02*
D03*
X531825Y351663D02*
D03*
X498451Y375613D02*
D03*
X545077Y312349D02*
D03*
X564758Y311717D02*
D03*
X568294Y317224D02*
D03*
X590234Y295511D02*
D03*
X590321Y312214D02*
D03*
X590413Y319921D02*
D03*
X525413Y367680D02*
D03*
X533003Y368713D02*
D03*
X519702Y368581D02*
D03*
X506291Y375804D02*
D03*
X532130Y359410D02*
D03*
X551332Y343662D02*
D03*
X538328D02*
D03*
X552323Y320454D02*
D03*
X568300Y332357D02*
D03*
X596857Y327729D02*
D03*
X557753Y311717D02*
D03*
X563770Y303815D02*
D03*
X571610Y303386D02*
D03*
X538630Y277682D02*
D03*
X532578Y286737D02*
D03*
X512371Y319765D02*
D03*
X512343Y327660D02*
D03*
X525323Y295656D02*
D03*
X518249Y337856D02*
D03*
X500586Y470453D02*
D03*
X526884Y497875D02*
D03*
X503202Y464943D02*
D03*
X506929Y460672D02*
D03*
X551030Y495821D02*
D03*
X538030Y502321D02*
D03*
X570824Y359794D02*
D03*
X571178Y351787D02*
D03*
X558027Y343200D02*
D03*
X577708Y295915D02*
D03*
X583199Y496042D02*
D03*
X570530Y502321D02*
D03*
X577030Y495820D02*
D03*
X557530Y502319D02*
D03*
X551180Y303530D02*
D03*
X557530Y508820D02*
D03*
X551030Y508820D02*
D03*
X532225Y343734D02*
D03*
X525274Y359922D02*
D03*
X518531Y502321D02*
D03*
X512031Y495821D02*
D03*
X499031D02*
D03*
X486031Y502321D02*
D03*
D155*
X227331Y539591D02*
D03*
X217331D02*
D03*
X237331D02*
D03*
X217331Y519596D02*
D03*
X237326Y529589D02*
D03*
X217331Y529596D02*
D03*
X227326Y519596D02*
D03*
X237326D02*
D03*
X227331Y529591D02*
D03*
D156*
X414492Y174609D02*
X416413Y176530D01*
X414492Y138670D02*
Y174609D01*
Y47788D02*
X439420Y22860D01*
X414492Y47788D02*
Y138670D01*
X439420Y22860D02*
X939800D01*
X988580Y71640D02*
X1030490D01*
X1046480Y87630D01*
X939800Y22860D02*
X988580Y71640D01*
X317500Y953770D02*
X326390Y944880D01*
X161290Y718820D02*
Y924560D01*
X190500Y953770D02*
X317500D01*
X161290Y924560D02*
X190500Y953770D01*
X326390Y944880D02*
X453390D01*
X156210Y684530D02*
Y713740D01*
X161290Y718820D01*
X656590Y812800D02*
Y934720D01*
Y812800D02*
X662940Y806450D01*
X656590Y934720D02*
X670560Y948690D01*
X1046480Y87630D02*
X1063057Y104207D01*
Y245042D01*
X1005840Y302260D02*
X1063057Y245042D01*
X867282Y821690D02*
X1028700D01*
X866140D02*
X867282D01*
X1005840Y302260D02*
Y424180D01*
X1054100Y472440D01*
Y796290D01*
X1028700Y821690D02*
X1054100Y796290D01*
X388620Y824230D02*
X391160Y826770D01*
X453390D01*
Y944880D01*
Y802640D02*
Y826770D01*
X472440Y783590D02*
X524510D01*
X453390Y802640D02*
X472440Y783590D01*
X867282Y821690D02*
X883920Y838328D01*
Y935990D01*
X670560Y948690D02*
X871220D01*
X883920Y935990D01*
X655320Y963930D02*
X670560Y948690D01*
X472440Y963930D02*
X655320D01*
X453390Y944880D02*
X472440Y963930D01*
M02*
