M48
;Layer_Color=9474304
;FILE_FORMAT=4:4
METRIC,LZ
;TYPE=PLATED
T05F00S00C0.6000
T08F00S00C1.0000
T11F00S00C1.1999
T12F00S00C1.6000
;TYPE=NON_PLATED
%
G90
G05
T05
G00X00078841Y0067668
M15
G01X00091846
M16
G00X00125843Y00682879
M15
G01Y0067688
M16
G00X00135843Y0067668
M15
G01X00125843
M16
G00X00135843Y00763078
M15
G01X00125844
M16
G00X00125844Y00762878
M15
G01Y0075688
M16
G00X00078842Y00763078
M15
G01X00091847
M16
T08
G00X0069077Y009228
M15
G01Y009048
M16
G00X0069077Y009774
M15
G01Y009694
M16
G00X0083577Y009774
M15
G01Y009694
M16
G00X0083577Y009228
M15
G01Y009048
M16
T11
G00X0039508Y0096882
M15
G01X00407079
M16
T12
G00X00370178Y0091632
M15
G01Y0090932
M16
G00X00431778Y0091532
M15
G01Y00910321
M16
M17
M30
