G04*
G04 #@! TF.GenerationSoftware,Altium Limited,Altium Designer,25.0.2 (28)*
G04*
G04 Layer_Color=16711935*
%FSLAX44Y44*%
%MOMM*%
G71*
G04*
G04 #@! TF.SameCoordinates,9CC9931D-9A39-465D-B94E-96E1981A4A0C*
G04*
G04*
G04 #@! TF.FilePolarity,Negative*
G04*
G01*
G75*
%ADD23C,0.6000*%
%ADD53R,0.6416X0.8917*%
%ADD54R,1.1032X1.0032*%
%ADD55R,0.6673X0.6416*%
%ADD56R,0.8917X0.6416*%
%ADD70R,0.6416X0.6673*%
%ADD72R,1.0032X1.1032*%
%ADD102R,1.9032X1.9032*%
%ADD103C,1.9032*%
%ADD104C,6.1000*%
%ADD105O,2.2032X3.7032*%
%ADD106O,2.2032X2.7032*%
%ADD107O,2.1016X1.0016*%
%ADD108O,1.0016X1.6016*%
%ADD109O,2.5016X1.1016*%
%ADD110C,0.8032*%
%ADD111C,3.3000*%
%ADD112C,1.2000*%
%ADD113O,3.2032X2.0032*%
%ADD114O,2.3032X2.9032*%
%ADD115O,2.3032X2.9032*%
%ADD116C,1.4031*%
G04:AMPARAMS|DCode=160|XSize=1.0032mm|YSize=1.1032mm|CornerRadius=0mm|HoleSize=0mm|Usage=FLASHONLY|Rotation=45.000|XOffset=0mm|YOffset=0mm|HoleType=Round|Shape=Rectangle|*
%AMROTATEDRECTD160*
4,1,4,0.0354,-0.7447,-0.7447,0.0354,-0.0354,0.7447,0.7447,-0.0354,0.0354,-0.7447,0.0*
%
%ADD160ROTATEDRECTD160*%

G04:AMPARAMS|DCode=161|XSize=0.8917mm|YSize=0.6416mm|CornerRadius=0mm|HoleSize=0mm|Usage=FLASHONLY|Rotation=45.000|XOffset=0mm|YOffset=0mm|HoleType=Round|Shape=Rectangle|*
%AMROTATEDRECTD161*
4,1,4,-0.0884,-0.5421,-0.5421,-0.0884,0.0884,0.5421,0.5421,0.0884,-0.0884,-0.5421,0.0*
%
%ADD161ROTATEDRECTD161*%

G04:AMPARAMS|DCode=162|XSize=0.6673mm|YSize=0.6416mm|CornerRadius=0mm|HoleSize=0mm|Usage=FLASHONLY|Rotation=45.000|XOffset=0mm|YOffset=0mm|HoleType=Round|Shape=Rectangle|*
%AMROTATEDRECTD162*
4,1,4,-0.0091,-0.4627,-0.4627,-0.0091,0.0091,0.4627,0.4627,0.0091,-0.0091,-0.4627,0.0*
%
%ADD162ROTATEDRECTD162*%

D23*
X102870Y11430D02*
D03*
X85090Y20320D02*
D03*
X119380Y19050D02*
D03*
X80010Y35560D02*
D03*
X125730D02*
D03*
X86360Y52070D02*
D03*
X119380D02*
D03*
X102870Y58420D02*
D03*
Y947420D02*
D03*
X85090Y956310D02*
D03*
X119380Y955040D02*
D03*
X80010Y971550D02*
D03*
X125730D02*
D03*
X86360Y988060D02*
D03*
X119380D02*
D03*
X102870Y994410D02*
D03*
X1037590Y947420D02*
D03*
X1019810Y956310D02*
D03*
X1054100Y955040D02*
D03*
X1014730Y971550D02*
D03*
X1060450D02*
D03*
X1021080Y988060D02*
D03*
X1054100D02*
D03*
X1037590Y994410D02*
D03*
X1038860Y58420D02*
D03*
X1055370Y52070D02*
D03*
X1022350D02*
D03*
X1061720Y35560D02*
D03*
X1016000D02*
D03*
X1055370Y19050D02*
D03*
X1021080Y20320D02*
D03*
X1038860Y11430D02*
D03*
D53*
X556517Y535526D02*
D03*
Y524625D02*
D03*
X564370Y535526D02*
D03*
Y524625D02*
D03*
X549910Y553349D02*
D03*
Y564251D02*
D03*
X540143Y553611D02*
D03*
Y564512D02*
D03*
X308416Y468270D02*
D03*
Y457369D02*
D03*
X615649Y656635D02*
D03*
Y645733D02*
D03*
X750004Y578479D02*
D03*
Y567577D02*
D03*
X558474Y561286D02*
D03*
Y572187D02*
D03*
X884970Y483571D02*
D03*
Y494472D02*
D03*
X895057Y483655D02*
D03*
Y494556D02*
D03*
X429875Y493697D02*
D03*
Y482796D02*
D03*
X527467Y557235D02*
D03*
Y568136D02*
D03*
X518160Y557159D02*
D03*
Y568061D02*
D03*
X571429Y524625D02*
D03*
Y535526D02*
D03*
X548953Y524625D02*
D03*
Y535526D02*
D03*
X578838Y557277D02*
D03*
Y568178D02*
D03*
X652302Y553657D02*
D03*
Y542756D02*
D03*
X476342Y655324D02*
D03*
Y666226D02*
D03*
X510871Y655574D02*
D03*
Y666476D02*
D03*
X500505Y655338D02*
D03*
Y666239D02*
D03*
X761298Y567883D02*
D03*
Y578784D02*
D03*
X754915Y554029D02*
D03*
Y543128D02*
D03*
X554225Y333638D02*
D03*
Y322737D02*
D03*
X567777Y318821D02*
D03*
Y329722D02*
D03*
X552450Y243469D02*
D03*
Y254371D02*
D03*
X933874Y555541D02*
D03*
Y544639D02*
D03*
X768289Y592708D02*
D03*
Y603609D02*
D03*
D54*
X488787Y667657D02*
D03*
Y653656D02*
D03*
X250081Y551170D02*
D03*
Y565171D02*
D03*
X325623Y469949D02*
D03*
Y455948D02*
D03*
X206961Y502067D02*
D03*
Y488067D02*
D03*
X220122Y502099D02*
D03*
Y488098D02*
D03*
X252661Y501395D02*
D03*
Y487394D02*
D03*
X433070Y356900D02*
D03*
Y342900D02*
D03*
X235088Y565347D02*
D03*
Y551347D02*
D03*
D55*
X602924Y644952D02*
D03*
X594267D02*
D03*
X541048Y269500D02*
D03*
X549704D02*
D03*
D56*
X571654Y579888D02*
D03*
X560753D02*
D03*
X957338Y517761D02*
D03*
X946437D02*
D03*
X879974Y553743D02*
D03*
X890875D02*
D03*
X472969Y528320D02*
D03*
X483870D02*
D03*
X550570Y573161D02*
D03*
X539669D02*
D03*
X550236Y581773D02*
D03*
X539335D02*
D03*
X515991Y546100D02*
D03*
X505089D02*
D03*
X529590D02*
D03*
X540491D02*
D03*
X578465Y546500D02*
D03*
X567564D02*
D03*
X630214Y531474D02*
D03*
X641115D02*
D03*
X607818Y529171D02*
D03*
X618719D02*
D03*
X607740Y539781D02*
D03*
X618641D02*
D03*
X423437Y566002D02*
D03*
X412536D02*
D03*
X448501Y633076D02*
D03*
X437600D02*
D03*
X448847Y607447D02*
D03*
X437946D02*
D03*
X461360Y283542D02*
D03*
X472261D02*
D03*
X500009Y269240D02*
D03*
X510911D02*
D03*
X576431Y269437D02*
D03*
X565530D02*
D03*
X593844Y269223D02*
D03*
X604745D02*
D03*
X920712Y559801D02*
D03*
X909810D02*
D03*
X607902Y550070D02*
D03*
X618803D02*
D03*
X448847Y565937D02*
D03*
X437946D02*
D03*
D70*
X631799Y543535D02*
D03*
Y552191D02*
D03*
X642338Y552085D02*
D03*
Y543428D02*
D03*
D72*
X435932Y620116D02*
D03*
X449933D02*
D03*
X385430Y549910D02*
D03*
X399430D02*
D03*
X251278Y516002D02*
D03*
X265278D02*
D03*
X204888Y546176D02*
D03*
X190888D02*
D03*
X204888Y516754D02*
D03*
X190888D02*
D03*
D102*
X1046480Y87630D02*
D03*
X1012896D02*
D03*
X979157D02*
D03*
X1051560Y340360D02*
D03*
D103*
X1046480Y113030D02*
D03*
Y138430D02*
D03*
Y163830D02*
D03*
Y189230D02*
D03*
Y214630D02*
D03*
X1012896Y113030D02*
D03*
Y138430D02*
D03*
Y163830D02*
D03*
Y189230D02*
D03*
Y214630D02*
D03*
X979157Y113030D02*
D03*
Y138430D02*
D03*
Y163830D02*
D03*
Y189230D02*
D03*
Y214630D02*
D03*
X1051560Y365760D02*
D03*
Y391160D02*
D03*
D104*
X102870Y35560D02*
D03*
Y971550D02*
D03*
X1037590D02*
D03*
X1038860Y35560D02*
D03*
D105*
X690770Y913799D02*
D03*
X835770D02*
D03*
D106*
X690770Y973400D02*
D03*
X835770D02*
D03*
D107*
X130844Y763078D02*
D03*
X130843Y676680D02*
D03*
D108*
X125844Y759879D02*
D03*
X125843Y679879D02*
D03*
D109*
X85344Y763078D02*
D03*
X85343Y676680D02*
D03*
D110*
X117343Y685880D02*
D03*
Y753878D02*
D03*
D111*
X616434Y928692D02*
D03*
Y871893D02*
D03*
X485034D02*
D03*
Y928692D02*
D03*
D112*
X590734Y861692D02*
D03*
X570734D02*
D03*
X550734D02*
D03*
X530734D02*
D03*
X510734D02*
D03*
X515733Y876693D02*
D03*
X540734D02*
D03*
X560734D02*
D03*
X585733D02*
D03*
X590734Y893694D02*
D03*
X570734D02*
D03*
X550734D02*
D03*
X530734D02*
D03*
X510734D02*
D03*
X515733Y908692D02*
D03*
X540734D02*
D03*
X560734D02*
D03*
X585733D02*
D03*
D113*
X401079Y968817D02*
D03*
D114*
X370168Y912810D02*
D03*
D115*
X431788D02*
D03*
D116*
X421958Y892820D02*
D03*
X407963D02*
D03*
X393993D02*
D03*
X379997D02*
D03*
D160*
X415468Y508717D02*
D03*
X425368Y518617D02*
D03*
D161*
X420997Y498966D02*
D03*
X413289Y491258D02*
D03*
X438106Y524466D02*
D03*
X445814Y532174D02*
D03*
X505953Y518492D02*
D03*
X513661Y526200D02*
D03*
X635285Y620162D02*
D03*
X627576Y612454D02*
D03*
X589448Y334532D02*
D03*
X597156Y342240D02*
D03*
X664497Y636168D02*
D03*
X656789Y628460D02*
D03*
D162*
X647180Y638289D02*
D03*
X653300Y644410D02*
D03*
X668770Y650990D02*
D03*
X674890Y657111D02*
D03*
M02*
