G04*
G04 #@! TF.GenerationSoftware,Altium Limited,Altium Designer,25.0.2 (28)*
G04*
G04 Layer_Color=8388736*
%FSLAX44Y44*%
%MOMM*%
G71*
G04*
G04 #@! TF.SameCoordinates,9CC9931D-9A39-465D-B94E-96E1981A4A0C*
G04*
G04*
G04 #@! TF.FilePolarity,Negative*
G04*
G01*
G75*
%ADD23C,0.6000*%
%ADD53R,0.6416X0.8917*%
%ADD54R,1.1032X1.0032*%
%ADD55R,0.6673X0.6416*%
%ADD56R,0.8917X0.6416*%
%ADD57R,1.4332X1.5632*%
%ADD58C,0.3556*%
%ADD59C,0.3816*%
%ADD60R,0.7000X1.6000*%
%ADD61R,1.6000X0.7000*%
%ADD62C,0.7000*%
%ADD63R,0.8032X1.5032*%
%ADD64R,1.4032X1.6032*%
%ADD65R,1.4032X2.2032*%
%ADD66R,0.4016X2.7016*%
%ADD67R,2.7032X2.0032*%
%ADD68R,3.0033X2.0032*%
%ADD69R,3.2032X2.0032*%
%ADD70R,0.6416X0.6673*%
%ADD71R,1.2032X0.9532*%
%ADD72R,1.0032X1.1032*%
%ADD73R,1.0516X0.4016*%
%ADD74R,1.6032X1.4032*%
%ADD75R,1.4031X0.8032*%
%ADD76R,0.7532X0.6532*%
G04:AMPARAMS|DCode=77|XSize=0.6673mm|YSize=0.6416mm|CornerRadius=0mm|HoleSize=0mm|Usage=FLASHONLY|Rotation=315.000|XOffset=0mm|YOffset=0mm|HoleType=Round|Shape=Rectangle|*
%AMROTATEDRECTD77*
4,1,4,-0.4627,0.0091,-0.0091,0.4627,0.4627,-0.0091,0.0091,-0.4627,-0.4627,0.0091,0.0*
%
%ADD77ROTATEDRECTD77*%

%ADD78R,5.9032X2.7032*%
%ADD79R,2.7032X5.9032*%
%ADD80R,3.2032X0.6032*%
%ADD81R,0.3016X0.7666*%
%ADD82C,0.3500*%
%ADD83O,0.3016X0.7666*%
%ADD84O,0.7666X0.3016*%
%ADD85R,4.7016X4.7016*%
%ADD86R,1.3782X0.6932*%
%ADD87R,1.3602X0.6932*%
%ADD88R,0.6532X0.7532*%
%ADD89R,1.0032X1.2032*%
%ADD90R,0.5016X0.7666*%
%ADD91R,0.9532X1.2032*%
%ADD92R,2.2032X2.2032*%
%ADD93R,1.1500X1.1000*%
%ADD94R,2.3000X1.1500*%
%ADD95R,0.6932X1.3782*%
%ADD96R,0.6932X1.3602*%
%ADD97R,0.9032X1.3032*%
%ADD98R,1.8032X3.7032*%
%ADD99R,3.7032X1.8032*%
%ADD100R,1.0032X1.0032*%
%ADD101R,0.8032X1.2732*%
%ADD102R,1.9032X1.9032*%
%ADD103C,1.9032*%
%ADD104C,6.1000*%
%ADD105O,2.2032X3.7032*%
%ADD106O,2.2032X2.7032*%
%ADD107O,2.1016X1.0016*%
%ADD108O,1.0016X1.6016*%
%ADD109O,2.5016X1.1016*%
%ADD110C,0.8032*%
%ADD111C,3.3000*%
%ADD112C,1.2000*%
%ADD113O,3.2032X2.0032*%
%ADD114O,2.3032X2.9032*%
%ADD115O,2.3032X2.9032*%
%ADD116C,1.4031*%
D23*
X102870Y11430D02*
D03*
X85090Y20320D02*
D03*
X119380Y19050D02*
D03*
X80010Y35560D02*
D03*
X125730D02*
D03*
X86360Y52070D02*
D03*
X119380D02*
D03*
X102870Y58420D02*
D03*
Y947420D02*
D03*
X85090Y956310D02*
D03*
X119380Y955040D02*
D03*
X80010Y971550D02*
D03*
X125730D02*
D03*
X86360Y988060D02*
D03*
X119380D02*
D03*
X102870Y994410D02*
D03*
X1037590Y947420D02*
D03*
X1019810Y956310D02*
D03*
X1054100Y955040D02*
D03*
X1014730Y971550D02*
D03*
X1060450D02*
D03*
X1021080Y988060D02*
D03*
X1054100D02*
D03*
X1037590Y994410D02*
D03*
X1038860Y58420D02*
D03*
X1055370Y52070D02*
D03*
X1022350D02*
D03*
X1061720Y35560D02*
D03*
X1016000D02*
D03*
X1055370Y19050D02*
D03*
X1021080Y20320D02*
D03*
X1038860Y11430D02*
D03*
D53*
X358140Y550281D02*
D03*
Y539379D02*
D03*
X378681Y606991D02*
D03*
Y596090D02*
D03*
X388387Y607136D02*
D03*
Y596235D02*
D03*
X311150Y467731D02*
D03*
Y456829D02*
D03*
X479671Y653010D02*
D03*
Y642108D02*
D03*
X489710Y653244D02*
D03*
Y642343D02*
D03*
X563620Y646321D02*
D03*
Y657222D02*
D03*
X573534Y646321D02*
D03*
Y657222D02*
D03*
X617173Y650497D02*
D03*
Y639596D02*
D03*
X640080Y629549D02*
D03*
Y640451D02*
D03*
X641350Y600339D02*
D03*
Y611241D02*
D03*
X641242Y587824D02*
D03*
Y576922D02*
D03*
X734530Y599133D02*
D03*
Y588232D02*
D03*
X308973Y357585D02*
D03*
Y368487D02*
D03*
X828840Y830211D02*
D03*
Y841112D02*
D03*
X913130Y121021D02*
D03*
Y110119D02*
D03*
X552450Y243469D02*
D03*
Y254371D02*
D03*
X962660Y831850D02*
D03*
Y842751D02*
D03*
X940354Y832652D02*
D03*
Y843554D02*
D03*
X846063Y864350D02*
D03*
Y875251D02*
D03*
X305362Y308182D02*
D03*
Y297281D02*
D03*
X270510Y592719D02*
D03*
Y603621D02*
D03*
X161068Y473315D02*
D03*
Y462414D02*
D03*
X147524Y473151D02*
D03*
Y462250D02*
D03*
X173990Y473181D02*
D03*
Y462280D02*
D03*
X379823Y113307D02*
D03*
Y124208D02*
D03*
X462184Y71836D02*
D03*
Y60935D02*
D03*
D54*
X366239Y610019D02*
D03*
Y596019D02*
D03*
X352060Y609755D02*
D03*
Y595754D02*
D03*
X325165Y469365D02*
D03*
Y455364D02*
D03*
X243808Y149423D02*
D03*
Y163424D02*
D03*
X419100Y476475D02*
D03*
Y462475D02*
D03*
X105410Y564530D02*
D03*
Y550530D02*
D03*
X144780Y626730D02*
D03*
Y640730D02*
D03*
X105410Y505552D02*
D03*
Y491552D02*
D03*
X245524Y594922D02*
D03*
Y608922D02*
D03*
X229378Y594635D02*
D03*
Y608636D02*
D03*
Y791342D02*
D03*
Y777342D02*
D03*
X477963Y72497D02*
D03*
Y58496D02*
D03*
D55*
X336760Y576580D02*
D03*
X328103D02*
D03*
X328237Y586762D02*
D03*
X336894D02*
D03*
X764220Y738886D02*
D03*
X772877D02*
D03*
X810391Y740057D02*
D03*
X819047D02*
D03*
X855524Y796587D02*
D03*
X864180D02*
D03*
X826519D02*
D03*
X817862D02*
D03*
X630921Y814007D02*
D03*
X622264D02*
D03*
X493221Y763757D02*
D03*
X484565D02*
D03*
X488479Y814311D02*
D03*
X479823D02*
D03*
X643770Y673946D02*
D03*
X652426D02*
D03*
X648475Y506627D02*
D03*
X657131D02*
D03*
X640671Y558497D02*
D03*
X649327D02*
D03*
X922393Y469309D02*
D03*
X913737D02*
D03*
X626403Y762836D02*
D03*
X635059D02*
D03*
X365158Y180273D02*
D03*
X356502D02*
D03*
X366131Y153670D02*
D03*
X357475D02*
D03*
X257958Y91440D02*
D03*
X249301D02*
D03*
X1002264Y340360D02*
D03*
X1010920D02*
D03*
X998927Y404701D02*
D03*
X1007584D02*
D03*
X869993Y307455D02*
D03*
X861337D02*
D03*
X785890Y307563D02*
D03*
X777234D02*
D03*
X1025408Y307340D02*
D03*
X1016752D02*
D03*
X949960Y317500D02*
D03*
X941304D02*
D03*
X882270Y357990D02*
D03*
X890926D02*
D03*
X882270Y387255D02*
D03*
X890926D02*
D03*
X365242Y777240D02*
D03*
X373898D02*
D03*
X365760Y824230D02*
D03*
X374416D02*
D03*
X550662Y121920D02*
D03*
X559318D02*
D03*
X556026Y180340D02*
D03*
X547370D02*
D03*
X555508Y193040D02*
D03*
X546852D02*
D03*
X470985Y303345D02*
D03*
X462329D02*
D03*
X525308Y233494D02*
D03*
X533965D02*
D03*
X533909Y243862D02*
D03*
X525253D02*
D03*
X971445Y858651D02*
D03*
X962788D02*
D03*
X931611D02*
D03*
X940267D02*
D03*
X768506Y713169D02*
D03*
X777163D02*
D03*
X867851Y738964D02*
D03*
X859195D02*
D03*
X125394Y212073D02*
D03*
X116738D02*
D03*
X125394Y222233D02*
D03*
X116738D02*
D03*
X125394Y236203D02*
D03*
X116738D02*
D03*
X125394Y248903D02*
D03*
X116738D02*
D03*
X318901Y218423D02*
D03*
X327558D02*
D03*
X125394Y307677D02*
D03*
X116738D02*
D03*
X327039Y280907D02*
D03*
X318383D02*
D03*
X327039Y269223D02*
D03*
X318383D02*
D03*
X327039Y257793D02*
D03*
X318383D02*
D03*
X327039Y246363D02*
D03*
X318383D02*
D03*
X327039Y234933D02*
D03*
X318383D02*
D03*
X125628Y320023D02*
D03*
X116971D02*
D03*
X123228Y784860D02*
D03*
X114572D02*
D03*
X95382D02*
D03*
X86725D02*
D03*
X318253Y478788D02*
D03*
X309597D02*
D03*
X328412Y538480D02*
D03*
X337068D02*
D03*
X328412Y527050D02*
D03*
X337068D02*
D03*
X337173Y549820D02*
D03*
X328517D02*
D03*
X283585Y581618D02*
D03*
X292242D02*
D03*
X328337Y504504D02*
D03*
X336994D02*
D03*
X328412Y515749D02*
D03*
X337069D02*
D03*
D56*
X291495Y49380D02*
D03*
X302396D02*
D03*
X621098Y824043D02*
D03*
X631999D02*
D03*
X474826Y825511D02*
D03*
X485727D02*
D03*
X666546Y673871D02*
D03*
X677447D02*
D03*
X732323Y650760D02*
D03*
X721422D02*
D03*
X732075Y638189D02*
D03*
X721174D02*
D03*
X732214Y625542D02*
D03*
X721313D02*
D03*
X761036Y570632D02*
D03*
X750135D02*
D03*
X529784Y401834D02*
D03*
X540685D02*
D03*
X594491Y269235D02*
D03*
X605392D02*
D03*
X291510Y176421D02*
D03*
X302411D02*
D03*
X264249Y176530D02*
D03*
X275150D02*
D03*
X424089Y565677D02*
D03*
X413188D02*
D03*
X870321Y293370D02*
D03*
X859419D02*
D03*
X786501Y294640D02*
D03*
X775599D02*
D03*
X1025261Y293370D02*
D03*
X1014359D02*
D03*
X949960Y292100D02*
D03*
X939059D02*
D03*
X618644Y292870D02*
D03*
X629546D02*
D03*
X461360Y269223D02*
D03*
X472261D02*
D03*
X461360Y292845D02*
D03*
X472261D02*
D03*
X499482Y269289D02*
D03*
X510383D02*
D03*
X576700Y269223D02*
D03*
X565798D02*
D03*
X461086Y314429D02*
D03*
X471987D02*
D03*
X629197Y320040D02*
D03*
X618295D02*
D03*
X523975Y254338D02*
D03*
X534877D02*
D03*
X145781Y105393D02*
D03*
X134880D02*
D03*
X178510Y687163D02*
D03*
X189412D02*
D03*
X284580Y469436D02*
D03*
X295481D02*
D03*
X338191Y561340D02*
D03*
X327289D02*
D03*
X363794Y864992D02*
D03*
X374695D02*
D03*
X355647Y166636D02*
D03*
X366548D02*
D03*
X415143Y190500D02*
D03*
X404242D02*
D03*
X259080Y71120D02*
D03*
X248179D02*
D03*
X259080Y81280D02*
D03*
X248179D02*
D03*
X721243Y613103D02*
D03*
X732144D02*
D03*
D57*
X800119Y265653D02*
D03*
X756421D02*
D03*
X885014D02*
D03*
X841316D02*
D03*
X1040389Y266700D02*
D03*
X996691D02*
D03*
X963950Y265653D02*
D03*
X920251D02*
D03*
D58*
X596779Y383761D02*
D03*
Y375760D02*
D03*
Y367759D02*
D03*
Y359758D02*
D03*
Y351757D02*
D03*
Y343756D02*
D03*
Y327754D02*
D03*
Y319753D02*
D03*
Y311752D02*
D03*
Y303751D02*
D03*
Y295750D02*
D03*
Y287749D02*
D03*
X590277Y383761D02*
D03*
Y375760D02*
D03*
Y367759D02*
D03*
Y359758D02*
D03*
Y351757D02*
D03*
Y343756D02*
D03*
Y327754D02*
D03*
Y319753D02*
D03*
Y311752D02*
D03*
Y303751D02*
D03*
Y295750D02*
D03*
Y287749D02*
D03*
X583774Y375760D02*
D03*
Y367759D02*
D03*
Y359758D02*
D03*
Y351757D02*
D03*
Y343756D02*
D03*
Y327754D02*
D03*
Y319753D02*
D03*
Y311752D02*
D03*
Y303751D02*
D03*
Y295750D02*
D03*
X577297Y375760D02*
D03*
Y351757D02*
D03*
Y343756D02*
D03*
Y327754D02*
D03*
Y319753D02*
D03*
Y311752D02*
D03*
Y303751D02*
D03*
Y295750D02*
D03*
X570795Y375760D02*
D03*
Y367759D02*
D03*
Y359758D02*
D03*
Y351757D02*
D03*
Y343756D02*
D03*
Y327754D02*
D03*
Y319753D02*
D03*
Y311752D02*
D03*
Y303751D02*
D03*
Y295750D02*
D03*
X564293Y375760D02*
D03*
Y367759D02*
D03*
Y359758D02*
D03*
Y351757D02*
D03*
Y343756D02*
D03*
Y327754D02*
D03*
Y319753D02*
D03*
Y311752D02*
D03*
Y303751D02*
D03*
Y295750D02*
D03*
X557790Y375760D02*
D03*
Y367759D02*
D03*
Y359758D02*
D03*
Y351757D02*
D03*
Y343756D02*
D03*
Y327754D02*
D03*
Y319753D02*
D03*
Y311752D02*
D03*
Y303751D02*
D03*
Y295750D02*
D03*
X551288Y375760D02*
D03*
Y367759D02*
D03*
Y359758D02*
D03*
Y351757D02*
D03*
Y343756D02*
D03*
Y327754D02*
D03*
Y319753D02*
D03*
Y311752D02*
D03*
Y303751D02*
D03*
Y295750D02*
D03*
X544785Y375760D02*
D03*
Y367759D02*
D03*
Y359758D02*
D03*
Y351757D02*
D03*
Y343756D02*
D03*
Y327754D02*
D03*
Y319753D02*
D03*
Y311752D02*
D03*
Y303751D02*
D03*
Y295750D02*
D03*
X538283Y375760D02*
D03*
Y367759D02*
D03*
Y359758D02*
D03*
Y351757D02*
D03*
Y343756D02*
D03*
Y327754D02*
D03*
Y319753D02*
D03*
Y311752D02*
D03*
Y303751D02*
D03*
Y295750D02*
D03*
X531781Y375760D02*
D03*
Y367759D02*
D03*
Y359758D02*
D03*
Y351757D02*
D03*
Y343756D02*
D03*
Y327754D02*
D03*
Y319753D02*
D03*
Y311752D02*
D03*
Y303751D02*
D03*
Y295750D02*
D03*
X525278Y375760D02*
D03*
Y367759D02*
D03*
Y359758D02*
D03*
Y351757D02*
D03*
Y343756D02*
D03*
Y327754D02*
D03*
Y319753D02*
D03*
Y311752D02*
D03*
Y303751D02*
D03*
Y295750D02*
D03*
X518776Y375760D02*
D03*
Y367759D02*
D03*
Y359758D02*
D03*
Y351757D02*
D03*
Y343756D02*
D03*
Y327754D02*
D03*
Y319753D02*
D03*
Y311752D02*
D03*
Y303751D02*
D03*
Y295750D02*
D03*
X512299Y375760D02*
D03*
Y367759D02*
D03*
Y359758D02*
D03*
Y351757D02*
D03*
Y343756D02*
D03*
Y327754D02*
D03*
Y319753D02*
D03*
Y311752D02*
D03*
Y303751D02*
D03*
Y295750D02*
D03*
X505796Y375760D02*
D03*
Y367759D02*
D03*
Y359758D02*
D03*
Y351757D02*
D03*
Y343756D02*
D03*
Y327754D02*
D03*
Y319753D02*
D03*
Y311752D02*
D03*
Y303751D02*
D03*
Y295750D02*
D03*
X499294Y383761D02*
D03*
Y375760D02*
D03*
Y367759D02*
D03*
Y359758D02*
D03*
Y351757D02*
D03*
Y343756D02*
D03*
Y327754D02*
D03*
Y319753D02*
D03*
Y311752D02*
D03*
Y303751D02*
D03*
Y295750D02*
D03*
Y287749D02*
D03*
X492792Y383761D02*
D03*
Y375760D02*
D03*
Y367759D02*
D03*
Y359758D02*
D03*
Y351757D02*
D03*
Y343756D02*
D03*
Y327754D02*
D03*
Y319753D02*
D03*
Y311752D02*
D03*
Y303751D02*
D03*
Y295750D02*
D03*
Y287749D02*
D03*
X577297Y367759D02*
D03*
Y359758D02*
D03*
D59*
X596529Y619318D02*
D03*
Y625820D02*
D03*
X590029Y619318D02*
D03*
Y625820D02*
D03*
X583529Y619318D02*
D03*
Y625820D02*
D03*
X564030Y612818D02*
D03*
Y619318D02*
D03*
X544530D02*
D03*
Y625820D02*
D03*
X551030Y619318D02*
D03*
Y625820D02*
D03*
X564030Y482820D02*
D03*
X570530Y489318D02*
D03*
X609531Y482818D02*
D03*
Y489318D02*
D03*
X544530Y482818D02*
D03*
Y489318D02*
D03*
X518531Y482818D02*
D03*
Y489318D02*
D03*
X473029D02*
D03*
X479532D02*
D03*
X551030Y482820D02*
D03*
X512030D02*
D03*
X499030D02*
D03*
X603030Y502319D02*
D03*
X505530Y521819D02*
D03*
X499030D02*
D03*
X583530Y528319D02*
D03*
X616030Y534819D02*
D03*
X583530D02*
D03*
X596530Y541319D02*
D03*
X590030D02*
D03*
X505530D02*
D03*
X499030D02*
D03*
X492530D02*
D03*
X583530Y554319D02*
D03*
X512030D02*
D03*
X473030D02*
D03*
X590030Y560820D02*
D03*
X583530D02*
D03*
X577030D02*
D03*
X505530D02*
D03*
X499030D02*
D03*
X492530D02*
D03*
X616030Y567319D02*
D03*
X499030Y580319D02*
D03*
X492530D02*
D03*
X596530Y593319D02*
D03*
X590030D02*
D03*
X564030D02*
D03*
X544530D02*
D03*
X538030D02*
D03*
X577030Y599819D02*
D03*
X499031Y606318D02*
D03*
X512030Y612819D02*
D03*
X577030Y625819D02*
D03*
X557530D02*
D03*
X525030D02*
D03*
X518530D02*
D03*
X505530D02*
D03*
X486030D02*
D03*
X616031Y482818D02*
D03*
Y489318D02*
D03*
Y495821D02*
D03*
Y502321D02*
D03*
Y508820D02*
D03*
Y521820D02*
D03*
Y547820D02*
D03*
Y554319D02*
D03*
Y580319D02*
D03*
Y593319D02*
D03*
Y606318D02*
D03*
Y612818D02*
D03*
Y619318D02*
D03*
Y625820D02*
D03*
X609531Y495821D02*
D03*
Y502321D02*
D03*
Y508820D02*
D03*
Y515320D02*
D03*
Y521820D02*
D03*
Y528320D02*
D03*
Y534820D02*
D03*
Y541320D02*
D03*
Y547820D02*
D03*
Y554319D02*
D03*
Y560819D02*
D03*
Y567319D02*
D03*
Y573819D02*
D03*
Y580319D02*
D03*
Y586819D02*
D03*
Y593319D02*
D03*
Y599818D02*
D03*
Y606318D02*
D03*
Y612818D02*
D03*
Y619318D02*
D03*
Y625820D02*
D03*
X603029Y482818D02*
D03*
Y489318D02*
D03*
Y495821D02*
D03*
Y508820D02*
D03*
Y515320D02*
D03*
Y521820D02*
D03*
Y528320D02*
D03*
Y534820D02*
D03*
Y541320D02*
D03*
Y554319D02*
D03*
Y560819D02*
D03*
Y567319D02*
D03*
Y573819D02*
D03*
Y580319D02*
D03*
Y586819D02*
D03*
Y593319D02*
D03*
Y599818D02*
D03*
Y606318D02*
D03*
Y619318D02*
D03*
Y625820D02*
D03*
X596529Y482818D02*
D03*
Y489318D02*
D03*
Y495821D02*
D03*
Y502321D02*
D03*
Y515320D02*
D03*
X590030Y521819D02*
D03*
X596529Y528320D02*
D03*
Y534820D02*
D03*
Y547820D02*
D03*
Y560819D02*
D03*
Y567319D02*
D03*
Y573819D02*
D03*
Y580319D02*
D03*
Y586819D02*
D03*
Y606318D02*
D03*
Y612818D02*
D03*
X590029Y482818D02*
D03*
Y489318D02*
D03*
Y495821D02*
D03*
Y502321D02*
D03*
Y508820D02*
D03*
Y515320D02*
D03*
Y528320D02*
D03*
Y534820D02*
D03*
Y547820D02*
D03*
Y554319D02*
D03*
Y573819D02*
D03*
Y580319D02*
D03*
Y599818D02*
D03*
Y606318D02*
D03*
Y612818D02*
D03*
X583529Y482818D02*
D03*
Y489318D02*
D03*
X577030Y495820D02*
D03*
Y502319D02*
D03*
Y508820D02*
D03*
X616030Y515319D02*
D03*
X583529Y521820D02*
D03*
Y541320D02*
D03*
Y547820D02*
D03*
Y567319D02*
D03*
Y580319D02*
D03*
Y599818D02*
D03*
Y606318D02*
D03*
Y612818D02*
D03*
X577030Y482818D02*
D03*
Y489318D02*
D03*
X570530Y495818D02*
D03*
X577030Y521820D02*
D03*
Y528320D02*
D03*
Y534820D02*
D03*
Y541320D02*
D03*
Y547820D02*
D03*
Y554319D02*
D03*
Y567319D02*
D03*
Y573819D02*
D03*
Y580319D02*
D03*
Y586819D02*
D03*
Y593319D02*
D03*
Y619318D02*
D03*
X570530Y482818D02*
D03*
Y502321D02*
D03*
Y508820D02*
D03*
X577030Y515319D02*
D03*
X570530Y521820D02*
D03*
Y528320D02*
D03*
Y534820D02*
D03*
Y541320D02*
D03*
Y547820D02*
D03*
Y554319D02*
D03*
Y560819D02*
D03*
Y567319D02*
D03*
Y573819D02*
D03*
Y580319D02*
D03*
Y586819D02*
D03*
Y593319D02*
D03*
Y599818D02*
D03*
Y606318D02*
D03*
Y612818D02*
D03*
Y619318D02*
D03*
Y625820D02*
D03*
X564030Y489318D02*
D03*
Y495818D02*
D03*
X557530Y502319D02*
D03*
Y508820D02*
D03*
X564030Y515320D02*
D03*
Y521820D02*
D03*
Y528320D02*
D03*
Y534820D02*
D03*
Y541320D02*
D03*
Y547820D02*
D03*
Y554319D02*
D03*
Y560819D02*
D03*
Y567319D02*
D03*
Y573819D02*
D03*
Y580319D02*
D03*
Y586819D02*
D03*
Y599818D02*
D03*
Y606318D02*
D03*
X557530Y482818D02*
D03*
Y489318D02*
D03*
Y495821D02*
D03*
Y521820D02*
D03*
Y528320D02*
D03*
Y534820D02*
D03*
Y541320D02*
D03*
Y547820D02*
D03*
Y554319D02*
D03*
Y560819D02*
D03*
Y567319D02*
D03*
Y573819D02*
D03*
Y580319D02*
D03*
Y586819D02*
D03*
Y593319D02*
D03*
Y599818D02*
D03*
Y612818D02*
D03*
Y619318D02*
D03*
X551030Y489318D02*
D03*
Y495821D02*
D03*
Y502321D02*
D03*
Y508820D02*
D03*
Y515320D02*
D03*
Y521820D02*
D03*
Y528320D02*
D03*
Y534820D02*
D03*
Y541320D02*
D03*
Y547820D02*
D03*
Y554319D02*
D03*
Y560819D02*
D03*
Y567319D02*
D03*
Y573819D02*
D03*
Y580319D02*
D03*
Y586819D02*
D03*
Y593319D02*
D03*
Y599818D02*
D03*
Y612818D02*
D03*
X538030Y495820D02*
D03*
X538030Y515320D02*
D03*
X544530Y521820D02*
D03*
Y528320D02*
D03*
Y534820D02*
D03*
Y541320D02*
D03*
Y547820D02*
D03*
Y554319D02*
D03*
Y560819D02*
D03*
Y567319D02*
D03*
Y573819D02*
D03*
Y580319D02*
D03*
Y586819D02*
D03*
Y599818D02*
D03*
Y606318D02*
D03*
Y612818D02*
D03*
X538030Y482818D02*
D03*
Y489318D02*
D03*
Y502321D02*
D03*
Y508820D02*
D03*
Y521820D02*
D03*
Y528320D02*
D03*
Y534820D02*
D03*
Y541320D02*
D03*
Y547820D02*
D03*
Y554319D02*
D03*
Y560819D02*
D03*
Y567319D02*
D03*
Y573819D02*
D03*
Y580319D02*
D03*
Y586819D02*
D03*
Y599818D02*
D03*
Y606318D02*
D03*
X531531Y482818D02*
D03*
Y489318D02*
D03*
Y502321D02*
D03*
Y508820D02*
D03*
Y515320D02*
D03*
Y521820D02*
D03*
Y528320D02*
D03*
Y534820D02*
D03*
Y541320D02*
D03*
Y547820D02*
D03*
Y554319D02*
D03*
Y560819D02*
D03*
Y567319D02*
D03*
Y573819D02*
D03*
Y580319D02*
D03*
Y586819D02*
D03*
Y599818D02*
D03*
Y619318D02*
D03*
Y625820D02*
D03*
X525031Y482818D02*
D03*
Y489318D02*
D03*
X531530Y495820D02*
D03*
X525031Y521820D02*
D03*
Y528320D02*
D03*
Y534820D02*
D03*
Y541320D02*
D03*
Y547820D02*
D03*
Y554319D02*
D03*
Y560819D02*
D03*
Y567319D02*
D03*
Y573819D02*
D03*
Y580319D02*
D03*
Y586819D02*
D03*
Y593319D02*
D03*
Y599818D02*
D03*
Y606318D02*
D03*
Y612818D02*
D03*
Y619318D02*
D03*
X518531Y495821D02*
D03*
Y502321D02*
D03*
Y508820D02*
D03*
X525030Y515319D02*
D03*
X518531Y521820D02*
D03*
Y528320D02*
D03*
Y534820D02*
D03*
Y541320D02*
D03*
Y547820D02*
D03*
Y554319D02*
D03*
Y560819D02*
D03*
Y567319D02*
D03*
Y573819D02*
D03*
Y580319D02*
D03*
Y586819D02*
D03*
Y593319D02*
D03*
Y599818D02*
D03*
Y612818D02*
D03*
Y619318D02*
D03*
X512031Y489318D02*
D03*
Y495821D02*
D03*
Y502321D02*
D03*
Y508820D02*
D03*
Y515320D02*
D03*
Y521820D02*
D03*
Y528320D02*
D03*
Y534820D02*
D03*
Y541320D02*
D03*
Y547820D02*
D03*
Y560819D02*
D03*
Y567319D02*
D03*
Y573819D02*
D03*
Y580319D02*
D03*
Y586819D02*
D03*
Y593319D02*
D03*
Y599818D02*
D03*
Y619318D02*
D03*
X505531Y482818D02*
D03*
Y489318D02*
D03*
Y515320D02*
D03*
Y534820D02*
D03*
Y554319D02*
D03*
Y573819D02*
D03*
Y580319D02*
D03*
Y599818D02*
D03*
Y619318D02*
D03*
X499031Y489318D02*
D03*
Y495821D02*
D03*
Y502321D02*
D03*
Y508820D02*
D03*
Y534820D02*
D03*
Y554319D02*
D03*
Y573819D02*
D03*
Y593319D02*
D03*
Y599818D02*
D03*
Y612818D02*
D03*
Y619318D02*
D03*
Y625820D02*
D03*
X492531Y482818D02*
D03*
Y489318D02*
D03*
Y495821D02*
D03*
Y508820D02*
D03*
X499030Y515319D02*
D03*
X492531Y521820D02*
D03*
Y554319D02*
D03*
Y599818D02*
D03*
Y606318D02*
D03*
Y612818D02*
D03*
Y619318D02*
D03*
X486031Y482818D02*
D03*
Y489318D02*
D03*
Y495821D02*
D03*
Y502321D02*
D03*
Y508820D02*
D03*
Y515320D02*
D03*
Y521820D02*
D03*
Y528320D02*
D03*
Y534820D02*
D03*
Y541320D02*
D03*
Y547820D02*
D03*
Y554319D02*
D03*
Y560819D02*
D03*
Y567319D02*
D03*
Y573819D02*
D03*
Y580319D02*
D03*
Y586819D02*
D03*
Y593319D02*
D03*
Y599818D02*
D03*
Y606318D02*
D03*
Y612818D02*
D03*
Y619318D02*
D03*
X479532Y482818D02*
D03*
Y495821D02*
D03*
Y502321D02*
D03*
Y508820D02*
D03*
Y515320D02*
D03*
Y521820D02*
D03*
Y528320D02*
D03*
Y534820D02*
D03*
Y541320D02*
D03*
Y547820D02*
D03*
Y554319D02*
D03*
Y560819D02*
D03*
Y567319D02*
D03*
Y573819D02*
D03*
Y580319D02*
D03*
Y586819D02*
D03*
Y593319D02*
D03*
Y599818D02*
D03*
Y606318D02*
D03*
Y612818D02*
D03*
Y619318D02*
D03*
X473029Y482818D02*
D03*
Y495821D02*
D03*
Y502321D02*
D03*
Y508820D02*
D03*
Y515320D02*
D03*
Y528320D02*
D03*
Y541320D02*
D03*
Y567319D02*
D03*
Y580319D02*
D03*
Y593319D02*
D03*
Y599818D02*
D03*
Y606318D02*
D03*
Y612818D02*
D03*
Y619318D02*
D03*
Y625820D02*
D03*
D60*
X180916Y203988D02*
D03*
X189806D02*
D03*
X198950D02*
D03*
X207840D02*
D03*
X216984D02*
D03*
X225874D02*
D03*
X234764D02*
D03*
X243908D02*
D03*
X252798D02*
D03*
X261942D02*
D03*
X270832D02*
D03*
Y321778D02*
D03*
X261942D02*
D03*
X252798D02*
D03*
X243908D02*
D03*
X234764D02*
D03*
X225874D02*
D03*
X216984D02*
D03*
X207840D02*
D03*
X198950D02*
D03*
X189806D02*
D03*
X180916D02*
D03*
D61*
X284769Y217925D02*
D03*
Y226815D02*
D03*
Y235959D02*
D03*
Y244849D02*
D03*
Y253993D02*
D03*
Y262883D02*
D03*
Y271773D02*
D03*
Y280917D02*
D03*
Y289807D02*
D03*
Y298951D02*
D03*
Y307841D02*
D03*
X166979D02*
D03*
Y298951D02*
D03*
Y289807D02*
D03*
Y280917D02*
D03*
Y271773D02*
D03*
Y262883D02*
D03*
Y253993D02*
D03*
Y244849D02*
D03*
Y235959D02*
D03*
Y226815D02*
D03*
Y217925D02*
D03*
D62*
X189806Y235883D02*
D03*
Y253884D02*
D03*
Y271882D02*
D03*
D63*
X213950Y862838D02*
D03*
X224950D02*
D03*
X235951D02*
D03*
X246951D02*
D03*
X257949D02*
D03*
X268950D02*
D03*
X279950D02*
D03*
X290949D02*
D03*
X301950Y862842D02*
D03*
D64*
X313950Y871342D02*
D03*
X167150D02*
D03*
D65*
X158750Y968360D02*
D03*
X313950D02*
D03*
D66*
X808267Y906200D02*
D03*
X803266D02*
D03*
X798267D02*
D03*
X793266D02*
D03*
X788267D02*
D03*
X783266D02*
D03*
X778267D02*
D03*
X773266D02*
D03*
X768267D02*
D03*
X763266D02*
D03*
X758268D02*
D03*
X753266D02*
D03*
X748268D02*
D03*
X743266D02*
D03*
X738268D02*
D03*
X733266D02*
D03*
X728268D02*
D03*
X723266D02*
D03*
X718268D02*
D03*
D67*
X985228Y948699D02*
D03*
D68*
X917230Y907200D02*
D03*
Y976199D02*
D03*
D69*
X985230Y890701D02*
D03*
D70*
X747432Y777463D02*
D03*
Y786119D02*
D03*
X511810Y783072D02*
D03*
Y791728D02*
D03*
X458281Y561609D02*
D03*
Y570265D02*
D03*
X629947Y598951D02*
D03*
Y590295D02*
D03*
X753951Y590254D02*
D03*
Y598910D02*
D03*
X536136Y415190D02*
D03*
Y423846D02*
D03*
X655549Y793136D02*
D03*
Y784479D02*
D03*
X368374Y122122D02*
D03*
Y113466D02*
D03*
X439420Y73426D02*
D03*
Y64770D02*
D03*
X480061Y671651D02*
D03*
Y680307D02*
D03*
X509807D02*
D03*
Y671651D02*
D03*
X489858Y680307D02*
D03*
Y671651D02*
D03*
X499919D02*
D03*
Y680307D02*
D03*
X951230Y114508D02*
D03*
Y123164D02*
D03*
Y78740D02*
D03*
Y87396D02*
D03*
X246042Y790387D02*
D03*
Y781731D02*
D03*
X396240Y794502D02*
D03*
Y803158D02*
D03*
X342869Y790928D02*
D03*
Y799584D02*
D03*
X303869Y800510D02*
D03*
Y791854D02*
D03*
X434439Y473860D02*
D03*
Y482516D02*
D03*
X831850Y864352D02*
D03*
Y873008D02*
D03*
X263565Y340334D02*
D03*
Y348990D02*
D03*
X275002Y339984D02*
D03*
Y348640D02*
D03*
X225874Y153798D02*
D03*
Y162455D02*
D03*
X458053Y591704D02*
D03*
Y600360D02*
D03*
X987727Y513769D02*
D03*
Y522426D02*
D03*
X147524Y422340D02*
D03*
Y430997D02*
D03*
X173748Y431164D02*
D03*
Y422508D02*
D03*
X210820Y780532D02*
D03*
Y789188D02*
D03*
D71*
X866352Y840037D02*
D03*
X842900D02*
D03*
D72*
X619114Y836714D02*
D03*
X633115D02*
D03*
X471975Y837837D02*
D03*
X485975D02*
D03*
X302941Y507922D02*
D03*
X288940D02*
D03*
X288829Y524428D02*
D03*
X302829D02*
D03*
X399430Y549910D02*
D03*
X385430D02*
D03*
X616866Y305320D02*
D03*
X630866D02*
D03*
X178561Y701731D02*
D03*
X192562D02*
D03*
X178401Y719019D02*
D03*
X192402D02*
D03*
X296294Y568922D02*
D03*
X282293D02*
D03*
X203962Y415542D02*
D03*
X189961D02*
D03*
X247053D02*
D03*
X261054D02*
D03*
X288625Y491754D02*
D03*
X302625D02*
D03*
X361357Y849771D02*
D03*
X375358D02*
D03*
X416413Y176530D02*
D03*
X402413D02*
D03*
D73*
X137343Y746079D02*
D03*
Y741078D02*
D03*
Y736079D02*
D03*
Y731078D02*
D03*
Y726079D02*
D03*
Y721078D02*
D03*
Y716079D02*
D03*
Y711078D02*
D03*
Y706079D02*
D03*
Y701078D02*
D03*
Y696079D02*
D03*
Y691078D02*
D03*
X124344Y748579D02*
D03*
Y743580D02*
D03*
Y738579D02*
D03*
Y733580D02*
D03*
Y728579D02*
D03*
Y723580D02*
D03*
Y718579D02*
D03*
Y713580D02*
D03*
Y708579D02*
D03*
Y703580D02*
D03*
Y698579D02*
D03*
Y693580D02*
D03*
D74*
X655669Y657263D02*
D03*
X677671D02*
D03*
Y640262D02*
D03*
X655669D02*
D03*
X270720Y160790D02*
D03*
X292721D02*
D03*
Y143790D02*
D03*
X270720D02*
D03*
D75*
X653990Y589671D02*
D03*
X716993D02*
D03*
Y598172D02*
D03*
X653990D02*
D03*
D76*
X744220Y590111D02*
D03*
Y598609D02*
D03*
X818816Y839911D02*
D03*
Y831412D02*
D03*
X820916Y864760D02*
D03*
Y873259D02*
D03*
X803957Y865804D02*
D03*
Y874303D02*
D03*
X792524Y865919D02*
D03*
Y874418D02*
D03*
X780859Y865919D02*
D03*
Y874418D02*
D03*
X280800Y827969D02*
D03*
Y836468D02*
D03*
X292230Y827969D02*
D03*
Y836468D02*
D03*
X213490Y827969D02*
D03*
Y836468D02*
D03*
X224920Y827969D02*
D03*
Y836468D02*
D03*
X237620Y827969D02*
D03*
Y836468D02*
D03*
X258258Y827969D02*
D03*
Y836468D02*
D03*
X302628Y827969D02*
D03*
Y836468D02*
D03*
X247545Y827969D02*
D03*
Y836468D02*
D03*
D77*
X550685Y406433D02*
D03*
X544564Y412554D02*
D03*
D78*
X346486Y365166D02*
D03*
X346740Y318166D02*
D03*
D79*
X443250Y115404D02*
D03*
X490250Y115658D02*
D03*
D80*
X750571Y146481D02*
D03*
Y139481D02*
D03*
Y125481D02*
D03*
Y132481D02*
D03*
Y118481D02*
D03*
Y111481D02*
D03*
Y104480D02*
D03*
Y97480D02*
D03*
Y90480D02*
D03*
Y83480D02*
D03*
Y76479D02*
D03*
Y69479D02*
D03*
Y62479D02*
D03*
D81*
X765257Y870839D02*
D03*
X770256D02*
D03*
X750256D02*
D03*
X755257D02*
D03*
X730766Y869049D02*
D03*
X735764D02*
D03*
X715764D02*
D03*
X720766D02*
D03*
X558721Y831098D02*
D03*
X563720D02*
D03*
X543720D02*
D03*
X548721D02*
D03*
X543720Y822442D02*
D03*
X548721D02*
D03*
X735764Y860393D02*
D03*
X730766D02*
D03*
X720766D02*
D03*
X715764D02*
D03*
X770256Y862183D02*
D03*
X765257D02*
D03*
X755257D02*
D03*
X750256D02*
D03*
X563720Y822442D02*
D03*
X558721D02*
D03*
D82*
X879497Y507707D02*
D03*
Y512708D02*
D03*
Y517707D02*
D03*
Y522708D02*
D03*
Y527707D02*
D03*
Y532708D02*
D03*
Y537707D02*
D03*
Y542708D02*
D03*
Y547707D02*
D03*
Y552708D02*
D03*
Y557707D02*
D03*
Y562708D02*
D03*
Y567707D02*
D03*
Y572708D02*
D03*
X884498Y507707D02*
D03*
Y512708D02*
D03*
Y517707D02*
D03*
Y522708D02*
D03*
Y527707D02*
D03*
Y532708D02*
D03*
Y537707D02*
D03*
Y542708D02*
D03*
Y547707D02*
D03*
Y552708D02*
D03*
Y557707D02*
D03*
Y562708D02*
D03*
Y567707D02*
D03*
Y572708D02*
D03*
X889497Y507707D02*
D03*
Y512708D02*
D03*
Y517707D02*
D03*
Y522708D02*
D03*
Y527707D02*
D03*
Y532708D02*
D03*
Y537707D02*
D03*
Y542708D02*
D03*
Y547707D02*
D03*
Y552708D02*
D03*
Y557707D02*
D03*
Y562708D02*
D03*
Y567707D02*
D03*
Y572708D02*
D03*
X894498Y507707D02*
D03*
Y512708D02*
D03*
Y517707D02*
D03*
Y522708D02*
D03*
Y562708D02*
D03*
Y567707D02*
D03*
Y572708D02*
D03*
X899497Y507707D02*
D03*
Y512708D02*
D03*
Y517707D02*
D03*
Y527707D02*
D03*
Y532708D02*
D03*
Y537707D02*
D03*
Y542708D02*
D03*
Y547707D02*
D03*
Y552708D02*
D03*
Y562708D02*
D03*
Y567707D02*
D03*
Y572708D02*
D03*
X904498Y507707D02*
D03*
Y512708D02*
D03*
Y517707D02*
D03*
Y527707D02*
D03*
Y552708D02*
D03*
Y562708D02*
D03*
Y567707D02*
D03*
Y572708D02*
D03*
X909497Y507707D02*
D03*
Y512708D02*
D03*
Y517707D02*
D03*
Y527707D02*
D03*
Y552708D02*
D03*
Y562708D02*
D03*
Y567707D02*
D03*
Y572708D02*
D03*
X914498Y507707D02*
D03*
Y512708D02*
D03*
Y517707D02*
D03*
Y527707D02*
D03*
Y552708D02*
D03*
Y562708D02*
D03*
Y567707D02*
D03*
Y572708D02*
D03*
X919497Y507707D02*
D03*
Y512708D02*
D03*
Y517707D02*
D03*
Y527707D02*
D03*
Y552708D02*
D03*
Y562708D02*
D03*
Y567707D02*
D03*
Y572708D02*
D03*
X924498Y507707D02*
D03*
Y512708D02*
D03*
Y517707D02*
D03*
Y527707D02*
D03*
Y532708D02*
D03*
Y537707D02*
D03*
Y542708D02*
D03*
Y547707D02*
D03*
Y552708D02*
D03*
Y562708D02*
D03*
Y567707D02*
D03*
Y572708D02*
D03*
X929497Y507707D02*
D03*
Y512708D02*
D03*
Y517707D02*
D03*
Y562708D02*
D03*
Y567707D02*
D03*
Y572708D02*
D03*
X934498Y507707D02*
D03*
Y512708D02*
D03*
Y517707D02*
D03*
Y522708D02*
D03*
Y527707D02*
D03*
Y532708D02*
D03*
Y537707D02*
D03*
Y542708D02*
D03*
Y547707D02*
D03*
Y552708D02*
D03*
Y557707D02*
D03*
Y562708D02*
D03*
Y567707D02*
D03*
Y572708D02*
D03*
X939497Y507707D02*
D03*
Y512708D02*
D03*
Y517707D02*
D03*
Y522708D02*
D03*
Y527707D02*
D03*
Y532708D02*
D03*
Y537707D02*
D03*
Y542708D02*
D03*
Y547707D02*
D03*
Y552708D02*
D03*
Y557707D02*
D03*
Y562708D02*
D03*
Y567707D02*
D03*
Y572708D02*
D03*
X944498Y507707D02*
D03*
Y512708D02*
D03*
Y517707D02*
D03*
Y522708D02*
D03*
Y527707D02*
D03*
Y532708D02*
D03*
Y537707D02*
D03*
Y542708D02*
D03*
Y547707D02*
D03*
Y552708D02*
D03*
Y557707D02*
D03*
Y562708D02*
D03*
Y567707D02*
D03*
Y572708D02*
D03*
D83*
X201329Y495515D02*
D03*
X205330D02*
D03*
X209330D02*
D03*
X213328D02*
D03*
X217329D02*
D03*
X221329D02*
D03*
X225330D02*
D03*
X229330D02*
D03*
X233328D02*
D03*
X237329D02*
D03*
X241329D02*
D03*
X245330D02*
D03*
X249330D02*
D03*
X253328D02*
D03*
Y563665D02*
D03*
X249330D02*
D03*
X245330D02*
D03*
X241329D02*
D03*
X237329D02*
D03*
X233328D02*
D03*
X229330D02*
D03*
X225330D02*
D03*
X221329D02*
D03*
X217329D02*
D03*
X213328D02*
D03*
X209330D02*
D03*
X205330D02*
D03*
X201329D02*
D03*
D84*
X261405Y503592D02*
D03*
Y507590D02*
D03*
Y511590D02*
D03*
Y515591D02*
D03*
Y519591D02*
D03*
Y523592D02*
D03*
Y527590D02*
D03*
Y531590D02*
D03*
Y535591D02*
D03*
Y539591D02*
D03*
Y543592D02*
D03*
Y547590D02*
D03*
Y551590D02*
D03*
Y555591D02*
D03*
X193255D02*
D03*
Y551590D02*
D03*
Y547590D02*
D03*
Y543592D02*
D03*
Y539591D02*
D03*
Y535591D02*
D03*
Y531590D02*
D03*
Y527590D02*
D03*
Y523592D02*
D03*
Y519591D02*
D03*
Y515591D02*
D03*
Y511590D02*
D03*
Y507590D02*
D03*
Y503592D02*
D03*
D85*
X227329Y529591D02*
D03*
D86*
X381107Y809600D02*
D03*
Y790600D02*
D03*
D87*
X358033D02*
D03*
Y800100D02*
D03*
Y809600D02*
D03*
D88*
X416645Y856135D02*
D03*
X408146D02*
D03*
X391169Y855980D02*
D03*
X399668D02*
D03*
X940631Y306070D02*
D03*
X949129D02*
D03*
X530860Y835660D02*
D03*
X522361D02*
D03*
X506574D02*
D03*
X515073D02*
D03*
X601708Y835662D02*
D03*
X593209D02*
D03*
X577173Y835660D02*
D03*
X585672D02*
D03*
D89*
X560680Y161360D02*
D03*
X551180Y138360D02*
D03*
X541680Y161360D02*
D03*
D90*
X725764Y869049D02*
D03*
Y860393D02*
D03*
X760256Y870839D02*
D03*
Y862183D02*
D03*
X553720Y831098D02*
D03*
Y822442D02*
D03*
D91*
X747432Y762026D02*
D03*
Y738574D02*
D03*
D92*
X177500Y744197D02*
D03*
X221498D02*
D03*
D93*
X115471Y105393D02*
D03*
D94*
X100224Y90644D02*
D03*
Y120143D02*
D03*
D95*
X498494Y777285D02*
D03*
X479495D02*
D03*
X640690Y777133D02*
D03*
X621690D02*
D03*
X283870Y92817D02*
D03*
X302870D02*
D03*
D96*
X479495Y800359D02*
D03*
X488995D02*
D03*
X498494D02*
D03*
X621690Y800207D02*
D03*
X631190D02*
D03*
X640690D02*
D03*
X302870Y69743D02*
D03*
X293370D02*
D03*
X283870D02*
D03*
D97*
X395472Y112790D02*
D03*
X404972D02*
D03*
X414492D02*
D03*
Y138670D02*
D03*
X395493D02*
D03*
D98*
X158116Y567318D02*
D03*
X126117D02*
D03*
X163447Y615359D02*
D03*
X195446D02*
D03*
X158116Y520835D02*
D03*
X126117D02*
D03*
D99*
X201597Y433614D02*
D03*
Y465613D02*
D03*
X253603Y433781D02*
D03*
Y465780D02*
D03*
D100*
X912701Y357988D02*
D03*
X928691Y357991D02*
D03*
Y386574D02*
D03*
X912701Y386572D02*
D03*
D101*
X817828Y781173D02*
D03*
X827327Y756472D02*
D03*
X808328D02*
D03*
X864404Y781420D02*
D03*
X873904Y756718D02*
D03*
X854905D02*
D03*
X772062Y785722D02*
D03*
X781562Y761020D02*
D03*
X762562D02*
D03*
X1003255Y363714D02*
D03*
X993756Y388415D02*
D03*
X1012755D02*
D03*
D102*
X1046480Y87630D02*
D03*
X1012896D02*
D03*
X979157D02*
D03*
X1051560Y340360D02*
D03*
D103*
X1046480Y113030D02*
D03*
Y138430D02*
D03*
Y163830D02*
D03*
Y189230D02*
D03*
Y214630D02*
D03*
X1012896Y113030D02*
D03*
Y138430D02*
D03*
Y163830D02*
D03*
Y189230D02*
D03*
Y214630D02*
D03*
X979157Y113030D02*
D03*
Y138430D02*
D03*
Y163830D02*
D03*
Y189230D02*
D03*
Y214630D02*
D03*
X1051560Y365760D02*
D03*
Y391160D02*
D03*
D104*
X102870Y35560D02*
D03*
Y971550D02*
D03*
X1037590D02*
D03*
X1038860Y35560D02*
D03*
D105*
X690770Y913799D02*
D03*
X835770D02*
D03*
D106*
X690770Y973400D02*
D03*
X835770D02*
D03*
D107*
X130844Y763078D02*
D03*
X130843Y676680D02*
D03*
D108*
X125844Y759879D02*
D03*
X125843Y679879D02*
D03*
D109*
X85344Y763078D02*
D03*
X85343Y676680D02*
D03*
D110*
X117343Y685880D02*
D03*
Y753878D02*
D03*
D111*
X616434Y928692D02*
D03*
Y871893D02*
D03*
X485034D02*
D03*
Y928692D02*
D03*
D112*
X590734Y861692D02*
D03*
X570734D02*
D03*
X550734D02*
D03*
X530734D02*
D03*
X510734D02*
D03*
X515733Y876693D02*
D03*
X540734D02*
D03*
X560734D02*
D03*
X585733D02*
D03*
X590734Y893694D02*
D03*
X570734D02*
D03*
X550734D02*
D03*
X530734D02*
D03*
X510734D02*
D03*
X515733Y908692D02*
D03*
X540734D02*
D03*
X560734D02*
D03*
X585733D02*
D03*
D113*
X401079Y968817D02*
D03*
D114*
X370168Y912810D02*
D03*
D115*
X431788D02*
D03*
D116*
X421958Y892820D02*
D03*
X407963D02*
D03*
X393993D02*
D03*
X379997D02*
D03*
M02*
